<svg width="267" height="50" viewBox="0 0 267 50" fill="none" xmlns="http://www.w3.org/2000/svg">
<rect width="267" height="50" rx="25" fill="#0076A8"/>
<path d="M100.605 32.3281C99.4297 32.3281 98.4077 32.1538 97.5396 31.8052C96.6714 31.4565 95.9878 30.9609 95.4888 30.3184C94.9897 29.6689 94.7129 28.8999 94.6582 28.0112L94.6479 27.8472H97.6113L97.6216 27.9497C97.6694 28.3257 97.8267 28.6538 98.0933 28.9341C98.3667 29.2075 98.7222 29.4229 99.1597 29.5801C99.604 29.7373 100.113 29.8159 100.688 29.8159C101.248 29.8159 101.737 29.7373 102.154 29.5801C102.571 29.416 102.896 29.1904 103.128 28.9033C103.36 28.6094 103.477 28.2744 103.477 27.8984V27.8882C103.477 27.4028 103.278 27.0166 102.882 26.7295C102.492 26.4355 101.836 26.1929 100.913 26.0015L99.3545 25.6836C97.8506 25.3828 96.7397 24.877 96.022 24.166C95.311 23.4551 94.9556 22.5391 94.9556 21.418V21.4077C94.9556 20.4985 95.1982 19.7056 95.6836 19.0288C96.1689 18.3452 96.8354 17.8154 97.6831 17.4395C98.5308 17.0635 99.5015 16.8755 100.595 16.8755C101.744 16.8755 102.728 17.0601 103.548 17.4292C104.375 17.7915 105.021 18.2974 105.486 18.9468C105.951 19.5894 106.214 20.3311 106.276 21.1719L106.286 21.3257H103.364L103.343 21.2026C103.289 20.8335 103.142 20.5156 102.902 20.249C102.663 19.9756 102.345 19.7637 101.949 19.6133C101.559 19.4629 101.108 19.3877 100.595 19.3877C100.083 19.3877 99.6348 19.4629 99.252 19.6133C98.8691 19.7637 98.5718 19.9756 98.3599 20.249C98.1548 20.5156 98.0522 20.8301 98.0522 21.1924V21.2026C98.0522 21.6812 98.2471 22.0674 98.6367 22.3613C99.0264 22.6553 99.6519 22.8911 100.513 23.0688L102.082 23.3867C103.121 23.5986 103.969 23.8857 104.625 24.248C105.288 24.6104 105.777 25.0649 106.091 25.6118C106.413 26.1587 106.573 26.8184 106.573 27.5908V27.6011C106.573 28.5649 106.334 29.4023 105.855 30.1133C105.377 30.8174 104.69 31.3643 103.794 31.7539C102.906 32.1367 101.843 32.3281 100.605 32.3281ZM109.096 32V17.2036H118.898V19.7568H112.192V23.3252H118.519V25.7144H112.192V29.4468H118.898V32H109.096ZM121.77 32V17.2036H124.866V29.4468H131.408V32H121.77ZM133.849 32V17.2036H143.651V19.7568H136.945V23.3252H143.272V25.7144H136.945V29.4468H143.651V32H133.849ZM152.921 32.3281C151.485 32.3281 150.245 32.0171 149.199 31.395C148.153 30.7729 147.346 29.8843 146.779 28.729C146.218 27.5737 145.938 26.1997 145.938 24.6069V24.5864C145.938 22.9937 146.222 21.6196 146.789 20.4644C147.356 19.3091 148.16 18.4238 149.199 17.8086C150.245 17.1865 151.485 16.8755 152.921 16.8755C154.104 16.8755 155.16 17.1079 156.089 17.5728C157.019 18.0308 157.771 18.6631 158.345 19.4697C158.919 20.2764 159.254 21.2026 159.35 22.2485V22.3613H156.346L156.325 22.2588C156.216 21.7051 156.004 21.2231 155.689 20.813C155.382 20.396 154.992 20.0747 154.521 19.8491C154.056 19.6167 153.522 19.5005 152.921 19.5005C152.142 19.5005 151.465 19.7056 150.891 20.1157C150.316 20.5259 149.875 21.1104 149.568 21.8691C149.26 22.6279 149.106 23.5337 149.106 24.5864V24.5967C149.106 25.6494 149.26 26.5586 149.568 27.3242C149.875 28.0898 150.316 28.6777 150.891 29.0879C151.465 29.498 152.142 29.7031 152.921 29.7031C153.516 29.7031 154.049 29.5972 154.521 29.3853C154.992 29.1665 155.382 28.8589 155.689 28.4624C156.004 28.0591 156.216 27.584 156.325 27.0371L156.346 26.9346H159.36V27.0576C159.258 28.0967 158.919 29.0127 158.345 29.8057C157.778 30.5918 157.029 31.2104 156.1 31.6616C155.177 32.106 154.117 32.3281 152.921 32.3281ZM165.062 32V19.7568H160.683V17.2036H172.537V19.7568H168.158V32H165.062Z" fill="white"/>
</svg>
