<svg width="306" height="50" viewBox="0 0 306 50" fill="none" xmlns="http://www.w3.org/2000/svg">
<rect x="21" y="1" width="265" height="48" rx="24" fill="#34C759" stroke="#3BB459" stroke-width="2"/>
<path d="M107.448 31V17.6128H109.795L116.726 27.2148L114.731 26.1572H116.104V17.6128H118.794V31H116.457L109.517 21.3516L111.512 22.4185H110.139V31H107.448ZM126.188 31.2134C125.156 31.2134 124.265 31 123.517 30.5732C122.774 30.1465 122.202 29.5373 121.8 28.7456C121.398 27.9539 121.197 27.0138 121.197 25.9253V25.916C121.197 24.8337 121.398 23.8936 121.8 23.0957C122.202 22.2979 122.768 21.6825 123.498 21.2495C124.228 20.8104 125.088 20.5908 126.077 20.5908C127.067 20.5908 127.92 20.8042 128.638 21.231C129.361 21.6515 129.918 22.2453 130.308 23.0122C130.703 23.7791 130.901 24.679 130.901 25.7119V26.5469H122.552V24.8491H129.603L128.322 26.4541V25.3779C128.322 24.7656 128.229 24.2554 128.044 23.8472C127.858 23.439 127.599 23.1328 127.265 22.9287C126.937 22.7246 126.556 22.6226 126.124 22.6226C125.684 22.6226 125.298 22.7277 124.964 22.938C124.63 23.1483 124.367 23.4606 124.175 23.875C123.984 24.2832 123.888 24.7842 123.888 25.3779V26.4634C123.888 27.0386 123.98 27.5303 124.166 27.9385C124.358 28.3405 124.63 28.6497 124.982 28.8662C125.335 29.0827 125.756 29.1909 126.244 29.1909C126.634 29.1909 126.968 29.1322 127.246 29.0146C127.524 28.8971 127.747 28.758 127.914 28.5972C128.087 28.4364 128.205 28.291 128.267 28.1611L128.294 28.1055L130.818 28.0962L130.79 28.1982C130.716 28.5199 130.57 28.8569 130.354 29.2095C130.144 29.562 129.853 29.8898 129.482 30.1929C129.117 30.4959 128.662 30.7433 128.118 30.9351C127.574 31.1206 126.931 31.2134 126.188 31.2134ZM131.903 31L135.095 25.9531L131.875 20.8135H134.974L136.783 24.1997H136.941L138.75 20.8135H141.7L138.49 25.8511L141.719 31H138.722L136.811 27.6138H136.663L134.761 31H131.903ZM147.805 31.0557C146.574 31.0557 145.686 30.8361 145.142 30.397C144.598 29.9578 144.326 29.2404 144.326 28.2446V22.8545H142.776V20.8135H144.326V18.3735H147.062V20.8135H149.15V22.8545H147.062V27.6509C147.062 28.1086 147.168 28.4425 147.378 28.6528C147.588 28.8631 147.919 28.9683 148.371 28.9683C148.538 28.9683 148.677 28.9652 148.788 28.959C148.906 28.9528 149.026 28.9435 149.15 28.9312V30.9351C148.983 30.966 148.782 30.9938 148.547 31.0186C148.312 31.0433 148.064 31.0557 147.805 31.0557ZM155.895 31V29.4507L161.09 23.0029V22.8545H155.978V20.8135H164.281V22.5391L159.383 28.8013V28.959H164.393V31H155.895ZM171.109 31.2134C170.07 31.2134 169.174 31.0031 168.419 30.5825C167.671 30.1558 167.092 29.5465 166.684 28.7549C166.282 27.9632 166.081 27.0138 166.081 25.9067V25.8882C166.081 24.7935 166.285 23.8503 166.693 23.0586C167.102 22.2669 167.68 21.6577 168.428 21.231C169.183 20.8042 170.076 20.5908 171.109 20.5908C172.148 20.5908 173.042 20.8042 173.791 21.231C174.545 21.6577 175.123 22.2669 175.525 23.0586C175.934 23.8503 176.138 24.7935 176.138 25.8882V25.9067C176.138 27.0138 175.937 27.9632 175.535 28.7549C175.133 29.5465 174.554 30.1558 173.8 30.5825C173.051 31.0031 172.155 31.2134 171.109 31.2134ZM171.109 29.0889C171.592 29.0889 172 28.9652 172.334 28.7178C172.668 28.4642 172.922 28.0993 173.095 27.623C173.274 27.1468 173.364 26.5778 173.364 25.916V25.8975C173.364 25.2295 173.274 24.6605 173.095 24.1904C172.915 23.7142 172.659 23.3493 172.325 23.0957C171.991 22.8421 171.586 22.7153 171.109 22.7153C170.639 22.7153 170.234 22.8421 169.894 23.0957C169.56 23.3493 169.303 23.7142 169.124 24.1904C168.945 24.6605 168.855 25.2295 168.855 25.8975V25.916C168.855 26.584 168.945 27.1561 169.124 27.6323C169.303 28.1024 169.56 28.4642 169.894 28.7178C170.228 28.9652 170.633 29.0889 171.109 29.0889ZM178.262 31V20.8135H180.971V22.3906H181.129C181.37 21.834 181.738 21.3949 182.233 21.0732C182.728 20.7516 183.34 20.5908 184.07 20.5908C185.208 20.5908 186.074 20.9248 186.667 21.5928C187.261 22.2546 187.558 23.1947 187.558 24.4131V31H184.849V25.0254C184.849 24.3079 184.698 23.7637 184.395 23.3926C184.091 23.0215 183.621 22.8359 182.984 22.8359C182.57 22.8359 182.211 22.9318 181.908 23.1235C181.611 23.3091 181.379 23.5719 181.212 23.9121C181.052 24.2523 180.971 24.6512 180.971 25.1089V31H178.262ZM194.6 31.2134C193.567 31.2134 192.676 31 191.928 30.5732C191.186 30.1465 190.613 29.5373 190.211 28.7456C189.809 27.9539 189.608 27.0138 189.608 25.9253V25.916C189.608 24.8337 189.809 23.8936 190.211 23.0957C190.613 22.2979 191.179 21.6825 191.909 21.2495C192.639 20.8104 193.499 20.5908 194.488 20.5908C195.478 20.5908 196.331 20.8042 197.049 21.231C197.772 21.6515 198.329 22.2453 198.719 23.0122C199.115 23.7791 199.312 24.679 199.312 25.7119V26.5469H190.963V24.8491H198.014L196.733 26.4541V25.3779C196.733 24.7656 196.641 24.2554 196.455 23.8472C196.27 23.439 196.01 23.1328 195.676 22.9287C195.348 22.7246 194.968 22.6226 194.535 22.6226C194.096 22.6226 193.709 22.7277 193.375 22.938C193.041 23.1483 192.778 23.4606 192.586 23.875C192.395 24.2832 192.299 24.7842 192.299 25.3779V26.4634C192.299 27.0386 192.392 27.5303 192.577 27.9385C192.769 28.3405 193.041 28.6497 193.394 28.8662C193.746 29.0827 194.167 29.1909 194.655 29.1909C195.045 29.1909 195.379 29.1322 195.657 29.0146C195.936 28.8971 196.158 28.758 196.325 28.5972C196.498 28.4364 196.616 28.291 196.678 28.1611L196.706 28.1055L199.229 28.0962L199.201 28.1982C199.127 28.5199 198.982 28.8569 198.765 29.2095C198.555 29.562 198.264 29.8898 197.893 30.1929C197.528 30.4959 197.074 30.7433 196.529 30.9351C195.985 31.1206 195.342 31.2134 194.6 31.2134Z" fill="white"/>
</svg>
