<svg width="306" height="50" viewBox="0 0 306 50" fill="none" xmlns="http://www.w3.org/2000/svg">
<rect x="21" y="1" width="265" height="48" rx="24" fill="#14BDDC" stroke="#27B4CE" stroke-width="2"/>
<path d="M87.7339 31V17.6128H93.3003C94.3146 17.6128 95.1774 17.786 95.8887 18.1323C96.6061 18.4725 97.1535 18.9611 97.5308 19.5981C97.908 20.2352 98.0967 20.9959 98.0967 21.8804V21.8989C98.0967 22.7586 97.8833 23.5317 97.4565 24.2183C97.0298 24.8986 96.436 25.3872 95.6753 25.6841L98.4956 31H95.3135L92.8271 26.1108C92.8086 26.1108 92.7869 26.1108 92.7622 26.1108C92.7375 26.1108 92.7127 26.1108 92.688 26.1108H90.5356V31H87.7339ZM90.5356 24.0605H93.0034C93.7023 24.0605 94.2466 23.875 94.6362 23.5039C95.0321 23.1266 95.23 22.6071 95.23 21.9453V21.9268C95.23 21.2773 95.0259 20.7609 94.6177 20.3774C94.2157 19.994 93.6652 19.8022 92.9663 19.8022H90.5356V24.0605ZM104.767 31.2134C103.734 31.2134 102.844 31 102.095 30.5732C101.353 30.1465 100.781 29.5373 100.379 28.7456C99.9769 27.9539 99.7759 27.0138 99.7759 25.9253V25.916C99.7759 24.8337 99.9769 23.8936 100.379 23.0957C100.781 22.2979 101.347 21.6825 102.077 21.2495C102.806 20.8104 103.666 20.5908 104.656 20.5908C105.645 20.5908 106.499 20.8042 107.216 21.231C107.94 21.6515 108.497 22.2453 108.886 23.0122C109.282 23.7791 109.48 24.679 109.48 25.7119V26.5469H101.13V24.8491H108.181L106.901 26.4541V25.3779C106.901 24.7656 106.808 24.2554 106.623 23.8472C106.437 23.439 106.177 23.1328 105.843 22.9287C105.515 22.7246 105.135 22.6226 104.702 22.6226C104.263 22.6226 103.876 22.7277 103.542 22.938C103.208 23.1483 102.946 23.4606 102.754 23.875C102.562 24.2832 102.466 24.7842 102.466 25.3779V26.4634C102.466 27.0386 102.559 27.5303 102.745 27.9385C102.936 28.3405 103.208 28.6497 103.561 28.8662C103.914 29.0827 104.334 29.1909 104.823 29.1909C105.212 29.1909 105.546 29.1322 105.825 29.0146C106.103 28.8971 106.326 28.758 106.493 28.5972C106.666 28.4364 106.783 28.291 106.845 28.1611L106.873 28.1055L109.396 28.0962L109.369 28.1982C109.294 28.5199 109.149 28.8569 108.933 29.2095C108.722 29.562 108.432 29.8898 108.061 30.1929C107.696 30.4959 107.241 30.7433 106.697 30.9351C106.153 31.1206 105.509 31.2134 104.767 31.2134ZM115.826 31.0557C114.595 31.0557 113.707 30.8361 113.163 30.397C112.619 29.9578 112.347 29.2404 112.347 28.2446V22.8545H110.797V20.8135H112.347V18.3735H115.083V20.8135H117.171V22.8545H115.083V27.6509C115.083 28.1086 115.189 28.4425 115.399 28.6528C115.609 28.8631 115.94 28.9683 116.392 28.9683C116.559 28.9683 116.698 28.9652 116.809 28.959C116.927 28.9528 117.047 28.9435 117.171 28.9312V30.9351C117.004 30.966 116.803 30.9938 116.568 31.0186C116.333 31.0433 116.085 31.0557 115.826 31.0557ZM122.719 31.2134C121.958 31.2134 121.321 31.0649 120.808 30.7681C120.294 30.4712 119.908 30.0382 119.648 29.4692C119.388 28.894 119.258 28.2044 119.258 27.4004V20.8135H121.967V26.7881C121.967 27.4993 122.11 28.0405 122.394 28.4116C122.685 28.7827 123.149 28.9683 123.786 28.9683C124.12 28.9683 124.413 28.9157 124.667 28.8105C124.927 28.6992 125.143 28.5446 125.316 28.3467C125.49 28.1488 125.619 27.9106 125.706 27.6323C125.799 27.354 125.845 27.0417 125.845 26.6953V20.8135H128.554V31H125.845V29.4229H125.688C125.533 29.7939 125.316 30.1156 125.038 30.3877C124.76 30.6536 124.426 30.8577 124.036 31C123.646 31.1423 123.207 31.2134 122.719 31.2134ZM131.18 31V20.8135H133.889V22.4185H134.046C134.213 21.8556 134.516 21.4196 134.956 21.1104C135.395 20.8011 135.942 20.6465 136.598 20.6465C136.777 20.6465 136.953 20.6589 137.126 20.6836C137.3 20.7021 137.451 20.73 137.581 20.7671V23.1328C137.389 23.0833 137.191 23.0462 136.987 23.0215C136.783 22.9967 136.576 22.9844 136.366 22.9844C135.859 22.9844 135.419 23.0771 135.048 23.2627C134.677 23.4482 134.39 23.7142 134.186 24.0605C133.988 24.4007 133.889 24.812 133.889 25.2944V31H131.18ZM139.418 31V20.8135H142.127V22.3906H142.285C142.526 21.834 142.894 21.3949 143.389 21.0732C143.883 20.7516 144.496 20.5908 145.226 20.5908C146.364 20.5908 147.229 20.9248 147.823 21.5928C148.417 22.2546 148.714 23.1947 148.714 24.4131V31H146.005V25.0254C146.005 24.3079 145.853 23.7637 145.55 23.3926C145.247 23.0215 144.777 22.8359 144.14 22.8359C143.726 22.8359 143.367 22.9318 143.064 23.1235C142.767 23.3091 142.535 23.5719 142.368 23.9121C142.207 24.2523 142.127 24.6512 142.127 25.1089V31H139.418ZM160.283 31.0557C159.052 31.0557 158.164 30.8361 157.62 30.397C157.076 29.9578 156.804 29.2404 156.804 28.2446V22.8545H155.254V20.8135H156.804V18.3735H159.541V20.8135H161.628V22.8545H159.541V27.6509C159.541 28.1086 159.646 28.4425 159.856 28.6528C160.066 28.8631 160.397 28.9683 160.849 28.9683C161.016 28.9683 161.155 28.9652 161.266 28.959C161.384 28.9528 161.504 28.9435 161.628 28.9312V30.9351C161.461 30.966 161.26 30.9938 161.025 31.0186C160.79 31.0433 160.542 31.0557 160.283 31.0557ZM168.261 31.2134C167.222 31.2134 166.325 31.0031 165.571 30.5825C164.822 30.1558 164.244 29.5465 163.836 28.7549C163.434 27.9632 163.233 27.0138 163.233 25.9067V25.8882C163.233 24.7935 163.437 23.8503 163.845 23.0586C164.253 22.2669 164.832 21.6577 165.58 21.231C166.335 20.8042 167.228 20.5908 168.261 20.5908C169.3 20.5908 170.194 20.8042 170.942 21.231C171.697 21.6577 172.275 22.2669 172.677 23.0586C173.085 23.8503 173.29 24.7935 173.29 25.8882V25.9067C173.29 27.0138 173.089 27.9632 172.687 28.7549C172.285 29.5465 171.706 30.1558 170.952 30.5825C170.203 31.0031 169.306 31.2134 168.261 31.2134ZM168.261 29.0889C168.744 29.0889 169.152 28.9652 169.486 28.7178C169.82 28.4642 170.073 28.0993 170.247 27.623C170.426 27.1468 170.516 26.5778 170.516 25.916V25.8975C170.516 25.2295 170.426 24.6605 170.247 24.1904C170.067 23.7142 169.811 23.3493 169.477 23.0957C169.143 22.8421 168.737 22.7153 168.261 22.7153C167.791 22.7153 167.386 22.8421 167.046 23.0957C166.712 23.3493 166.455 23.7142 166.276 24.1904C166.097 24.6605 166.007 25.2295 166.007 25.8975V25.916C166.007 26.584 166.097 27.1561 166.276 27.6323C166.455 28.1024 166.712 28.4642 167.046 28.7178C167.38 28.9652 167.785 29.0889 168.261 29.0889ZM180.22 31V20.8135H182.929V22.4185H183.086C183.303 21.8371 183.659 21.3887 184.153 21.0732C184.654 20.7516 185.242 20.5908 185.916 20.5908C186.38 20.5908 186.797 20.6681 187.168 20.8228C187.546 20.9712 187.867 21.1877 188.133 21.4722C188.399 21.7505 188.6 22.0907 188.736 22.4927H188.894C189.055 22.1092 189.284 21.7752 189.581 21.4907C189.884 21.2062 190.239 20.9867 190.647 20.832C191.062 20.6712 191.504 20.5908 191.974 20.5908C192.654 20.5908 193.239 20.73 193.728 21.0083C194.222 21.2866 194.603 21.6825 194.869 22.1958C195.141 22.703 195.277 23.3091 195.277 24.0142V31H192.568V24.6914C192.568 24.277 192.506 23.9338 192.382 23.6616C192.259 23.3895 192.073 23.1854 191.826 23.0493C191.578 22.9071 191.266 22.8359 190.889 22.8359C190.524 22.8359 190.205 22.9194 189.933 23.0864C189.667 23.2472 189.46 23.473 189.312 23.7637C189.169 24.0482 189.098 24.376 189.098 24.7471V31H186.398V24.5615C186.398 24.2028 186.33 23.8936 186.194 23.6338C186.064 23.374 185.873 23.1761 185.619 23.04C185.372 22.904 185.072 22.8359 184.719 22.8359C184.373 22.8359 184.064 22.9225 183.792 23.0957C183.526 23.2689 183.315 23.5101 183.161 23.8193C183.006 24.1224 182.929 24.4688 182.929 24.8584V31H180.22ZM200.611 31.1577C199.962 31.1577 199.387 31.034 198.886 30.7866C198.385 30.533 197.992 30.1774 197.708 29.7197C197.423 29.2559 197.281 28.7178 197.281 28.1055V28.0869C197.281 27.4746 197.432 26.9489 197.735 26.5098C198.045 26.0706 198.493 25.7274 199.081 25.48C199.668 25.2264 200.386 25.0749 201.233 25.0254L205.037 24.7935V26.4541L201.641 26.6675C201.066 26.7046 200.636 26.8314 200.352 27.0479C200.067 27.2581 199.925 27.5488 199.925 27.9199V27.9385C199.925 28.3219 200.073 28.625 200.37 28.8477C200.667 29.0703 201.05 29.1816 201.521 29.1816C201.935 29.1816 202.306 29.0981 202.634 28.9312C202.962 28.7642 203.221 28.5384 203.413 28.2539C203.605 27.9694 203.701 27.6478 203.701 27.2891V24.0605C203.701 23.6152 203.552 23.272 203.255 23.0308C202.965 22.7896 202.544 22.6689 201.994 22.6689C201.505 22.6689 201.106 22.7555 200.797 22.9287C200.494 23.0957 200.29 23.3307 200.185 23.6338L200.166 23.6709H197.67L197.68 23.5874C197.748 22.9813 197.97 22.4556 198.348 22.0103C198.731 21.5649 199.244 21.2186 199.888 20.9712C200.531 20.7176 201.279 20.5908 202.133 20.5908C203.036 20.5908 203.803 20.73 204.434 21.0083C205.064 21.2804 205.544 21.6732 205.872 22.1865C206.206 22.6999 206.373 23.3184 206.373 24.042V31H203.701V29.6362H203.543C203.37 29.9517 203.138 30.2238 202.847 30.4526C202.556 30.6815 202.222 30.8577 201.845 30.9814C201.468 31.099 201.057 31.1577 200.611 31.1577ZM208.942 34.377V20.8135H211.651V22.4092H211.809C211.988 22.0381 212.223 21.7227 212.514 21.4629C212.811 21.1969 213.157 20.9959 213.553 20.8599C213.949 20.7176 214.388 20.6465 214.871 20.6465C215.718 20.6465 216.451 20.8599 217.069 21.2866C217.688 21.7072 218.164 22.3102 218.498 23.0957C218.838 23.875 219.008 24.8089 219.008 25.8975V25.916C219.008 27.0046 218.841 27.9416 218.507 28.7271C218.18 29.5125 217.706 30.1156 217.088 30.5361C216.469 30.9567 215.73 31.167 214.871 31.167C214.401 31.167 213.965 31.0959 213.562 30.9536C213.167 30.8052 212.817 30.598 212.514 30.332C212.217 30.0599 211.982 29.7352 211.809 29.3579H211.651V34.377H208.942ZM213.943 28.9219C214.425 28.9219 214.837 28.8013 215.177 28.5601C215.523 28.3188 215.789 27.9725 215.975 27.521C216.16 27.0695 216.253 26.5345 216.253 25.916V25.8975C216.253 25.2728 216.16 24.7347 215.975 24.2832C215.789 23.8317 215.523 23.4884 215.177 23.2534C214.83 23.0122 214.419 22.8916 213.943 22.8916C213.473 22.8916 213.062 23.0122 212.709 23.2534C212.363 23.4946 212.097 23.8379 211.911 24.2832C211.726 24.7285 211.633 25.2635 211.633 25.8882V25.9067C211.633 26.5252 211.726 27.0633 211.911 27.521C212.103 27.9725 212.372 28.3188 212.718 28.5601C213.065 28.8013 213.473 28.9219 213.943 28.9219Z" fill="white"/>
</svg>
