<svg width="167" height="29" viewBox="0 0 167 29" fill="none" xmlns="http://www.w3.org/2000/svg">
<rect width="167" height="29" rx="14.5" fill="#191C5E"/>
<path d="M58.118 21.271C57.2782 21.271 56.5482 21.144 55.9281 20.8901C55.3079 20.6362 54.8197 20.2798 54.4632 19.8208C54.1117 19.3569 53.9139 18.8125 53.87 18.1875L53.8626 18.0703H55.994L56.0013 18.1436C56.0306 18.4072 56.138 18.6392 56.3236 18.8394C56.514 19.0347 56.7679 19.1885 57.0853 19.3008C57.4027 19.4131 57.7664 19.4692 58.1766 19.4692C58.5721 19.4692 58.9188 19.4106 59.2166 19.2935C59.5145 19.1763 59.7464 19.0151 59.9124 18.8101C60.0833 18.6001 60.1688 18.3608 60.1688 18.0923V18.085C60.1688 17.7383 60.0272 17.46 59.744 17.25C59.4657 17.04 58.9969 16.8667 58.3377 16.73L57.2244 16.5029C56.1258 16.2783 55.3275 15.9097 54.8294 15.397C54.3314 14.8843 54.0824 14.2275 54.0824 13.4268V13.4194C54.0824 12.7651 54.2557 12.1938 54.6024 11.7056C54.9491 11.2173 55.4251 10.8389 56.0306 10.5703C56.6361 10.2969 57.3294 10.1602 58.1107 10.1602C58.931 10.1602 59.6341 10.2944 60.2201 10.563C60.8109 10.8267 61.2723 11.1904 61.6043 11.6543C61.9364 12.1133 62.1244 12.6382 62.1683 13.229L62.1756 13.3242H60.0955L60.0809 13.2363C60.0369 12.9824 59.9295 12.7603 59.7586 12.5698C59.5926 12.3794 59.368 12.2305 59.0848 12.123C58.8065 12.0107 58.4818 11.9546 58.1107 11.9546C57.7494 11.9546 57.432 12.0083 57.1585 12.1157C56.8851 12.2231 56.6727 12.3745 56.5213 12.5698C56.37 12.7603 56.2943 12.9873 56.2943 13.251V13.2583C56.2943 13.6001 56.431 13.8809 56.7044 14.1006C56.9827 14.3154 57.432 14.4863 58.0521 14.6133L59.1727 14.8403C59.9198 14.9917 60.5277 15.1968 60.9964 15.4556C61.4701 15.7144 61.8192 16.0391 62.0438 16.4297C62.2684 16.8203 62.3807 17.2915 62.3807 17.8433V17.8506C62.3807 18.5488 62.2074 19.1543 61.8607 19.667C61.5189 20.1748 61.0282 20.5703 60.3885 20.8535C59.7537 21.1318 58.9969 21.271 58.118 21.271ZM68.8993 21.271C67.9959 21.271 67.2122 21.1074 66.5482 20.7803C65.889 20.4531 65.3763 19.9966 65.0101 19.4106C64.6488 18.8247 64.4681 18.1387 64.4681 17.3525V10.4312H66.68V17.1548C66.68 17.6089 66.7655 18.0044 66.9364 18.3413C67.1121 18.6733 67.3636 18.9321 67.6908 19.1177C68.0228 19.3032 68.4256 19.396 68.8993 19.396C69.3729 19.396 69.7733 19.3032 70.1004 19.1177C70.4325 18.9321 70.6839 18.6733 70.8548 18.3413C71.0257 18.0044 71.1112 17.6089 71.1112 17.1548V10.4312H73.3231V17.3525C73.3231 18.1338 73.1424 18.8198 72.7811 19.4106C72.4246 19.9966 71.9144 20.4531 71.2503 20.7803C70.5911 21.1074 69.8075 21.271 68.8993 21.271ZM76.9925 21V19.3521H80.0687C80.7083 19.3521 81.1942 19.2202 81.5262 18.9565C81.8631 18.6929 82.0316 18.3096 82.0316 17.8066V17.792C82.0316 17.4648 81.9535 17.189 81.7972 16.9644C81.6458 16.7397 81.4188 16.5713 81.1161 16.459C80.8182 16.3418 80.452 16.2832 80.0174 16.2832H76.9925V14.8257H79.7611C80.3568 14.8257 80.8133 14.7061 81.1307 14.4668C81.4481 14.2275 81.6068 13.8906 81.6068 13.4561V13.4414C81.6068 13.0117 81.4603 12.6772 81.1673 12.438C80.8792 12.1938 80.4715 12.0718 79.9442 12.0718H76.9925V10.4312H80.5081C81.1966 10.4312 81.7826 10.5386 82.266 10.7534C82.7542 10.9634 83.1278 11.2661 83.3866 11.6616C83.6502 12.0522 83.7821 12.5186 83.7821 13.0605V13.0752C83.7821 13.4463 83.6966 13.793 83.5257 14.1152C83.3597 14.4375 83.1327 14.7061 82.8446 14.9209C82.5565 15.1357 82.2318 15.27 81.8704 15.3237V15.4556C82.3392 15.4897 82.7542 15.6216 83.1156 15.8511C83.4818 16.0806 83.7674 16.3784 83.9725 16.7446C84.1825 17.1108 84.2874 17.5186 84.2874 17.9678V17.9824C84.2874 18.5977 84.1385 19.1323 83.8407 19.5864C83.5477 20.0356 83.1278 20.3848 82.5809 20.6338C82.0389 20.8779 81.3895 21 80.6327 21H76.9925ZM75.8866 21V10.4312H78.0985V21H75.8866ZM86.2869 21V10.4312H88.8211L91.7435 18.1655H91.8753L94.7904 10.4312H97.3245V21H95.3543V13.8076H94.263L96.3724 10.7241L92.4979 21H91.1136L87.2464 10.7241L89.3485 13.8076H88.2572V21H86.2869ZM99.8953 21V10.4312H102.107V21H99.8953ZM107.234 21V12.2549H104.063V10.4312H112.618V12.2549H109.446V21H107.234Z" fill="white"/>
</svg>
