<svg width="306" height="50" viewBox="0 0 306 50" fill="none" xmlns="http://www.w3.org/2000/svg">
<rect x="21" y="1" width="265" height="48" rx="24" fill="#34C759" stroke="#3BB459" stroke-width="2"/>
<path d="M113.015 31V19.9229H109.007V17.6128H119.815V19.9229H115.816V31H113.015ZM120.873 31V20.8135H123.582V22.4185H123.739C123.906 21.8556 124.209 21.4196 124.648 21.1104C125.088 20.8011 125.635 20.6465 126.291 20.6465C126.47 20.6465 126.646 20.6589 126.819 20.6836C126.993 20.7021 127.144 20.73 127.274 20.7671V23.1328C127.082 23.0833 126.884 23.0462 126.68 23.0215C126.476 22.9967 126.269 22.9844 126.059 22.9844C125.551 22.9844 125.112 23.0771 124.741 23.2627C124.37 23.4482 124.083 23.7142 123.878 24.0605C123.681 24.4007 123.582 24.812 123.582 25.2944V31H120.873ZM130.475 34.5718C130.308 34.5718 130.134 34.5687 129.955 34.5625C129.782 34.5563 129.615 34.547 129.454 34.5347V32.5029C129.553 32.5091 129.664 32.5153 129.788 32.5215C129.918 32.5277 130.048 32.5308 130.178 32.5308C130.654 32.5308 131.031 32.438 131.31 32.2524C131.594 32.0669 131.783 31.7793 131.875 31.3896L131.968 31L128.396 20.8135H131.365L133.796 29.5806L133.193 28.5508H133.972L133.406 29.5806L135.828 20.8135H138.685L135.206 31.0093C134.909 31.8999 134.55 32.605 134.13 33.1245C133.715 33.644 133.208 34.0151 132.608 34.2378C132.015 34.4604 131.303 34.5718 130.475 34.5718ZM144.595 31L149.243 17.6128H151.636V20.2847H150.811L147.536 31H144.595ZM147.081 27.7529L147.768 25.6562H153.965L154.651 27.7529H147.081ZM154.243 31L150.968 20.2847V17.6128H152.536L157.193 31H154.243ZM163.112 34.5811C162.172 34.5811 161.365 34.4574 160.691 34.21C160.023 33.9688 159.497 33.6255 159.114 33.1802C158.73 32.741 158.498 32.237 158.418 31.668V31.6216H161.09L161.108 31.6587C161.189 31.9494 161.402 32.1875 161.749 32.373C162.095 32.5586 162.568 32.6514 163.168 32.6514C163.892 32.6514 164.451 32.4875 164.847 32.1597C165.243 31.8319 165.441 31.3742 165.441 30.7866V28.9219H165.283C165.104 29.2744 164.863 29.5775 164.56 29.8311C164.263 30.0785 163.916 30.2671 163.521 30.397C163.131 30.5207 162.698 30.5825 162.222 30.5825C161.374 30.5825 160.638 30.3784 160.014 29.9702C159.395 29.5558 158.919 28.9837 158.585 28.2539C158.251 27.5179 158.084 26.6613 158.084 25.6841V25.6748C158.084 24.6667 158.251 23.7853 158.585 23.0308C158.925 22.2762 159.408 21.6917 160.032 21.2773C160.657 20.8568 161.402 20.6465 162.268 20.6465C162.738 20.6465 163.168 20.7207 163.558 20.8691C163.953 21.0114 164.3 21.2217 164.597 21.5C164.894 21.7721 165.135 22.0999 165.32 22.4834H165.432V20.8135H168.141V30.6846C168.141 31.4824 167.937 32.172 167.528 32.7534C167.12 33.3348 166.539 33.7832 165.784 34.0986C165.036 34.4202 164.145 34.5811 163.112 34.5811ZM163.14 28.5137C163.629 28.5137 164.046 28.3962 164.393 28.1611C164.739 27.9199 165.005 27.589 165.19 27.1685C165.376 26.7479 165.469 26.2562 165.469 25.6934V25.6748C165.469 25.112 165.376 24.6172 165.19 24.1904C165.005 23.7637 164.739 23.4328 164.393 23.1978C164.046 22.9627 163.629 22.8452 163.14 22.8452C162.664 22.8452 162.253 22.9627 161.906 23.1978C161.566 23.4328 161.306 23.7637 161.127 24.1904C160.948 24.611 160.858 25.1027 160.858 25.6655V25.6841C160.858 26.2469 160.948 26.7417 161.127 27.1685C161.306 27.589 161.566 27.9199 161.906 28.1611C162.253 28.3962 162.664 28.5137 163.14 28.5137ZM173.568 31.1577C172.918 31.1577 172.343 31.034 171.842 30.7866C171.341 30.533 170.949 30.1774 170.664 29.7197C170.38 29.2559 170.237 28.7178 170.237 28.1055V28.0869C170.237 27.4746 170.389 26.9489 170.692 26.5098C171.001 26.0706 171.45 25.7274 172.037 25.48C172.625 25.2264 173.342 25.0749 174.189 25.0254L177.993 24.7935V26.4541L174.598 26.6675C174.022 26.7046 173.593 26.8314 173.308 27.0479C173.024 27.2581 172.881 27.5488 172.881 27.9199V27.9385C172.881 28.3219 173.03 28.625 173.327 28.8477C173.624 29.0703 174.007 29.1816 174.477 29.1816C174.891 29.1816 175.263 29.0981 175.59 28.9312C175.918 28.7642 176.178 28.5384 176.37 28.2539C176.561 27.9694 176.657 27.6478 176.657 27.2891V24.0605C176.657 23.6152 176.509 23.272 176.212 23.0308C175.921 22.7896 175.501 22.6689 174.95 22.6689C174.462 22.6689 174.063 22.7555 173.753 22.9287C173.45 23.0957 173.246 23.3307 173.141 23.6338L173.123 23.6709H170.627L170.636 23.5874C170.704 22.9813 170.927 22.4556 171.304 22.0103C171.688 21.5649 172.201 21.2186 172.844 20.9712C173.487 20.7176 174.236 20.5908 175.089 20.5908C175.992 20.5908 176.759 20.73 177.39 21.0083C178.021 21.2804 178.5 21.6732 178.828 22.1865C179.162 22.6999 179.329 23.3184 179.329 24.042V31H176.657V29.6362H176.5C176.326 29.9517 176.094 30.2238 175.804 30.4526C175.513 30.6815 175.179 30.8577 174.802 30.9814C174.424 31.099 174.013 31.1577 173.568 31.1577ZM181.927 31V20.8135H184.636V31H181.927ZM183.281 19.2642C182.867 19.2642 182.508 19.1188 182.205 18.8281C181.908 18.5374 181.76 18.1849 181.76 17.7705C181.76 17.3561 181.908 17.0036 182.205 16.7129C182.508 16.4222 182.867 16.2769 183.281 16.2769C183.702 16.2769 184.061 16.4222 184.357 16.7129C184.654 17.0036 184.803 17.3561 184.803 17.7705C184.803 18.1849 184.654 18.5374 184.357 18.8281C184.061 19.1188 183.702 19.2642 183.281 19.2642ZM187.28 31V20.8135H189.989V22.3906H190.146C190.388 21.834 190.756 21.3949 191.25 21.0732C191.745 20.7516 192.358 20.5908 193.087 20.5908C194.225 20.5908 195.091 20.9248 195.685 21.5928C196.279 22.2546 196.576 23.1947 196.576 24.4131V31H193.867V25.0254C193.867 24.3079 193.715 23.7637 193.412 23.3926C193.109 23.0215 192.639 22.8359 192.002 22.8359C191.588 22.8359 191.229 22.9318 190.926 23.1235C190.629 23.3091 190.397 23.5719 190.23 23.9121C190.069 24.2523 189.989 24.6512 189.989 25.1089V31H187.28Z" fill="white"/>
</svg>
