<svg width="267" height="50" viewBox="0 0 267 50" fill="none" xmlns="http://www.w3.org/2000/svg">
<rect width="267" height="50" rx="25" fill="#191C5E"/>
<path d="M99.498 32.3281C98.3223 32.3281 97.3003 32.1538 96.4321 31.8052C95.564 31.4565 94.8804 30.9609 94.3813 30.3184C93.8823 29.6689 93.6055 28.8999 93.5508 28.0112L93.5405 27.8472H96.5039L96.5142 27.9497C96.562 28.3257 96.7192 28.6538 96.9858 28.9341C97.2593 29.2075 97.6147 29.4229 98.0522 29.5801C98.4966 29.7373 99.0059 29.8159 99.5801 29.8159C100.141 29.8159 100.629 29.7373 101.046 29.5801C101.463 29.416 101.788 29.1904 102.021 28.9033C102.253 28.6094 102.369 28.2744 102.369 27.8984V27.8882C102.369 27.4028 102.171 27.0166 101.774 26.7295C101.385 26.4355 100.729 26.1929 99.8057 26.0015L98.2471 25.6836C96.7432 25.3828 95.6323 24.877 94.9146 24.166C94.2036 23.4551 93.8481 22.5391 93.8481 21.418V21.4077C93.8481 20.4985 94.0908 19.7056 94.5762 19.0288C95.0615 18.3452 95.728 17.8154 96.5757 17.4395C97.4233 17.0635 98.394 16.8755 99.4878 16.8755C100.636 16.8755 101.621 17.0601 102.441 17.4292C103.268 17.7915 103.914 18.2974 104.379 18.9468C104.844 19.5894 105.107 20.3311 105.168 21.1719L105.179 21.3257H102.256L102.236 21.2026C102.181 20.8335 102.034 20.5156 101.795 20.249C101.556 19.9756 101.238 19.7637 100.841 19.6133C100.452 19.4629 100 19.3877 99.4878 19.3877C98.9751 19.3877 98.5273 19.4629 98.1445 19.6133C97.7617 19.7637 97.4644 19.9756 97.2524 20.249C97.0474 20.5156 96.9448 20.8301 96.9448 21.1924V21.2026C96.9448 21.6812 97.1396 22.0674 97.5293 22.3613C97.9189 22.6553 98.5444 22.8911 99.4058 23.0688L100.975 23.3867C102.014 23.5986 102.861 23.8857 103.518 24.248C104.181 24.6104 104.669 25.0649 104.984 25.6118C105.305 26.1587 105.466 26.8184 105.466 27.5908V27.6011C105.466 28.5649 105.227 29.4023 104.748 30.1133C104.27 30.8174 103.583 31.3643 102.687 31.7539C101.798 32.1367 100.735 32.3281 99.498 32.3281ZM114.182 32.3281C112.917 32.3281 111.82 32.1025 110.89 31.6514C109.967 31.1934 109.25 30.5542 108.737 29.7339C108.231 28.9067 107.978 27.9463 107.978 26.8525V17.2036H111.075V26.5757C111.075 27.2114 111.194 27.7651 111.434 28.2368C111.68 28.7017 112.032 29.064 112.49 29.3237C112.955 29.5767 113.519 29.7031 114.182 29.7031C114.845 29.7031 115.405 29.5767 115.863 29.3237C116.328 29.064 116.68 28.7017 116.919 28.2368C117.159 27.7651 117.278 27.2114 117.278 26.5757V17.2036H120.375V26.8525C120.375 27.9463 120.122 28.9033 119.616 29.7236C119.117 30.5439 118.403 31.1831 117.473 31.6411C116.55 32.0991 115.453 32.3281 114.182 32.3281ZM125.082 32V29.6929H129.347C130.243 29.6929 130.923 29.5117 131.388 29.1494C131.859 28.7803 132.095 28.2505 132.095 27.5601V27.5396C132.095 27.0815 131.986 26.6953 131.767 26.3809C131.555 26.0664 131.237 25.8306 130.813 25.6733C130.39 25.5093 129.87 25.4272 129.255 25.4272H125.082V23.3662H128.896C129.744 23.3662 130.39 23.1987 130.834 22.8638C131.285 22.522 131.511 22.04 131.511 21.418V21.3975C131.511 20.8027 131.306 20.3379 130.896 20.0029C130.492 19.668 129.925 19.5005 129.193 19.5005H125.082V17.2036H129.993C130.943 17.2036 131.757 17.354 132.434 17.6548C133.117 17.9556 133.64 18.3828 134.002 18.9365C134.372 19.4834 134.556 20.1362 134.556 20.895V20.9155C134.556 21.4487 134.433 21.9443 134.187 22.4023C133.948 22.8535 133.623 23.2295 133.213 23.5303C132.803 23.8311 132.334 24.019 131.808 24.0942V24.2378C132.478 24.2856 133.073 24.4702 133.592 24.7915C134.112 25.106 134.519 25.5195 134.812 26.0322C135.113 26.5449 135.264 27.1226 135.264 27.7651V27.7856C135.264 28.647 135.055 29.3921 134.638 30.021C134.221 30.6499 133.63 31.1387 132.864 31.4873C132.105 31.8291 131.2 32 130.147 32H125.082ZM123.533 32V17.2036H126.63V32H123.533ZM137.663 32V17.2036H141.221L145.354 27.96H145.487L149.619 17.2036H153.177V32H150.419V21.9512H148.932L151.937 17.6138L146.389 32H144.451L138.904 17.6138L141.908 21.9512H140.421V32H137.663ZM156.346 32V17.2036H159.442V32H156.346ZM166.169 32V19.7568H161.791V17.2036H173.644V19.7568H169.266V32H166.169Z" fill="white"/>
</svg>
