<svg width="354" height="354" viewBox="0 0 354 354" fill="none" xmlns="http://www.w3.org/2000/svg">
<mask id="mask0_264_1990" style="mask-type:luminance" maskUnits="userSpaceOnUse" x="10" y="90" width="330" height="182">
<path d="M10.7969 90.624H339.84V271.511H10.7969V90.624Z" fill="white"/>
</mask>
<g mask="url(#mask0_264_1990)">
<path d="M299.491 91.0264L50.5074 97.7192C28.611 97.7192 10.8594 115.489 10.8594 137.408V184.984C10.8594 206.902 28.611 224.669 50.5074 224.669H75.4312C72.1751 240.514 62.8162 259.309 38.464 271.518C38.464 271.518 89.5764 266.127 117.045 224.669H292.806C314.702 224.669 332.454 206.899 332.454 184.984L339.139 130.715C339.139 108.796 321.387 91.0264 299.491 91.0264Z" fill="black"/>
</g>
<path d="M302.888 84.0459L62.127 90.5175C40.9534 90.5175 23.7881 107.698 23.7881 128.893V174.895C23.7881 196.091 40.9534 213.271 62.127 213.271H86.2285C83.0831 228.592 74.0303 246.768 50.4856 258.575C50.4856 258.575 99.9055 253.361 126.467 213.271H296.423C317.597 213.271 334.762 196.091 334.762 174.895L341.227 122.422C341.227 101.226 324.061 84.0459 302.888 84.0459Z" fill="white"/>
<mask id="mask1_264_1990" style="mask-type:luminance" maskUnits="userSpaceOnUse" x="21" y="82" width="322" height="180">
<path d="M21.7119 82.4746H342.849V261.488H21.7119V82.4746Z" fill="white"/>
</mask>
<g mask="url(#mask1_264_1990)">
<path d="M42.0892 261.038L49.785 257.178C68.2852 247.9 79.8824 233.662 84.2852 214.838H62.1307C40.1274 214.838 22.2246 196.92 22.2246 174.895V128.893C22.2246 106.875 40.1127 88.9611 62.1086 88.9501L302.866 82.4785H302.888C324.891 82.4785 342.794 100.396 342.794 122.422V122.517L342.779 122.61L336.326 174.994C336.274 196.972 318.394 214.838 296.423 214.838H127.304C121.212 223.846 113.483 231.815 104.316 238.526C96.808 244.024 88.3231 248.693 79.1006 252.41C63.4029 258.73 51.1641 260.076 50.6515 260.131L42.0892 261.035V261.038ZM62.1307 92.0845C41.8532 92.0845 25.3553 108.597 25.3553 128.893V174.898C25.3553 195.194 41.8532 211.707 62.1307 211.707H88.146L87.7626 213.588C85.8967 222.677 82.3714 230.941 77.2864 238.146C72.5664 244.835 66.493 250.614 59.166 255.404C64.0962 254.272 70.7152 252.421 78.0239 249.471C92.0917 243.792 111.687 232.752 125.165 212.411L125.629 211.707H296.423C316.701 211.707 333.199 195.194 333.199 174.898V174.802L333.21 174.707L339.663 122.326C339.611 102.081 323.147 85.624 302.91 85.6129L62.1529 92.0845H62.1307Z" fill="black"/>
</g>
<path d="M120.652 210.895C112.816 224.982 99.3121 235.863 84.352 241.605L84.2598 241.417C91.019 237.165 97.5938 232.773 103.704 227.648C109.825 222.559 115.316 216.873 120.478 210.777L120.652 210.895Z" fill="black"/>
<path d="M243.039 207.116C229.167 208.219 215.25 208.307 201.344 207.927C196.713 207.776 192.078 207.555 187.446 207.116V206.906C201.319 205.704 215.235 205.744 229.141 206.124C233.772 206.294 238.408 206.497 243.039 206.906V207.116Z" fill="black"/>
<path d="M328.424 178.353C328.951 186.13 324.744 194.317 318.242 198.561L318.099 198.41C321.558 193.885 324.478 189.106 326.421 183.759C327.081 182 327.635 180.197 328.217 178.335L328.424 178.353Z" fill="black"/>
<path d="M285 90.6867C290.948 89.9049 296.925 89.5583 302.91 89.3223C311.296 89.2228 319.795 92.8218 325.216 99.238L325.072 99.3892C319.231 94.7909 312.243 91.8372 304.85 91.3763C304.267 91.3246 303.522 91.3246 302.936 91.2951C300.517 91.3357 298.054 91.3505 295.638 91.321C292.098 91.2767 288.555 91.1771 285.004 90.8932L285 90.683V90.6867Z" fill="black"/>
<path d="M60.0545 96.7414C69.6162 95.7089 79.2073 95.4507 88.8133 95.4434C92.014 95.4544 95.2111 95.5134 98.4155 95.7015L98.4192 95.9117C88.8649 96.911 79.259 97.2023 69.6567 97.2023C66.4597 97.1949 63.2515 97.1249 60.0655 96.9515L60.0508 96.7414H60.0545Z" fill="black"/>
<path d="M31.325 184.246C29.8058 180.503 29.4112 176.3 29.4075 172.262C29.3596 169.909 29.3227 167.343 29.319 165.008C29.2969 158.581 29.4075 152.069 29.9422 145.66H30.1524C30.8161 153.688 30.842 161.797 30.7313 169.843C30.7166 171.045 30.665 173.479 30.6244 174.677C30.5101 177.856 30.8272 181.038 31.5241 184.187L31.325 184.246Z" fill="black"/>
<path d="M61.9434 129.076H62.4194V132H54.0044V131.524L54.9394 131.405C55.1208 131.382 55.2284 131.337 55.2624 131.269C55.2964 131.19 55.3134 130.957 55.3134 130.572V121.868C55.3134 121.483 55.2964 121.256 55.2624 121.188C55.2284 121.109 55.1208 121.058 54.9394 121.035L54.0044 120.916V120.44H62.2494V123.364H61.7734L61.2294 121.477C61.1954 121.341 61.1558 121.245 61.1104 121.188C61.0764 121.12 61.0028 121.08 60.8894 121.069C60.7761 121.046 60.5834 121.035 60.3114 121.035H57.3534V125.863H59.2914C59.5634 125.863 59.7561 125.857 59.8694 125.846C59.9828 125.823 60.0564 125.784 60.0904 125.727C60.1358 125.659 60.1754 125.557 60.2094 125.421L60.5834 124.044H61.0594V128.277H60.5834L60.2094 126.9C60.1754 126.764 60.1358 126.668 60.0904 126.611C60.0564 126.543 59.9828 126.503 59.8694 126.492C59.7561 126.469 59.5634 126.458 59.2914 126.458H57.3534V131.405H60.4814C60.7534 131.405 60.9461 131.399 61.0594 131.388C61.1728 131.365 61.2464 131.326 61.2804 131.269C61.3258 131.201 61.3654 131.099 61.3994 130.963L61.9434 129.076ZM67.0016 131.524V132H63.6016V131.524L64.5366 131.405C64.6499 131.382 64.7349 131.36 64.7916 131.337C64.8596 131.303 64.9389 131.229 65.0296 131.116C65.1203 131.003 65.2506 130.821 65.4206 130.572L67.2396 127.92L65.4206 124.809C65.2733 124.548 65.1599 124.367 65.0806 124.265C65.0013 124.152 64.9276 124.078 64.8596 124.044C64.7916 124.01 64.7009 123.987 64.5876 123.976L63.6526 123.857V123.381H68.3616V123.857L67.4266 123.976C67.2453 123.999 67.1603 124.044 67.1716 124.112C67.1829 124.18 67.3019 124.412 67.5286 124.809L68.6676 126.747L69.9766 124.809C70.2373 124.424 70.3676 124.197 70.3676 124.129C70.3789 124.05 70.2939 123.999 70.1126 123.976L69.1776 123.857V123.381H72.5776V123.857L71.6426 123.976C71.5293 123.987 71.4386 124.01 71.3706 124.044C71.3139 124.078 71.2403 124.152 71.1496 124.265C71.0703 124.367 70.9399 124.548 70.7586 124.809L69.0246 127.359L70.8946 130.572C71.0533 130.833 71.1666 131.02 71.2346 131.133C71.3139 131.235 71.3876 131.303 71.4556 131.337C71.5236 131.36 71.6143 131.382 71.7276 131.405L72.6626 131.524V132H67.9536V131.524L68.8886 131.405C69.0699 131.382 69.1549 131.337 69.1436 131.269C69.1323 131.19 69.0133 130.957 68.7866 130.572L67.5966 128.515L66.2026 130.572C65.9419 130.957 65.8059 131.19 65.7946 131.269C65.7946 131.337 65.8853 131.382 66.0666 131.405L67.0016 131.524ZM77.2711 123.806C76.7271 123.806 76.3191 124.067 76.0471 124.588C75.7864 125.098 75.6561 125.959 75.6561 127.172V128.192C75.6561 129.393 75.8091 130.26 76.1151 130.793C76.4211 131.314 76.9197 131.575 77.6111 131.575C78.1211 131.575 78.5347 131.433 78.8521 131.15C79.1807 130.855 79.3677 130.362 79.4131 129.671L80.5011 129.977C80.2971 130.77 79.9231 131.337 79.3791 131.677C78.8464 132.006 78.2174 132.17 77.4921 132.17C76.1887 132.17 75.2084 131.779 74.5511 130.997C73.8937 130.204 73.5651 129.155 73.5651 127.852V127.512C73.5651 126.209 73.8824 125.166 74.5171 124.384C75.1517 123.602 76.0697 123.211 77.2711 123.211C78.0644 123.211 78.7104 123.37 79.2091 123.687C79.7191 123.993 80.0761 124.401 80.2801 124.911C80.4954 125.41 80.5521 125.948 80.4501 126.526L78.5801 126.798C78.7047 125.846 78.6537 125.109 78.4271 124.588C78.2004 124.067 77.8151 123.806 77.2711 123.806ZM89.2719 129.977C89.0679 130.77 88.6882 131.337 88.1329 131.677C87.5775 132.006 86.9315 132.17 86.1949 132.17C84.8349 132.17 83.8149 131.779 83.1349 130.997C82.4549 130.204 82.1149 129.155 82.1149 127.852V127.512C82.1149 126.209 82.4322 125.166 83.0669 124.384C83.7129 123.602 84.6422 123.211 85.8549 123.211C86.5349 123.211 87.1355 123.347 87.6569 123.619C88.1895 123.88 88.6032 124.259 88.8979 124.758C89.2039 125.257 89.3569 125.863 89.3569 126.577C89.3569 126.747 89.3455 126.928 89.3229 127.121C89.3115 127.314 89.2832 127.506 89.2379 127.699H84.2059V128.192C84.2059 129.393 84.3759 130.26 84.7159 130.793C85.0559 131.314 85.6055 131.575 86.3649 131.575C86.8522 131.575 87.2659 131.433 87.6059 131.15C87.9459 130.855 88.1385 130.362 88.1839 129.671L89.2719 129.977ZM85.8549 123.806C85.2995 123.806 84.8859 124.061 84.6139 124.571C84.3419 125.081 84.2059 125.925 84.2059 127.104H87.2829C87.3282 126.877 87.3565 126.668 87.3679 126.475C87.3905 126.271 87.4019 126.084 87.4019 125.914C87.4019 125.189 87.2602 124.656 86.9769 124.316C86.6935 123.976 86.3195 123.806 85.8549 123.806ZM90.4839 119.896V119.42H93.7479V130.572C93.7479 130.957 93.7649 131.19 93.7989 131.269C93.8329 131.337 93.9406 131.382 94.1219 131.405L95.0569 131.524V132H90.4839V131.524L91.4189 131.405C91.6002 131.382 91.7079 131.337 91.7419 131.269C91.7759 131.19 91.7929 130.957 91.7929 130.572V120.848C91.7929 120.463 91.7759 120.236 91.7419 120.168C91.7079 120.089 91.6002 120.038 91.4189 120.015L90.4839 119.896ZM95.5972 119.896V119.42H98.8612V130.572C98.8612 130.957 98.8782 131.19 98.9122 131.269C98.9462 131.337 99.0539 131.382 99.2352 131.405L100.17 131.524V132H95.5972V131.524L96.5322 131.405C96.7135 131.382 96.8212 131.337 96.8552 131.269C96.8892 131.19 96.9062 130.957 96.9062 130.572V120.848C96.9062 120.463 96.8892 120.236 96.8552 120.168C96.8212 120.089 96.7135 120.038 96.5322 120.015L95.5972 119.896ZM108.496 129.977C108.292 130.77 107.913 131.337 107.357 131.677C106.802 132.006 106.156 132.17 105.419 132.17C104.059 132.17 103.039 131.779 102.359 130.997C101.679 130.204 101.339 129.155 101.339 127.852V127.512C101.339 126.209 101.657 125.166 102.291 124.384C102.937 123.602 103.867 123.211 105.079 123.211C105.759 123.211 106.36 123.347 106.881 123.619C107.414 123.88 107.828 124.259 108.122 124.758C108.428 125.257 108.581 125.863 108.581 126.577C108.581 126.747 108.57 126.928 108.547 127.121C108.536 127.314 108.508 127.506 108.462 127.699H103.43V128.192C103.43 129.393 103.6 130.26 103.94 130.793C104.28 131.314 104.83 131.575 105.589 131.575C106.077 131.575 106.49 131.433 106.83 131.15C107.17 130.855 107.363 130.362 107.408 129.671L108.496 129.977ZM105.079 123.806C104.524 123.806 104.11 124.061 103.838 124.571C103.566 125.081 103.43 125.925 103.43 127.104H106.507C106.553 126.877 106.581 126.668 106.592 126.475C106.615 126.271 106.626 126.084 106.626 125.914C106.626 125.189 106.485 124.656 106.201 124.316C105.918 123.976 105.544 123.806 105.079 123.806ZM119.841 131.524V132H115.268V131.524L116.203 131.405C116.384 131.382 116.492 131.337 116.526 131.269C116.56 131.19 116.577 130.957 116.577 130.572V126.288C116.577 125.506 116.458 124.939 116.22 124.588C115.993 124.225 115.653 124.044 115.2 124.044C115.007 124.044 114.78 124.095 114.52 124.197C114.27 124.288 114.015 124.458 113.755 124.707C113.505 124.956 113.284 125.325 113.092 125.812V130.572C113.092 130.957 113.109 131.19 113.143 131.269C113.177 131.337 113.284 131.382 113.466 131.405L114.401 131.524V132H109.828V131.524L110.763 131.405C110.944 131.382 111.052 131.337 111.086 131.269C111.12 131.19 111.137 130.957 111.137 130.572V124.809C111.137 124.424 111.12 124.197 111.086 124.129C111.052 124.05 110.944 123.999 110.763 123.976L109.828 123.857V123.381H112.99V124.877C113.318 124.299 113.738 123.88 114.248 123.619C114.769 123.347 115.29 123.211 115.812 123.211C116.65 123.211 117.313 123.477 117.801 124.01C118.288 124.543 118.532 125.296 118.532 126.271V130.572C118.532 130.957 118.549 131.19 118.583 131.269C118.617 131.337 118.724 131.382 118.906 131.405L119.841 131.524ZM126.471 130.232C126.324 130.923 126.041 131.422 125.621 131.728C125.213 132.023 124.715 132.17 124.125 132.17C123.525 132.17 123.032 132.04 122.646 131.779C122.261 131.507 121.978 131.15 121.796 130.708C121.615 130.266 121.524 129.796 121.524 129.297V124.809C121.524 124.424 121.507 124.197 121.473 124.129C121.439 124.05 121.332 123.999 121.15 123.976L120.215 123.857V123.381H121.524V121.409L123.479 121.018V123.381H126.199V123.976H123.479V129.637C123.479 130.362 123.57 130.867 123.751 131.15C123.933 131.422 124.165 131.558 124.448 131.558C124.743 131.558 124.97 131.445 125.128 131.218C125.298 130.991 125.406 130.578 125.451 129.977L126.471 130.232ZM142.692 124.809L140.839 132H139.292L137.252 125.166L135.195 132H133.784L131.948 124.809C131.88 124.548 131.823 124.367 131.778 124.265C131.744 124.152 131.699 124.078 131.642 124.044C131.585 124.01 131.5 123.987 131.387 123.976L130.452 123.857V123.381H134.974V123.857L134.039 123.976C133.858 123.999 133.756 124.05 133.733 124.129C133.71 124.197 133.75 124.424 133.852 124.809L135.178 129.926L137.133 123.381H138.629L140.652 130.215L142.029 124.809C142.131 124.424 142.171 124.197 142.148 124.129C142.125 124.05 142.023 123.999 141.842 123.976L140.907 123.857V123.381H144.188V123.857L143.253 123.976C143.14 123.987 143.055 124.01 142.998 124.044C142.941 124.078 142.89 124.152 142.845 124.265C142.811 124.367 142.76 124.548 142.692 124.809ZM152.339 127.512V127.852C152.339 129.155 151.999 130.204 151.319 130.997C150.65 131.779 149.693 132.17 148.446 132.17C147.199 132.17 146.236 131.779 145.556 130.997C144.887 130.204 144.553 129.155 144.553 127.852V127.512C144.553 126.209 144.887 125.166 145.556 124.384C146.236 123.602 147.199 123.211 148.446 123.211C149.693 123.211 150.65 123.602 151.319 124.384C151.999 125.166 152.339 126.209 152.339 127.512ZM150.248 127.172C150.248 125.959 150.095 125.098 149.789 124.588C149.483 124.067 149.035 123.806 148.446 123.806C147.868 123.806 147.42 124.067 147.103 124.588C146.797 125.098 146.644 125.959 146.644 127.172V128.192C146.644 129.393 146.797 130.26 147.103 130.793C147.42 131.314 147.868 131.575 148.446 131.575C149.035 131.575 149.483 131.314 149.789 130.793C150.095 130.26 150.248 129.393 150.248 128.192V127.172ZM153.606 123.857V123.381H156.768V124.775C157.459 123.732 158.281 123.211 159.233 123.211C159.584 123.211 159.924 123.324 160.253 123.551C160.582 123.766 160.854 124.174 161.069 124.775L159.556 125.591C159.397 125.126 159.21 124.815 158.995 124.656C158.791 124.486 158.57 124.401 158.332 124.401C158.083 124.401 157.839 124.48 157.601 124.639C157.363 124.798 157.119 125.092 156.87 125.523V130.572C156.87 130.957 156.887 131.19 156.921 131.269C156.955 131.337 157.063 131.382 157.244 131.405L158.519 131.524V132H153.606V131.524L154.541 131.405C154.722 131.382 154.83 131.337 154.864 131.269C154.898 131.19 154.915 130.957 154.915 130.572V124.809C154.915 124.424 154.898 124.197 154.864 124.129C154.83 124.05 154.722 123.999 154.541 123.976L153.606 123.857ZM161.007 119.896V119.42H164.271V127.665L167.263 124.809C167.66 124.435 167.87 124.208 167.892 124.129C167.926 124.05 167.847 123.999 167.654 123.976L166.719 123.857V123.381H170.204V123.857L169.269 123.976C169.167 123.987 169.082 124.01 169.014 124.044C168.946 124.078 168.85 124.152 168.725 124.265C168.601 124.367 168.402 124.548 168.13 124.809L166.498 126.373L168.912 130.572C169.071 130.833 169.19 131.02 169.269 131.133C169.349 131.235 169.422 131.303 169.49 131.337C169.57 131.36 169.666 131.382 169.779 131.405L170.714 131.524V132H167.467L165.104 127.699L164.271 128.498V130.572C164.271 130.957 164.288 131.19 164.322 131.269C164.356 131.337 164.464 131.382 164.645 131.405L165.58 131.524V132H161.007V131.524L161.942 131.405C162.124 131.382 162.231 131.337 162.265 131.269C162.299 131.19 162.316 130.957 162.316 130.572V120.848C162.316 120.463 162.299 120.236 162.265 120.168C162.231 120.089 162.124 120.038 161.942 120.015L161.007 119.896ZM174.061 131.252C174.061 131.739 173.886 132.323 173.534 133.003C173.183 133.683 172.69 134.403 172.055 135.162L171.664 134.822C172.129 134.255 172.458 133.757 172.65 133.326C172.843 132.907 172.945 132.521 172.956 132.17H172.905C172.565 132.17 172.288 132.068 172.072 131.864C171.868 131.649 171.766 131.365 171.766 131.014C171.766 130.674 171.868 130.402 172.072 130.198C172.288 129.983 172.565 129.875 172.905 129.875C173.234 129.875 173.506 129.994 173.721 130.232C173.948 130.47 174.061 130.81 174.061 131.252ZM191.336 129.076H191.812V132H183.397V131.524L184.332 131.405C184.513 131.382 184.621 131.337 184.655 131.269C184.689 131.19 184.706 130.957 184.706 130.572V121.868C184.706 121.483 184.689 121.256 184.655 121.188C184.621 121.109 184.513 121.058 184.332 121.035L183.397 120.916V120.44H191.642V123.364H191.166L190.622 121.477C190.588 121.341 190.548 121.245 190.503 121.188C190.469 121.12 190.395 121.08 190.282 121.069C190.169 121.046 189.976 121.035 189.704 121.035H186.746V125.863H188.684C188.956 125.863 189.149 125.857 189.262 125.846C189.375 125.823 189.449 125.784 189.483 125.727C189.528 125.659 189.568 125.557 189.602 125.421L189.976 124.044H190.452V128.277H189.976L189.602 126.9C189.568 126.764 189.528 126.668 189.483 126.611C189.449 126.543 189.375 126.503 189.262 126.492C189.149 126.469 188.956 126.458 188.684 126.458H186.746V131.405H189.874C190.146 131.405 190.339 131.399 190.452 131.388C190.565 131.365 190.639 131.326 190.673 131.269C190.718 131.201 190.758 131.099 190.792 130.963L191.336 129.076ZM198.893 132.17C197.851 132.17 196.967 131.949 196.241 131.507C195.516 131.054 194.966 130.419 194.592 129.603C194.218 128.787 194.031 127.835 194.031 126.747V125.676C194.031 124.588 194.196 123.642 194.524 122.837C194.864 122.021 195.369 121.392 196.037 120.95C196.706 120.497 197.545 120.27 198.553 120.27C199.415 120.27 200.134 120.44 200.712 120.78C201.29 121.109 201.715 121.551 201.987 122.106C202.271 122.65 202.39 123.245 202.344 123.891L200.355 124.384C200.469 123.251 200.35 122.384 199.998 121.783C199.658 121.171 199.148 120.865 198.468 120.865C197.743 120.865 197.182 121.171 196.785 121.783C196.4 122.395 196.207 123.409 196.207 124.826V127.597C196.207 129.002 196.428 130.017 196.87 130.64C197.312 131.263 197.987 131.575 198.893 131.575C199.267 131.575 199.613 131.507 199.93 131.371C200.259 131.235 200.531 131.003 200.746 130.674C200.973 130.334 201.115 129.858 201.171 129.246L202.395 129.569C202.237 130.204 201.982 130.714 201.63 131.099C201.279 131.484 200.865 131.762 200.389 131.932C199.925 132.091 199.426 132.17 198.893 132.17ZM213.389 125.676V126.747C213.389 128.492 212.998 129.835 212.216 130.776C211.445 131.705 210.3 132.17 208.782 132.17C207.263 132.17 206.113 131.705 205.331 130.776C204.56 129.835 204.175 128.492 204.175 126.747V125.676C204.175 123.931 204.56 122.593 205.331 121.664C206.113 120.735 207.263 120.27 208.782 120.27C210.3 120.27 211.445 120.735 212.216 121.664C212.998 122.593 213.389 123.931 213.389 125.676ZM211.213 124.826C211.213 123.829 211.128 123.047 210.958 122.48C210.788 121.902 210.521 121.488 210.159 121.239C209.807 120.99 209.348 120.865 208.782 120.865C208.226 120.865 207.767 120.99 207.405 121.239C207.042 121.488 206.776 121.902 206.606 122.48C206.436 123.047 206.351 123.829 206.351 124.826V127.597C206.351 128.583 206.436 129.365 206.606 129.943C206.776 130.521 207.042 130.94 207.405 131.201C207.767 131.45 208.226 131.575 208.782 131.575C209.348 131.575 209.807 131.45 210.159 131.201C210.521 130.94 210.788 130.521 210.958 129.943C211.128 129.365 211.213 128.583 211.213 127.597V124.826ZM215.528 126.611V126.016H220.016V126.611H215.528ZM232.932 131.524V132H228.274V131.524L229.209 131.405C229.391 131.382 229.498 131.337 229.532 131.269C229.566 131.19 229.583 130.957 229.583 130.572V126.458H225.112V130.572C225.112 130.957 225.129 131.19 225.163 131.269C225.197 131.337 225.305 131.382 225.486 131.405L226.421 131.524V132H221.763V131.524L222.698 131.405C222.88 131.382 222.987 131.337 223.021 131.269C223.055 131.19 223.072 130.957 223.072 130.572V121.868C223.072 121.483 223.055 121.256 223.021 121.188C222.987 121.109 222.88 121.058 222.698 121.035L221.763 120.916V120.44H226.421V120.916L225.486 121.035C225.305 121.058 225.197 121.109 225.163 121.188C225.129 121.256 225.112 121.483 225.112 121.868V125.863H229.583V121.868C229.583 121.483 229.566 121.256 229.532 121.188C229.498 121.109 229.391 121.058 229.209 121.035L228.274 120.916V120.44H232.932V120.916L231.997 121.035C231.816 121.058 231.708 121.109 231.674 121.188C231.64 121.256 231.623 121.483 231.623 121.868V130.572C231.623 130.957 231.64 131.19 231.674 131.269C231.708 131.337 231.816 131.382 231.997 131.405L232.932 131.524ZM242.336 129.076H242.812V132H234.397V131.524L235.332 131.405C235.513 131.382 235.621 131.337 235.655 131.269C235.689 131.19 235.706 130.957 235.706 130.572V121.868C235.706 121.483 235.689 121.256 235.655 121.188C235.621 121.109 235.513 121.058 235.332 121.035L234.397 120.916V120.44H242.642V123.364H242.166L241.622 121.477C241.588 121.341 241.548 121.245 241.503 121.188C241.469 121.12 241.395 121.08 241.282 121.069C241.169 121.046 240.976 121.035 240.704 121.035H237.746V125.863H239.684C239.956 125.863 240.149 125.857 240.262 125.846C240.375 125.823 240.449 125.784 240.483 125.727C240.528 125.659 240.568 125.557 240.602 125.421L240.976 124.044H241.452V128.277H240.976L240.602 126.9C240.568 126.764 240.528 126.668 240.483 126.611C240.449 126.543 240.375 126.503 240.262 126.492C240.149 126.469 239.956 126.458 239.684 126.458H237.746V131.405H240.874C241.146 131.405 241.339 131.399 241.452 131.388C241.565 131.365 241.639 131.326 241.673 131.269C241.718 131.201 241.758 131.099 241.792 130.963L242.336 129.076ZM244.64 120.916V120.44H249.774C250.964 120.44 251.882 120.706 252.528 121.239C253.174 121.772 253.497 122.486 253.497 123.381V123.772C253.497 124.452 253.31 125.03 252.936 125.506C252.562 125.982 252.024 126.322 251.321 126.526L253.446 130.572C253.582 130.821 253.684 131.003 253.752 131.116C253.82 131.229 253.883 131.303 253.939 131.337C254.007 131.36 254.098 131.382 254.211 131.405L254.976 131.524V132H251.797L249.23 126.73H247.989V130.572C247.989 130.957 248.006 131.19 248.04 131.269C248.074 131.337 248.182 131.382 248.363 131.405L249.298 131.524V132H244.64V131.524L245.575 131.405C245.757 131.382 245.864 131.337 245.898 131.269C245.932 131.19 245.949 130.957 245.949 130.572V121.868C245.949 121.483 245.932 121.256 245.898 121.188C245.864 121.109 245.757 121.058 245.575 121.035L244.64 120.916ZM249.774 121.035H247.989V126.135H249.774C250.273 126.135 250.653 125.982 250.913 125.676C251.185 125.359 251.321 124.781 251.321 123.942V123.211C251.321 122.372 251.185 121.8 250.913 121.494C250.653 121.188 250.273 121.035 249.774 121.035ZM265.318 125.676V126.747C265.318 128.492 264.927 129.835 264.145 130.776C263.375 131.705 262.23 132.17 260.711 132.17C259.193 132.17 258.042 131.705 257.26 130.776C256.49 129.835 256.104 128.492 256.104 126.747V125.676C256.104 123.931 256.49 122.593 257.26 121.664C258.042 120.735 259.193 120.27 260.711 120.27C262.23 120.27 263.375 120.735 264.145 121.664C264.927 122.593 265.318 123.931 265.318 125.676ZM263.142 124.826C263.142 123.829 263.057 123.047 262.887 122.48C262.717 121.902 262.451 121.488 262.088 121.239C261.737 120.99 261.278 120.865 260.711 120.865C260.156 120.865 259.697 120.99 259.334 121.239C258.972 121.488 258.705 121.902 258.535 122.48C258.365 123.047 258.28 123.829 258.28 124.826V127.597C258.28 128.583 258.365 129.365 258.535 129.943C258.705 130.521 258.972 130.94 259.334 131.201C259.697 131.45 260.156 131.575 260.711 131.575C261.278 131.575 261.737 131.45 262.088 131.201C262.451 130.94 262.717 130.521 262.887 129.943C263.057 129.365 263.142 128.583 263.142 127.597V124.826ZM268.903 128.566H268.308C268.308 127.795 268.285 127.121 268.24 126.543C268.194 125.965 268.138 125.444 268.07 124.979C268.002 124.503 267.934 124.044 267.866 123.602C267.798 123.16 267.741 122.69 267.696 122.191C267.65 121.681 267.628 121.097 267.628 120.44H269.583C269.583 121.097 269.56 121.681 269.515 122.191C269.469 122.69 269.413 123.16 269.345 123.602C269.277 124.044 269.209 124.503 269.141 124.979C269.073 125.444 269.016 125.965 268.971 126.543C268.925 127.121 268.903 127.795 268.903 128.566ZM268.597 132.17C268.245 132.17 267.956 132.062 267.73 131.847C267.514 131.62 267.407 131.326 267.407 130.963C267.407 130.6 267.514 130.311 267.73 130.096C267.956 129.881 268.245 129.773 268.597 129.773C268.948 129.773 269.237 129.881 269.464 130.096C269.69 130.311 269.804 130.6 269.804 130.963C269.804 131.326 269.69 131.62 269.464 131.847C269.237 132.062 268.948 132.17 268.597 132.17ZM282.154 131.524V132H277.496V131.524L278.431 131.405C278.613 131.382 278.72 131.337 278.754 131.269C278.788 131.19 278.805 130.957 278.805 130.572V127.053L276.102 121.868C275.966 121.607 275.864 121.426 275.796 121.324C275.728 121.211 275.66 121.137 275.592 121.103C275.536 121.069 275.451 121.046 275.337 121.035L274.402 120.916V120.44H279.247V120.916L278.312 121.035C278.142 121.058 278.057 121.109 278.057 121.188C278.057 121.256 278.148 121.483 278.329 121.868L280.522 126.254L282.8 121.868C282.993 121.494 283.084 121.267 283.072 121.188C283.072 121.109 282.987 121.058 282.817 121.035L281.882 120.916V120.44H285.197V120.916L284.262 121.035C284.149 121.046 284.058 121.069 283.99 121.103C283.934 121.137 283.871 121.211 283.803 121.324C283.747 121.426 283.65 121.607 283.514 121.868L280.845 127.019V130.572C280.845 130.957 280.862 131.19 280.896 131.269C280.93 131.337 281.038 131.382 281.219 131.405L282.154 131.524ZM292.689 127.512V127.852C292.689 129.155 292.349 130.204 291.669 130.997C291 131.779 290.042 132.17 288.796 132.17C287.549 132.17 286.586 131.779 285.906 130.997C285.237 130.204 284.903 129.155 284.903 127.852V127.512C284.903 126.209 285.237 125.166 285.906 124.384C286.586 123.602 287.549 123.211 288.796 123.211C290.042 123.211 291 123.602 291.669 124.384C292.349 125.166 292.689 126.209 292.689 127.512ZM290.598 127.172C290.598 125.959 290.445 125.098 290.139 124.588C289.833 124.067 289.385 123.806 288.796 123.806C288.218 123.806 287.77 124.067 287.453 124.588C287.147 125.098 286.994 125.959 286.994 127.172V128.192C286.994 129.393 287.147 130.26 287.453 130.793C287.77 131.314 288.218 131.575 288.796 131.575C289.385 131.575 289.833 131.314 290.139 130.793C290.445 130.26 290.598 129.393 290.598 128.192V127.172ZM303.594 131.524V132H300.432V130.504C300.115 131.082 299.707 131.507 299.208 131.779C298.71 132.04 298.205 132.17 297.695 132.17C296.891 132.17 296.25 131.904 295.774 131.371C295.298 130.827 295.06 130.073 295.06 129.11V124.809C295.06 124.424 295.043 124.197 295.009 124.129C294.975 124.05 294.868 123.999 294.686 123.976L293.751 123.857V123.381H297.015V129.093C297.015 129.875 297.123 130.447 297.338 130.81C297.565 131.161 297.888 131.337 298.307 131.337C298.489 131.337 298.698 131.292 298.936 131.201C299.186 131.099 299.435 130.923 299.684 130.674C299.934 130.413 300.149 130.045 300.33 129.569V124.809C300.33 124.424 300.313 124.191 300.279 124.112C300.245 124.033 300.138 123.987 299.956 123.976L298.681 123.857V123.381H302.285V130.572C302.285 130.957 302.302 131.19 302.336 131.269C302.37 131.337 302.478 131.382 302.659 131.405L303.594 131.524ZM304.265 123.857V123.381H307.427V124.775C308.118 123.732 308.94 123.211 309.892 123.211C310.243 123.211 310.583 123.324 310.912 123.551C311.241 123.766 311.513 124.174 311.728 124.775L310.215 125.591C310.056 125.126 309.869 124.815 309.654 124.656C309.45 124.486 309.229 124.401 308.991 124.401C308.742 124.401 308.498 124.48 308.26 124.639C308.022 124.798 307.778 125.092 307.529 125.523V130.572C307.529 130.957 307.546 131.19 307.58 131.269C307.614 131.337 307.722 131.382 307.903 131.405L309.178 131.524V132H304.265V131.524L305.2 131.405C305.381 131.382 305.489 131.337 305.523 131.269C305.557 131.19 305.574 130.957 305.574 130.572V124.809C305.574 124.424 305.557 124.197 305.523 124.129C305.489 124.05 305.381 123.999 305.2 123.976L304.265 123.857ZM51.713 143.806C51.169 143.806 50.761 144.067 50.489 144.588C50.2283 145.098 50.098 145.959 50.098 147.172V148.192C50.098 149.393 50.251 150.26 50.557 150.793C50.863 151.314 51.3616 151.575 52.053 151.575C52.563 151.575 52.9766 151.433 53.294 151.15C53.6226 150.855 53.8096 150.362 53.855 149.671L54.943 149.977C54.739 150.77 54.365 151.337 53.821 151.677C53.2883 152.006 52.6593 152.17 51.934 152.17C50.6306 152.17 49.6503 151.779 48.993 150.997C48.3356 150.204 48.007 149.155 48.007 147.852V147.512C48.007 146.209 48.3243 145.166 48.959 144.384C49.5936 143.602 50.5116 143.211 51.713 143.211C52.5063 143.211 53.1523 143.37 53.651 143.687C54.161 143.993 54.518 144.401 54.722 144.911C54.9373 145.41 54.994 145.948 54.892 146.526L53.022 146.798C53.1466 145.846 53.0956 145.109 52.869 144.588C52.6423 144.067 52.257 143.806 51.713 143.806ZM64.3258 147.512V147.852C64.3258 149.155 63.9858 150.204 63.3058 150.997C62.6371 151.779 61.6794 152.17 60.4328 152.17C59.1861 152.17 58.2228 151.779 57.5428 150.997C56.8741 150.204 56.5398 149.155 56.5398 147.852V147.512C56.5398 146.209 56.8741 145.166 57.5428 144.384C58.2228 143.602 59.1861 143.211 60.4328 143.211C61.6794 143.211 62.6371 143.602 63.3058 144.384C63.9858 145.166 64.3258 146.209 64.3258 147.512ZM62.2348 147.172C62.2348 145.959 62.0818 145.098 61.7758 144.588C61.4698 144.067 61.0221 143.806 60.4328 143.806C59.8548 143.806 59.4071 144.067 59.0898 144.588C58.7838 145.098 58.6308 145.959 58.6308 147.172V148.192C58.6308 149.393 58.7838 150.26 59.0898 150.793C59.4071 151.314 59.8548 151.575 60.4328 151.575C61.0221 151.575 61.4698 151.314 61.7758 150.793C62.0818 150.26 62.2348 149.393 62.2348 148.192V147.172ZM65.5927 143.857V143.381H68.7547V144.775C69.446 143.732 70.2677 143.211 71.2197 143.211C71.571 143.211 71.911 143.324 72.2397 143.551C72.5683 143.766 72.8403 144.174 73.0557 144.775L71.5427 145.591C71.384 145.126 71.197 144.815 70.9817 144.656C70.7777 144.486 70.5567 144.401 70.3187 144.401C70.0693 144.401 69.8257 144.48 69.5877 144.639C69.3497 144.798 69.106 145.092 68.8567 145.523V150.572C68.8567 150.957 68.8737 151.19 68.9077 151.269C68.9417 151.337 69.0493 151.382 69.2307 151.405L70.5057 151.524V152H65.5927V151.524L66.5277 151.405C66.709 151.382 66.8167 151.337 66.8507 151.269C66.8847 151.19 66.9017 150.957 66.9017 150.572V144.809C66.9017 144.424 66.8847 144.197 66.8507 144.129C66.8167 144.05 66.709 143.999 66.5277 143.976L65.5927 143.857ZM73.4452 143.857V143.381H76.6072V144.775C77.2985 143.732 78.1202 143.211 79.0722 143.211C79.4235 143.211 79.7635 143.324 80.0922 143.551C80.4209 143.766 80.6929 144.174 80.9082 144.775L79.3952 145.591C79.2365 145.126 79.0495 144.815 78.8342 144.656C78.6302 144.486 78.4092 144.401 78.1712 144.401C77.9219 144.401 77.6782 144.48 77.4402 144.639C77.2022 144.798 76.9585 145.092 76.7092 145.523V150.572C76.7092 150.957 76.7262 151.19 76.7602 151.269C76.7942 151.337 76.9019 151.382 77.0832 151.405L78.3582 151.524V152H73.4452V151.524L74.3802 151.405C74.5615 151.382 74.6692 151.337 74.7032 151.269C74.7372 151.19 74.7542 150.957 74.7542 150.572V144.809C74.7542 144.424 74.7372 144.197 74.7032 144.129C74.6692 144.05 74.5615 143.999 74.3802 143.976L73.4452 143.857ZM88.7157 149.977C88.5117 150.77 88.132 151.337 87.5767 151.677C87.0214 152.006 86.3754 152.17 85.6387 152.17C84.2787 152.17 83.2587 151.779 82.5787 150.997C81.8987 150.204 81.5587 149.155 81.5587 147.852V147.512C81.5587 146.209 81.876 145.166 82.5107 144.384C83.1567 143.602 84.086 143.211 85.2987 143.211C85.9787 143.211 86.5794 143.347 87.1007 143.619C87.6334 143.88 88.047 144.259 88.3417 144.758C88.6477 145.257 88.8007 145.863 88.8007 146.577C88.8007 146.747 88.7894 146.928 88.7667 147.121C88.7554 147.314 88.727 147.506 88.6817 147.699H83.6497V148.192C83.6497 149.393 83.8197 150.26 84.1597 150.793C84.4997 151.314 85.0494 151.575 85.8087 151.575C86.296 151.575 86.7097 151.433 87.0497 151.15C87.3897 150.855 87.5824 150.362 87.6277 149.671L88.7157 149.977ZM85.2987 143.806C84.7434 143.806 84.3297 144.061 84.0577 144.571C83.7857 145.081 83.6497 145.925 83.6497 147.104H86.7267C86.772 146.877 86.8004 146.668 86.8117 146.475C86.8344 146.271 86.8457 146.084 86.8457 145.914C86.8457 145.189 86.704 144.656 86.4207 144.316C86.1374 143.976 85.7634 143.806 85.2987 143.806ZM94.2628 143.806C93.7188 143.806 93.3108 144.067 93.0388 144.588C92.7781 145.098 92.6478 145.959 92.6478 147.172V148.192C92.6478 149.393 92.8008 150.26 93.1068 150.793C93.4128 151.314 93.9114 151.575 94.6028 151.575C95.1128 151.575 95.5264 151.433 95.8438 151.15C96.1724 150.855 96.3594 150.362 96.4048 149.671L97.4928 149.977C97.2888 150.77 96.9148 151.337 96.3708 151.677C95.8381 152.006 95.2091 152.17 94.4838 152.17C93.1804 152.17 92.2001 151.779 91.5428 150.997C90.8854 150.204 90.5568 149.155 90.5568 147.852V147.512C90.5568 146.209 90.8741 145.166 91.5088 144.384C92.1434 143.602 93.0614 143.211 94.2628 143.211C95.0561 143.211 95.7021 143.37 96.2008 143.687C96.7108 143.993 97.0678 144.401 97.2718 144.911C97.4871 145.41 97.5438 145.948 97.4418 146.526L95.5718 146.798C95.6964 145.846 95.6454 145.109 95.4188 144.588C95.1921 144.067 94.8068 143.806 94.2628 143.806ZM104.649 150.232C104.501 150.923 104.218 151.422 103.799 151.728C103.391 152.023 102.892 152.17 102.303 152.17C101.702 152.17 101.209 152.04 100.824 151.779C100.438 151.507 100.155 151.15 99.9736 150.708C99.7922 150.266 99.7016 149.796 99.7016 149.297V144.809C99.7016 144.424 99.6846 144.197 99.6506 144.129C99.6166 144.05 99.5089 143.999 99.3276 143.976L98.3926 143.857V143.381H99.7016V141.409L101.657 141.018V143.381H104.377V143.976H101.657V149.637C101.657 150.362 101.747 150.867 101.929 151.15C102.11 151.422 102.342 151.558 102.626 151.558C102.92 151.558 103.147 151.445 103.306 151.218C103.476 150.991 103.583 150.578 103.629 149.977L104.649 150.232ZM107.582 141.919C107.23 141.919 106.947 141.811 106.732 141.596C106.516 141.369 106.409 141.08 106.409 140.729C106.409 140.378 106.516 140.094 106.732 139.879C106.947 139.664 107.23 139.556 107.582 139.556C107.922 139.556 108.205 139.664 108.432 139.879C108.658 140.094 108.772 140.378 108.772 140.729C108.772 141.08 108.658 141.369 108.432 141.596C108.205 141.811 107.922 141.919 107.582 141.919ZM105.304 143.857V143.381H108.568V150.572C108.568 150.957 108.585 151.19 108.619 151.269C108.653 151.337 108.76 151.382 108.942 151.405L109.877 151.524V152H105.304V151.524L106.239 151.405C106.42 151.382 106.528 151.337 106.562 151.269C106.596 151.19 106.613 150.957 106.613 150.572V144.809C106.613 144.424 106.596 144.197 106.562 144.129C106.528 144.05 106.42 143.999 106.239 143.976L105.304 143.857ZM118.812 147.512V147.852C118.812 149.155 118.472 150.204 117.792 150.997C117.123 151.779 116.166 152.17 114.919 152.17C113.672 152.17 112.709 151.779 112.029 150.997C111.36 150.204 111.026 149.155 111.026 147.852V147.512C111.026 146.209 111.36 145.166 112.029 144.384C112.709 143.602 113.672 143.211 114.919 143.211C116.166 143.211 117.123 143.602 117.792 144.384C118.472 145.166 118.812 146.209 118.812 147.512ZM116.721 147.172C116.721 145.959 116.568 145.098 116.262 144.588C115.956 144.067 115.508 143.806 114.919 143.806C114.341 143.806 113.893 144.067 113.576 144.588C113.27 145.098 113.117 145.959 113.117 147.172V148.192C113.117 149.393 113.27 150.26 113.576 150.793C113.893 151.314 114.341 151.575 114.919 151.575C115.508 151.575 115.956 151.314 116.262 150.793C116.568 150.26 116.721 149.393 116.721 148.192V147.172ZM130.092 151.524V152H125.519V151.524L126.454 151.405C126.635 151.382 126.743 151.337 126.777 151.269C126.811 151.19 126.828 150.957 126.828 150.572V146.288C126.828 145.506 126.709 144.939 126.471 144.588C126.244 144.225 125.904 144.044 125.451 144.044C125.258 144.044 125.032 144.095 124.771 144.197C124.522 144.288 124.267 144.458 124.006 144.707C123.757 144.956 123.536 145.325 123.343 145.812V150.572C123.343 150.957 123.36 151.19 123.394 151.269C123.428 151.337 123.536 151.382 123.717 151.405L124.652 151.524V152H120.079V151.524L121.014 151.405C121.195 151.382 121.303 151.337 121.337 151.269C121.371 151.19 121.388 150.957 121.388 150.572V144.809C121.388 144.424 121.371 144.197 121.337 144.129C121.303 144.05 121.195 143.999 121.014 143.976L120.079 143.857V143.381H123.241V144.877C123.57 144.299 123.989 143.88 124.499 143.619C125.02 143.347 125.542 143.211 126.063 143.211C126.902 143.211 127.565 143.477 128.052 144.01C128.539 144.543 128.783 145.296 128.783 146.271V150.572C128.783 150.957 128.8 151.19 128.834 151.269C128.868 151.337 128.976 151.382 129.157 151.405L130.092 151.524ZM144.316 151.524V152H139.743V151.524L140.678 151.405C140.859 151.382 140.967 151.337 141.001 151.269C141.035 151.19 141.052 150.957 141.052 150.572V146.288C141.052 145.506 140.944 144.939 140.729 144.588C140.513 144.225 140.19 144.044 139.76 144.044C139.578 144.044 139.363 144.095 139.114 144.197C138.864 144.288 138.615 144.458 138.366 144.707C138.128 144.956 137.918 145.325 137.737 145.812V150.572C137.737 150.957 137.754 151.19 137.788 151.269C137.822 151.337 137.929 151.382 138.111 151.405L139.046 151.524V152H134.473V151.524L135.408 151.405C135.589 151.382 135.697 151.337 135.731 151.269C135.765 151.19 135.782 150.957 135.782 150.572V144.809C135.782 144.424 135.765 144.197 135.731 144.129C135.697 144.05 135.589 143.999 135.408 143.976L134.473 143.857V143.381H137.635V144.877C137.952 144.299 138.36 143.88 138.859 143.619C139.357 143.347 139.862 143.211 140.372 143.211C140.984 143.211 141.499 143.37 141.919 143.687C142.349 143.993 142.655 144.435 142.837 145.013C143.143 144.378 143.556 143.919 144.078 143.636C144.599 143.353 145.12 143.211 145.642 143.211C146.446 143.211 147.087 143.477 147.563 144.01C148.039 144.543 148.277 145.296 148.277 146.271V150.572C148.277 150.957 148.294 151.19 148.328 151.269C148.362 151.337 148.469 151.382 148.651 151.405L149.586 151.524V152H145.013V151.524L145.948 151.405C146.129 151.382 146.237 151.337 146.271 151.269C146.305 151.19 146.322 150.957 146.322 150.572V146.288C146.322 145.506 146.214 144.939 145.999 144.588C145.783 144.225 145.46 144.044 145.03 144.044C144.848 144.044 144.633 144.095 144.384 144.197C144.134 144.288 143.885 144.463 143.636 144.724C143.386 144.985 143.171 145.364 142.99 145.863C143.001 145.92 143.007 145.988 143.007 146.067C143.007 146.135 143.007 146.203 143.007 146.271V150.572C143.007 150.957 143.024 151.19 143.058 151.269C143.092 151.337 143.199 151.382 143.381 151.405L144.316 151.524ZM158.831 151.575C158.65 151.745 158.429 151.887 158.168 152C157.919 152.113 157.613 152.17 157.25 152.17C156.785 152.17 156.394 152.068 156.077 151.864C155.771 151.66 155.567 151.371 155.465 150.997C155.091 151.405 154.677 151.705 154.224 151.898C153.782 152.079 153.329 152.17 152.864 152.17C152.082 152.17 151.498 151.955 151.113 151.524C150.728 151.082 150.535 150.532 150.535 149.875C150.535 149.206 150.779 148.668 151.266 148.26C151.753 147.841 152.615 147.631 153.85 147.631H155.397V146.254C155.397 145.313 155.272 144.673 155.023 144.333C154.785 143.982 154.451 143.806 154.02 143.806C153.737 143.806 153.476 143.88 153.238 144.027C153 144.163 152.83 144.424 152.728 144.809C152.637 145.183 152.654 145.727 152.779 146.441L150.909 146.169C150.818 145.648 150.875 145.166 151.079 144.724C151.294 144.271 151.651 143.908 152.15 143.636C152.649 143.353 153.283 143.211 154.054 143.211C154.927 143.211 155.601 143.353 156.077 143.636C156.553 143.919 156.882 144.293 157.063 144.758C157.256 145.223 157.352 145.721 157.352 146.254V150.181C157.352 150.759 157.403 151.122 157.505 151.269C157.607 151.416 157.72 151.49 157.845 151.49C158.049 151.49 158.276 151.371 158.525 151.133L158.831 151.575ZM153.612 151.269C153.907 151.269 154.196 151.195 154.479 151.048C154.774 150.889 155.08 150.6 155.397 150.181V148.226H154.122C153.567 148.226 153.164 148.356 152.915 148.617C152.666 148.878 152.541 149.286 152.541 149.841C152.541 150.294 152.632 150.646 152.813 150.895C152.994 151.144 153.261 151.269 153.612 151.269ZM165.36 150.232C165.213 150.923 164.93 151.422 164.51 151.728C164.102 152.023 163.604 152.17 163.014 152.17C162.414 152.17 161.921 152.04 161.535 151.779C161.15 151.507 160.867 151.15 160.685 150.708C160.504 150.266 160.413 149.796 160.413 149.297V144.809C160.413 144.424 160.396 144.197 160.362 144.129C160.328 144.05 160.221 143.999 160.039 143.976L159.104 143.857V143.381H160.413V141.409L162.368 141.018V143.381H165.088V143.976H162.368V149.637C162.368 150.362 162.459 150.867 162.64 151.15C162.822 151.422 163.054 151.558 163.337 151.558C163.632 151.558 163.859 151.445 164.017 151.218C164.187 150.991 164.295 150.578 164.34 149.977L165.36 150.232ZM170.232 143.806C169.688 143.806 169.28 144.067 169.008 144.588C168.747 145.098 168.617 145.959 168.617 147.172V148.192C168.617 149.393 168.77 150.26 169.076 150.793C169.382 151.314 169.88 151.575 170.572 151.575C171.082 151.575 171.495 151.433 171.813 151.15C172.141 150.855 172.328 150.362 172.374 149.671L173.462 149.977C173.258 150.77 172.884 151.337 172.34 151.677C171.807 152.006 171.178 152.17 170.453 152.17C169.149 152.17 168.169 151.779 167.512 150.997C166.854 150.204 166.526 149.155 166.526 147.852V147.512C166.526 146.209 166.843 145.166 167.478 144.384C168.112 143.602 169.03 143.211 170.232 143.211C171.025 143.211 171.671 143.37 172.17 143.687C172.68 143.993 173.037 144.401 173.241 144.911C173.456 145.41 173.513 145.948 173.411 146.526L171.541 146.798C171.665 145.846 171.614 145.109 171.388 144.588C171.161 144.067 170.776 143.806 170.232 143.806ZM184.459 151.524V152H179.886V151.524L180.821 151.405C181.003 151.382 181.11 151.337 181.144 151.269C181.178 151.19 181.195 150.957 181.195 150.572V146.288C181.195 145.506 181.076 144.939 180.838 144.588C180.612 144.225 180.272 144.044 179.818 144.044C179.626 144.044 179.399 144.095 179.138 144.197C178.889 144.288 178.634 144.458 178.373 144.707C178.124 144.956 177.903 145.325 177.71 145.812V150.572C177.71 150.957 177.727 151.19 177.761 151.269C177.795 151.337 177.903 151.382 178.084 151.405L179.019 151.524V152H174.446V151.524L175.381 151.405C175.563 151.382 175.67 151.337 175.704 151.269C175.738 151.19 175.755 150.957 175.755 150.572V140.848C175.755 140.463 175.738 140.236 175.704 140.168C175.67 140.089 175.563 140.038 175.381 140.015L174.446 139.896V139.42H177.71V144.707C178.039 144.186 178.447 143.806 178.934 143.568C179.433 143.33 179.932 143.211 180.43 143.211C181.269 143.211 181.932 143.477 182.419 144.01C182.907 144.543 183.15 145.296 183.15 146.271V150.572C183.15 150.957 183.167 151.19 183.201 151.269C183.235 151.337 183.343 151.382 183.524 151.405L184.459 151.524ZM192.708 149.977C192.504 150.77 192.124 151.337 191.569 151.677C191.014 152.006 190.368 152.17 189.631 152.17C188.271 152.17 187.251 151.779 186.571 150.997C185.891 150.204 185.551 149.155 185.551 147.852V147.512C185.551 146.209 185.868 145.166 186.503 144.384C187.149 143.602 188.078 143.211 189.291 143.211C189.971 143.211 190.572 143.347 191.093 143.619C191.626 143.88 192.039 144.259 192.334 144.758C192.64 145.257 192.793 145.863 192.793 146.577C192.793 146.747 192.782 146.928 192.759 147.121C192.748 147.314 192.719 147.506 192.674 147.699H187.642V148.192C187.642 149.393 187.812 150.26 188.152 150.793C188.492 151.314 189.042 151.575 189.801 151.575C190.288 151.575 190.702 151.433 191.042 151.15C191.382 150.855 191.575 150.362 191.62 149.671L192.708 149.977ZM189.291 143.806C188.736 143.806 188.322 144.061 188.05 144.571C187.778 145.081 187.642 145.925 187.642 147.104H190.719C190.764 146.877 190.793 146.668 190.804 146.475C190.827 146.271 190.838 146.084 190.838 145.914C190.838 145.189 190.696 144.656 190.413 144.316C190.13 143.976 189.756 143.806 189.291 143.806ZM197.915 148.787L196.742 148.515C195.983 148.334 195.416 148.011 195.042 147.546C194.679 147.07 194.498 146.509 194.498 145.863C194.498 145.387 194.6 144.951 194.804 144.554C195.019 144.146 195.354 143.823 195.807 143.585C196.26 143.336 196.85 143.211 197.575 143.211C198.357 143.211 198.992 143.336 199.479 143.585C199.966 143.834 200.312 144.163 200.516 144.571C200.72 144.979 200.782 145.415 200.703 145.88L198.833 146.22C198.992 145.449 198.946 144.854 198.697 144.435C198.459 144.016 198.057 143.806 197.49 143.806C197.093 143.806 196.765 143.925 196.504 144.163C196.243 144.39 196.113 144.718 196.113 145.149C196.113 145.546 196.226 145.897 196.453 146.203C196.68 146.498 197.014 146.696 197.456 146.798L198.629 147.07C199.468 147.263 200.074 147.569 200.448 147.988C200.822 148.396 201.009 148.906 201.009 149.518C201.009 150.277 200.726 150.912 200.159 151.422C199.604 151.921 198.771 152.17 197.66 152.17C197.275 152.17 196.85 152.113 196.385 152C195.932 151.875 195.512 151.654 195.127 151.337C194.753 151.02 194.481 150.566 194.311 149.977L195.416 149.535C195.495 150.283 195.75 150.81 196.181 151.116C196.623 151.422 197.116 151.575 197.66 151.575C198.17 151.575 198.584 151.462 198.901 151.235C199.23 150.997 199.394 150.657 199.394 150.215C199.394 149.909 199.286 149.631 199.071 149.382C198.867 149.121 198.482 148.923 197.915 148.787ZM206.009 143.857V143.381H209.171V144.775C209.862 143.732 210.684 143.211 211.636 143.211C211.987 143.211 212.327 143.324 212.656 143.551C212.984 143.766 213.256 144.174 213.472 144.775L211.959 145.591C211.8 145.126 211.613 144.815 211.398 144.656C211.194 144.486 210.973 144.401 210.735 144.401C210.485 144.401 210.242 144.48 210.004 144.639C209.766 144.798 209.522 145.092 209.273 145.523V150.572C209.273 150.957 209.29 151.19 209.324 151.269C209.358 151.337 209.465 151.382 209.647 151.405L210.922 151.524V152H206.009V151.524L206.944 151.405C207.125 151.382 207.233 151.337 207.267 151.269C207.301 151.19 207.318 150.957 207.318 150.572V144.809C207.318 144.424 207.301 144.197 207.267 144.129C207.233 144.05 207.125 143.999 206.944 143.976L206.009 143.857ZM221.279 149.977C221.075 150.77 220.696 151.337 220.14 151.677C219.585 152.006 218.939 152.17 218.202 152.17C216.842 152.17 215.822 151.779 215.142 150.997C214.462 150.204 214.122 149.155 214.122 147.852V147.512C214.122 146.209 214.44 145.166 215.074 144.384C215.72 143.602 216.65 143.211 217.862 143.211C218.542 143.211 219.143 143.347 219.664 143.619C220.197 143.88 220.611 144.259 220.905 144.758C221.211 145.257 221.364 145.863 221.364 146.577C221.364 146.747 221.353 146.928 221.33 147.121C221.319 147.314 221.291 147.506 221.245 147.699H216.213V148.192C216.213 149.393 216.383 150.26 216.723 150.793C217.063 151.314 217.613 151.575 218.372 151.575C218.86 151.575 219.273 151.433 219.613 151.15C219.953 150.855 220.146 150.362 220.191 149.671L221.279 149.977ZM217.862 143.806C217.307 143.806 216.893 144.061 216.621 144.571C216.349 145.081 216.213 145.925 216.213 147.104H219.29C219.336 146.877 219.364 146.668 219.375 146.475C219.398 146.271 219.409 146.084 219.409 145.914C219.409 145.189 219.268 144.656 218.984 144.316C218.701 143.976 218.327 143.806 217.862 143.806ZM226.486 148.787L225.313 148.515C224.554 148.334 223.987 148.011 223.613 147.546C223.251 147.07 223.069 146.509 223.069 145.863C223.069 145.387 223.171 144.951 223.375 144.554C223.591 144.146 223.925 143.823 224.378 143.585C224.832 143.336 225.421 143.211 226.146 143.211C226.928 143.211 227.563 143.336 228.05 143.585C228.538 143.834 228.883 144.163 229.087 144.571C229.291 144.979 229.354 145.415 229.274 145.88L227.404 146.22C227.563 145.449 227.518 144.854 227.268 144.435C227.03 144.016 226.628 143.806 226.061 143.806C225.665 143.806 225.336 143.925 225.075 144.163C224.815 144.39 224.684 144.718 224.684 145.149C224.684 145.546 224.798 145.897 225.024 146.203C225.251 146.498 225.585 146.696 226.027 146.798L227.2 147.07C228.039 147.263 228.645 147.569 229.019 147.988C229.393 148.396 229.58 148.906 229.58 149.518C229.58 150.277 229.297 150.912 228.73 151.422C228.175 151.921 227.342 152.17 226.231 152.17C225.846 152.17 225.421 152.113 224.956 152C224.503 151.875 224.084 151.654 223.698 151.337C223.324 151.02 223.052 150.566 222.882 149.977L223.987 149.535C224.067 150.283 224.322 150.81 224.752 151.116C225.194 151.422 225.687 151.575 226.231 151.575C226.741 151.575 227.155 151.462 227.472 151.235C227.801 150.997 227.965 150.657 227.965 150.215C227.965 149.909 227.858 149.631 227.642 149.382C227.438 149.121 227.053 148.923 226.486 148.787ZM236.83 150.232C236.683 150.923 236.4 151.422 235.98 151.728C235.572 152.023 235.074 152.17 234.484 152.17C233.884 152.17 233.391 152.04 233.005 151.779C232.62 151.507 232.337 151.15 232.155 150.708C231.974 150.266 231.883 149.796 231.883 149.297V144.809C231.883 144.424 231.866 144.197 231.832 144.129C231.798 144.05 231.691 143.999 231.509 143.976L230.574 143.857V143.381H231.883V141.409L233.838 141.018V143.381H236.558V143.976H233.838V149.637C233.838 150.362 233.929 150.867 234.11 151.15C234.292 151.422 234.524 151.558 234.807 151.558C235.102 151.558 235.329 151.445 235.487 151.218C235.657 150.991 235.765 150.578 235.81 149.977L236.83 150.232ZM245.764 147.512V147.852C245.764 149.155 245.424 150.204 244.744 150.997C244.076 151.779 243.118 152.17 241.871 152.17C240.625 152.17 239.661 151.779 238.981 150.997C238.313 150.204 237.978 149.155 237.978 147.852V147.512C237.978 146.209 238.313 145.166 238.981 144.384C239.661 143.602 240.625 143.211 241.871 143.211C243.118 143.211 244.076 143.602 244.744 144.384C245.424 145.166 245.764 146.209 245.764 147.512ZM243.673 147.172C243.673 145.959 243.52 145.098 243.214 144.588C242.908 144.067 242.461 143.806 241.871 143.806C241.293 143.806 240.846 144.067 240.528 144.588C240.222 145.098 240.069 145.959 240.069 147.172V148.192C240.069 149.393 240.222 150.26 240.528 150.793C240.846 151.314 241.293 151.575 241.871 151.575C242.461 151.575 242.908 151.314 243.214 150.793C243.52 150.26 243.673 149.393 243.673 148.192V147.172ZM247.031 143.857V143.381H250.193V144.775C250.884 143.732 251.706 143.211 252.658 143.211C253.009 143.211 253.349 143.324 253.678 143.551C254.007 143.766 254.279 144.174 254.494 144.775L252.981 145.591C252.822 145.126 252.635 144.815 252.42 144.656C252.216 144.486 251.995 144.401 251.757 144.401C251.508 144.401 251.264 144.48 251.026 144.639C250.788 144.798 250.544 145.092 250.295 145.523V150.572C250.295 150.957 250.312 151.19 250.346 151.269C250.38 151.337 250.488 151.382 250.669 151.405L251.944 151.524V152H247.031V151.524L247.966 151.405C248.147 151.382 248.255 151.337 248.289 151.269C248.323 151.19 248.34 150.957 248.34 150.572V144.809C248.34 144.424 248.323 144.197 248.289 144.129C248.255 144.05 248.147 143.999 247.966 143.976L247.031 143.857ZM262.302 149.977C262.098 150.77 261.718 151.337 261.163 151.677C260.607 152.006 259.961 152.17 259.225 152.17C257.865 152.17 256.845 151.779 256.165 150.997C255.485 150.204 255.145 149.155 255.145 147.852V147.512C255.145 146.209 255.462 145.166 256.097 144.384C256.743 143.602 257.672 143.211 258.885 143.211C259.565 143.211 260.165 143.347 260.687 143.619C261.219 143.88 261.633 144.259 261.928 144.758C262.234 145.257 262.387 145.863 262.387 146.577C262.387 146.747 262.375 146.928 262.353 147.121C262.341 147.314 262.313 147.506 262.268 147.699H257.236V148.192C257.236 149.393 257.406 150.26 257.746 150.793C258.086 151.314 258.635 151.575 259.395 151.575C259.882 151.575 260.296 151.433 260.636 151.15C260.976 150.855 261.168 150.362 261.214 149.671L262.302 149.977ZM258.885 143.806C258.329 143.806 257.916 144.061 257.644 144.571C257.372 145.081 257.236 145.925 257.236 147.104H260.313C260.358 146.877 260.386 146.668 260.398 146.475C260.42 146.271 260.432 146.084 260.432 145.914C260.432 145.189 260.29 144.656 260.007 144.316C259.723 143.976 259.349 143.806 258.885 143.806ZM272.915 151.524V152H269.753V150.589C269.435 151.11 269.078 151.507 268.682 151.779C268.296 152.04 267.837 152.17 267.305 152.17C266.353 152.17 265.593 151.796 265.027 151.048C264.471 150.289 264.194 149.229 264.194 147.869V147.529C264.194 146.214 264.517 145.166 265.163 144.384C265.82 143.602 266.715 143.211 267.849 143.211C268.529 143.211 269.129 143.381 269.651 143.721V140.848C269.651 140.463 269.634 140.236 269.6 140.168C269.566 140.089 269.458 140.038 269.277 140.015L268.342 139.896V139.42H271.606V150.572C271.606 150.957 271.623 151.19 271.657 151.269C271.691 151.337 271.798 151.382 271.98 151.405L272.915 151.524ZM266.285 148.379C266.285 149.433 266.415 150.204 266.676 150.691C266.936 151.178 267.293 151.422 267.747 151.422C268.03 151.422 268.325 151.309 268.631 151.082C268.948 150.844 269.288 150.368 269.651 149.654V144.52C269.22 144.089 268.693 143.874 268.07 143.874C267.446 143.874 266.993 144.157 266.71 144.724C266.426 145.279 266.285 146.044 266.285 147.019V148.379ZM277.26 139.896V139.42H280.524V150.572C280.524 150.957 280.541 151.19 280.575 151.269C280.609 151.337 280.716 151.382 280.898 151.405L281.833 151.524V152H277.26V151.524L278.195 151.405C278.376 151.382 278.484 151.337 278.518 151.269C278.552 151.19 278.569 150.957 278.569 150.572V140.848C278.569 140.463 278.552 140.236 278.518 140.168C278.484 140.089 278.376 140.038 278.195 140.015L277.26 139.896ZM284.77 141.919C284.419 141.919 284.135 141.811 283.92 141.596C283.705 141.369 283.597 141.08 283.597 140.729C283.597 140.378 283.705 140.094 283.92 139.879C284.135 139.664 284.419 139.556 284.77 139.556C285.11 139.556 285.393 139.664 285.62 139.879C285.847 140.094 285.96 140.378 285.96 140.729C285.96 141.08 285.847 141.369 285.62 141.596C285.393 141.811 285.11 141.919 284.77 141.919ZM282.492 143.857V143.381H285.756V150.572C285.756 150.957 285.773 151.19 285.807 151.269C285.841 151.337 285.949 151.382 286.13 151.405L287.065 151.524V152H282.492V151.524L283.427 151.405C283.608 151.382 283.716 151.337 283.75 151.269C283.784 151.19 283.801 150.957 283.801 150.572V144.809C283.801 144.424 283.784 144.197 283.75 144.129C283.716 144.05 283.608 143.999 283.427 143.976L282.492 143.857ZM296.018 152.884C296.018 153.813 295.666 154.527 294.964 155.026C294.272 155.536 293.32 155.791 292.108 155.791C290.77 155.791 289.773 155.57 289.116 155.128C288.458 154.697 288.101 154.159 288.045 153.513L289.864 153.224C289.818 153.825 289.96 154.301 290.289 154.652C290.629 155.015 291.235 155.196 292.108 155.196C292.924 155.196 293.581 155.043 294.08 154.737C294.59 154.431 294.845 153.989 294.845 153.411C294.845 153.003 294.692 152.691 294.386 152.476C294.091 152.272 293.598 152.17 292.907 152.17H290.969C290.368 152.17 289.892 152.085 289.541 151.915C289.201 151.745 288.963 151.535 288.827 151.286C288.691 151.025 288.623 150.759 288.623 150.487C288.623 150.158 288.713 149.835 288.895 149.518C289.076 149.189 289.388 148.866 289.83 148.549C289.342 148.334 288.946 148.016 288.64 147.597C288.334 147.178 288.181 146.656 288.181 146.033C288.181 145.398 288.328 144.877 288.623 144.469C288.917 144.05 289.314 143.738 289.813 143.534C290.311 143.319 290.867 143.211 291.479 143.211H291.768C292.425 143.211 292.992 143.319 293.468 143.534L295.916 142.327L296.12 143.993H294.182C294.454 144.231 294.663 144.52 294.811 144.86C294.969 145.189 295.049 145.58 295.049 146.033C295.049 146.645 294.901 147.161 294.607 147.58C294.312 147.999 293.915 148.317 293.417 148.532C292.929 148.747 292.38 148.855 291.768 148.855H291.479C291.139 148.855 290.804 148.821 290.476 148.753C290.192 148.946 289.994 149.133 289.881 149.314C289.779 149.484 289.728 149.648 289.728 149.807C289.728 149.988 289.807 150.124 289.966 150.215C290.136 150.306 290.408 150.351 290.782 150.351H292.992C293.966 150.351 294.714 150.572 295.236 151.014C295.757 151.445 296.018 152.068 296.018 152.884ZM291.768 148.26C292.13 148.26 292.442 148.101 292.703 147.784C292.963 147.467 293.094 146.883 293.094 146.033C293.094 145.183 292.963 144.599 292.703 144.282C292.442 143.965 292.13 143.806 291.768 143.806H291.479C291.116 143.806 290.799 143.965 290.527 144.282C290.266 144.599 290.136 145.183 290.136 146.033C290.136 146.883 290.266 147.467 290.527 147.784C290.799 148.101 291.116 148.26 291.479 148.26H291.768ZM306.663 151.524V152H302.09V151.524L303.025 151.405C303.207 151.382 303.314 151.337 303.348 151.269C303.382 151.19 303.399 150.957 303.399 150.572V146.288C303.399 145.506 303.28 144.939 303.042 144.588C302.816 144.225 302.476 144.044 302.022 144.044C301.83 144.044 301.603 144.095 301.342 144.197C301.093 144.288 300.838 144.458 300.577 144.707C300.328 144.956 300.107 145.325 299.914 145.812V150.572C299.914 150.957 299.931 151.19 299.965 151.269C299.999 151.337 300.107 151.382 300.288 151.405L301.223 151.524V152H296.65V151.524L297.585 151.405C297.767 151.382 297.874 151.337 297.908 151.269C297.942 151.19 297.959 150.957 297.959 150.572V140.848C297.959 140.463 297.942 140.236 297.908 140.168C297.874 140.089 297.767 140.038 297.585 140.015L296.65 139.896V139.42H299.914V144.707C300.243 144.186 300.651 143.806 301.138 143.568C301.637 143.33 302.136 143.211 302.634 143.211C303.473 143.211 304.136 143.477 304.623 144.01C305.111 144.543 305.354 145.296 305.354 146.271V150.572C305.354 150.957 305.371 151.19 305.405 151.269C305.439 151.337 305.547 151.382 305.728 151.405L306.663 151.524ZM313.297 150.232C313.15 150.923 312.866 151.422 312.447 151.728C312.039 152.023 311.54 152.17 310.951 152.17C310.35 152.17 309.857 152.04 309.472 151.779C309.087 151.507 308.803 151.15 308.622 150.708C308.441 150.266 308.35 149.796 308.35 149.297V144.809C308.35 144.424 308.333 144.197 308.299 144.129C308.265 144.05 308.157 143.999 307.976 143.976L307.041 143.857V143.381H308.35V141.409L310.305 141.018V143.381H313.025V143.976H310.305V149.637C310.305 150.362 310.396 150.867 310.577 151.15C310.758 151.422 310.991 151.558 311.274 151.558C311.569 151.558 311.795 151.445 311.954 151.218C312.124 150.991 312.232 150.578 312.277 149.977L313.297 150.232ZM316.893 151.252C316.893 151.739 316.717 152.323 316.366 153.003C316.015 153.683 315.522 154.403 314.887 155.162L314.496 154.822C314.961 154.255 315.289 153.757 315.482 153.326C315.675 152.907 315.777 152.521 315.788 152.17H315.737C315.397 152.17 315.119 152.068 314.904 151.864C314.7 151.649 314.598 151.365 314.598 151.014C314.598 150.674 314.7 150.402 314.904 150.198C315.119 149.983 315.397 149.875 315.737 149.875C316.066 149.875 316.338 149.994 316.553 150.232C316.78 150.47 316.893 150.81 316.893 151.252ZM67.1776 168.787L66.0046 168.515C65.2453 168.334 64.6786 168.011 64.3046 167.546C63.942 167.07 63.7606 166.509 63.7606 165.863C63.7606 165.387 63.8626 164.951 64.0666 164.554C64.282 164.146 64.6163 163.823 65.0696 163.585C65.523 163.336 66.1123 163.211 66.8376 163.211C67.6196 163.211 68.2543 163.336 68.7416 163.585C69.229 163.834 69.5746 164.163 69.7786 164.571C69.9826 164.979 70.045 165.415 69.9656 165.88L68.0956 166.22C68.2543 165.449 68.209 164.854 67.9596 164.435C67.7216 164.016 67.3193 163.806 66.7526 163.806C66.356 163.806 66.0273 163.925 65.7666 164.163C65.506 164.39 65.3756 164.718 65.3756 165.149C65.3756 165.546 65.489 165.897 65.7156 166.203C65.9423 166.498 66.2766 166.696 66.7186 166.798L67.8916 167.07C68.7303 167.263 69.3366 167.569 69.7106 167.988C70.0846 168.396 70.2716 168.906 70.2716 169.518C70.2716 170.277 69.9883 170.912 69.4216 171.422C68.8663 171.921 68.0333 172.17 66.9226 172.17C66.5373 172.17 66.1123 172.113 65.6476 172C65.1943 171.875 64.775 171.654 64.3896 171.337C64.0156 171.02 63.7436 170.566 63.5736 169.977L64.6786 169.535C64.758 170.283 65.013 170.81 65.4436 171.116C65.8856 171.422 66.3786 171.575 66.9226 171.575C67.4326 171.575 67.8463 171.462 68.1636 171.235C68.4923 170.997 68.6566 170.657 68.6566 170.215C68.6566 169.909 68.549 169.631 68.3336 169.382C68.1296 169.121 67.7443 168.923 67.1776 168.787ZM80.1396 171.575C79.9583 171.745 79.7373 171.887 79.4766 172C79.2273 172.113 78.9213 172.17 78.5586 172.17C78.0939 172.17 77.7029 172.068 77.3856 171.864C77.0796 171.66 76.8756 171.371 76.7736 170.997C76.3996 171.405 75.9859 171.705 75.5326 171.898C75.0906 172.079 74.6373 172.17 74.1726 172.17C73.3906 172.17 72.8069 171.955 72.4216 171.524C72.0363 171.082 71.8436 170.532 71.8436 169.875C71.8436 169.206 72.0873 168.668 72.5746 168.26C73.0619 167.841 73.9233 167.631 75.1586 167.631H76.7056V166.254C76.7056 165.313 76.5809 164.673 76.3316 164.333C76.0936 163.982 75.7593 163.806 75.3286 163.806C75.0453 163.806 74.7846 163.88 74.5466 164.027C74.3086 164.163 74.1386 164.424 74.0366 164.809C73.9459 165.183 73.9629 165.727 74.0876 166.441L72.2176 166.169C72.1269 165.648 72.1836 165.166 72.3876 164.724C72.6029 164.271 72.9599 163.908 73.4586 163.636C73.9573 163.353 74.5919 163.211 75.3626 163.211C76.2353 163.211 76.9096 163.353 77.3856 163.636C77.8616 163.919 78.1903 164.293 78.3716 164.758C78.5643 165.223 78.6606 165.721 78.6606 166.254V170.181C78.6606 170.759 78.7116 171.122 78.8136 171.269C78.9156 171.416 79.0289 171.49 79.1536 171.49C79.3576 171.49 79.5843 171.371 79.8336 171.133L80.1396 171.575ZM74.9206 171.269C75.2153 171.269 75.5043 171.195 75.7876 171.048C76.0823 170.889 76.3883 170.6 76.7056 170.181V168.226H75.4306C74.8753 168.226 74.4729 168.356 74.2236 168.617C73.9743 168.878 73.8496 169.286 73.8496 169.841C73.8496 170.294 73.9403 170.646 74.1216 170.895C74.3029 171.144 74.5693 171.269 74.9206 171.269ZM85.5301 171.524V172H80.6171V171.524L81.5521 171.405C81.7334 171.382 81.8411 171.337 81.8751 171.269C81.9091 171.19 81.9261 170.957 81.9261 170.572V164.809C81.9261 164.424 81.9091 164.197 81.8751 164.129C81.8411 164.05 81.7334 163.999 81.5521 163.976L80.6171 163.857V163.381H81.9261V162.463C81.9261 161.919 82.0167 161.403 82.1981 160.916C82.3907 160.417 82.7081 160.015 83.1501 159.709C83.6034 159.403 84.2097 159.25 84.9691 159.25C85.6604 159.25 86.2271 159.369 86.6691 159.607C87.1224 159.845 87.4454 160.162 87.6381 160.559C87.8421 160.956 87.9044 161.386 87.8251 161.851L85.9551 162.123C86.0684 161.273 86.0344 160.684 85.8531 160.355C85.6831 160.015 85.3884 159.845 84.9691 159.845C84.7424 159.845 84.5441 159.907 84.3741 160.032C84.2154 160.157 84.0907 160.383 84.0001 160.712C83.9207 161.029 83.8811 161.5 83.8811 162.123V163.381H86.4311V163.976H83.8811V170.572C83.8811 170.957 83.8981 171.19 83.9321 171.269C83.9661 171.337 84.0737 171.382 84.2551 171.405L85.5301 171.524ZM94.2938 169.977C94.0898 170.77 93.7102 171.337 93.1548 171.677C92.5995 172.006 91.9535 172.17 91.2168 172.17C89.8568 172.17 88.8368 171.779 88.1568 170.997C87.4768 170.204 87.1368 169.155 87.1368 167.852V167.512C87.1368 166.209 87.4542 165.166 88.0888 164.384C88.7348 163.602 89.6642 163.211 90.8768 163.211C91.5568 163.211 92.1575 163.347 92.6788 163.619C93.2115 163.88 93.6252 164.259 93.9198 164.758C94.2258 165.257 94.3788 165.863 94.3788 166.577C94.3788 166.747 94.3675 166.928 94.3448 167.121C94.3335 167.314 94.3052 167.506 94.2598 167.699H89.2278V168.192C89.2278 169.393 89.3978 170.26 89.7378 170.793C90.0778 171.314 90.6275 171.575 91.3868 171.575C91.8742 171.575 92.2878 171.433 92.6278 171.15C92.9678 170.855 93.1605 170.362 93.2058 169.671L94.2938 169.977ZM90.8768 163.806C90.3215 163.806 89.9078 164.061 89.6358 164.571C89.3638 165.081 89.2278 165.925 89.2278 167.104H92.3048C92.3502 166.877 92.3785 166.668 92.3898 166.475C92.4125 166.271 92.4238 166.084 92.4238 165.914C92.4238 165.189 92.2822 164.656 91.9988 164.316C91.7155 163.976 91.3415 163.806 90.8768 163.806ZM101.677 170.232C101.53 170.923 101.246 171.422 100.827 171.728C100.419 172.023 99.9202 172.17 99.3309 172.17C98.7302 172.17 98.2372 172.04 97.8519 171.779C97.4666 171.507 97.1832 171.15 97.0019 170.708C96.8206 170.266 96.7299 169.796 96.7299 169.297V164.809C96.7299 164.424 96.7129 164.197 96.6789 164.129C96.6449 164.05 96.5372 163.999 96.3559 163.976L95.4209 163.857V163.381H96.7299V161.409L98.6849 161.018V163.381H101.405V163.976H98.6849V169.637C98.6849 170.362 98.7756 170.867 98.9569 171.15C99.1382 171.422 99.3706 171.558 99.6539 171.558C99.9486 171.558 100.175 171.445 100.334 171.218C100.504 170.991 100.612 170.578 100.657 169.977L101.677 170.232ZM107.092 172.85C106.831 173.564 106.542 174.136 106.225 174.567C105.919 174.998 105.539 175.309 105.086 175.502C104.633 175.695 104.066 175.791 103.386 175.791V173.921C104.077 173.921 104.633 173.87 105.052 173.768C105.483 173.677 105.811 173.524 106.038 173.309C106.276 173.105 106.452 172.839 106.565 172.51L106.735 172H105.851L103.437 164.809C103.358 164.548 103.29 164.367 103.233 164.265C103.188 164.152 103.131 164.078 103.063 164.044C103.006 164.01 102.916 163.987 102.791 163.976L101.856 163.857V163.381H106.446V163.857L105.511 163.976C105.375 163.987 105.29 164.033 105.256 164.112C105.233 164.18 105.284 164.412 105.409 164.809L107.262 170.419L109.183 164.741C109.308 164.378 109.359 164.169 109.336 164.112C109.325 164.044 109.234 163.999 109.064 163.976L108.129 163.857V163.381H111.376V163.857L110.441 163.976C110.271 163.999 110.158 164.044 110.101 164.112C110.044 164.18 109.954 164.39 109.829 164.741L107.092 172.85ZM113.258 171.252C113.258 171.739 113.083 172.323 112.731 173.003C112.38 173.683 111.887 174.403 111.252 175.162L110.861 174.822C111.326 174.255 111.655 173.757 111.847 173.326C112.04 172.907 112.142 172.521 112.153 172.17H112.102C111.762 172.17 111.485 172.068 111.269 171.864C111.065 171.649 110.963 171.365 110.963 171.014C110.963 170.674 111.065 170.402 111.269 170.198C111.485 169.983 111.762 169.875 112.102 169.875C112.431 169.875 112.703 169.994 112.918 170.232C113.145 170.47 113.258 170.81 113.258 171.252ZM127.122 171.575C126.941 171.745 126.72 171.887 126.459 172C126.21 172.113 125.904 172.17 125.541 172.17C125.076 172.17 124.685 172.068 124.368 171.864C124.062 171.66 123.858 171.371 123.756 170.997C123.382 171.405 122.968 171.705 122.515 171.898C122.073 172.079 121.62 172.17 121.155 172.17C120.373 172.17 119.789 171.955 119.404 171.524C119.019 171.082 118.826 170.532 118.826 169.875C118.826 169.206 119.07 168.668 119.557 168.26C120.044 167.841 120.906 167.631 122.141 167.631H123.688V166.254C123.688 165.313 123.563 164.673 123.314 164.333C123.076 163.982 122.742 163.806 122.311 163.806C122.028 163.806 121.767 163.88 121.529 164.027C121.291 164.163 121.121 164.424 121.019 164.809C120.928 165.183 120.945 165.727 121.07 166.441L119.2 166.169C119.109 165.648 119.166 165.166 119.37 164.724C119.585 164.271 119.942 163.908 120.441 163.636C120.94 163.353 121.574 163.211 122.345 163.211C123.218 163.211 123.892 163.353 124.368 163.636C124.844 163.919 125.173 164.293 125.354 164.758C125.547 165.223 125.643 165.721 125.643 166.254V170.181C125.643 170.759 125.694 171.122 125.796 171.269C125.898 171.416 126.011 171.49 126.136 171.49C126.34 171.49 126.567 171.371 126.816 171.133L127.122 171.575ZM121.903 171.269C122.198 171.269 122.487 171.195 122.77 171.048C123.065 170.889 123.371 170.6 123.688 170.181V168.226H122.413C121.858 168.226 121.455 168.356 121.206 168.617C120.957 168.878 120.832 169.286 120.832 169.841C120.832 170.294 120.923 170.646 121.104 170.895C121.285 171.144 121.552 171.269 121.903 171.269ZM137.612 171.524V172H133.039V171.524L133.974 171.405C134.156 171.382 134.263 171.337 134.297 171.269C134.331 171.19 134.348 170.957 134.348 170.572V166.288C134.348 165.506 134.229 164.939 133.991 164.588C133.765 164.225 133.425 164.044 132.971 164.044C132.779 164.044 132.552 164.095 132.291 164.197C132.042 164.288 131.787 164.458 131.526 164.707C131.277 164.956 131.056 165.325 130.863 165.812V170.572C130.863 170.957 130.88 171.19 130.914 171.269C130.948 171.337 131.056 171.382 131.237 171.405L132.172 171.524V172H127.599V171.524L128.534 171.405C128.716 171.382 128.823 171.337 128.857 171.269C128.891 171.19 128.908 170.957 128.908 170.572V164.809C128.908 164.424 128.891 164.197 128.857 164.129C128.823 164.05 128.716 163.999 128.534 163.976L127.599 163.857V163.381H130.761V164.877C131.09 164.299 131.509 163.88 132.019 163.619C132.541 163.347 133.062 163.211 133.583 163.211C134.422 163.211 135.085 163.477 135.572 164.01C136.06 164.543 136.303 165.296 136.303 166.271V170.572C136.303 170.957 136.32 171.19 136.354 171.269C136.388 171.337 136.496 171.382 136.677 171.405L137.612 171.524ZM147.473 171.524V172H144.311V170.589C143.994 171.11 143.637 171.507 143.24 171.779C142.855 172.04 142.396 172.17 141.863 172.17C140.911 172.17 140.152 171.796 139.585 171.048C139.03 170.289 138.752 169.229 138.752 167.869V167.529C138.752 166.214 139.075 165.166 139.721 164.384C140.379 163.602 141.274 163.211 142.407 163.211C143.087 163.211 143.688 163.381 144.209 163.721V160.848C144.209 160.463 144.192 160.236 144.158 160.168C144.124 160.089 144.017 160.038 143.835 160.015L142.9 159.896V159.42H146.164V170.572C146.164 170.957 146.181 171.19 146.215 171.269C146.249 171.337 146.357 171.382 146.538 171.405L147.473 171.524ZM140.843 168.379C140.843 169.433 140.974 170.204 141.234 170.691C141.495 171.178 141.852 171.422 142.305 171.422C142.589 171.422 142.883 171.309 143.189 171.082C143.507 170.844 143.847 170.368 144.209 169.654V164.52C143.779 164.089 143.252 163.874 142.628 163.874C142.005 163.874 141.552 164.157 141.268 164.724C140.985 165.279 140.843 166.044 140.843 167.019V168.379ZM156.153 163.806C155.609 163.806 155.201 164.067 154.929 164.588C154.669 165.098 154.538 165.959 154.538 167.172V168.192C154.538 169.393 154.691 170.26 154.997 170.793C155.303 171.314 155.802 171.575 156.493 171.575C157.003 171.575 157.417 171.433 157.734 171.15C158.063 170.855 158.25 170.362 158.295 169.671L159.383 169.977C159.179 170.77 158.805 171.337 158.261 171.677C157.729 172.006 157.1 172.17 156.374 172.17C155.071 172.17 154.091 171.779 153.433 170.997C152.776 170.204 152.447 169.155 152.447 167.852V167.512C152.447 166.209 152.765 165.166 153.399 164.384C154.034 163.602 154.952 163.211 156.153 163.211C156.947 163.211 157.593 163.37 158.091 163.687C158.601 163.993 158.958 164.401 159.162 164.911C159.378 165.41 159.434 165.948 159.332 166.526L157.462 166.798C157.587 165.846 157.536 165.109 157.309 164.588C157.083 164.067 156.697 163.806 156.153 163.806ZM168.766 167.512V167.852C168.766 169.155 168.426 170.204 167.746 170.997C167.078 171.779 166.12 172.17 164.873 172.17C163.627 172.17 162.663 171.779 161.983 170.997C161.315 170.204 160.98 169.155 160.98 167.852V167.512C160.98 166.209 161.315 165.166 161.983 164.384C162.663 163.602 163.627 163.211 164.873 163.211C166.12 163.211 167.078 163.602 167.746 164.384C168.426 165.166 168.766 166.209 168.766 167.512ZM166.675 167.172C166.675 165.959 166.522 165.098 166.216 164.588C165.91 164.067 165.463 163.806 164.873 163.806C164.295 163.806 163.848 164.067 163.53 164.588C163.224 165.098 163.071 165.959 163.071 167.172V168.192C163.071 169.393 163.224 170.26 163.53 170.793C163.848 171.314 164.295 171.575 164.873 171.575C165.463 171.575 165.91 171.314 166.216 170.793C166.522 170.26 166.675 169.393 166.675 168.192V167.172ZM179.876 171.524V172H175.303V171.524L176.238 171.405C176.419 171.382 176.527 171.337 176.561 171.269C176.595 171.19 176.612 170.957 176.612 170.572V166.288C176.612 165.506 176.504 164.939 176.289 164.588C176.074 164.225 175.751 164.044 175.32 164.044C175.139 164.044 174.923 164.095 174.674 164.197C174.425 164.288 174.175 164.458 173.926 164.707C173.688 164.956 173.478 165.325 173.297 165.812V170.572C173.297 170.957 173.314 171.19 173.348 171.269C173.382 171.337 173.49 171.382 173.671 171.405L174.606 171.524V172H170.033V171.524L170.968 171.405C171.149 171.382 171.257 171.337 171.291 171.269C171.325 171.19 171.342 170.957 171.342 170.572V164.809C171.342 164.424 171.325 164.197 171.291 164.129C171.257 164.05 171.149 163.999 170.968 163.976L170.033 163.857V163.381H173.195V164.877C173.512 164.299 173.92 163.88 174.419 163.619C174.918 163.347 175.422 163.211 175.932 163.211C176.544 163.211 177.06 163.37 177.479 163.687C177.91 163.993 178.216 164.435 178.397 165.013C178.703 164.378 179.117 163.919 179.638 163.636C180.159 163.353 180.681 163.211 181.202 163.211C182.007 163.211 182.647 163.477 183.123 164.01C183.599 164.543 183.837 165.296 183.837 166.271V170.572C183.837 170.957 183.854 171.19 183.888 171.269C183.922 171.337 184.03 171.382 184.211 171.405L185.146 171.524V172H180.573V171.524L181.508 171.405C181.689 171.382 181.797 171.337 181.831 171.269C181.865 171.19 181.882 170.957 181.882 170.572V166.288C181.882 165.506 181.774 164.939 181.559 164.588C181.344 164.225 181.021 164.044 180.59 164.044C180.409 164.044 180.193 164.095 179.944 164.197C179.695 164.288 179.445 164.463 179.196 164.724C178.947 164.985 178.731 165.364 178.55 165.863C178.561 165.92 178.567 165.988 178.567 166.067C178.567 166.135 178.567 166.203 178.567 166.271V170.572C178.567 170.957 178.584 171.19 178.618 171.269C178.652 171.337 178.76 171.382 178.941 171.405L179.876 171.524ZM190.635 171.524V172H185.722V171.524L186.657 171.405C186.838 171.382 186.946 171.337 186.98 171.269C187.014 171.19 187.031 170.957 187.031 170.572V164.809C187.031 164.424 187.014 164.197 186.98 164.129C186.946 164.05 186.838 163.999 186.657 163.976L185.722 163.857V163.381H187.031V162.463C187.031 161.919 187.121 161.403 187.303 160.916C187.495 160.417 187.813 160.015 188.255 159.709C188.708 159.403 189.314 159.25 190.074 159.25C190.765 159.25 191.332 159.369 191.774 159.607C192.227 159.845 192.55 160.162 192.743 160.559C192.947 160.956 193.009 161.386 192.93 161.851L191.06 162.123C191.173 161.273 191.139 160.684 190.958 160.355C190.788 160.015 190.493 159.845 190.074 159.845C189.847 159.845 189.649 159.907 189.479 160.032C189.32 160.157 189.195 160.383 189.105 160.712C189.025 161.029 188.986 161.5 188.986 162.123V163.381H191.536V163.976H188.986V170.572C188.986 170.957 189.003 171.19 189.037 171.269C189.071 171.337 189.178 171.382 189.36 171.405L190.635 171.524ZM200.01 167.512V167.852C200.01 169.155 199.67 170.204 198.99 170.997C198.322 171.779 197.364 172.17 196.117 172.17C194.871 172.17 193.907 171.779 193.227 170.997C192.559 170.204 192.224 169.155 192.224 167.852V167.512C192.224 166.209 192.559 165.166 193.227 164.384C193.907 163.602 194.871 163.211 196.117 163.211C197.364 163.211 198.322 163.602 198.99 164.384C199.67 165.166 200.01 166.209 200.01 167.512ZM197.919 167.172C197.919 165.959 197.766 165.098 197.46 164.588C197.154 164.067 196.707 163.806 196.117 163.806C195.539 163.806 195.092 164.067 194.774 164.588C194.468 165.098 194.315 165.959 194.315 167.172V168.192C194.315 169.393 194.468 170.26 194.774 170.793C195.092 171.314 195.539 171.575 196.117 171.575C196.707 171.575 197.154 171.314 197.46 170.793C197.766 170.26 197.919 169.393 197.919 168.192V167.172ZM201.277 163.857V163.381H204.439V164.775C205.131 163.732 205.952 163.211 206.904 163.211C207.256 163.211 207.596 163.324 207.924 163.551C208.253 163.766 208.525 164.174 208.74 164.775L207.227 165.591C207.069 165.126 206.882 164.815 206.666 164.656C206.462 164.486 206.241 164.401 206.003 164.401C205.754 164.401 205.51 164.48 205.272 164.639C205.034 164.798 204.791 165.092 204.541 165.523V170.572C204.541 170.957 204.558 171.19 204.592 171.269C204.626 171.337 204.734 171.382 204.915 171.405L206.19 171.524V172H201.277V171.524L202.212 171.405C202.394 171.382 202.501 171.337 202.535 171.269C202.569 171.19 202.586 170.957 202.586 170.572V164.809C202.586 164.424 202.569 164.197 202.535 164.129C202.501 164.05 202.394 163.999 202.212 163.976L201.277 163.857ZM215.182 170.232C215.034 170.923 214.751 171.422 214.332 171.728C213.924 172.023 213.425 172.17 212.836 172.17C212.235 172.17 211.742 172.04 211.357 171.779C210.971 171.507 210.688 171.15 210.507 170.708C210.325 170.266 210.235 169.796 210.235 169.297V164.809C210.235 164.424 210.218 164.197 210.184 164.129C210.15 164.05 210.042 163.999 209.861 163.976L208.926 163.857V163.381H210.235V161.409L212.19 161.018V163.381H214.91V163.976H212.19V169.637C212.19 170.362 212.28 170.867 212.462 171.15C212.643 171.422 212.875 171.558 213.159 171.558C213.453 171.558 213.68 171.445 213.839 171.218C214.009 170.991 214.116 170.578 214.162 169.977L215.182 170.232ZM225.691 170.232C225.543 170.923 225.26 171.422 224.841 171.728C224.433 172.023 223.934 172.17 223.345 172.17C222.744 172.17 222.251 172.04 221.866 171.779C221.48 171.507 221.197 171.15 221.016 170.708C220.834 170.266 220.744 169.796 220.744 169.297V164.809C220.744 164.424 220.727 164.197 220.693 164.129C220.659 164.05 220.551 163.999 220.37 163.976L219.435 163.857V163.381H220.744V161.409L222.699 161.018V163.381H225.419V163.976H222.699V169.637C222.699 170.362 222.789 170.867 222.971 171.15C223.152 171.422 223.384 171.558 223.668 171.558C223.962 171.558 224.189 171.445 224.348 171.218C224.518 170.991 224.625 170.578 224.671 169.977L225.691 170.232ZM234.625 167.512V167.852C234.625 169.155 234.285 170.204 233.605 170.997C232.936 171.779 231.978 172.17 230.732 172.17C229.485 172.17 228.522 171.779 227.842 170.997C227.173 170.204 226.839 169.155 226.839 167.852V167.512C226.839 166.209 227.173 165.166 227.842 164.384C228.522 163.602 229.485 163.211 230.732 163.211C231.978 163.211 232.936 163.602 233.605 164.384C234.285 165.166 234.625 166.209 234.625 167.512ZM232.534 167.172C232.534 165.959 232.381 165.098 232.075 164.588C231.769 164.067 231.321 163.806 230.732 163.806C230.154 163.806 229.706 164.067 229.389 164.588C229.083 165.098 228.93 165.959 228.93 167.172V168.192C228.93 169.393 229.083 170.26 229.389 170.793C229.706 171.314 230.154 171.575 230.732 171.575C231.321 171.575 231.769 171.314 232.075 170.793C232.381 170.26 232.534 169.393 232.534 168.192V167.172ZM245.745 170.232C245.598 170.923 245.315 171.422 244.895 171.728C244.487 172.023 243.989 172.17 243.399 172.17C242.799 172.17 242.306 172.04 241.92 171.779C241.535 171.507 241.252 171.15 241.07 170.708C240.889 170.266 240.798 169.796 240.798 169.297V164.809C240.798 164.424 240.781 164.197 240.747 164.129C240.713 164.05 240.606 163.999 240.424 163.976L239.489 163.857V163.381H240.798V161.409L242.753 161.018V163.381H245.473V163.976H242.753V169.637C242.753 170.362 242.844 170.867 243.025 171.15C243.207 171.422 243.439 171.558 243.722 171.558C244.017 171.558 244.244 171.445 244.402 171.218C244.572 170.991 244.68 170.578 244.725 169.977L245.745 170.232ZM256.294 171.524V172H251.721V171.524L252.656 171.405C252.838 171.382 252.945 171.337 252.979 171.269C253.013 171.19 253.03 170.957 253.03 170.572V166.288C253.03 165.506 252.911 164.939 252.673 164.588C252.447 164.225 252.107 164.044 251.653 164.044C251.461 164.044 251.234 164.095 250.973 164.197C250.724 164.288 250.469 164.458 250.208 164.707C249.959 164.956 249.738 165.325 249.545 165.812V170.572C249.545 170.957 249.562 171.19 249.596 171.269C249.63 171.337 249.738 171.382 249.919 171.405L250.854 171.524V172H246.281V171.524L247.216 171.405C247.398 171.382 247.505 171.337 247.539 171.269C247.573 171.19 247.59 170.957 247.59 170.572V160.848C247.59 160.463 247.573 160.236 247.539 160.168C247.505 160.089 247.398 160.038 247.216 160.015L246.281 159.896V159.42H249.545V164.707C249.874 164.186 250.282 163.806 250.769 163.568C251.268 163.33 251.767 163.211 252.265 163.211C253.104 163.211 253.767 163.477 254.254 164.01C254.742 164.543 254.985 165.296 254.985 166.271V170.572C254.985 170.957 255.002 171.19 255.036 171.269C255.07 171.337 255.178 171.382 255.359 171.405L256.294 171.524ZM264.543 169.977C264.339 170.77 263.959 171.337 263.404 171.677C262.849 172.006 262.203 172.17 261.466 172.17C260.106 172.17 259.086 171.779 258.406 170.997C257.726 170.204 257.386 169.155 257.386 167.852V167.512C257.386 166.209 257.703 165.166 258.338 164.384C258.984 163.602 259.913 163.211 261.126 163.211C261.806 163.211 262.407 163.347 262.928 163.619C263.461 163.88 263.874 164.259 264.169 164.758C264.475 165.257 264.628 165.863 264.628 166.577C264.628 166.747 264.617 166.928 264.594 167.121C264.583 167.314 264.554 167.506 264.509 167.699H259.477V168.192C259.477 169.393 259.647 170.26 259.987 170.793C260.327 171.314 260.877 171.575 261.636 171.575C262.123 171.575 262.537 171.433 262.877 171.15C263.217 170.855 263.41 170.362 263.455 169.671L264.543 169.977ZM261.126 163.806C260.571 163.806 260.157 164.061 259.885 164.571C259.613 165.081 259.477 165.925 259.477 167.104H262.554C262.599 166.877 262.628 166.668 262.639 166.475C262.662 166.271 262.673 166.084 262.673 165.914C262.673 165.189 262.531 164.656 262.248 164.316C261.965 163.976 261.591 163.806 261.126 163.806ZM273.892 163.806C273.348 163.806 272.94 164.067 272.668 164.588C272.407 165.098 272.277 165.959 272.277 167.172V168.192C272.277 169.393 272.43 170.26 272.736 170.793C273.042 171.314 273.54 171.575 274.232 171.575C274.742 171.575 275.155 171.433 275.473 171.15C275.801 170.855 275.988 170.362 276.034 169.671L277.122 169.977C276.918 170.77 276.544 171.337 276 171.677C275.467 172.006 274.838 172.17 274.113 172.17C272.809 172.17 271.829 171.779 271.172 170.997C270.514 170.204 270.186 169.155 270.186 167.852V167.512C270.186 166.209 270.503 165.166 271.138 164.384C271.772 163.602 272.69 163.211 273.892 163.211C274.685 163.211 275.331 163.37 275.83 163.687C276.34 163.993 276.697 164.401 276.901 164.911C277.116 165.41 277.173 165.948 277.071 166.526L275.201 166.798C275.325 165.846 275.274 165.109 275.048 164.588C274.821 164.067 274.436 163.806 273.892 163.806ZM280.503 161.919C280.152 161.919 279.869 161.811 279.653 161.596C279.438 161.369 279.33 161.08 279.33 160.729C279.33 160.378 279.438 160.094 279.653 159.879C279.869 159.664 280.152 159.556 280.503 159.556C280.843 159.556 281.127 159.664 281.353 159.879C281.58 160.094 281.693 160.378 281.693 160.729C281.693 161.08 281.58 161.369 281.353 161.596C281.127 161.811 280.843 161.919 280.503 161.919ZM278.225 163.857V163.381H281.489V170.572C281.489 170.957 281.506 171.19 281.54 171.269C281.574 171.337 281.682 171.382 281.863 171.405L282.798 171.524V172H278.225V171.524L279.16 171.405C279.342 171.382 279.449 171.337 279.483 171.269C279.517 171.19 279.534 170.957 279.534 170.572V164.809C279.534 164.424 279.517 164.197 279.483 164.129C279.449 164.05 279.342 163.999 279.16 163.976L278.225 163.857ZM289.507 170.232C289.36 170.923 289.076 171.422 288.657 171.728C288.249 172.023 287.75 172.17 287.161 172.17C286.56 172.17 286.067 172.04 285.682 171.779C285.297 171.507 285.013 171.15 284.832 170.708C284.651 170.266 284.56 169.796 284.56 169.297V164.809C284.56 164.424 284.543 164.197 284.509 164.129C284.475 164.05 284.367 163.999 284.186 163.976L283.251 163.857V163.381H284.56V161.409L286.515 161.018V163.381H289.235V163.976H286.515V169.637C286.515 170.362 286.606 170.867 286.787 171.15C286.968 171.422 287.201 171.558 287.484 171.558C287.779 171.558 288.005 171.445 288.164 171.218C288.334 170.991 288.442 170.578 288.487 169.977L289.507 170.232ZM294.922 172.85C294.661 173.564 294.372 174.136 294.055 174.567C293.749 174.998 293.369 175.309 292.916 175.502C292.463 175.695 291.896 175.791 291.216 175.791V173.921C291.907 173.921 292.463 173.87 292.882 173.768C293.313 173.677 293.641 173.524 293.868 173.309C294.106 173.105 294.282 172.839 294.395 172.51L294.565 172H293.681L291.267 164.809C291.188 164.548 291.12 164.367 291.063 164.265C291.018 164.152 290.961 164.078 290.893 164.044C290.836 164.01 290.746 163.987 290.621 163.976L289.686 163.857V163.381H294.276V163.857L293.341 163.976C293.205 163.987 293.12 164.033 293.086 164.112C293.063 164.18 293.114 164.412 293.239 164.809L295.092 170.419L297.013 164.741C297.138 164.378 297.189 164.169 297.166 164.112C297.155 164.044 297.064 163.999 296.894 163.976L295.959 163.857V163.381H299.206V163.857L298.271 163.976C298.101 163.999 297.988 164.044 297.931 164.112C297.874 164.18 297.784 164.39 297.659 164.741L294.922 172.85ZM299.915 172.17C299.564 172.17 299.275 172.062 299.048 171.847C298.833 171.62 298.725 171.326 298.725 170.963C298.725 170.6 298.833 170.311 299.048 170.096C299.275 169.881 299.564 169.773 299.915 169.773C300.267 169.773 300.556 169.881 300.782 170.096C301.009 170.311 301.122 170.6 301.122 170.963C301.122 171.326 301.009 171.62 300.782 171.847C300.556 172.062 300.267 172.17 299.915 172.17Z" fill="black"/>
</svg>
