<svg width="354" height="354" viewBox="0 0 354 354" fill="none" xmlns="http://www.w3.org/2000/svg">
<mask id="mask0_257_1219" style="mask-type:luminance" maskUnits="userSpaceOnUse" x="10" y="90" width="330" height="182">
<path d="M10.7969 90.624H339.84V271.511H10.7969V90.624Z" fill="white"/>
</mask>
<g mask="url(#mask0_257_1219)">
<path d="M299.491 91.0259L50.5074 97.7187C28.611 97.7187 10.8594 115.489 10.8594 137.407V184.983C10.8594 206.902 28.611 224.668 50.5074 224.668H75.4312C72.1751 240.513 62.8162 259.309 38.464 271.518C38.464 271.518 89.5764 266.127 117.045 224.668H292.806C314.702 224.668 332.454 206.898 332.454 184.983L339.139 130.714C339.139 108.796 321.387 91.0259 299.491 91.0259Z" fill="black"/>
</g>
<path d="M302.888 84.0454L62.127 90.517C40.9534 90.517 23.7881 107.697 23.7881 128.893V174.894C23.7881 196.09 40.9534 213.27 62.127 213.27H86.2285C83.0831 228.592 74.0303 246.767 50.4856 258.575C50.4856 258.575 99.9055 253.361 126.467 213.27H296.423C317.597 213.27 334.762 196.09 334.762 174.894L341.227 122.421C341.227 101.225 324.061 84.0454 302.888 84.0454Z" fill="white"/>
<mask id="mask1_257_1219" style="mask-type:luminance" maskUnits="userSpaceOnUse" x="21" y="82" width="322" height="180">
<path d="M21.7119 82.4746H342.849V261.488H21.7119V82.4746Z" fill="white"/>
</mask>
<g mask="url(#mask1_257_1219)">
<path d="M42.0892 261.038L49.785 257.178C68.2852 247.9 79.8824 233.662 84.2852 214.838H62.1307C40.1274 214.838 22.2246 196.92 22.2246 174.895V128.893C22.2246 106.875 40.1127 88.9611 62.1086 88.9501L302.866 82.4785H302.888C324.891 82.4785 342.794 100.396 342.794 122.422V122.517L342.779 122.61L336.326 174.994C336.274 196.972 318.394 214.838 296.423 214.838H127.304C121.212 223.846 113.483 231.815 104.316 238.526C96.808 244.024 88.3231 248.693 79.1006 252.41C63.4029 258.73 51.1641 260.076 50.6515 260.131L42.0892 261.035V261.038ZM62.1307 92.0845C41.8532 92.0845 25.3553 108.597 25.3553 128.893V174.898C25.3553 195.194 41.8532 211.707 62.1307 211.707H88.146L87.7626 213.588C85.8967 222.677 82.3714 230.941 77.2864 238.146C72.5664 244.835 66.493 250.614 59.166 255.404C64.0962 254.272 70.7152 252.421 78.0239 249.471C92.0917 243.792 111.687 232.752 125.165 212.411L125.629 211.707H296.423C316.701 211.707 333.199 195.194 333.199 174.898V174.802L333.21 174.707L339.663 122.326C339.611 102.081 323.147 85.624 302.91 85.6129L62.1529 92.0845H62.1307Z" fill="black"/>
</g>
<path d="M120.652 210.895C112.816 224.982 99.3121 235.863 84.352 241.605L84.2598 241.417C91.019 237.165 97.5938 232.773 103.704 227.648C109.825 222.559 115.316 216.873 120.478 210.777L120.652 210.895Z" fill="black"/>
<path d="M243.039 207.116C229.167 208.218 215.25 208.307 201.344 207.927C196.713 207.776 192.078 207.554 187.446 207.116V206.905C201.319 205.703 215.235 205.744 229.141 206.124C233.772 206.293 238.408 206.496 243.039 206.905V207.116Z" fill="black"/>
<path d="M328.424 178.353C328.951 186.13 324.744 194.317 318.242 198.561L318.099 198.41C321.558 193.885 324.478 189.106 326.421 183.759C327.081 182 327.635 180.197 328.217 178.335L328.424 178.353Z" fill="black"/>
<path d="M285 90.6867C290.948 89.9049 296.925 89.5583 302.91 89.3223C311.296 89.2228 319.795 92.8218 325.216 99.238L325.072 99.3892C319.231 94.7909 312.243 91.8372 304.85 91.3763C304.267 91.3246 303.522 91.3246 302.936 91.2951C300.517 91.3357 298.054 91.3505 295.638 91.321C292.098 91.2767 288.555 91.1771 285.004 90.8932L285 90.683V90.6867Z" fill="black"/>
<path d="M60.0545 96.7414C69.6162 95.7089 79.2073 95.4507 88.8133 95.4434C92.014 95.4544 95.2111 95.5134 98.4155 95.7015L98.4192 95.9117C88.8649 96.911 79.259 97.2023 69.6567 97.2023C66.4597 97.1949 63.2515 97.1249 60.0655 96.9515L60.0508 96.7414H60.0545Z" fill="black"/>
<path d="M31.325 184.246C29.8058 180.503 29.4112 176.3 29.4075 172.262C29.3596 169.909 29.3227 167.343 29.319 165.008C29.2969 158.581 29.4075 152.069 29.9422 145.66H30.1524C30.8161 153.688 30.842 161.797 30.7313 169.843C30.7166 171.045 30.665 173.479 30.6244 174.677C30.5101 177.856 30.8272 181.038 31.5241 184.187L31.325 184.246Z" fill="black"/>
<path d="M46.3388 120.44H55.6888V123.364H55.2128L54.6688 121.477C54.6348 121.33 54.5951 121.228 54.5498 121.171C54.5158 121.103 54.4421 121.063 54.3288 121.052C54.2154 121.041 54.0228 121.035 53.7508 121.035H52.0338V130.572C52.0338 130.957 52.0508 131.19 52.0848 131.269C52.1188 131.337 52.2264 131.382 52.4078 131.405L53.3428 131.524V132H48.6848V131.524L49.6198 131.405C49.8011 131.382 49.9088 131.337 49.9428 131.269C49.9768 131.19 49.9938 130.957 49.9938 130.572V121.035H48.2768C48.0161 121.035 47.8234 121.041 47.6988 121.052C47.5854 121.063 47.5118 121.103 47.4778 121.171C47.4438 121.228 47.4041 121.33 47.3588 121.477L46.8148 123.364H46.3388V120.44ZM66.1815 131.524V132H61.6085V131.524L62.5435 131.405C62.7248 131.382 62.8325 131.337 62.8665 131.269C62.9005 131.19 62.9175 130.957 62.9175 130.572V126.288C62.9175 125.506 62.7985 124.939 62.5605 124.588C62.3338 124.225 61.9938 124.044 61.5405 124.044C61.3478 124.044 61.1212 124.095 60.8605 124.197C60.6112 124.288 60.3562 124.458 60.0955 124.707C59.8462 124.956 59.6252 125.325 59.4325 125.812V130.572C59.4325 130.957 59.4495 131.19 59.4835 131.269C59.5175 131.337 59.6252 131.382 59.8065 131.405L60.7415 131.524V132H56.1685V131.524L57.1035 131.405C57.2848 131.382 57.3925 131.337 57.4265 131.269C57.4605 131.19 57.4775 130.957 57.4775 130.572V120.848C57.4775 120.463 57.4605 120.236 57.4265 120.168C57.3925 120.089 57.2848 120.038 57.1035 120.015L56.1685 119.896V119.42H59.4325V124.707C59.7612 124.186 60.1692 123.806 60.6565 123.568C61.1552 123.33 61.6538 123.211 62.1525 123.211C62.9912 123.211 63.6542 123.477 64.1415 124.01C64.6288 124.543 64.8725 125.296 64.8725 126.271V130.572C64.8725 130.957 64.8895 131.19 64.9235 131.269C64.9575 131.337 65.0652 131.382 65.2465 131.405L66.1815 131.524ZM74.4301 129.977C74.2261 130.77 73.8464 131.337 73.2911 131.677C72.7357 132.006 72.0897 132.17 71.3531 132.17C69.9931 132.17 68.9731 131.779 68.2931 130.997C67.6131 130.204 67.2731 129.155 67.2731 127.852V127.512C67.2731 126.209 67.5904 125.166 68.2251 124.384C68.8711 123.602 69.8004 123.211 71.0131 123.211C71.6931 123.211 72.2937 123.347 72.8151 123.619C73.3477 123.88 73.7614 124.259 74.0561 124.758C74.3621 125.257 74.5151 125.863 74.5151 126.577C74.5151 126.747 74.5037 126.928 74.4811 127.121C74.4697 127.314 74.4414 127.506 74.3961 127.699H69.3641V128.192C69.3641 129.393 69.5341 130.26 69.8741 130.793C70.2141 131.314 70.7637 131.575 71.5231 131.575C72.0104 131.575 72.4241 131.433 72.7641 131.15C73.1041 130.855 73.2967 130.362 73.3421 129.671L74.4301 129.977ZM71.0131 123.806C70.4577 123.806 70.0441 124.061 69.7721 124.571C69.5001 125.081 69.3641 125.925 69.3641 127.104H72.4411C72.4864 126.877 72.5147 126.668 72.5261 126.475C72.5487 126.271 72.5601 126.084 72.5601 125.914C72.5601 125.189 72.4184 124.656 72.1351 124.316C71.8517 123.976 71.4777 123.806 71.0131 123.806ZM83.4389 128.787L82.2659 128.515C81.5065 128.334 80.9399 128.011 80.5659 127.546C80.2032 127.07 80.0219 126.509 80.0219 125.863C80.0219 125.387 80.1239 124.951 80.3279 124.554C80.5432 124.146 80.8775 123.823 81.3309 123.585C81.7842 123.336 82.3735 123.211 83.0989 123.211C83.8809 123.211 84.5155 123.336 85.0029 123.585C85.4902 123.834 85.8359 124.163 86.0399 124.571C86.2439 124.979 86.3062 125.415 86.2269 125.88L84.3569 126.22C84.5155 125.449 84.4702 124.854 84.2209 124.435C83.9829 124.016 83.5805 123.806 83.0139 123.806C82.6172 123.806 82.2885 123.925 82.0279 124.163C81.7672 124.39 81.6369 124.718 81.6369 125.149C81.6369 125.546 81.7502 125.897 81.9769 126.203C82.2035 126.498 82.5379 126.696 82.9799 126.798L84.1529 127.07C84.9915 127.263 85.5979 127.569 85.9719 127.988C86.3459 128.396 86.5329 128.906 86.5329 129.518C86.5329 130.277 86.2495 130.912 85.6829 131.422C85.1275 131.921 84.2945 132.17 83.1839 132.17C82.7985 132.17 82.3735 132.113 81.9089 132C81.4555 131.875 81.0362 131.654 80.6509 131.337C80.2769 131.02 80.0049 130.566 79.8349 129.977L80.9399 129.535C81.0192 130.283 81.2742 130.81 81.7049 131.116C82.1469 131.422 82.6399 131.575 83.1839 131.575C83.6939 131.575 84.1075 131.462 84.4249 131.235C84.7535 130.997 84.9179 130.657 84.9179 130.215C84.9179 129.909 84.8102 129.631 84.5949 129.382C84.3909 129.121 84.0055 128.923 83.4389 128.787ZM97.3698 131.524V132H94.2078V130.504C93.8905 131.082 93.4825 131.507 92.9838 131.779C92.4852 132.04 91.9808 132.17 91.4708 132.17C90.6662 132.17 90.0258 131.904 89.5498 131.371C89.0738 130.827 88.8358 130.073 88.8358 129.11V124.809C88.8358 124.424 88.8188 124.197 88.7848 124.129C88.7508 124.05 88.6432 123.999 88.4618 123.976L87.5268 123.857V123.381H90.7908V129.093C90.7908 129.875 90.8985 130.447 91.1138 130.81C91.3405 131.161 91.6635 131.337 92.0828 131.337C92.2642 131.337 92.4738 131.292 92.7118 131.201C92.9612 131.099 93.2105 130.923 93.4598 130.674C93.7092 130.413 93.9245 130.045 94.1058 129.569V124.809C94.1058 124.424 94.0888 124.191 94.0548 124.112C94.0208 124.033 93.9132 123.987 93.7318 123.976L92.4568 123.857V123.381H96.0608V130.572C96.0608 130.957 96.0778 131.19 96.1118 131.269C96.1458 131.337 96.2535 131.382 96.4348 131.405L97.3698 131.524ZM108.053 131.524V132H103.48V131.524L104.415 131.405C104.597 131.382 104.704 131.337 104.738 131.269C104.772 131.19 104.789 130.957 104.789 130.572V126.288C104.789 125.506 104.67 124.939 104.432 124.588C104.206 124.225 103.866 124.044 103.412 124.044C103.22 124.044 102.993 124.095 102.732 124.197C102.483 124.288 102.228 124.458 101.967 124.707C101.718 124.956 101.497 125.325 101.304 125.812V130.572C101.304 130.957 101.321 131.19 101.355 131.269C101.389 131.337 101.497 131.382 101.678 131.405L102.613 131.524V132H98.0404V131.524L98.9754 131.405C99.1567 131.382 99.2644 131.337 99.2984 131.269C99.3324 131.19 99.3494 130.957 99.3494 130.572V124.809C99.3494 124.424 99.3324 124.197 99.2984 124.129C99.2644 124.05 99.1567 123.999 98.9754 123.976L98.0404 123.857V123.381H101.202V124.877C101.531 124.299 101.95 123.88 102.46 123.619C102.982 123.347 103.503 123.211 104.024 123.211C104.863 123.211 105.526 123.477 106.013 124.01C106.501 124.543 106.744 125.296 106.744 126.271V130.572C106.744 130.957 106.761 131.19 106.795 131.269C106.829 131.337 106.937 131.382 107.118 131.405L108.053 131.524ZM114.712 121.919C114.361 121.919 114.077 121.811 113.862 121.596C113.647 121.369 113.539 121.08 113.539 120.729C113.539 120.378 113.647 120.094 113.862 119.879C114.077 119.664 114.361 119.556 114.712 119.556C115.052 119.556 115.335 119.664 115.562 119.879C115.789 120.094 115.902 120.378 115.902 120.729C115.902 121.08 115.789 121.369 115.562 121.596C115.335 121.811 115.052 121.919 114.712 121.919ZM112.434 123.857V123.381H115.698V130.572C115.698 130.957 115.715 131.19 115.749 131.269C115.783 131.337 115.891 131.382 116.072 131.405L117.007 131.524V132H112.434V131.524L113.369 131.405C113.55 131.382 113.658 131.337 113.692 131.269C113.726 131.19 113.743 130.957 113.743 130.572V124.809C113.743 124.424 113.726 124.197 113.692 124.129C113.658 124.05 113.55 123.999 113.369 123.976L112.434 123.857ZM121.539 128.787L120.366 128.515C119.607 128.334 119.04 128.011 118.666 127.546C118.304 127.07 118.122 126.509 118.122 125.863C118.122 125.387 118.224 124.951 118.428 124.554C118.644 124.146 118.978 123.823 119.431 123.585C119.885 123.336 120.474 123.211 121.199 123.211C121.981 123.211 122.616 123.336 123.103 123.585C123.591 123.834 123.936 124.163 124.14 124.571C124.344 124.979 124.407 125.415 124.327 125.88L122.457 126.22C122.616 125.449 122.571 124.854 122.321 124.435C122.083 124.016 121.681 123.806 121.114 123.806C120.718 123.806 120.389 123.925 120.128 124.163C119.868 124.39 119.737 124.718 119.737 125.149C119.737 125.546 119.851 125.897 120.077 126.203C120.304 126.498 120.638 126.696 121.08 126.798L122.253 127.07C123.092 127.263 123.698 127.569 124.072 127.988C124.446 128.396 124.633 128.906 124.633 129.518C124.633 130.277 124.35 130.912 123.783 131.422C123.228 131.921 122.395 132.17 121.284 132.17C120.899 132.17 120.474 132.113 120.009 132C119.556 131.875 119.137 131.654 118.751 131.337C118.377 131.02 118.105 130.566 117.935 129.977L119.04 129.535C119.12 130.283 119.375 130.81 119.805 131.116C120.247 131.422 120.74 131.575 121.284 131.575C121.794 131.575 122.208 131.462 122.525 131.235C122.854 130.997 123.018 130.657 123.018 130.215C123.018 129.909 122.911 129.631 122.695 129.382C122.491 129.121 122.106 128.923 121.539 128.787ZM139.527 131.524V132H134.954V131.524L135.889 131.405C136.071 131.382 136.178 131.337 136.212 131.269C136.246 131.19 136.263 130.957 136.263 130.572V126.288C136.263 125.506 136.144 124.939 135.906 124.588C135.68 124.225 135.34 124.044 134.886 124.044C134.694 124.044 134.467 124.095 134.206 124.197C133.957 124.288 133.702 124.458 133.441 124.707C133.192 124.956 132.971 125.325 132.778 125.812V130.572C132.778 130.957 132.795 131.19 132.829 131.269C132.863 131.337 132.971 131.382 133.152 131.405L134.087 131.524V132H129.514V131.524L130.449 131.405C130.631 131.382 130.738 131.337 130.772 131.269C130.806 131.19 130.823 130.957 130.823 130.572V120.848C130.823 120.463 130.806 120.236 130.772 120.168C130.738 120.089 130.631 120.038 130.449 120.015L129.514 119.896V119.42H132.778V124.707C133.107 124.186 133.515 123.806 134.002 123.568C134.501 123.33 135 123.211 135.498 123.211C136.337 123.211 137 123.477 137.487 124.01C137.975 124.543 138.218 125.296 138.218 126.271V130.572C138.218 130.957 138.235 131.19 138.269 131.269C138.303 131.337 138.411 131.382 138.592 131.405L139.527 131.524ZM142.387 121.919C142.035 121.919 141.752 121.811 141.537 121.596C141.321 121.369 141.214 121.08 141.214 120.729C141.214 120.378 141.321 120.094 141.537 119.879C141.752 119.664 142.035 119.556 142.387 119.556C142.727 119.556 143.01 119.664 143.237 119.879C143.463 120.094 143.577 120.378 143.577 120.729C143.577 121.08 143.463 121.369 143.237 121.596C143.01 121.811 142.727 121.919 142.387 121.919ZM140.109 123.857V123.381H143.373V130.572C143.373 130.957 143.39 131.19 143.424 131.269C143.458 131.337 143.565 131.382 143.747 131.405L144.682 131.524V132H140.109V131.524L141.044 131.405C141.225 131.382 141.333 131.337 141.367 131.269C141.401 131.19 141.418 130.957 141.418 130.572V124.809C141.418 124.424 141.401 124.197 141.367 124.129C141.333 124.05 141.225 123.999 141.044 123.976L140.109 123.857ZM151.39 130.232C151.243 130.923 150.96 131.422 150.54 131.728C150.132 132.023 149.634 132.17 149.044 132.17C148.444 132.17 147.951 132.04 147.565 131.779C147.18 131.507 146.897 131.15 146.715 130.708C146.534 130.266 146.443 129.796 146.443 129.297V124.809C146.443 124.424 146.426 124.197 146.392 124.129C146.358 124.05 146.251 123.999 146.069 123.976L145.134 123.857V123.381H146.443V121.409L148.398 121.018V123.381H151.118V123.976H148.398V129.637C148.398 130.362 148.489 130.867 148.67 131.15C148.852 131.422 149.084 131.558 149.367 131.558C149.662 131.558 149.889 131.445 150.047 131.218C150.217 130.991 150.325 130.578 150.37 129.977L151.39 130.232ZM158.097 130.232C157.95 130.923 157.667 131.422 157.247 131.728C156.839 132.023 156.341 132.17 155.751 132.17C155.151 132.17 154.658 132.04 154.272 131.779C153.887 131.507 153.604 131.15 153.422 130.708C153.241 130.266 153.15 129.796 153.15 129.297V124.809C153.15 124.424 153.133 124.197 153.099 124.129C153.065 124.05 152.958 123.999 152.776 123.976L151.841 123.857V123.381H153.15V121.409L155.105 121.018V123.381H157.825V123.976H155.105V129.637C155.105 130.362 155.196 130.867 155.377 131.15C155.559 131.422 155.791 131.558 156.074 131.558C156.369 131.558 156.596 131.445 156.754 131.218C156.924 130.991 157.032 130.578 157.077 129.977L158.097 130.232ZM161.03 121.919C160.679 121.919 160.396 121.811 160.18 121.596C159.965 121.369 159.857 121.08 159.857 120.729C159.857 120.378 159.965 120.094 160.18 119.879C160.396 119.664 160.679 119.556 161.03 119.556C161.37 119.556 161.654 119.664 161.88 119.879C162.107 120.094 162.22 120.378 162.22 120.729C162.22 121.08 162.107 121.369 161.88 121.596C161.654 121.811 161.37 121.919 161.03 121.919ZM158.752 123.857V123.381H162.016V130.572C162.016 130.957 162.033 131.19 162.067 131.269C162.101 131.337 162.209 131.382 162.39 131.405L163.325 131.524V132H158.752V131.524L159.687 131.405C159.869 131.382 159.976 131.337 160.01 131.269C160.044 131.19 160.061 130.957 160.061 130.572V124.809C160.061 124.424 160.044 124.197 160.01 124.129C159.976 124.05 159.869 123.999 159.687 123.976L158.752 123.857ZM173.995 131.524V132H169.422V131.524L170.357 131.405C170.538 131.382 170.646 131.337 170.68 131.269C170.714 131.19 170.731 130.957 170.731 130.572V126.288C170.731 125.506 170.612 124.939 170.374 124.588C170.147 124.225 169.807 124.044 169.354 124.044C169.161 124.044 168.934 124.095 168.674 124.197C168.424 124.288 168.169 124.458 167.909 124.707C167.659 124.956 167.438 125.325 167.246 125.812V130.572C167.246 130.957 167.263 131.19 167.297 131.269C167.331 131.337 167.438 131.382 167.62 131.405L168.555 131.524V132H163.982V131.524L164.917 131.405C165.098 131.382 165.206 131.337 165.24 131.269C165.274 131.19 165.291 130.957 165.291 130.572V124.809C165.291 124.424 165.274 124.197 165.24 124.129C165.206 124.05 165.098 123.999 164.917 123.976L163.982 123.857V123.381H167.144V124.877C167.472 124.299 167.892 123.88 168.402 123.619C168.923 123.347 169.444 123.211 169.966 123.211C170.804 123.211 171.467 123.477 171.955 124.01C172.442 124.543 172.686 125.296 172.686 126.271V130.572C172.686 130.957 172.703 131.19 172.737 131.269C172.771 131.337 172.878 131.382 173.06 131.405L173.995 131.524ZM182.87 132.884C182.87 133.813 182.518 134.527 181.816 135.026C181.124 135.536 180.172 135.791 178.96 135.791C177.622 135.791 176.625 135.57 175.968 135.128C175.31 134.697 174.953 134.159 174.897 133.513L176.716 133.224C176.67 133.825 176.812 134.301 177.141 134.652C177.481 135.015 178.087 135.196 178.96 135.196C179.776 135.196 180.433 135.043 180.932 134.737C181.442 134.431 181.697 133.989 181.697 133.411C181.697 133.003 181.544 132.691 181.238 132.476C180.943 132.272 180.45 132.17 179.759 132.17H177.821C177.22 132.17 176.744 132.085 176.393 131.915C176.053 131.745 175.815 131.535 175.679 131.286C175.543 131.025 175.475 130.759 175.475 130.487C175.475 130.158 175.565 129.835 175.747 129.518C175.928 129.189 176.24 128.866 176.682 128.549C176.194 128.334 175.798 128.016 175.492 127.597C175.186 127.178 175.033 126.656 175.033 126.033C175.033 125.398 175.18 124.877 175.475 124.469C175.769 124.05 176.166 123.738 176.665 123.534C177.163 123.319 177.719 123.211 178.331 123.211H178.62C179.277 123.211 179.844 123.319 180.32 123.534L182.768 122.327L182.972 123.993H181.034C181.306 124.231 181.515 124.52 181.663 124.86C181.821 125.189 181.901 125.58 181.901 126.033C181.901 126.645 181.753 127.161 181.459 127.58C181.164 127.999 180.767 128.317 180.269 128.532C179.781 128.747 179.232 128.855 178.62 128.855H178.331C177.991 128.855 177.656 128.821 177.328 128.753C177.044 128.946 176.846 129.133 176.733 129.314C176.631 129.484 176.58 129.648 176.58 129.807C176.58 129.988 176.659 130.124 176.818 130.215C176.988 130.306 177.26 130.351 177.634 130.351H179.844C180.818 130.351 181.566 130.572 182.088 131.014C182.609 131.445 182.87 132.068 182.87 132.884ZM178.62 128.26C178.982 128.26 179.294 128.101 179.555 127.784C179.815 127.467 179.946 126.883 179.946 126.033C179.946 125.183 179.815 124.599 179.555 124.282C179.294 123.965 178.982 123.806 178.62 123.806H178.331C177.968 123.806 177.651 123.965 177.379 124.282C177.118 124.599 176.988 125.183 176.988 126.033C176.988 126.883 177.118 127.467 177.379 127.784C177.651 128.101 177.968 128.26 178.331 128.26H178.62ZM193.475 130.232C193.328 130.923 193.045 131.422 192.625 131.728C192.217 132.023 191.719 132.17 191.129 132.17C190.529 132.17 190.036 132.04 189.65 131.779C189.265 131.507 188.982 131.15 188.8 130.708C188.619 130.266 188.528 129.796 188.528 129.297V124.809C188.528 124.424 188.511 124.197 188.477 124.129C188.443 124.05 188.336 123.999 188.154 123.976L187.219 123.857V123.381H188.528V121.409L190.483 121.018V123.381H193.203V123.976H190.483V129.637C190.483 130.362 190.574 130.867 190.755 131.15C190.937 131.422 191.169 131.558 191.452 131.558C191.747 131.558 191.974 131.445 192.132 131.218C192.302 130.991 192.41 130.578 192.455 129.977L193.475 130.232ZM204.024 131.524V132H199.451V131.524L200.386 131.405C200.568 131.382 200.675 131.337 200.709 131.269C200.743 131.19 200.76 130.957 200.76 130.572V126.288C200.76 125.506 200.641 124.939 200.403 124.588C200.177 124.225 199.837 124.044 199.383 124.044C199.191 124.044 198.964 124.095 198.703 124.197C198.454 124.288 198.199 124.458 197.938 124.707C197.689 124.956 197.468 125.325 197.275 125.812V130.572C197.275 130.957 197.292 131.19 197.326 131.269C197.36 131.337 197.468 131.382 197.649 131.405L198.584 131.524V132H194.011V131.524L194.946 131.405C195.128 131.382 195.235 131.337 195.269 131.269C195.303 131.19 195.32 130.957 195.32 130.572V120.848C195.32 120.463 195.303 120.236 195.269 120.168C195.235 120.089 195.128 120.038 194.946 120.015L194.011 119.896V119.42H197.275V124.707C197.604 124.186 198.012 123.806 198.499 123.568C198.998 123.33 199.497 123.211 199.995 123.211C200.834 123.211 201.497 123.477 201.984 124.01C202.472 124.543 202.715 125.296 202.715 126.271V130.572C202.715 130.957 202.732 131.19 202.766 131.269C202.8 131.337 202.908 131.382 203.089 131.405L204.024 131.524ZM212.273 129.977C212.069 130.77 211.689 131.337 211.134 131.677C210.579 132.006 209.933 132.17 209.196 132.17C207.836 132.17 206.816 131.779 206.136 130.997C205.456 130.204 205.116 129.155 205.116 127.852V127.512C205.116 126.209 205.433 125.166 206.068 124.384C206.714 123.602 207.643 123.211 208.856 123.211C209.536 123.211 210.137 123.347 210.658 123.619C211.191 123.88 211.604 124.259 211.899 124.758C212.205 125.257 212.358 125.863 212.358 126.577C212.358 126.747 212.347 126.928 212.324 127.121C212.313 127.314 212.284 127.506 212.239 127.699H207.207V128.192C207.207 129.393 207.377 130.26 207.717 130.793C208.057 131.314 208.607 131.575 209.366 131.575C209.853 131.575 210.267 131.433 210.607 131.15C210.947 130.855 211.14 130.362 211.185 129.671L212.273 129.977ZM208.856 123.806C208.301 123.806 207.887 124.061 207.615 124.571C207.343 125.081 207.207 125.925 207.207 127.104H210.284C210.329 126.877 210.358 126.668 210.369 126.475C210.392 126.271 210.403 126.084 210.403 125.914C210.403 125.189 210.261 124.656 209.978 124.316C209.695 123.976 209.321 123.806 208.856 123.806ZM227.249 131.524V132H222.676V131.524L223.611 131.405C223.792 131.382 223.9 131.337 223.934 131.269C223.968 131.19 223.985 130.957 223.985 130.572V126.288C223.985 125.506 223.877 124.939 223.662 124.588C223.446 124.225 223.123 124.044 222.693 124.044C222.511 124.044 222.296 124.095 222.047 124.197C221.797 124.288 221.548 124.458 221.299 124.707C221.061 124.956 220.851 125.325 220.67 125.812V130.572C220.67 130.957 220.687 131.19 220.721 131.269C220.755 131.337 220.862 131.382 221.044 131.405L221.979 131.524V132H217.406V131.524L218.341 131.405C218.522 131.382 218.63 131.337 218.664 131.269C218.698 131.19 218.715 130.957 218.715 130.572V124.809C218.715 124.424 218.698 124.197 218.664 124.129C218.63 124.05 218.522 123.999 218.341 123.976L217.406 123.857V123.381H220.568V124.877C220.885 124.299 221.293 123.88 221.792 123.619C222.29 123.347 222.795 123.211 223.305 123.211C223.917 123.211 224.432 123.37 224.852 123.687C225.282 123.993 225.588 124.435 225.77 125.013C226.076 124.378 226.489 123.919 227.011 123.636C227.532 123.353 228.053 123.211 228.575 123.211C229.379 123.211 230.02 123.477 230.496 124.01C230.972 124.543 231.21 125.296 231.21 126.271V130.572C231.21 130.957 231.227 131.19 231.261 131.269C231.295 131.337 231.402 131.382 231.584 131.405L232.519 131.524V132H227.946V131.524L228.881 131.405C229.062 131.382 229.17 131.337 229.204 131.269C229.238 131.19 229.255 130.957 229.255 130.572V126.288C229.255 125.506 229.147 124.939 228.932 124.588C228.716 124.225 228.393 124.044 227.963 124.044C227.781 124.044 227.566 124.095 227.317 124.197C227.067 124.288 226.818 124.463 226.569 124.724C226.319 124.985 226.104 125.364 225.923 125.863C225.934 125.92 225.94 125.988 225.94 126.067C225.94 126.135 225.94 126.203 225.94 126.271V130.572C225.94 130.957 225.957 131.19 225.991 131.269C226.025 131.337 226.132 131.382 226.314 131.405L227.249 131.524ZM240.761 129.977C240.557 130.77 240.177 131.337 239.622 131.677C239.067 132.006 238.421 132.17 237.684 132.17C236.324 132.17 235.304 131.779 234.624 130.997C233.944 130.204 233.604 129.155 233.604 127.852V127.512C233.604 126.209 233.921 125.166 234.556 124.384C235.202 123.602 236.131 123.211 237.344 123.211C238.024 123.211 238.625 123.347 239.146 123.619C239.679 123.88 240.092 124.259 240.387 124.758C240.693 125.257 240.846 125.863 240.846 126.577C240.846 126.747 240.835 126.928 240.812 127.121C240.801 127.314 240.772 127.506 240.727 127.699H235.695V128.192C235.695 129.393 235.865 130.26 236.205 130.793C236.545 131.314 237.095 131.575 237.854 131.575C238.341 131.575 238.755 131.433 239.095 131.15C239.435 130.855 239.628 130.362 239.673 129.671L240.761 129.977ZM237.344 123.806C236.789 123.806 236.375 124.061 236.103 124.571C235.831 125.081 235.695 125.925 235.695 127.104H238.772C238.817 126.877 238.846 126.668 238.857 126.475C238.88 126.271 238.891 126.084 238.891 125.914C238.891 125.189 238.749 124.656 238.466 124.316C238.183 123.976 237.809 123.806 237.344 123.806ZM248.144 130.232C247.997 130.923 247.714 131.422 247.294 131.728C246.886 132.023 246.388 132.17 245.798 132.17C245.198 132.17 244.705 132.04 244.319 131.779C243.934 131.507 243.651 131.15 243.469 130.708C243.288 130.266 243.197 129.796 243.197 129.297V124.809C243.197 124.424 243.18 124.197 243.146 124.129C243.112 124.05 243.005 123.999 242.823 123.976L241.888 123.857V123.381H243.197V121.409L245.152 121.018V123.381H247.872V123.976H245.152V129.637C245.152 130.362 245.243 130.867 245.424 131.15C245.606 131.422 245.838 131.558 246.121 131.558C246.416 131.558 246.643 131.445 246.801 131.218C246.971 130.991 247.079 130.578 247.124 129.977L248.144 130.232ZM257.469 131.575C257.288 131.745 257.067 131.887 256.806 132C256.557 132.113 256.251 132.17 255.888 132.17C255.424 132.17 255.033 132.068 254.715 131.864C254.409 131.66 254.205 131.371 254.103 130.997C253.729 131.405 253.316 131.705 252.862 131.898C252.42 132.079 251.967 132.17 251.502 132.17C250.72 132.17 250.137 131.955 249.751 131.524C249.366 131.082 249.173 130.532 249.173 129.875C249.173 129.206 249.417 128.668 249.904 128.26C250.392 127.841 251.253 127.631 252.488 127.631H254.035V126.254C254.035 125.313 253.911 124.673 253.661 124.333C253.423 123.982 253.089 123.806 252.658 123.806C252.375 123.806 252.114 123.88 251.876 124.027C251.638 124.163 251.468 124.424 251.366 124.809C251.276 125.183 251.293 125.727 251.417 126.441L249.547 126.169C249.457 125.648 249.513 125.166 249.717 124.724C249.933 124.271 250.29 123.908 250.788 123.636C251.287 123.353 251.922 123.211 252.692 123.211C253.565 123.211 254.239 123.353 254.715 123.636C255.191 123.919 255.52 124.293 255.701 124.758C255.894 125.223 255.99 125.721 255.99 126.254V130.181C255.99 130.759 256.041 131.122 256.143 131.269C256.245 131.416 256.359 131.49 256.483 131.49C256.687 131.49 256.914 131.371 257.163 131.133L257.469 131.575ZM252.25 131.269C252.545 131.269 252.834 131.195 253.117 131.048C253.412 130.889 253.718 130.6 254.035 130.181V128.226H252.76C252.205 128.226 251.803 128.356 251.553 128.617C251.304 128.878 251.179 129.286 251.179 129.841C251.179 130.294 251.27 130.646 251.451 130.895C251.633 131.144 251.899 131.269 252.25 131.269ZM257.828 119.896V119.42H261.092V130.572C261.092 130.957 261.109 131.19 261.143 131.269C261.177 131.337 261.284 131.382 261.466 131.405L262.401 131.524V132H257.828V131.524L258.763 131.405C258.944 131.382 259.052 131.337 259.086 131.269C259.12 131.19 259.137 130.957 259.137 130.572V120.848C259.137 120.463 259.12 120.236 259.086 120.168C259.052 120.089 258.944 120.038 258.763 120.015L257.828 119.896ZM266.862 123.857V123.381H270.024V124.775C270.715 123.732 271.537 123.211 272.489 123.211C272.84 123.211 273.18 123.324 273.509 123.551C273.837 123.766 274.109 124.174 274.325 124.775L272.812 125.591C272.653 125.126 272.466 124.815 272.251 124.656C272.047 124.486 271.826 124.401 271.588 124.401C271.338 124.401 271.095 124.48 270.857 124.639C270.619 124.798 270.375 125.092 270.126 125.523V130.572C270.126 130.957 270.143 131.19 270.177 131.269C270.211 131.337 270.318 131.382 270.5 131.405L271.775 131.524V132H266.862V131.524L267.797 131.405C267.978 131.382 268.086 131.337 268.12 131.269C268.154 131.19 268.171 130.957 268.171 130.572V124.809C268.171 124.424 268.154 124.197 268.12 124.129C268.086 124.05 267.978 123.999 267.797 123.976L266.862 123.857ZM282.744 127.512V127.852C282.744 129.155 282.404 130.204 281.724 130.997C281.056 131.779 280.098 132.17 278.851 132.17C277.605 132.17 276.641 131.779 275.961 130.997C275.293 130.204 274.958 129.155 274.958 127.852V127.512C274.958 126.209 275.293 125.166 275.961 124.384C276.641 123.602 277.605 123.211 278.851 123.211C280.098 123.211 281.056 123.602 281.724 124.384C282.404 125.166 282.744 126.209 282.744 127.512ZM280.653 127.172C280.653 125.959 280.5 125.098 280.194 124.588C279.888 124.067 279.441 123.806 278.851 123.806C278.273 123.806 277.826 124.067 277.508 124.588C277.202 125.098 277.049 125.959 277.049 127.172V128.192C277.049 129.393 277.202 130.26 277.508 130.793C277.826 131.314 278.273 131.575 278.851 131.575C279.441 131.575 279.888 131.314 280.194 130.793C280.5 130.26 280.653 129.393 280.653 128.192V127.172ZM292.29 127.512V127.852C292.29 129.155 291.95 130.204 291.27 130.997C290.601 131.779 289.644 132.17 288.397 132.17C287.15 132.17 286.187 131.779 285.507 130.997C284.838 130.204 284.504 129.155 284.504 127.852V127.512C284.504 126.209 284.838 125.166 285.507 124.384C286.187 123.602 287.15 123.211 288.397 123.211C289.644 123.211 290.601 123.602 291.27 124.384C291.95 125.166 292.29 126.209 292.29 127.512ZM290.199 127.172C290.199 125.959 290.046 125.098 289.74 124.588C289.434 124.067 288.986 123.806 288.397 123.806C287.819 123.806 287.371 124.067 287.054 124.588C286.748 125.098 286.595 125.959 286.595 127.172V128.192C286.595 129.393 286.748 130.26 287.054 130.793C287.371 131.314 287.819 131.575 288.397 131.575C288.986 131.575 289.434 131.314 289.74 130.793C290.046 130.26 290.199 129.393 290.199 128.192V127.172ZM298.47 131.524V132H293.557V131.524L294.492 131.405C294.673 131.382 294.781 131.337 294.815 131.269C294.849 131.19 294.866 130.957 294.866 130.572V124.809C294.866 124.424 294.849 124.197 294.815 124.129C294.781 124.05 294.673 123.999 294.492 123.976L293.557 123.857V123.381H294.866V122.463C294.866 121.919 294.957 121.403 295.138 120.916C295.331 120.417 295.648 120.015 296.09 119.709C296.543 119.403 297.15 119.25 297.909 119.25C298.6 119.25 299.167 119.369 299.609 119.607C300.062 119.845 300.385 120.162 300.578 120.559C300.782 120.956 300.844 121.386 300.765 121.851L298.895 122.123C299.008 121.273 298.974 120.684 298.793 120.355C298.623 120.015 298.328 119.845 297.909 119.845C297.682 119.845 297.484 119.907 297.314 120.032C297.155 120.157 297.031 120.383 296.94 120.712C296.861 121.029 296.821 121.5 296.821 122.123V123.381H299.371V123.976H296.821V130.572C296.821 130.957 296.838 131.19 296.872 131.269C296.906 131.337 297.014 131.382 297.195 131.405L298.47 131.524ZM311.814 127.512V127.852C311.814 129.155 311.474 130.204 310.794 130.997C310.125 131.779 309.167 132.17 307.921 132.17C306.674 132.17 305.711 131.779 305.031 130.997C304.362 130.204 304.028 129.155 304.028 127.852V127.512C304.028 126.209 304.362 125.166 305.031 124.384C305.711 123.602 306.674 123.211 307.921 123.211C309.167 123.211 310.125 123.602 310.794 124.384C311.474 125.166 311.814 126.209 311.814 127.512ZM309.723 127.172C309.723 125.959 309.57 125.098 309.264 124.588C308.958 124.067 308.51 123.806 307.921 123.806C307.343 123.806 306.895 124.067 306.578 124.588C306.272 125.098 306.119 125.959 306.119 127.172V128.192C306.119 129.393 306.272 130.26 306.578 130.793C306.895 131.314 307.343 131.575 307.921 131.575C308.51 131.575 308.958 131.314 309.264 130.793C309.57 130.26 309.723 129.393 309.723 128.192V127.172ZM317.993 131.524V132H313.08V131.524L314.015 131.405C314.197 131.382 314.304 131.337 314.338 131.269C314.372 131.19 314.389 130.957 314.389 130.572V124.809C314.389 124.424 314.372 124.197 314.338 124.129C314.304 124.05 314.197 123.999 314.015 123.976L313.08 123.857V123.381H314.389V122.463C314.389 121.919 314.48 121.403 314.661 120.916C314.854 120.417 315.171 120.015 315.613 119.709C316.067 119.403 316.673 119.25 317.432 119.25C318.124 119.25 318.69 119.369 319.132 119.607C319.586 119.845 319.909 120.162 320.101 120.559C320.305 120.956 320.368 121.386 320.288 121.851L318.418 122.123C318.532 121.273 318.498 120.684 318.316 120.355C318.146 120.015 317.852 119.845 317.432 119.845C317.206 119.845 317.007 119.907 316.837 120.032C316.679 120.157 316.554 120.383 316.463 120.712C316.384 121.029 316.344 121.5 316.344 122.123V123.381H318.894V123.976H316.344V130.572C316.344 130.957 316.361 131.19 316.395 131.269C316.429 131.337 316.537 131.382 316.718 131.405L317.993 131.524ZM48.0787 150.232C47.9314 150.923 47.6481 151.422 47.2287 151.728C46.8207 152.023 46.3221 152.17 45.7327 152.17C45.1321 152.17 44.6391 152.04 44.2537 151.779C43.8684 151.507 43.5851 151.15 43.4037 150.708C43.2224 150.266 43.1317 149.796 43.1317 149.297V144.809C43.1317 144.424 43.1147 144.197 43.0807 144.129C43.0467 144.05 42.9391 143.999 42.7577 143.976L41.8227 143.857V143.381H43.1317V141.409L45.0867 141.018V143.381H47.8067V143.976H45.0867V149.637C45.0867 150.362 45.1774 150.867 45.3587 151.15C45.5401 151.422 45.7724 151.558 46.0557 151.558C46.3504 151.558 46.5771 151.445 46.7357 151.218C46.9057 150.991 47.0134 150.578 47.0587 149.977L48.0787 150.232ZM58.6278 151.524V152H54.0548V151.524L54.9898 151.405C55.1711 151.382 55.2788 151.337 55.3128 151.269C55.3468 151.19 55.3638 150.957 55.3638 150.572V146.288C55.3638 145.506 55.2448 144.939 55.0068 144.588C54.7801 144.225 54.4401 144.044 53.9868 144.044C53.7941 144.044 53.5674 144.095 53.3068 144.197C53.0574 144.288 52.8024 144.458 52.5418 144.707C52.2924 144.956 52.0714 145.325 51.8788 145.812V150.572C51.8788 150.957 51.8958 151.19 51.9298 151.269C51.9638 151.337 52.0714 151.382 52.2528 151.405L53.1878 151.524V152H48.6148V151.524L49.5498 151.405C49.7311 151.382 49.8388 151.337 49.8728 151.269C49.9068 151.19 49.9238 150.957 49.9238 150.572V140.848C49.9238 140.463 49.9068 140.236 49.8728 140.168C49.8388 140.089 49.7311 140.038 49.5498 140.015L48.6148 139.896V139.42H51.8788V144.707C52.2074 144.186 52.6154 143.806 53.1028 143.568C53.6014 143.33 54.1001 143.211 54.5988 143.211C55.4374 143.211 56.1004 143.477 56.5878 144.01C57.0751 144.543 57.3188 145.296 57.3188 146.271V150.572C57.3188 150.957 57.3358 151.19 57.3698 151.269C57.4038 151.337 57.5114 151.382 57.6928 151.405L58.6278 151.524ZM66.8764 149.977C66.6724 150.77 66.2927 151.337 65.7374 151.677C65.182 152.006 64.536 152.17 63.7994 152.17C62.4394 152.17 61.4194 151.779 60.7394 150.997C60.0594 150.204 59.7194 149.155 59.7194 147.852V147.512C59.7194 146.209 60.0367 145.166 60.6714 144.384C61.3174 143.602 62.2467 143.211 63.4594 143.211C64.1394 143.211 64.74 143.347 65.2614 143.619C65.794 143.88 66.2077 144.259 66.5024 144.758C66.8084 145.257 66.9614 145.863 66.9614 146.577C66.9614 146.747 66.95 146.928 66.9274 147.121C66.916 147.314 66.8877 147.506 66.8424 147.699H61.8104V148.192C61.8104 149.393 61.9804 150.26 62.3204 150.793C62.6604 151.314 63.21 151.575 63.9694 151.575C64.4567 151.575 64.8704 151.433 65.2104 151.15C65.5504 150.855 65.743 150.362 65.7884 149.671L66.8764 149.977ZM63.4594 143.806C62.904 143.806 62.4904 144.061 62.2184 144.571C61.9464 145.081 61.8104 145.925 61.8104 147.104H64.8874C64.9327 146.877 64.961 146.668 64.9724 146.475C64.995 146.271 65.0064 146.084 65.0064 145.914C65.0064 145.189 64.8647 144.656 64.5814 144.316C64.298 143.976 63.924 143.806 63.4594 143.806ZM76.2932 151.575C76.9732 151.575 77.5342 151.416 77.9762 151.099C78.4295 150.77 78.6562 150.26 78.6562 149.569C78.6562 149.059 78.5032 148.634 78.1972 148.294C77.9025 147.954 77.3698 147.671 76.5992 147.444L75.0182 146.968C74.2248 146.73 73.6128 146.322 73.1822 145.744C72.7628 145.155 72.5532 144.424 72.5532 143.551C72.5532 142.973 72.6835 142.435 72.9442 141.936C73.2162 141.437 73.6242 141.035 74.1682 140.729C74.7235 140.423 75.4205 140.27 76.2592 140.27C77.1772 140.27 77.9195 140.44 78.4862 140.78C79.0528 141.109 79.4495 141.539 79.6762 142.072C79.9028 142.605 79.9595 143.177 79.8462 143.789L77.8912 144.146C78.0725 143.092 77.9932 142.282 77.6532 141.715C77.3245 141.148 76.7862 140.865 76.0382 140.865C75.4602 140.865 74.9955 141.035 74.6442 141.375C74.3042 141.715 74.1342 142.202 74.1342 142.837C74.1342 143.358 74.2815 143.817 74.5762 144.214C74.8822 144.611 75.3808 144.917 76.0722 145.132L77.6532 145.608C78.5145 145.857 79.1605 146.237 79.5912 146.747C80.0218 147.246 80.2372 147.943 80.2372 148.838C80.2372 149.473 80.0898 150.045 79.7952 150.555C79.5118 151.054 79.0755 151.45 78.4862 151.745C77.9082 152.028 77.1828 152.17 76.3102 152.17C75.6755 152.17 75.0748 152.079 74.5082 151.898C73.9415 151.705 73.4655 151.394 73.0802 150.963C72.7062 150.532 72.4682 149.949 72.3662 149.212L73.5052 148.804C73.5618 149.529 73.7205 150.096 73.9812 150.504C74.2532 150.901 74.5875 151.178 74.9842 151.337C75.3922 151.496 75.8285 151.575 76.2932 151.575ZM81.4361 143.857V143.381H84.5981V144.792C84.9267 144.259 85.2837 143.863 85.6691 143.602C86.0544 143.341 86.5134 143.211 87.0461 143.211C87.9981 143.211 88.7517 143.591 89.3071 144.35C89.8737 145.098 90.1571 146.152 90.1571 147.512V147.852C90.1571 149.167 89.8341 150.215 89.1881 150.997C88.5421 151.779 87.6467 152.17 86.5021 152.17C85.8221 152.17 85.2214 152 84.7001 151.66V154.193C84.7001 154.578 84.7171 154.805 84.7511 154.873C84.7851 154.952 84.8927 155.003 85.0741 155.026L86.3491 155.145V155.621H81.4361V155.145L82.3711 155.026C82.5524 155.003 82.6601 154.952 82.6941 154.873C82.7281 154.805 82.7451 154.578 82.7451 154.193V144.809C82.7451 144.424 82.7281 144.197 82.6941 144.129C82.6601 144.05 82.5524 143.999 82.3711 143.976L81.4361 143.857ZM86.6041 143.959C86.3207 143.959 86.0204 144.078 85.7031 144.316C85.3971 144.543 85.0627 145.013 84.7001 145.727V150.861C85.1307 151.292 85.6577 151.507 86.2811 151.507C86.9157 151.507 87.3691 151.229 87.6411 150.674C87.9244 150.107 88.0661 149.337 88.0661 148.362V147.002C88.0661 145.948 87.9357 145.177 87.6751 144.69C87.4144 144.203 87.0574 143.959 86.6041 143.959ZM99.7784 147.512V147.852C99.7784 149.155 99.4384 150.204 98.7584 150.997C98.0897 151.779 97.1321 152.17 95.8854 152.17C94.6387 152.17 93.6754 151.779 92.9954 150.997C92.3267 150.204 91.9924 149.155 91.9924 147.852V147.512C91.9924 146.209 92.3267 145.166 92.9954 144.384C93.6754 143.602 94.6387 143.211 95.8854 143.211C97.1321 143.211 98.0897 143.602 98.7584 144.384C99.4384 145.166 99.7784 146.209 99.7784 147.512ZM97.6874 147.172C97.6874 145.959 97.5344 145.098 97.2284 144.588C96.9224 144.067 96.4747 143.806 95.8854 143.806C95.3074 143.806 94.8597 144.067 94.5424 144.588C94.2364 145.098 94.0834 145.959 94.0834 147.172V148.192C94.0834 149.393 94.2364 150.26 94.5424 150.793C94.8597 151.314 95.3074 151.575 95.8854 151.575C96.4747 151.575 96.9224 151.314 97.2284 150.793C97.5344 150.26 97.6874 149.393 97.6874 148.192V147.172ZM101.045 143.857V143.381H104.207V144.775C104.899 143.732 105.72 143.211 106.672 143.211C107.024 143.211 107.364 143.324 107.692 143.551C108.021 143.766 108.293 144.174 108.508 144.775L106.995 145.591C106.837 145.126 106.65 144.815 106.434 144.656C106.23 144.486 106.009 144.401 105.771 144.401C105.522 144.401 105.278 144.48 105.04 144.639C104.802 144.798 104.559 145.092 104.309 145.523V150.572C104.309 150.957 104.326 151.19 104.36 151.269C104.394 151.337 104.502 151.382 104.683 151.405L105.958 151.524V152H101.045V151.524L101.98 151.405C102.162 151.382 102.269 151.337 102.303 151.269C102.337 151.19 102.354 150.957 102.354 150.572V144.809C102.354 144.424 102.337 144.197 102.303 144.129C102.269 144.05 102.162 143.999 101.98 143.976L101.045 143.857ZM114.95 150.232C114.803 150.923 114.519 151.422 114.1 151.728C113.692 152.023 113.193 152.17 112.604 152.17C112.003 152.17 111.51 152.04 111.125 151.779C110.74 151.507 110.456 151.15 110.275 150.708C110.094 150.266 110.003 149.796 110.003 149.297V144.809C110.003 144.424 109.986 144.197 109.952 144.129C109.918 144.05 109.81 143.999 109.629 143.976L108.694 143.857V143.381H110.003V141.409L111.958 141.018V143.381H114.678V143.976H111.958V149.637C111.958 150.362 112.049 150.867 112.23 151.15C112.411 151.422 112.644 151.558 112.927 151.558C113.222 151.558 113.448 151.445 113.607 151.218C113.777 150.991 113.885 150.578 113.93 149.977L114.95 150.232ZM119.481 148.787L118.308 148.515C117.549 148.334 116.982 148.011 116.608 147.546C116.245 147.07 116.064 146.509 116.064 145.863C116.064 145.387 116.166 144.951 116.37 144.554C116.585 144.146 116.92 143.823 117.373 143.585C117.826 143.336 118.416 143.211 119.141 143.211C119.923 143.211 120.558 143.336 121.045 143.585C121.532 143.834 121.878 144.163 122.082 144.571C122.286 144.979 122.348 145.415 122.269 145.88L120.399 146.22C120.558 145.449 120.512 144.854 120.263 144.435C120.025 144.016 119.623 143.806 119.056 143.806C118.659 143.806 118.331 143.925 118.07 144.163C117.809 144.39 117.679 144.718 117.679 145.149C117.679 145.546 117.792 145.897 118.019 146.203C118.246 146.498 118.58 146.696 119.022 146.798L120.195 147.07C121.034 147.263 121.64 147.569 122.014 147.988C122.388 148.396 122.575 148.906 122.575 149.518C122.575 150.277 122.292 150.912 121.725 151.422C121.17 151.921 120.337 152.17 119.226 152.17C118.841 152.17 118.416 152.113 117.951 152C117.498 151.875 117.078 151.654 116.693 151.337C116.319 151.02 116.047 150.566 115.877 149.977L116.982 149.535C117.061 150.283 117.316 150.81 117.747 151.116C118.189 151.422 118.682 151.575 119.226 151.575C119.736 151.575 120.15 151.462 120.467 151.235C120.796 150.997 120.96 150.657 120.96 150.215C120.96 149.909 120.852 149.631 120.637 149.382C120.433 149.121 120.048 148.923 119.481 148.787ZM133.168 152.17C132.125 152.17 131.241 151.949 130.516 151.507C129.79 151.054 129.241 150.419 128.867 149.603C128.493 148.787 128.306 147.835 128.306 146.747V145.676C128.306 144.588 128.47 143.642 128.799 142.837C129.139 142.021 129.643 141.392 130.312 140.95C130.98 140.497 131.819 140.27 132.828 140.27C133.689 140.27 134.409 140.44 134.987 140.78C135.565 141.109 135.99 141.551 136.262 142.106C136.545 142.65 136.664 143.245 136.619 143.891L134.63 144.384C134.743 143.251 134.624 142.384 134.273 141.783C133.933 141.171 133.423 140.865 132.743 140.865C132.017 140.865 131.456 141.171 131.06 141.783C130.674 142.395 130.482 143.409 130.482 144.826V147.597C130.482 149.002 130.703 150.017 131.145 150.64C131.587 151.263 132.261 151.575 133.168 151.575C133.542 151.575 133.887 151.507 134.205 151.371C134.533 151.235 134.805 151.003 135.021 150.674C135.247 150.334 135.389 149.858 135.446 149.246L136.67 149.569C136.511 150.204 136.256 150.714 135.905 151.099C135.553 151.484 135.14 151.762 134.664 151.932C134.199 152.091 133.7 152.17 133.168 152.17ZM145.385 149.977C145.181 150.77 144.801 151.337 144.246 151.677C143.691 152.006 143.045 152.17 142.308 152.17C140.948 152.17 139.928 151.779 139.248 150.997C138.568 150.204 138.228 149.155 138.228 147.852V147.512C138.228 146.209 138.545 145.166 139.18 144.384C139.826 143.602 140.755 143.211 141.968 143.211C142.648 143.211 143.249 143.347 143.77 143.619C144.303 143.88 144.716 144.259 145.011 144.758C145.317 145.257 145.47 145.863 145.47 146.577C145.47 146.747 145.459 146.928 145.436 147.121C145.425 147.314 145.396 147.506 145.351 147.699H140.319V148.192C140.319 149.393 140.489 150.26 140.829 150.793C141.169 151.314 141.719 151.575 142.478 151.575C142.965 151.575 143.379 151.433 143.719 151.15C144.059 150.855 144.252 150.362 144.297 149.671L145.385 149.977ZM141.968 143.806C141.413 143.806 140.999 144.061 140.727 144.571C140.455 145.081 140.319 145.925 140.319 147.104H143.396C143.441 146.877 143.47 146.668 143.481 146.475C143.504 146.271 143.515 146.084 143.515 145.914C143.515 145.189 143.373 144.656 143.09 144.316C142.807 143.976 142.433 143.806 141.968 143.806ZM156.729 151.524V152H152.156V151.524L153.091 151.405C153.273 151.382 153.38 151.337 153.414 151.269C153.448 151.19 153.465 150.957 153.465 150.572V146.288C153.465 145.506 153.346 144.939 153.108 144.588C152.882 144.225 152.542 144.044 152.088 144.044C151.896 144.044 151.669 144.095 151.408 144.197C151.159 144.288 150.904 144.458 150.643 144.707C150.394 144.956 150.173 145.325 149.98 145.812V150.572C149.98 150.957 149.997 151.19 150.031 151.269C150.065 151.337 150.173 151.382 150.354 151.405L151.289 151.524V152H146.716V151.524L147.651 151.405C147.833 151.382 147.94 151.337 147.974 151.269C148.008 151.19 148.025 150.957 148.025 150.572V144.809C148.025 144.424 148.008 144.197 147.974 144.129C147.94 144.05 147.833 143.999 147.651 143.976L146.716 143.857V143.381H149.878V144.877C150.207 144.299 150.626 143.88 151.136 143.619C151.658 143.347 152.179 143.211 152.7 143.211C153.539 143.211 154.202 143.477 154.689 144.01C155.177 144.543 155.42 145.296 155.42 146.271V150.572C155.42 150.957 155.437 151.19 155.471 151.269C155.505 151.337 155.613 151.382 155.794 151.405L156.729 151.524ZM163.36 150.232C163.213 150.923 162.929 151.422 162.51 151.728C162.102 152.023 161.603 152.17 161.014 152.17C160.413 152.17 159.92 152.04 159.535 151.779C159.15 151.507 158.866 151.15 158.685 150.708C158.504 150.266 158.413 149.796 158.413 149.297V144.809C158.413 144.424 158.396 144.197 158.362 144.129C158.328 144.05 158.22 143.999 158.039 143.976L157.104 143.857V143.381H158.413V141.409L160.368 141.018V143.381H163.088V143.976H160.368V149.637C160.368 150.362 160.459 150.867 160.64 151.15C160.821 151.422 161.054 151.558 161.337 151.558C161.632 151.558 161.858 151.445 162.017 151.218C162.187 150.991 162.295 150.578 162.34 149.977L163.36 150.232ZM171.682 149.977C171.478 150.77 171.098 151.337 170.543 151.677C169.988 152.006 169.342 152.17 168.605 152.17C167.245 152.17 166.225 151.779 165.545 150.997C164.865 150.204 164.525 149.155 164.525 147.852V147.512C164.525 146.209 164.842 145.166 165.477 144.384C166.123 143.602 167.052 143.211 168.265 143.211C168.945 143.211 169.546 143.347 170.067 143.619C170.6 143.88 171.013 144.259 171.308 144.758C171.614 145.257 171.767 145.863 171.767 146.577C171.767 146.747 171.756 146.928 171.733 147.121C171.722 147.314 171.693 147.506 171.648 147.699H166.616V148.192C166.616 149.393 166.786 150.26 167.126 150.793C167.466 151.314 168.016 151.575 168.775 151.575C169.262 151.575 169.676 151.433 170.016 151.15C170.356 150.855 170.549 150.362 170.594 149.671L171.682 149.977ZM168.265 143.806C167.71 143.806 167.296 144.061 167.024 144.571C166.752 145.081 166.616 145.925 166.616 147.104H169.693C169.738 146.877 169.767 146.668 169.778 146.475C169.801 146.271 169.812 146.084 169.812 145.914C169.812 145.189 169.67 144.656 169.387 144.316C169.104 143.976 168.73 143.806 168.265 143.806ZM173.013 143.857V143.381H176.175V144.775C176.866 143.732 177.688 143.211 178.64 143.211C178.991 143.211 179.331 143.324 179.66 143.551C179.989 143.766 180.261 144.174 180.476 144.775L178.963 145.591C178.804 145.126 178.617 144.815 178.402 144.656C178.198 144.486 177.977 144.401 177.739 144.401C177.49 144.401 177.246 144.48 177.008 144.639C176.77 144.798 176.526 145.092 176.277 145.523V150.572C176.277 150.957 176.294 151.19 176.328 151.269C176.362 151.337 176.47 151.382 176.651 151.405L177.926 151.524V152H173.013V151.524L173.948 151.405C174.129 151.382 174.237 151.337 174.271 151.269C174.305 151.19 174.322 150.957 174.322 150.572V144.809C174.322 144.424 174.305 144.197 174.271 144.129C174.237 144.05 174.129 143.999 173.948 143.976L173.013 143.857ZM182.694 151.252C182.694 151.739 182.519 152.323 182.167 153.003C181.816 153.683 181.323 154.403 180.688 155.162L180.297 154.822C180.762 154.255 181.091 153.757 181.283 153.326C181.476 152.907 181.578 152.521 181.589 152.17H181.538C181.198 152.17 180.921 152.068 180.705 151.864C180.501 151.649 180.399 151.365 180.399 151.014C180.399 150.674 180.501 150.402 180.705 150.198C180.921 149.983 181.198 149.875 181.538 149.875C181.867 149.875 182.139 149.994 182.354 150.232C182.581 150.47 182.694 150.81 182.694 151.252ZM197.731 151.524V152H193.158V151.524L194.093 151.405C194.274 151.382 194.382 151.337 194.416 151.269C194.45 151.19 194.467 150.957 194.467 150.572V146.288C194.467 145.506 194.359 144.939 194.144 144.588C193.929 144.225 193.606 144.044 193.175 144.044C192.994 144.044 192.778 144.095 192.529 144.197C192.28 144.288 192.03 144.458 191.781 144.707C191.543 144.956 191.333 145.325 191.152 145.812V150.572C191.152 150.957 191.169 151.19 191.203 151.269C191.237 151.337 191.345 151.382 191.526 151.405L192.461 151.524V152H187.888V151.524L188.823 151.405C189.004 151.382 189.112 151.337 189.146 151.269C189.18 151.19 189.197 150.957 189.197 150.572V144.809C189.197 144.424 189.18 144.197 189.146 144.129C189.112 144.05 189.004 143.999 188.823 143.976L187.888 143.857V143.381H191.05V144.877C191.367 144.299 191.775 143.88 192.274 143.619C192.773 143.347 193.277 143.211 193.787 143.211C194.399 143.211 194.915 143.37 195.334 143.687C195.765 143.993 196.071 144.435 196.252 145.013C196.558 144.378 196.972 143.919 197.493 143.636C198.014 143.353 198.536 143.211 199.057 143.211C199.862 143.211 200.502 143.477 200.978 144.01C201.454 144.543 201.692 145.296 201.692 146.271V150.572C201.692 150.957 201.709 151.19 201.743 151.269C201.777 151.337 201.885 151.382 202.066 151.405L203.001 151.524V152H198.428V151.524L199.363 151.405C199.544 151.382 199.652 151.337 199.686 151.269C199.72 151.19 199.737 150.957 199.737 150.572V146.288C199.737 145.506 199.629 144.939 199.414 144.588C199.199 144.225 198.876 144.044 198.445 144.044C198.264 144.044 198.048 144.095 197.799 144.197C197.55 144.288 197.3 144.463 197.051 144.724C196.802 144.985 196.586 145.364 196.405 145.863C196.416 145.92 196.422 145.988 196.422 146.067C196.422 146.135 196.422 146.203 196.422 146.271V150.572C196.422 150.957 196.439 151.19 196.473 151.269C196.507 151.337 196.615 151.382 196.796 151.405L197.731 151.524ZM212.247 151.575C212.065 151.745 211.844 151.887 211.584 152C211.334 152.113 211.028 152.17 210.666 152.17C210.201 152.17 209.81 152.068 209.493 151.864C209.187 151.66 208.983 151.371 208.881 150.997C208.507 151.405 208.093 151.705 207.64 151.898C207.198 152.079 206.744 152.17 206.28 152.17C205.498 152.17 204.914 151.955 204.529 151.524C204.143 151.082 203.951 150.532 203.951 149.875C203.951 149.206 204.194 148.668 204.682 148.26C205.169 147.841 206.03 147.631 207.266 147.631H208.813V146.254C208.813 145.313 208.688 144.673 208.439 144.333C208.201 143.982 207.866 143.806 207.436 143.806C207.152 143.806 206.892 143.88 206.654 144.027C206.416 144.163 206.246 144.424 206.144 144.809C206.053 145.183 206.07 145.727 206.195 146.441L204.325 146.169C204.234 145.648 204.291 145.166 204.495 144.724C204.71 144.271 205.067 143.908 205.566 143.636C206.064 143.353 206.699 143.211 207.47 143.211C208.342 143.211 209.017 143.353 209.493 143.636C209.969 143.919 210.297 144.293 210.479 144.758C210.671 145.223 210.768 145.721 210.768 146.254V150.181C210.768 150.759 210.819 151.122 210.921 151.269C211.023 151.416 211.136 151.49 211.261 151.49C211.465 151.49 211.691 151.371 211.941 151.133L212.247 151.575ZM207.028 151.269C207.322 151.269 207.611 151.195 207.895 151.048C208.189 150.889 208.495 150.6 208.813 150.181V148.226H207.538C206.982 148.226 206.58 148.356 206.331 148.617C206.081 148.878 205.957 149.286 205.957 149.841C205.957 150.294 206.047 150.646 206.229 150.895C206.41 151.144 206.676 151.269 207.028 151.269ZM212.605 139.896V139.42H215.869V147.665L218.861 144.809C219.258 144.435 219.467 144.208 219.49 144.129C219.524 144.05 219.445 143.999 219.252 143.976L218.317 143.857V143.381H221.802V143.857L220.867 143.976C220.765 143.987 220.68 144.01 220.612 144.044C220.544 144.078 220.448 144.152 220.323 144.265C220.198 144.367 220 144.548 219.728 144.809L218.096 146.373L220.51 150.572C220.669 150.833 220.788 151.02 220.867 151.133C220.946 151.235 221.02 151.303 221.088 151.337C221.167 151.36 221.264 151.382 221.377 151.405L222.312 151.524V152H219.065L216.702 147.699L215.869 148.498V150.572C215.869 150.957 215.886 151.19 215.92 151.269C215.954 151.337 216.062 151.382 216.243 151.405L217.178 151.524V152H212.605V151.524L213.54 151.405C213.721 151.382 213.829 151.337 213.863 151.269C213.897 151.19 213.914 150.957 213.914 150.572V140.848C213.914 140.463 213.897 140.236 213.863 140.168C213.829 140.089 213.721 140.038 213.54 140.015L212.605 139.896ZM224.996 141.919C224.645 141.919 224.361 141.811 224.146 141.596C223.931 141.369 223.823 141.08 223.823 140.729C223.823 140.378 223.931 140.094 224.146 139.879C224.361 139.664 224.645 139.556 224.996 139.556C225.336 139.556 225.619 139.664 225.846 139.879C226.073 140.094 226.186 140.378 226.186 140.729C226.186 141.08 226.073 141.369 225.846 141.596C225.619 141.811 225.336 141.919 224.996 141.919ZM222.718 143.857V143.381H225.982V150.572C225.982 150.957 225.999 151.19 226.033 151.269C226.067 151.337 226.175 151.382 226.356 151.405L227.291 151.524V152H222.718V151.524L223.653 151.405C223.834 151.382 223.942 151.337 223.976 151.269C224.01 151.19 224.027 150.957 224.027 150.572V144.809C224.027 144.424 224.01 144.197 223.976 144.129C223.942 144.05 223.834 143.999 223.653 143.976L222.718 143.857ZM237.961 151.524V152H233.388V151.524L234.323 151.405C234.504 151.382 234.612 151.337 234.646 151.269C234.68 151.19 234.697 150.957 234.697 150.572V146.288C234.697 145.506 234.578 144.939 234.34 144.588C234.113 144.225 233.773 144.044 233.32 144.044C233.127 144.044 232.9 144.095 232.64 144.197C232.39 144.288 232.135 144.458 231.875 144.707C231.625 144.956 231.404 145.325 231.212 145.812V150.572C231.212 150.957 231.229 151.19 231.263 151.269C231.297 151.337 231.404 151.382 231.586 151.405L232.521 151.524V152H227.948V151.524L228.883 151.405C229.064 151.382 229.172 151.337 229.206 151.269C229.24 151.19 229.257 150.957 229.257 150.572V144.809C229.257 144.424 229.24 144.197 229.206 144.129C229.172 144.05 229.064 143.999 228.883 143.976L227.948 143.857V143.381H231.11V144.877C231.438 144.299 231.858 143.88 232.368 143.619C232.889 143.347 233.41 143.211 233.932 143.211C234.77 143.211 235.433 143.477 235.921 144.01C236.408 144.543 236.652 145.296 236.652 146.271V150.572C236.652 150.957 236.669 151.19 236.703 151.269C236.737 151.337 236.844 151.382 237.026 151.405L237.961 151.524ZM246.835 152.884C246.835 153.813 246.484 154.527 245.781 155.026C245.09 155.536 244.138 155.791 242.925 155.791C241.588 155.791 240.591 155.57 239.933 155.128C239.276 154.697 238.919 154.159 238.862 153.513L240.681 153.224C240.636 153.825 240.778 154.301 241.106 154.652C241.446 155.015 242.053 155.196 242.925 155.196C243.741 155.196 244.399 155.043 244.897 154.737C245.407 154.431 245.662 153.989 245.662 153.411C245.662 153.003 245.509 152.691 245.203 152.476C244.909 152.272 244.416 152.17 243.724 152.17H241.786C241.186 152.17 240.71 152.085 240.358 151.915C240.018 151.745 239.78 151.535 239.644 151.286C239.508 151.025 239.44 150.759 239.44 150.487C239.44 150.158 239.531 149.835 239.712 149.518C239.894 149.189 240.205 148.866 240.647 148.549C240.16 148.334 239.763 148.016 239.457 147.597C239.151 147.178 238.998 146.656 238.998 146.033C238.998 145.398 239.146 144.877 239.44 144.469C239.735 144.05 240.132 143.738 240.63 143.534C241.129 143.319 241.684 143.211 242.296 143.211H242.585C243.243 143.211 243.809 143.319 244.285 143.534L246.733 142.327L246.937 143.993H244.999C245.271 144.231 245.481 144.52 245.628 144.86C245.787 145.189 245.866 145.58 245.866 146.033C245.866 146.645 245.719 147.161 245.424 147.58C245.13 147.999 244.733 148.317 244.234 148.532C243.747 148.747 243.197 148.855 242.585 148.855H242.296C241.956 148.855 241.622 148.821 241.293 148.753C241.01 148.946 240.812 149.133 240.698 149.314C240.596 149.484 240.545 149.648 240.545 149.807C240.545 149.988 240.625 150.124 240.783 150.215C240.953 150.306 241.225 150.351 241.599 150.351H243.809C244.784 150.351 245.532 150.572 246.053 151.014C246.575 151.445 246.835 152.068 246.835 152.884ZM242.585 148.26C242.948 148.26 243.26 148.101 243.52 147.784C243.781 147.467 243.911 146.883 243.911 146.033C243.911 145.183 243.781 144.599 243.52 144.282C243.26 143.965 242.948 143.806 242.585 143.806H242.296C241.934 143.806 241.616 143.965 241.344 144.282C241.084 144.599 240.953 145.183 240.953 146.033C240.953 146.883 241.084 147.467 241.344 147.784C241.616 148.101 241.934 148.26 242.296 148.26H242.585ZM257.441 150.232C257.294 150.923 257.01 151.422 256.591 151.728C256.183 152.023 255.684 152.17 255.095 152.17C254.494 152.17 254.001 152.04 253.616 151.779C253.231 151.507 252.947 151.15 252.766 150.708C252.585 150.266 252.494 149.796 252.494 149.297V144.809C252.494 144.424 252.477 144.197 252.443 144.129C252.409 144.05 252.301 143.999 252.12 143.976L251.185 143.857V143.381H252.494V141.409L254.449 141.018V143.381H257.169V143.976H254.449V149.637C254.449 150.362 254.54 150.867 254.721 151.15C254.902 151.422 255.135 151.558 255.418 151.558C255.713 151.558 255.939 151.445 256.098 151.218C256.268 150.991 256.376 150.578 256.421 149.977L257.441 150.232ZM267.99 151.524V152H263.417V151.524L264.352 151.405C264.533 151.382 264.641 151.337 264.675 151.269C264.709 151.19 264.726 150.957 264.726 150.572V146.288C264.726 145.506 264.607 144.939 264.369 144.588C264.142 144.225 263.802 144.044 263.349 144.044C263.156 144.044 262.93 144.095 262.669 144.197C262.42 144.288 262.165 144.458 261.904 144.707C261.655 144.956 261.434 145.325 261.241 145.812V150.572C261.241 150.957 261.258 151.19 261.292 151.269C261.326 151.337 261.434 151.382 261.615 151.405L262.55 151.524V152H257.977V151.524L258.912 151.405C259.093 151.382 259.201 151.337 259.235 151.269C259.269 151.19 259.286 150.957 259.286 150.572V140.848C259.286 140.463 259.269 140.236 259.235 140.168C259.201 140.089 259.093 140.038 258.912 140.015L257.977 139.896V139.42H261.241V144.707C261.57 144.186 261.978 143.806 262.465 143.568C262.964 143.33 263.462 143.211 263.961 143.211C264.8 143.211 265.463 143.477 265.95 144.01C266.437 144.543 266.681 145.296 266.681 146.271V150.572C266.681 150.957 266.698 151.19 266.732 151.269C266.766 151.337 266.874 151.382 267.055 151.405L267.99 151.524ZM276.239 149.977C276.035 150.77 275.655 151.337 275.1 151.677C274.544 152.006 273.898 152.17 273.162 152.17C271.802 152.17 270.782 151.779 270.102 150.997C269.422 150.204 269.082 149.155 269.082 147.852V147.512C269.082 146.209 269.399 145.166 270.034 144.384C270.68 143.602 271.609 143.211 272.822 143.211C273.502 143.211 274.102 143.347 274.624 143.619C275.156 143.88 275.57 144.259 275.865 144.758C276.171 145.257 276.324 145.863 276.324 146.577C276.324 146.747 276.312 146.928 276.29 147.121C276.278 147.314 276.25 147.506 276.205 147.699H271.173V148.192C271.173 149.393 271.343 150.26 271.683 150.793C272.023 151.314 272.572 151.575 273.332 151.575C273.819 151.575 274.233 151.433 274.573 151.15C274.913 150.855 275.105 150.362 275.151 149.671L276.239 149.977ZM272.822 143.806C272.266 143.806 271.853 144.061 271.581 144.571C271.309 145.081 271.173 145.925 271.173 147.104H274.25C274.295 146.877 274.323 146.668 274.335 146.475C274.357 146.271 274.369 146.084 274.369 145.914C274.369 145.189 274.227 144.656 273.944 144.316C273.66 143.976 273.286 143.806 272.822 143.806ZM281.371 143.857V143.381H284.533V144.775C285.225 143.732 286.046 143.211 286.998 143.211C287.35 143.211 287.69 143.324 288.018 143.551C288.347 143.766 288.619 144.174 288.834 144.775L287.321 145.591C287.163 145.126 286.976 144.815 286.76 144.656C286.556 144.486 286.335 144.401 286.097 144.401C285.848 144.401 285.604 144.48 285.366 144.639C285.128 144.798 284.885 145.092 284.635 145.523V150.572C284.635 150.957 284.652 151.19 284.686 151.269C284.72 151.337 284.828 151.382 285.009 151.405L286.284 151.524V152H281.371V151.524L282.306 151.405C282.488 151.382 282.595 151.337 282.629 151.269C282.663 151.19 282.68 150.957 282.68 150.572V144.809C282.68 144.424 282.663 144.197 282.629 144.129C282.595 144.05 282.488 143.999 282.306 143.976L281.371 143.857ZM297.254 147.512V147.852C297.254 149.155 296.914 150.204 296.234 150.997C295.565 151.779 294.608 152.17 293.361 152.17C292.114 152.17 291.151 151.779 290.471 150.997C289.802 150.204 289.468 149.155 289.468 147.852V147.512C289.468 146.209 289.802 145.166 290.471 144.384C291.151 143.602 292.114 143.211 293.361 143.211C294.608 143.211 295.565 143.602 296.234 144.384C296.914 145.166 297.254 146.209 297.254 147.512ZM295.163 147.172C295.163 145.959 295.01 145.098 294.704 144.588C294.398 144.067 293.95 143.806 293.361 143.806C292.783 143.806 292.335 144.067 292.018 144.588C291.712 145.098 291.559 145.959 291.559 147.172V148.192C291.559 149.393 291.712 150.26 292.018 150.793C292.335 151.314 292.783 151.575 293.361 151.575C293.95 151.575 294.398 151.314 294.704 150.793C295.01 150.26 295.163 149.393 295.163 148.192V147.172ZM306.8 147.512V147.852C306.8 149.155 306.46 150.204 305.78 150.997C305.111 151.779 304.154 152.17 302.907 152.17C301.66 152.17 300.697 151.779 300.017 150.997C299.348 150.204 299.014 149.155 299.014 147.852V147.512C299.014 146.209 299.348 145.166 300.017 144.384C300.697 143.602 301.66 143.211 302.907 143.211C304.154 143.211 305.111 143.602 305.78 144.384C306.46 145.166 306.8 146.209 306.8 147.512ZM304.709 147.172C304.709 145.959 304.556 145.098 304.25 144.588C303.944 144.067 303.496 143.806 302.907 143.806C302.329 143.806 301.881 144.067 301.564 144.588C301.258 145.098 301.105 145.959 301.105 147.172V148.192C301.105 149.393 301.258 150.26 301.564 150.793C301.881 151.314 302.329 151.575 302.907 151.575C303.496 151.575 303.944 151.314 304.25 150.793C304.556 150.26 304.709 149.393 304.709 148.192V147.172ZM317.91 151.524V152H313.337V151.524L314.272 151.405C314.453 151.382 314.561 151.337 314.595 151.269C314.629 151.19 314.646 150.957 314.646 150.572V146.288C314.646 145.506 314.538 144.939 314.323 144.588C314.107 144.225 313.784 144.044 313.354 144.044C313.172 144.044 312.957 144.095 312.708 144.197C312.458 144.288 312.209 144.458 311.96 144.707C311.722 144.956 311.512 145.325 311.331 145.812V150.572C311.331 150.957 311.348 151.19 311.382 151.269C311.416 151.337 311.523 151.382 311.705 151.405L312.64 151.524V152H308.067V151.524L309.002 151.405C309.183 151.382 309.291 151.337 309.325 151.269C309.359 151.19 309.376 150.957 309.376 150.572V144.809C309.376 144.424 309.359 144.197 309.325 144.129C309.291 144.05 309.183 143.999 309.002 143.976L308.067 143.857V143.381H311.229V144.877C311.546 144.299 311.954 143.88 312.453 143.619C312.951 143.347 313.456 143.211 313.966 143.211C314.578 143.211 315.093 143.37 315.513 143.687C315.943 143.993 316.249 144.435 316.431 145.013C316.737 144.378 317.15 143.919 317.672 143.636C318.193 143.353 318.714 143.211 319.236 143.211C320.04 143.211 320.681 143.477 321.157 144.01C321.633 144.543 321.871 145.296 321.871 146.271V150.572C321.871 150.957 321.888 151.19 321.922 151.269C321.956 151.337 322.063 151.382 322.245 151.405L323.18 151.524V152H318.607V151.524L319.542 151.405C319.723 151.382 319.831 151.337 319.865 151.269C319.899 151.19 319.916 150.957 319.916 150.572V146.288C319.916 145.506 319.808 144.939 319.593 144.588C319.377 144.225 319.054 144.044 318.624 144.044C318.442 144.044 318.227 144.095 317.978 144.197C317.728 144.288 317.479 144.463 317.23 144.724C316.98 144.985 316.765 145.364 316.584 145.863C316.595 145.92 316.601 145.988 316.601 146.067C316.601 146.135 316.601 146.203 316.601 146.271V150.572C316.601 150.957 316.618 151.19 316.652 151.269C316.686 151.337 316.793 151.382 316.975 151.405L317.91 151.524ZM66.584 161.919C66.2327 161.919 65.9494 161.811 65.734 161.596C65.5187 161.369 65.411 161.08 65.411 160.729C65.411 160.378 65.5187 160.094 65.734 159.879C65.9494 159.664 66.2327 159.556 66.584 159.556C66.924 159.556 67.2074 159.664 67.434 159.879C67.6607 160.094 67.774 160.378 67.774 160.729C67.774 161.08 67.6607 161.369 67.434 161.596C67.2074 161.811 66.924 161.919 66.584 161.919ZM64.306 163.857V163.381H67.57V170.572C67.57 170.957 67.587 171.19 67.621 171.269C67.655 171.337 67.7627 171.382 67.944 171.405L68.879 171.524V172H64.306V171.524L65.241 171.405C65.4224 171.382 65.53 171.337 65.564 171.269C65.598 171.19 65.615 170.957 65.615 170.572V164.809C65.615 164.424 65.598 164.197 65.564 164.129C65.53 164.05 65.4224 163.999 65.241 163.976L64.306 163.857ZM79.5485 171.524V172H74.9755V171.524L75.9105 171.405C76.0919 171.382 76.1995 171.337 76.2335 171.269C76.2675 171.19 76.2845 170.957 76.2845 170.572V166.288C76.2845 165.506 76.1655 164.939 75.9275 164.588C75.7009 164.225 75.3609 164.044 74.9075 164.044C74.7149 164.044 74.4882 164.095 74.2275 164.197C73.9782 164.288 73.7232 164.458 73.4625 164.707C73.2132 164.956 72.9922 165.325 72.7995 165.812V170.572C72.7995 170.957 72.8165 171.19 72.8505 171.269C72.8845 171.337 72.9922 171.382 73.1735 171.405L74.1085 171.524V172H69.5355V171.524L70.4705 171.405C70.6519 171.382 70.7595 171.337 70.7935 171.269C70.8275 171.19 70.8445 170.957 70.8445 170.572V164.809C70.8445 164.424 70.8275 164.197 70.7935 164.129C70.7595 164.05 70.6519 163.999 70.4705 163.976L69.5355 163.857V163.381H72.6975V164.877C73.0262 164.299 73.4455 163.88 73.9555 163.619C74.4769 163.347 74.9982 163.211 75.5195 163.211C76.3582 163.211 77.0212 163.477 77.5085 164.01C77.9959 164.543 78.2395 165.296 78.2395 166.271V170.572C78.2395 170.957 78.2565 171.19 78.2905 171.269C78.3245 171.337 78.4322 171.382 78.6135 171.405L79.5485 171.524ZM84.0033 168.787L82.8303 168.515C82.071 168.334 81.5043 168.011 81.1303 167.546C80.7677 167.07 80.5863 166.509 80.5863 165.863C80.5863 165.387 80.6883 164.951 80.8923 164.554C81.1077 164.146 81.442 163.823 81.8953 163.585C82.3487 163.336 82.938 163.211 83.6633 163.211C84.4453 163.211 85.08 163.336 85.5673 163.585C86.0547 163.834 86.4003 164.163 86.6043 164.571C86.8083 164.979 86.8707 165.415 86.7913 165.88L84.9213 166.22C85.08 165.449 85.0347 164.854 84.7853 164.435C84.5473 164.016 84.145 163.806 83.5783 163.806C83.1817 163.806 82.853 163.925 82.5923 164.163C82.3317 164.39 82.2013 164.718 82.2013 165.149C82.2013 165.546 82.3147 165.897 82.5413 166.203C82.768 166.498 83.1023 166.696 83.5443 166.798L84.7173 167.07C85.556 167.263 86.1623 167.569 86.5363 167.988C86.9103 168.396 87.0973 168.906 87.0973 169.518C87.0973 170.277 86.814 170.912 86.2473 171.422C85.692 171.921 84.859 172.17 83.7483 172.17C83.363 172.17 82.938 172.113 82.4733 172C82.02 171.875 81.6007 171.654 81.2153 171.337C80.8413 171.02 80.5693 170.566 80.3993 169.977L81.5043 169.535C81.5837 170.283 81.8387 170.81 82.2693 171.116C82.7113 171.422 83.2043 171.575 83.7483 171.575C84.2583 171.575 84.672 171.462 84.9893 171.235C85.318 170.997 85.4823 170.657 85.4823 170.215C85.4823 169.909 85.3747 169.631 85.1593 169.382C84.9553 169.121 84.57 168.923 84.0033 168.787ZM90.5733 161.919C90.222 161.919 89.9386 161.811 89.7233 161.596C89.508 161.369 89.4003 161.08 89.4003 160.729C89.4003 160.378 89.508 160.094 89.7233 159.879C89.9386 159.664 90.222 159.556 90.5733 159.556C90.9133 159.556 91.1966 159.664 91.4233 159.879C91.65 160.094 91.7633 160.378 91.7633 160.729C91.7633 161.08 91.65 161.369 91.4233 161.596C91.1966 161.811 90.9133 161.919 90.5733 161.919ZM88.2953 163.857V163.381H91.5593V170.572C91.5593 170.957 91.5763 171.19 91.6103 171.269C91.6443 171.337 91.752 171.382 91.9333 171.405L92.8683 171.524V172H88.2953V171.524L89.2303 171.405C89.4116 171.382 89.5193 171.337 89.5533 171.269C89.5873 171.19 89.6043 170.957 89.6043 170.572V164.809C89.6043 164.424 89.5873 164.197 89.5533 164.129C89.5193 164.05 89.4116 163.999 89.2303 163.976L88.2953 163.857ZM102.807 171.524V172H99.6448V170.589C99.3275 171.11 98.9705 171.507 98.5738 171.779C98.1885 172.04 97.7295 172.17 97.1968 172.17C96.2448 172.17 95.4855 171.796 94.9188 171.048C94.3635 170.289 94.0858 169.229 94.0858 167.869V167.529C94.0858 166.214 94.4088 165.166 95.0548 164.384C95.7121 163.602 96.6075 163.211 97.7408 163.211C98.4208 163.211 99.0215 163.381 99.5428 163.721V160.848C99.5428 160.463 99.5258 160.236 99.4918 160.168C99.4578 160.089 99.3501 160.038 99.1688 160.015L98.2338 159.896V159.42H101.498V170.572C101.498 170.957 101.515 171.19 101.549 171.269C101.583 171.337 101.69 171.382 101.872 171.405L102.807 171.524ZM96.1768 168.379C96.1768 169.433 96.3071 170.204 96.5678 170.691C96.8285 171.178 97.1855 171.422 97.6388 171.422C97.9221 171.422 98.2168 171.309 98.5228 171.082C98.8401 170.844 99.1801 170.368 99.5428 169.654V164.52C99.1121 164.089 98.5851 163.874 97.9618 163.874C97.3385 163.874 96.8851 164.157 96.6018 164.724C96.3185 165.279 96.1768 166.044 96.1768 167.019V168.379ZM111.136 169.977C110.932 170.77 110.552 171.337 109.997 171.677C109.442 172.006 108.796 172.17 108.059 172.17C106.699 172.17 105.679 171.779 104.999 170.997C104.319 170.204 103.979 169.155 103.979 167.852V167.512C103.979 166.209 104.296 165.166 104.931 164.384C105.577 163.602 106.506 163.211 107.719 163.211C108.399 163.211 109 163.347 109.521 163.619C110.054 163.88 110.467 164.259 110.762 164.758C111.068 165.257 111.221 165.863 111.221 166.577C111.221 166.747 111.21 166.928 111.187 167.121C111.176 167.314 111.147 167.506 111.102 167.699H106.07V168.192C106.07 169.393 106.24 170.26 106.58 170.793C106.92 171.314 107.47 171.575 108.229 171.575C108.716 171.575 109.13 171.433 109.47 171.15C109.81 170.855 110.003 170.362 110.048 169.671L111.136 169.977ZM107.719 163.806C107.164 163.806 106.75 164.061 106.478 164.571C106.206 165.081 106.07 165.925 106.07 167.104H109.147C109.192 166.877 109.221 166.668 109.232 166.475C109.255 166.271 109.266 166.084 109.266 165.914C109.266 165.189 109.124 164.656 108.841 164.316C108.558 163.976 108.184 163.806 107.719 163.806ZM125.551 171.524V172H122.389V170.589C122.072 171.11 121.715 171.507 121.318 171.779C120.933 172.04 120.474 172.17 119.941 172.17C118.989 172.17 118.23 171.796 117.663 171.048C117.108 170.289 116.83 169.229 116.83 167.869V167.529C116.83 166.214 117.153 165.166 117.799 164.384C118.456 163.602 119.352 163.211 120.485 163.211C121.165 163.211 121.766 163.381 122.287 163.721V160.848C122.287 160.463 122.27 160.236 122.236 160.168C122.202 160.089 122.094 160.038 121.913 160.015L120.978 159.896V159.42H124.242V170.572C124.242 170.957 124.259 171.19 124.293 171.269C124.327 171.337 124.435 171.382 124.616 171.405L125.551 171.524ZM118.921 168.379C118.921 169.433 119.051 170.204 119.312 170.691C119.573 171.178 119.93 171.422 120.383 171.422C120.666 171.422 120.961 171.309 121.267 171.082C121.584 170.844 121.924 170.368 122.287 169.654V164.52C121.856 164.089 121.329 163.874 120.706 163.874C120.083 163.874 119.629 164.157 119.346 164.724C119.063 165.279 118.921 166.044 118.921 167.019V168.379ZM134.883 171.575C134.702 171.745 134.481 171.887 134.22 172C133.971 172.113 133.665 172.17 133.302 172.17C132.838 172.17 132.447 172.068 132.129 171.864C131.823 171.66 131.619 171.371 131.517 170.997C131.143 171.405 130.73 171.705 130.276 171.898C129.834 172.079 129.381 172.17 128.916 172.17C128.134 172.17 127.551 171.955 127.165 171.524C126.78 171.082 126.587 170.532 126.587 169.875C126.587 169.206 126.831 168.668 127.318 168.26C127.806 167.841 128.667 167.631 129.902 167.631H131.449V166.254C131.449 165.313 131.325 164.673 131.075 164.333C130.837 163.982 130.503 163.806 130.072 163.806C129.789 163.806 129.528 163.88 129.29 164.027C129.052 164.163 128.882 164.424 128.78 164.809C128.69 165.183 128.707 165.727 128.831 166.441L126.961 166.169C126.871 165.648 126.927 165.166 127.131 164.724C127.347 164.271 127.704 163.908 128.202 163.636C128.701 163.353 129.336 163.211 130.106 163.211C130.979 163.211 131.653 163.353 132.129 163.636C132.605 163.919 132.934 164.293 133.115 164.758C133.308 165.223 133.404 165.721 133.404 166.254V170.181C133.404 170.759 133.455 171.122 133.557 171.269C133.659 171.416 133.773 171.49 133.897 171.49C134.101 171.49 134.328 171.371 134.577 171.133L134.883 171.575ZM129.664 171.269C129.959 171.269 130.248 171.195 130.531 171.048C130.826 170.889 131.132 170.6 131.449 170.181V168.226H130.174C129.619 168.226 129.217 168.356 128.967 168.617C128.718 168.878 128.593 169.286 128.593 169.841C128.593 170.294 128.684 170.646 128.865 170.895C129.047 171.144 129.313 171.269 129.664 171.269ZM145.374 171.524V172H140.801V171.524L141.736 171.405C141.917 171.382 142.025 171.337 142.059 171.269C142.093 171.19 142.11 170.957 142.11 170.572V166.288C142.11 165.506 141.991 164.939 141.753 164.588C141.526 164.225 141.186 164.044 140.733 164.044C140.54 164.044 140.313 164.095 140.053 164.197C139.803 164.288 139.548 164.458 139.288 164.707C139.038 164.956 138.817 165.325 138.625 165.812V170.572C138.625 170.957 138.642 171.19 138.676 171.269C138.71 171.337 138.817 171.382 138.999 171.405L139.934 171.524V172H135.361V171.524L136.296 171.405C136.477 171.382 136.585 171.337 136.619 171.269C136.653 171.19 136.67 170.957 136.67 170.572V164.809C136.67 164.424 136.653 164.197 136.619 164.129C136.585 164.05 136.477 163.999 136.296 163.976L135.361 163.857V163.381H138.523V164.877C138.851 164.299 139.271 163.88 139.781 163.619C140.302 163.347 140.823 163.211 141.345 163.211C142.183 163.211 142.846 163.477 143.334 164.01C143.821 164.543 144.065 165.296 144.065 166.271V170.572C144.065 170.957 144.082 171.19 144.116 171.269C144.15 171.337 144.257 171.382 144.439 171.405L145.374 171.524ZM154.249 172.884C154.249 173.813 153.897 174.527 153.195 175.026C152.503 175.536 151.551 175.791 150.339 175.791C149.001 175.791 148.004 175.57 147.347 175.128C146.689 174.697 146.332 174.159 146.276 173.513L148.095 173.224C148.049 173.825 148.191 174.301 148.52 174.652C148.86 175.015 149.466 175.196 150.339 175.196C151.155 175.196 151.812 175.043 152.311 174.737C152.821 174.431 153.076 173.989 153.076 173.411C153.076 173.003 152.923 172.691 152.617 172.476C152.322 172.272 151.829 172.17 151.138 172.17H149.2C148.599 172.17 148.123 172.085 147.772 171.915C147.432 171.745 147.194 171.535 147.058 171.286C146.922 171.025 146.854 170.759 146.854 170.487C146.854 170.158 146.944 169.835 147.126 169.518C147.307 169.189 147.619 168.866 148.061 168.549C147.573 168.334 147.177 168.016 146.871 167.597C146.565 167.178 146.412 166.656 146.412 166.033C146.412 165.398 146.559 164.877 146.854 164.469C147.148 164.05 147.545 163.738 148.044 163.534C148.542 163.319 149.098 163.211 149.71 163.211H149.999C150.656 163.211 151.223 163.319 151.699 163.534L154.147 162.327L154.351 163.993H152.413C152.685 164.231 152.894 164.52 153.042 164.86C153.2 165.189 153.28 165.58 153.28 166.033C153.28 166.645 153.132 167.161 152.838 167.58C152.543 167.999 152.146 168.317 151.648 168.532C151.16 168.747 150.611 168.855 149.999 168.855H149.71C149.37 168.855 149.035 168.821 148.707 168.753C148.423 168.946 148.225 169.133 148.112 169.314C148.01 169.484 147.959 169.648 147.959 169.807C147.959 169.988 148.038 170.124 148.197 170.215C148.367 170.306 148.639 170.351 149.013 170.351H151.223C152.197 170.351 152.945 170.572 153.467 171.014C153.988 171.445 154.249 172.068 154.249 172.884ZM149.999 168.26C150.361 168.26 150.673 168.101 150.934 167.784C151.194 167.467 151.325 166.883 151.325 166.033C151.325 165.183 151.194 164.599 150.934 164.282C150.673 163.965 150.361 163.806 149.999 163.806H149.71C149.347 163.806 149.03 163.965 148.758 164.282C148.497 164.599 148.367 165.183 148.367 166.033C148.367 166.883 148.497 167.467 148.758 167.784C149.03 168.101 149.347 168.26 149.71 168.26H149.999ZM162.667 169.977C162.463 170.77 162.084 171.337 161.528 171.677C160.973 172.006 160.327 172.17 159.59 172.17C158.23 172.17 157.21 171.779 156.53 170.997C155.85 170.204 155.51 169.155 155.51 167.852V167.512C155.51 166.209 155.828 165.166 156.462 164.384C157.108 163.602 158.038 163.211 159.25 163.211C159.93 163.211 160.531 163.347 161.052 163.619C161.585 163.88 161.999 164.259 162.293 164.758C162.599 165.257 162.752 165.863 162.752 166.577C162.752 166.747 162.741 166.928 162.718 167.121C162.707 167.314 162.679 167.506 162.633 167.699H157.601V168.192C157.601 169.393 157.771 170.26 158.111 170.793C158.451 171.314 159.001 171.575 159.76 171.575C160.248 171.575 160.661 171.433 161.001 171.15C161.341 170.855 161.534 170.362 161.579 169.671L162.667 169.977ZM159.25 163.806C158.695 163.806 158.281 164.061 158.009 164.571C157.737 165.081 157.601 165.925 157.601 167.104H160.678C160.724 166.877 160.752 166.668 160.763 166.475C160.786 166.271 160.797 166.084 160.797 165.914C160.797 165.189 160.656 164.656 160.372 164.316C160.089 163.976 159.715 163.806 159.25 163.806ZM163.998 163.857V163.381H167.16V164.775C167.852 163.732 168.673 163.211 169.625 163.211C169.977 163.211 170.317 163.324 170.645 163.551C170.974 163.766 171.246 164.174 171.461 164.775L169.948 165.591C169.79 165.126 169.603 164.815 169.387 164.656C169.183 164.486 168.962 164.401 168.724 164.401C168.475 164.401 168.231 164.48 167.993 164.639C167.755 164.798 167.512 165.092 167.262 165.523V170.572C167.262 170.957 167.279 171.19 167.313 171.269C167.347 171.337 167.455 171.382 167.636 171.405L168.911 171.524V172H163.998V171.524L164.933 171.405C165.115 171.382 165.222 171.337 165.256 171.269C165.29 171.19 165.307 170.957 165.307 170.572V164.809C165.307 164.424 165.29 164.197 165.256 164.129C165.222 164.05 165.115 163.999 164.933 163.976L163.998 163.857ZM179.881 167.512V167.852C179.881 169.155 179.541 170.204 178.861 170.997C178.192 171.779 177.235 172.17 175.988 172.17C174.741 172.17 173.778 171.779 173.098 170.997C172.429 170.204 172.095 169.155 172.095 167.852V167.512C172.095 166.209 172.429 165.166 173.098 164.384C173.778 163.602 174.741 163.211 175.988 163.211C177.235 163.211 178.192 163.602 178.861 164.384C179.541 165.166 179.881 166.209 179.881 167.512ZM177.79 167.172C177.79 165.959 177.637 165.098 177.331 164.588C177.025 164.067 176.577 163.806 175.988 163.806C175.41 163.806 174.962 164.067 174.645 164.588C174.339 165.098 174.186 165.959 174.186 167.172V168.192C174.186 169.393 174.339 170.26 174.645 170.793C174.962 171.314 175.41 171.575 175.988 171.575C176.577 171.575 177.025 171.314 177.331 170.793C177.637 170.26 177.79 169.393 177.79 168.192V167.172ZM190.787 171.524V172H187.625V170.504C187.308 171.082 186.9 171.507 186.401 171.779C185.902 172.04 185.398 172.17 184.888 172.17C184.083 172.17 183.443 171.904 182.967 171.371C182.491 170.827 182.253 170.073 182.253 169.11V164.809C182.253 164.424 182.236 164.197 182.202 164.129C182.168 164.05 182.06 163.999 181.879 163.976L180.944 163.857V163.381H184.208V169.093C184.208 169.875 184.316 170.447 184.531 170.81C184.758 171.161 185.081 171.337 185.5 171.337C185.681 171.337 185.891 171.292 186.129 171.201C186.378 171.099 186.628 170.923 186.877 170.674C187.126 170.413 187.342 170.045 187.523 169.569V164.809C187.523 164.424 187.506 164.191 187.472 164.112C187.438 164.033 187.33 163.987 187.149 163.976L185.874 163.857V163.381H189.478V170.572C189.478 170.957 189.495 171.19 189.529 171.269C189.563 171.337 189.671 171.382 189.852 171.405L190.787 171.524ZM195.333 168.787L194.16 168.515C193.401 168.334 192.834 168.011 192.46 167.546C192.098 167.07 191.916 166.509 191.916 165.863C191.916 165.387 192.018 164.951 192.222 164.554C192.438 164.146 192.772 163.823 193.225 163.585C193.679 163.336 194.268 163.211 194.993 163.211C195.775 163.211 196.41 163.336 196.897 163.585C197.385 163.834 197.73 164.163 197.934 164.571C198.138 164.979 198.201 165.415 198.121 165.88L196.251 166.22C196.41 165.449 196.365 164.854 196.115 164.435C195.877 164.016 195.475 163.806 194.908 163.806C194.512 163.806 194.183 163.925 193.922 164.163C193.662 164.39 193.531 164.718 193.531 165.149C193.531 165.546 193.645 165.897 193.871 166.203C194.098 166.498 194.432 166.696 194.874 166.798L196.047 167.07C196.886 167.263 197.492 167.569 197.866 167.988C198.24 168.396 198.427 168.906 198.427 169.518C198.427 170.277 198.144 170.912 197.577 171.422C197.022 171.921 196.189 172.17 195.078 172.17C194.693 172.17 194.268 172.113 193.803 172C193.35 171.875 192.931 171.654 192.545 171.337C192.171 171.02 191.899 170.566 191.729 169.977L192.834 169.535C192.914 170.283 193.169 170.81 193.599 171.116C194.041 171.422 194.534 171.575 195.078 171.575C195.588 171.575 196.002 171.462 196.319 171.235C196.648 170.997 196.812 170.657 196.812 170.215C196.812 169.909 196.705 169.631 196.489 169.382C196.285 169.121 195.9 168.923 195.333 168.787ZM199.506 159.896V159.42H202.77V170.572C202.77 170.957 202.787 171.19 202.821 171.269C202.855 171.337 202.963 171.382 203.144 171.405L204.079 171.524V172H199.506V171.524L200.441 171.405C200.623 171.382 200.73 171.337 200.764 171.269C200.798 171.19 200.815 170.957 200.815 170.572V160.848C200.815 160.463 200.798 160.236 200.764 160.168C200.73 160.089 200.623 160.038 200.441 160.015L199.506 159.896ZM209.167 172.85C208.906 173.564 208.617 174.136 208.3 174.567C207.994 174.998 207.614 175.309 207.161 175.502C206.707 175.695 206.141 175.791 205.461 175.791V173.921C206.152 173.921 206.707 173.87 207.127 173.768C207.557 173.677 207.886 173.524 208.113 173.309C208.351 173.105 208.526 172.839 208.64 172.51L208.81 172H207.926L205.512 164.809C205.432 164.548 205.364 164.367 205.308 164.265C205.262 164.152 205.206 164.078 205.138 164.044C205.081 164.01 204.99 163.987 204.866 163.976L203.931 163.857V163.381H208.521V163.857L207.586 163.976C207.45 163.987 207.365 164.033 207.331 164.112C207.308 164.18 207.359 164.412 207.484 164.809L209.337 170.419L211.258 164.741C211.382 164.378 211.433 164.169 211.411 164.112C211.399 164.044 211.309 163.999 211.139 163.976L210.204 163.857V163.381H213.451V163.857L212.516 163.976C212.346 163.999 212.232 164.044 212.176 164.112C212.119 164.18 212.028 164.39 211.904 164.741L209.167 172.85ZM227.449 171.524V172H222.876V171.524L223.811 171.405C223.992 171.382 224.1 171.337 224.134 171.269C224.168 171.19 224.185 170.957 224.185 170.572V166.288C224.185 165.506 224.066 164.939 223.828 164.588C223.601 164.225 223.261 164.044 222.808 164.044C222.615 164.044 222.389 164.095 222.128 164.197C221.879 164.288 221.624 164.458 221.363 164.707C221.114 164.956 220.893 165.325 220.7 165.812V170.572C220.7 170.957 220.717 171.19 220.751 171.269C220.785 171.337 220.893 171.382 221.074 171.405L222.009 171.524V172H217.436V171.524L218.371 171.405C218.552 171.382 218.66 171.337 218.694 171.269C218.728 171.19 218.745 170.957 218.745 170.572V160.848C218.745 160.463 218.728 160.236 218.694 160.168C218.66 160.089 218.552 160.038 218.371 160.015L217.436 159.896V159.42H220.7V164.707C221.029 164.186 221.437 163.806 221.924 163.568C222.423 163.33 222.921 163.211 223.42 163.211C224.259 163.211 224.922 163.477 225.409 164.01C225.896 164.543 226.14 165.296 226.14 166.271V170.572C226.14 170.957 226.157 171.19 226.191 171.269C226.225 171.337 226.333 171.382 226.514 171.405L227.449 171.524ZM236.31 167.512V167.852C236.31 169.155 235.97 170.204 235.29 170.997C234.621 171.779 233.663 172.17 232.417 172.17C231.17 172.17 230.207 171.779 229.527 170.997C228.858 170.204 228.524 169.155 228.524 167.852V167.512C228.524 166.209 228.858 165.166 229.527 164.384C230.207 163.602 231.17 163.211 232.417 163.211C233.663 163.211 234.621 163.602 235.29 164.384C235.97 165.166 236.31 166.209 236.31 167.512ZM234.219 167.172C234.219 165.959 234.066 165.098 233.76 164.588C233.454 164.067 233.006 163.806 232.417 163.806C231.839 163.806 231.391 164.067 231.074 164.588C230.768 165.098 230.615 165.959 230.615 167.172V168.192C230.615 169.393 230.768 170.26 231.074 170.793C231.391 171.314 231.839 171.575 232.417 171.575C233.006 171.575 233.454 171.314 233.76 170.793C234.066 170.26 234.219 169.393 234.219 168.192V167.172ZM243.629 170.232C243.481 170.923 243.198 171.422 242.779 171.728C242.371 172.023 241.872 172.17 241.283 172.17C240.682 172.17 240.189 172.04 239.804 171.779C239.418 171.507 239.135 171.15 238.954 170.708C238.772 170.266 238.682 169.796 238.682 169.297V164.809C238.682 164.424 238.665 164.197 238.631 164.129C238.597 164.05 238.489 163.999 238.308 163.976L237.373 163.857V163.381H238.682V161.409L240.637 161.018V163.381H243.357V163.976H240.637V169.637C240.637 170.362 240.727 170.867 240.909 171.15C241.09 171.422 241.322 171.558 241.606 171.558C241.9 171.558 242.127 171.445 242.286 171.218C242.456 170.991 242.563 170.578 242.609 169.977L243.629 170.232ZM252.998 171.524V172H248.085V171.524L249.02 171.405C249.202 171.382 249.309 171.337 249.343 171.269C249.377 171.19 249.394 170.957 249.394 170.572V164.809C249.394 164.424 249.377 164.197 249.343 164.129C249.309 164.05 249.202 163.999 249.02 163.976L248.085 163.857V163.381H249.394V162.463C249.394 161.919 249.485 161.403 249.666 160.916C249.859 160.417 250.176 160.015 250.618 159.709C251.072 159.403 251.678 159.25 252.437 159.25C253.129 159.25 253.695 159.369 254.137 159.607C254.591 159.845 254.914 160.162 255.106 160.559C255.31 160.956 255.373 161.386 255.293 161.851L253.423 162.123C253.537 161.273 253.503 160.684 253.321 160.355C253.151 160.015 252.857 159.845 252.437 159.845C252.211 159.845 252.012 159.907 251.842 160.032C251.684 160.157 251.559 160.383 251.468 160.712C251.389 161.029 251.349 161.5 251.349 162.123V163.381H253.899V163.976H251.349V170.572C251.349 170.957 251.366 171.19 251.4 171.269C251.434 171.337 251.542 171.382 251.723 171.405L252.998 171.524ZM262.374 167.512V167.852C262.374 169.155 262.034 170.204 261.354 170.997C260.685 171.779 259.728 172.17 258.481 172.17C257.234 172.17 256.271 171.779 255.591 170.997C254.922 170.204 254.588 169.155 254.588 167.852V167.512C254.588 166.209 254.922 165.166 255.591 164.384C256.271 163.602 257.234 163.211 258.481 163.211C259.728 163.211 260.685 163.602 261.354 164.384C262.034 165.166 262.374 166.209 262.374 167.512ZM260.283 167.172C260.283 165.959 260.13 165.098 259.824 164.588C259.518 164.067 259.07 163.806 258.481 163.806C257.903 163.806 257.455 164.067 257.138 164.588C256.832 165.098 256.679 165.959 256.679 167.172V168.192C256.679 169.393 256.832 170.26 257.138 170.793C257.455 171.314 257.903 171.575 258.481 171.575C259.07 171.575 259.518 171.314 259.824 170.793C260.13 170.26 260.283 169.393 260.283 168.192V167.172ZM263.641 163.857V163.381H266.803V164.775C267.494 163.732 268.316 163.211 269.268 163.211C269.619 163.211 269.959 163.324 270.288 163.551C270.617 163.766 270.889 164.174 271.104 164.775L269.591 165.591C269.432 165.126 269.245 164.815 269.03 164.656C268.826 164.486 268.605 164.401 268.367 164.401C268.118 164.401 267.874 164.48 267.636 164.639C267.398 164.798 267.154 165.092 266.905 165.523V170.572C266.905 170.957 266.922 171.19 266.956 171.269C266.99 171.337 267.098 171.382 267.279 171.405L268.554 171.524V172H263.641V171.524L264.576 171.405C264.757 171.382 264.865 171.337 264.899 171.269C264.933 171.19 264.95 170.957 264.95 170.572V164.809C264.95 164.424 264.933 164.197 264.899 164.129C264.865 164.05 264.757 163.999 264.576 163.976L263.641 163.857ZM281.347 170.232C281.2 170.923 280.917 171.422 280.497 171.728C280.089 172.023 279.591 172.17 279.001 172.17C278.401 172.17 277.908 172.04 277.522 171.779C277.137 171.507 276.854 171.15 276.672 170.708C276.491 170.266 276.4 169.796 276.4 169.297V164.809C276.4 164.424 276.383 164.197 276.349 164.129C276.315 164.05 276.208 163.999 276.026 163.976L275.091 163.857V163.381H276.4V161.409L278.355 161.018V163.381H281.075V163.976H278.355V169.637C278.355 170.362 278.446 170.867 278.627 171.15C278.809 171.422 279.041 171.558 279.324 171.558C279.619 171.558 279.846 171.445 280.004 171.218C280.174 170.991 280.282 170.578 280.327 169.977L281.347 170.232ZM291.896 171.524V172H287.323V171.524L288.258 171.405C288.44 171.382 288.547 171.337 288.581 171.269C288.615 171.19 288.632 170.957 288.632 170.572V166.288C288.632 165.506 288.513 164.939 288.275 164.588C288.049 164.225 287.709 164.044 287.255 164.044C287.063 164.044 286.836 164.095 286.575 164.197C286.326 164.288 286.071 164.458 285.81 164.707C285.561 164.956 285.34 165.325 285.147 165.812V170.572C285.147 170.957 285.164 171.19 285.198 171.269C285.232 171.337 285.34 171.382 285.521 171.405L286.456 171.524V172H281.883V171.524L282.818 171.405C283 171.382 283.107 171.337 283.141 171.269C283.175 171.19 283.192 170.957 283.192 170.572V160.848C283.192 160.463 283.175 160.236 283.141 160.168C283.107 160.089 283 160.038 282.818 160.015L281.883 159.896V159.42H285.147V164.707C285.476 164.186 285.884 163.806 286.371 163.568C286.87 163.33 287.369 163.211 287.867 163.211C288.706 163.211 289.369 163.477 289.856 164.01C290.344 164.543 290.587 165.296 290.587 166.271V170.572C290.587 170.957 290.604 171.19 290.638 171.269C290.672 171.337 290.78 171.382 290.961 171.405L291.896 171.524ZM300.145 169.977C299.941 170.77 299.561 171.337 299.006 171.677C298.451 172.006 297.805 172.17 297.068 172.17C295.708 172.17 294.688 171.779 294.008 170.997C293.328 170.204 292.988 169.155 292.988 167.852V167.512C292.988 166.209 293.305 165.166 293.94 164.384C294.586 163.602 295.515 163.211 296.728 163.211C297.408 163.211 298.009 163.347 298.53 163.619C299.063 163.88 299.476 164.259 299.771 164.758C300.077 165.257 300.23 165.863 300.23 166.577C300.23 166.747 300.219 166.928 300.196 167.121C300.185 167.314 300.156 167.506 300.111 167.699H295.079V168.192C295.079 169.393 295.249 170.26 295.589 170.793C295.929 171.314 296.479 171.575 297.238 171.575C297.725 171.575 298.139 171.433 298.479 171.15C298.819 170.855 299.012 170.362 299.057 169.671L300.145 169.977ZM296.728 163.806C296.173 163.806 295.759 164.061 295.487 164.571C295.215 165.081 295.079 165.925 295.079 167.104H298.156C298.201 166.877 298.23 166.668 298.241 166.475C298.264 166.271 298.275 166.084 298.275 165.914C298.275 165.189 298.133 164.656 297.85 164.316C297.567 163.976 297.193 163.806 296.728 163.806ZM151.918 183.857V183.381H155.08V184.792C155.409 184.259 155.766 183.863 156.151 183.602C156.536 183.341 156.995 183.211 157.528 183.211C158.48 183.211 159.234 183.591 159.789 184.35C160.356 185.098 160.639 186.152 160.639 187.512V187.852C160.639 189.167 160.316 190.215 159.67 190.997C159.024 191.779 158.129 192.17 156.984 192.17C156.304 192.17 155.703 192 155.182 191.66V194.193C155.182 194.578 155.199 194.805 155.233 194.873C155.267 194.952 155.375 195.003 155.556 195.026L156.831 195.145V195.621H151.918V195.145L152.853 195.026C153.034 195.003 153.142 194.952 153.176 194.873C153.21 194.805 153.227 194.578 153.227 194.193V184.809C153.227 184.424 153.21 184.197 153.176 184.129C153.142 184.05 153.034 183.999 152.853 183.976L151.918 183.857ZM157.086 183.959C156.803 183.959 156.502 184.078 156.185 184.316C155.879 184.543 155.545 185.013 155.182 185.727V190.861C155.613 191.292 156.14 191.507 156.763 191.507C157.398 191.507 157.851 191.229 158.123 190.674C158.406 190.107 158.548 189.337 158.548 188.362V187.002C158.548 185.948 158.418 185.177 158.157 184.69C157.896 184.203 157.539 183.959 157.086 183.959ZM161.862 179.896V179.42H165.126V190.572C165.126 190.957 165.143 191.19 165.177 191.269C165.211 191.337 165.319 191.382 165.5 191.405L166.435 191.524V192H161.862V191.524L162.797 191.405C162.979 191.382 163.086 191.337 163.12 191.269C163.154 191.19 163.171 190.957 163.171 190.572V180.848C163.171 180.463 163.154 180.236 163.12 180.168C163.086 180.089 162.979 180.038 162.797 180.015L161.862 179.896ZM175.765 191.575C175.583 191.745 175.362 191.887 175.102 192C174.852 192.113 174.546 192.17 174.184 192.17C173.719 192.17 173.328 192.068 173.011 191.864C172.705 191.66 172.501 191.371 172.399 190.997C172.025 191.405 171.611 191.705 171.158 191.898C170.716 192.079 170.262 192.17 169.798 192.17C169.016 192.17 168.432 191.955 168.047 191.524C167.661 191.082 167.469 190.532 167.469 189.875C167.469 189.206 167.712 188.668 168.2 188.26C168.687 187.841 169.548 187.631 170.784 187.631H172.331V186.254C172.331 185.313 172.206 184.673 171.957 184.333C171.719 183.982 171.384 183.806 170.954 183.806C170.67 183.806 170.41 183.88 170.172 184.027C169.934 184.163 169.764 184.424 169.662 184.809C169.571 185.183 169.588 185.727 169.713 186.441L167.843 186.169C167.752 185.648 167.809 185.166 168.013 184.724C168.228 184.271 168.585 183.908 169.084 183.636C169.582 183.353 170.217 183.211 170.988 183.211C171.86 183.211 172.535 183.353 173.011 183.636C173.487 183.919 173.815 184.293 173.997 184.758C174.189 185.223 174.286 185.721 174.286 186.254V190.181C174.286 190.759 174.337 191.122 174.439 191.269C174.541 191.416 174.654 191.49 174.779 191.49C174.983 191.49 175.209 191.371 175.459 191.133L175.765 191.575ZM170.546 191.269C170.84 191.269 171.129 191.195 171.413 191.048C171.707 190.889 172.013 190.6 172.331 190.181V188.226H171.056C170.5 188.226 170.098 188.356 169.849 188.617C169.599 188.878 169.475 189.286 169.475 189.841C169.475 190.294 169.565 190.646 169.747 190.895C169.928 191.144 170.194 191.269 170.546 191.269ZM180.404 192.85C180.144 193.564 179.855 194.136 179.537 194.567C179.231 194.998 178.852 195.309 178.398 195.502C177.945 195.695 177.378 195.791 176.698 195.791V193.921C177.39 193.921 177.945 193.87 178.364 193.768C178.795 193.677 179.124 193.524 179.35 193.309C179.588 193.105 179.764 192.839 179.877 192.51L180.047 192H179.163L176.749 184.809C176.67 184.548 176.602 184.367 176.545 184.265C176.5 184.152 176.443 184.078 176.375 184.044C176.319 184.01 176.228 183.987 176.103 183.976L175.168 183.857V183.381H179.758V183.857L178.823 183.976C178.687 183.987 178.602 184.033 178.568 184.112C178.546 184.18 178.597 184.412 178.721 184.809L180.574 190.419L182.495 184.741C182.62 184.378 182.671 184.169 182.648 184.112C182.637 184.044 182.546 183.999 182.376 183.976L181.441 183.857V183.381H184.688V183.857L183.753 183.976C183.583 183.999 183.47 184.044 183.413 184.112C183.357 184.18 183.266 184.39 183.141 184.741L180.404 192.85ZM192.06 189.977C191.856 190.77 191.477 191.337 190.921 191.677C190.366 192.006 189.72 192.17 188.983 192.17C187.623 192.17 186.603 191.779 185.923 190.997C185.243 190.204 184.903 189.155 184.903 187.852V187.512C184.903 186.209 185.221 185.166 185.855 184.384C186.501 183.602 187.431 183.211 188.643 183.211C189.323 183.211 189.924 183.347 190.445 183.619C190.978 183.88 191.392 184.259 191.686 184.758C191.992 185.257 192.145 185.863 192.145 186.577C192.145 186.747 192.134 186.928 192.111 187.121C192.1 187.314 192.072 187.506 192.026 187.699H186.994V188.192C186.994 189.393 187.164 190.26 187.504 190.793C187.844 191.314 188.394 191.575 189.153 191.575C189.641 191.575 190.054 191.433 190.394 191.15C190.734 190.855 190.927 190.362 190.972 189.671L192.06 189.977ZM188.643 183.806C188.088 183.806 187.674 184.061 187.402 184.571C187.13 185.081 186.994 185.925 186.994 187.104H190.071C190.117 186.877 190.145 186.668 190.156 186.475C190.179 186.271 190.19 186.084 190.19 185.914C190.19 185.189 190.049 184.656 189.765 184.316C189.482 183.976 189.108 183.806 188.643 183.806ZM193.391 183.857V183.381H196.553V184.775C197.245 183.732 198.066 183.211 199.018 183.211C199.37 183.211 199.71 183.324 200.038 183.551C200.367 183.766 200.639 184.174 200.854 184.775L199.341 185.591C199.183 185.126 198.996 184.815 198.78 184.656C198.576 184.486 198.355 184.401 198.117 184.401C197.868 184.401 197.624 184.48 197.386 184.639C197.148 184.798 196.905 185.092 196.655 185.523V190.572C196.655 190.957 196.672 191.19 196.706 191.269C196.74 191.337 196.848 191.382 197.029 191.405L198.304 191.524V192H193.391V191.524L194.326 191.405C194.508 191.382 194.615 191.337 194.649 191.269C194.683 191.19 194.7 190.957 194.7 190.572V184.809C194.7 184.424 194.683 184.197 194.649 184.129C194.615 184.05 194.508 183.999 194.326 183.976L193.391 183.857ZM205.12 188.787L203.947 188.515C203.188 188.334 202.621 188.011 202.247 187.546C201.884 187.07 201.703 186.509 201.703 185.863C201.703 185.387 201.805 184.951 202.009 184.554C202.224 184.146 202.559 183.823 203.012 183.585C203.465 183.336 204.055 183.211 204.78 183.211C205.562 183.211 206.197 183.336 206.684 183.585C207.171 183.834 207.517 184.163 207.721 184.571C207.925 184.979 207.987 185.415 207.908 185.88L206.038 186.22C206.197 185.449 206.151 184.854 205.902 184.435C205.664 184.016 205.262 183.806 204.695 183.806C204.298 183.806 203.97 183.925 203.709 184.163C203.448 184.39 203.318 184.718 203.318 185.149C203.318 185.546 203.431 185.897 203.658 186.203C203.885 186.498 204.219 186.696 204.661 186.798L205.834 187.07C206.673 187.263 207.279 187.569 207.653 187.988C208.027 188.396 208.214 188.906 208.214 189.518C208.214 190.277 207.931 190.912 207.364 191.422C206.809 191.921 205.976 192.17 204.865 192.17C204.48 192.17 204.055 192.113 203.59 192C203.137 191.875 202.717 191.654 202.332 191.337C201.958 191.02 201.686 190.566 201.516 189.977L202.621 189.535C202.7 190.283 202.955 190.81 203.386 191.116C203.828 191.422 204.321 191.575 204.865 191.575C205.375 191.575 205.789 191.462 206.106 191.235C206.435 190.997 206.599 190.657 206.599 190.215C206.599 189.909 206.491 189.631 206.276 189.382C206.072 189.121 205.687 188.923 205.12 188.787ZM211.18 192.17C210.829 192.17 210.54 192.062 210.313 191.847C210.098 191.62 209.99 191.326 209.99 190.963C209.99 190.6 210.098 190.311 210.313 190.096C210.54 189.881 210.829 189.773 211.18 189.773C211.531 189.773 211.82 189.881 212.047 190.096C212.274 190.311 212.387 190.6 212.387 190.963C212.387 191.326 212.274 191.62 212.047 191.847C211.82 192.062 211.531 192.17 211.18 192.17Z" fill="black"/>
</svg>
