<svg width="354" height="354" viewBox="0 0 354 354" fill="none" xmlns="http://www.w3.org/2000/svg">
<mask id="mask0_257_1331" style="mask-type:luminance" maskUnits="userSpaceOnUse" x="10" y="90" width="330" height="182">
<path d="M10.7969 90.624H339.84V271.511H10.7969V90.624Z" fill="white"/>
</mask>
<g mask="url(#mask0_257_1331)">
<path d="M299.491 91.0259L50.5074 97.7187C28.611 97.7187 10.8594 115.489 10.8594 137.407V184.983C10.8594 206.902 28.611 224.668 50.5074 224.668H75.4312C72.1751 240.513 62.8162 259.309 38.464 271.518C38.464 271.518 89.5764 266.127 117.045 224.668H292.806C314.702 224.668 332.454 206.898 332.454 184.983L339.139 130.714C339.139 108.796 321.387 91.0259 299.491 91.0259Z" fill="black"/>
</g>
<path d="M302.888 84.0454L62.127 90.517C40.9534 90.517 23.7881 107.697 23.7881 128.893V174.894C23.7881 196.09 40.9534 213.27 62.127 213.27H86.2285C83.0831 228.592 74.0303 246.767 50.4856 258.575C50.4856 258.575 99.9055 253.361 126.467 213.27H296.423C317.597 213.27 334.762 196.09 334.762 174.894L341.227 122.421C341.227 101.225 324.061 84.0454 302.888 84.0454Z" fill="white"/>
<mask id="mask1_257_1331" style="mask-type:luminance" maskUnits="userSpaceOnUse" x="21" y="82" width="322" height="180">
<path d="M21.7119 82.4746H342.849V261.488H21.7119V82.4746Z" fill="white"/>
</mask>
<g mask="url(#mask1_257_1331)">
<path d="M42.0892 261.038L49.785 257.178C68.2852 247.9 79.8824 233.662 84.2852 214.838H62.1307C40.1274 214.838 22.2246 196.92 22.2246 174.895V128.893C22.2246 106.875 40.1127 88.9611 62.1086 88.9501L302.866 82.4785H302.888C324.891 82.4785 342.794 100.396 342.794 122.422V122.517L342.779 122.61L336.326 174.994C336.274 196.972 318.394 214.838 296.423 214.838H127.304C121.212 223.846 113.483 231.815 104.316 238.526C96.808 244.024 88.3231 248.693 79.1006 252.41C63.4029 258.73 51.1641 260.076 50.6515 260.131L42.0892 261.035V261.038ZM62.1307 92.0845C41.8532 92.0845 25.3553 108.597 25.3553 128.893V174.898C25.3553 195.194 41.8532 211.707 62.1307 211.707H88.146L87.7626 213.588C85.8967 222.677 82.3714 230.941 77.2864 238.146C72.5664 244.835 66.493 250.614 59.166 255.404C64.0962 254.272 70.7152 252.421 78.0239 249.471C92.0917 243.792 111.687 232.752 125.165 212.411L125.629 211.707H296.423C316.701 211.707 333.199 195.194 333.199 174.898V174.802L333.21 174.707L339.663 122.326C339.611 102.081 323.147 85.624 302.91 85.6129L62.1529 92.0845H62.1307Z" fill="black"/>
</g>
<path d="M120.652 210.895C112.816 224.982 99.3121 235.863 84.352 241.605L84.2598 241.417C91.019 237.165 97.5938 232.773 103.704 227.648C109.825 222.559 115.316 216.873 120.478 210.777L120.652 210.895Z" fill="black"/>
<path d="M243.039 207.116C229.167 208.218 215.25 208.307 201.344 207.927C196.713 207.776 192.078 207.554 187.446 207.116V206.905C201.319 205.703 215.235 205.744 229.141 206.124C233.772 206.293 238.408 206.496 243.039 206.905V207.116Z" fill="black"/>
<path d="M328.424 178.353C328.951 186.13 324.744 194.317 318.242 198.561L318.099 198.41C321.558 193.885 324.478 189.106 326.421 183.759C327.081 182 327.635 180.197 328.217 178.335L328.424 178.353Z" fill="black"/>
<path d="M285 90.6867C290.948 89.9049 296.925 89.5583 302.91 89.3223C311.296 89.2228 319.795 92.8218 325.216 99.238L325.072 99.3892C319.231 94.7909 312.243 91.8372 304.85 91.3763C304.267 91.3246 303.522 91.3246 302.936 91.2951C300.517 91.3357 298.054 91.3505 295.638 91.321C292.098 91.2767 288.555 91.1771 285.004 90.8932L285 90.683V90.6867Z" fill="black"/>
<path d="M60.0545 96.7414C69.6162 95.7089 79.2073 95.4507 88.8133 95.4434C92.014 95.4544 95.2111 95.5134 98.4155 95.7015L98.4192 95.9117C88.8649 96.911 79.259 97.2023 69.6567 97.2023C66.4597 97.1949 63.2515 97.1249 60.0655 96.9515L60.0508 96.7414H60.0545Z" fill="black"/>
<path d="M31.325 184.246C29.8058 180.503 29.4112 176.3 29.4075 172.262C29.3596 169.909 29.3227 167.343 29.319 165.008C29.2969 158.581 29.4075 152.069 29.9422 145.66H30.1524C30.8161 153.688 30.842 161.797 30.7313 169.843C30.7166 171.045 30.665 173.479 30.6244 174.677C30.5101 177.856 30.8272 181.038 31.5241 184.187L31.325 184.246Z" fill="black"/>
<path d="M47.1578 122.264V121.76H52.1258C53.0858 121.76 53.8478 121.892 54.4118 122.156C54.9758 122.42 55.3778 122.768 55.6178 123.2C55.8698 123.632 55.9958 124.112 55.9958 124.64V125.126C55.9958 125.75 55.7978 126.29 55.4018 126.746C55.0178 127.19 54.4538 127.508 53.7098 127.7C54.6218 127.856 55.3178 128.18 55.7978 128.672C56.2898 129.164 56.5358 129.782 56.5358 130.526V131.03C56.5358 131.57 56.4098 132.068 56.1578 132.524C55.9058 132.968 55.4858 133.328 54.8978 133.604C54.3218 133.868 53.5478 134 52.5758 134H47.1578V133.496L48.1478 133.37C48.3398 133.346 48.4538 133.298 48.4898 133.226C48.5258 133.142 48.5438 132.896 48.5438 132.488V123.272C48.5438 122.864 48.5258 122.624 48.4898 122.552C48.4538 122.468 48.3398 122.414 48.1478 122.39L47.1578 122.264ZM52.1258 122.39H50.7038V127.43H52.1258C52.6418 127.43 53.0318 127.256 53.2958 126.908C53.5598 126.548 53.6918 125.984 53.6918 125.216V124.64C53.6918 123.86 53.5598 123.29 53.2958 122.93C53.0318 122.57 52.6418 122.39 52.1258 122.39ZM52.5758 128.06H50.7038V133.37H52.5758C53.1158 133.37 53.5238 133.19 53.7998 132.83C54.0878 132.458 54.2318 131.858 54.2318 131.03V130.436C54.2318 128.852 53.6798 128.06 52.5758 128.06ZM67.0696 133.55C66.8776 133.73 66.6436 133.88 66.3676 134C66.1036 134.12 65.7796 134.18 65.3956 134.18C64.9036 134.18 64.4896 134.072 64.1536 133.856C63.8296 133.64 63.6136 133.334 63.5056 132.938C63.1096 133.37 62.6716 133.688 62.1916 133.892C61.7236 134.084 61.2436 134.18 60.7516 134.18C59.9236 134.18 59.3056 133.952 58.8976 133.496C58.4896 133.028 58.2856 132.446 58.2856 131.75C58.2856 131.042 58.5436 130.472 59.0596 130.04C59.5756 129.596 60.4876 129.374 61.7956 129.374H63.4336V127.916C63.4336 126.92 63.3016 126.242 63.0376 125.882C62.7856 125.51 62.4316 125.324 61.9756 125.324C61.6756 125.324 61.3996 125.402 61.1476 125.558C60.8956 125.702 60.7156 125.978 60.6076 126.386C60.5116 126.782 60.5296 127.358 60.6616 128.114L58.6816 127.826C58.5856 127.274 58.6456 126.764 58.8616 126.296C59.0896 125.816 59.4676 125.432 59.9956 125.144C60.5236 124.844 61.1956 124.694 62.0116 124.694C62.9356 124.694 63.6496 124.844 64.1536 125.144C64.6576 125.444 65.0056 125.84 65.1976 126.332C65.4016 126.824 65.5036 127.352 65.5036 127.916V132.074C65.5036 132.686 65.5576 133.07 65.6656 133.226C65.7736 133.382 65.8936 133.46 66.0256 133.46C66.2416 133.46 66.4816 133.334 66.7456 133.082L67.0696 133.55ZM61.5436 133.226C61.8556 133.226 62.1616 133.148 62.4616 132.992C62.7736 132.824 63.0976 132.518 63.4336 132.074V130.004H62.0836C61.4956 130.004 61.0696 130.142 60.8056 130.418C60.5416 130.694 60.4096 131.126 60.4096 131.714C60.4096 132.194 60.5056 132.566 60.6976 132.83C60.8896 133.094 61.1716 133.226 61.5436 133.226ZM73.9831 132.128C73.8271 132.86 73.5271 133.388 73.0831 133.712C72.6511 134.024 72.1231 134.18 71.4991 134.18C70.8631 134.18 70.3411 134.042 69.9331 133.766C69.5251 133.478 69.2251 133.1 69.0331 132.632C68.8411 132.164 68.7451 131.666 68.7451 131.138V126.386C68.7451 125.978 68.7271 125.738 68.6911 125.666C68.6551 125.582 68.5411 125.528 68.3491 125.504L67.3591 125.378V124.874H68.7451V122.786L70.8151 122.372V124.874H73.6951V125.504H70.8151V131.498C70.8151 132.266 70.9111 132.8 71.1031 133.1C71.2951 133.388 71.5411 133.532 71.8411 133.532C72.1531 133.532 72.3931 133.412 72.5611 133.172C72.7411 132.932 72.8551 132.494 72.9031 131.858L73.9831 132.128ZM81.0847 132.128C80.9287 132.86 80.6287 133.388 80.1847 133.712C79.7527 134.024 79.2247 134.18 78.6007 134.18C77.9647 134.18 77.4427 134.042 77.0347 133.766C76.6267 133.478 76.3267 133.1 76.1347 132.632C75.9427 132.164 75.8467 131.666 75.8467 131.138V126.386C75.8467 125.978 75.8287 125.738 75.7927 125.666C75.7567 125.582 75.6427 125.528 75.4507 125.504L74.4607 125.378V124.874H75.8467V122.786L77.9167 122.372V124.874H80.7967V125.504H77.9167V131.498C77.9167 132.266 78.0127 132.8 78.2047 133.1C78.3967 133.388 78.6427 133.532 78.9427 133.532C79.2547 133.532 79.4947 133.412 79.6627 133.172C79.8427 132.932 79.9567 132.494 80.0047 131.858L81.0847 132.128ZM89.8963 131.858C89.6803 132.698 89.2783 133.298 88.6903 133.658C88.1023 134.006 87.4183 134.18 86.6383 134.18C85.1983 134.18 84.1183 133.766 83.3983 132.938C82.6783 132.098 82.3183 130.988 82.3183 129.608V129.248C82.3183 127.868 82.6543 126.764 83.3263 125.936C84.0103 125.108 84.9943 124.694 86.2783 124.694C86.9983 124.694 87.6343 124.838 88.1863 125.126C88.7503 125.402 89.1883 125.804 89.5003 126.332C89.8243 126.86 89.9863 127.502 89.9863 128.258C89.9863 128.438 89.9743 128.63 89.9503 128.834C89.9383 129.038 89.9083 129.242 89.8603 129.446H84.5323V129.968C84.5323 131.24 84.7123 132.158 85.0723 132.722C85.4323 133.274 86.0143 133.55 86.8183 133.55C87.3343 133.55 87.7723 133.4 88.1323 133.1C88.4923 132.788 88.6963 132.266 88.7443 131.534L89.8963 131.858ZM86.2783 125.324C85.6903 125.324 85.2523 125.594 84.9643 126.134C84.6763 126.674 84.5323 127.568 84.5323 128.816H87.7903C87.8383 128.576 87.8683 128.354 87.8803 128.15C87.9043 127.934 87.9163 127.736 87.9163 127.556C87.9163 126.788 87.7663 126.224 87.4663 125.864C87.1663 125.504 86.7703 125.324 86.2783 125.324ZM91.3056 125.378V124.874H94.6536V126.35C95.3856 125.246 96.2556 124.694 97.2636 124.694C97.6356 124.694 97.9956 124.814 98.3436 125.054C98.6916 125.282 98.9796 125.714 99.2076 126.35L97.6056 127.214C97.4376 126.722 97.2396 126.392 97.0116 126.224C96.7956 126.044 96.5616 125.954 96.3096 125.954C96.0456 125.954 95.7876 126.038 95.5356 126.206C95.2836 126.374 95.0256 126.686 94.7616 127.142V132.488C94.7616 132.896 94.7796 133.142 94.8156 133.226C94.8516 133.298 94.9656 133.346 95.1576 133.37L96.5076 133.496V134H91.3056V133.496L92.2956 133.37C92.4876 133.346 92.6016 133.298 92.6376 133.226C92.6736 133.142 92.6916 132.896 92.6916 132.488V126.386C92.6916 125.978 92.6736 125.738 92.6376 125.666C92.6016 125.582 92.4876 125.528 92.2956 125.504L91.3056 125.378ZM102.032 123.326C101.66 123.326 101.36 123.212 101.132 122.984C100.904 122.744 100.79 122.438 100.79 122.066C100.79 121.694 100.904 121.394 101.132 121.166C101.36 120.938 101.66 120.824 102.032 120.824C102.392 120.824 102.692 120.938 102.932 121.166C103.172 121.394 103.292 121.694 103.292 122.066C103.292 122.438 103.172 122.744 102.932 122.984C102.692 123.212 102.392 123.326 102.032 123.326ZM99.6201 125.378V124.874H103.076V132.488C103.076 132.896 103.094 133.142 103.13 133.226C103.166 133.298 103.28 133.346 103.472 133.37L104.462 133.496V134H99.6201V133.496L100.61 133.37C100.802 133.346 100.916 133.298 100.952 133.226C100.988 133.142 101.006 132.896 101.006 132.488V126.386C101.006 125.978 100.988 125.738 100.952 125.666C100.916 125.582 100.802 125.528 100.61 125.504L99.6201 125.378ZM113.275 131.858C113.059 132.698 112.657 133.298 112.069 133.658C111.481 134.006 110.797 134.18 110.017 134.18C108.577 134.18 107.497 133.766 106.777 132.938C106.057 132.098 105.697 130.988 105.697 129.608V129.248C105.697 127.868 106.033 126.764 106.705 125.936C107.389 125.108 108.373 124.694 109.657 124.694C110.377 124.694 111.013 124.838 111.565 125.126C112.129 125.402 112.567 125.804 112.879 126.332C113.203 126.86 113.365 127.502 113.365 128.258C113.365 128.438 113.353 128.63 113.329 128.834C113.317 129.038 113.287 129.242 113.239 129.446H107.911V129.968C107.911 131.24 108.091 132.158 108.451 132.722C108.811 133.274 109.393 133.55 110.197 133.55C110.713 133.55 111.151 133.4 111.511 133.1C111.871 132.788 112.075 132.266 112.123 131.534L113.275 131.858ZM109.657 125.324C109.069 125.324 108.631 125.594 108.343 126.134C108.055 126.674 107.911 127.568 107.911 128.816H111.169C111.217 128.576 111.247 128.354 111.259 128.15C111.283 127.934 111.295 127.736 111.295 127.556C111.295 126.788 111.145 126.224 110.845 125.864C110.545 125.504 110.149 125.324 109.657 125.324ZM118.789 130.598L117.547 130.31C116.743 130.118 116.143 129.776 115.747 129.284C115.363 128.78 115.171 128.186 115.171 127.502C115.171 126.998 115.279 126.536 115.495 126.116C115.723 125.684 116.077 125.342 116.557 125.09C117.037 124.826 117.661 124.694 118.429 124.694C119.257 124.694 119.929 124.826 120.445 125.09C120.961 125.354 121.327 125.702 121.543 126.134C121.759 126.566 121.825 127.028 121.741 127.52L119.761 127.88C119.929 127.064 119.881 126.434 119.617 125.99C119.365 125.546 118.939 125.324 118.339 125.324C117.919 125.324 117.571 125.45 117.295 125.702C117.019 125.942 116.881 126.29 116.881 126.746C116.881 127.166 117.001 127.538 117.241 127.862C117.481 128.174 117.835 128.384 118.303 128.492L119.545 128.78C120.433 128.984 121.075 129.308 121.471 129.752C121.867 130.184 122.065 130.724 122.065 131.372C122.065 132.176 121.765 132.848 121.165 133.388C120.577 133.916 119.695 134.18 118.519 134.18C118.111 134.18 117.661 134.12 117.169 134C116.689 133.868 116.245 133.634 115.837 133.298C115.441 132.962 115.153 132.482 114.973 131.858L116.143 131.39C116.227 132.182 116.497 132.74 116.953 133.064C117.421 133.388 117.943 133.55 118.519 133.55C119.059 133.55 119.497 133.43 119.833 133.19C120.181 132.938 120.355 132.578 120.355 132.11C120.355 131.786 120.241 131.492 120.013 131.228C119.797 130.952 119.389 130.742 118.789 130.598ZM131.462 130.598L130.22 130.31C129.416 130.118 128.816 129.776 128.42 129.284C128.036 128.78 127.844 128.186 127.844 127.502C127.844 126.998 127.952 126.536 128.168 126.116C128.396 125.684 128.75 125.342 129.23 125.09C129.71 124.826 130.334 124.694 131.102 124.694C131.93 124.694 132.602 124.826 133.118 125.09C133.634 125.354 134 125.702 134.216 126.134C134.432 126.566 134.498 127.028 134.414 127.52L132.434 127.88C132.602 127.064 132.554 126.434 132.29 125.99C132.038 125.546 131.612 125.324 131.012 125.324C130.592 125.324 130.244 125.45 129.968 125.702C129.692 125.942 129.554 126.29 129.554 126.746C129.554 127.166 129.674 127.538 129.914 127.862C130.154 128.174 130.508 128.384 130.976 128.492L132.218 128.78C133.106 128.984 133.748 129.308 134.144 129.752C134.54 130.184 134.738 130.724 134.738 131.372C134.738 132.176 134.438 132.848 133.838 133.388C133.25 133.916 132.368 134.18 131.192 134.18C130.784 134.18 130.334 134.12 129.842 134C129.362 133.868 128.918 133.634 128.51 133.298C128.114 132.962 127.826 132.482 127.646 131.858L128.816 131.39C128.9 132.182 129.17 132.74 129.626 133.064C130.094 133.388 130.616 133.55 131.192 133.55C131.732 133.55 132.17 133.43 132.506 133.19C132.854 132.938 133.028 132.578 133.028 132.11C133.028 131.786 132.914 131.492 132.686 131.228C132.47 130.952 132.062 130.742 131.462 130.598ZM142.415 132.128C142.259 132.86 141.959 133.388 141.515 133.712C141.083 134.024 140.555 134.18 139.931 134.18C139.295 134.18 138.773 134.042 138.365 133.766C137.957 133.478 137.657 133.1 137.465 132.632C137.273 132.164 137.177 131.666 137.177 131.138V126.386C137.177 125.978 137.159 125.738 137.123 125.666C137.087 125.582 136.973 125.528 136.781 125.504L135.791 125.378V124.874H137.177V122.786L139.247 122.372V124.874H142.127V125.504H139.247V131.498C139.247 132.266 139.343 132.8 139.535 133.1C139.727 133.388 139.973 133.532 140.273 133.532C140.585 133.532 140.825 133.412 140.993 133.172C141.173 132.932 141.287 132.494 141.335 131.858L142.415 132.128ZM151.874 129.248V129.608C151.874 130.988 151.514 132.098 150.794 132.938C150.086 133.766 149.072 134.18 147.752 134.18C146.432 134.18 145.412 133.766 144.692 132.938C143.984 132.098 143.63 130.988 143.63 129.608V129.248C143.63 127.868 143.984 126.764 144.692 125.936C145.412 125.108 146.432 124.694 147.752 124.694C149.072 124.694 150.086 125.108 150.794 125.936C151.514 126.764 151.874 127.868 151.874 129.248ZM149.66 128.888C149.66 127.604 149.498 126.692 149.174 126.152C148.85 125.6 148.376 125.324 147.752 125.324C147.14 125.324 146.666 125.6 146.33 126.152C146.006 126.692 145.844 127.604 145.844 128.888V129.968C145.844 131.24 146.006 132.158 146.33 132.722C146.666 133.274 147.14 133.55 147.752 133.55C148.376 133.55 148.85 133.274 149.174 132.722C149.498 132.158 149.66 131.24 149.66 129.968V128.888ZM153.216 125.378V124.874H156.564V126.35C157.296 125.246 158.166 124.694 159.174 124.694C159.546 124.694 159.906 124.814 160.254 125.054C160.602 125.282 160.89 125.714 161.118 126.35L159.516 127.214C159.348 126.722 159.15 126.392 158.922 126.224C158.706 126.044 158.472 125.954 158.22 125.954C157.956 125.954 157.698 126.038 157.446 126.206C157.194 126.374 156.936 126.686 156.672 127.142V132.488C156.672 132.896 156.69 133.142 156.726 133.226C156.762 133.298 156.876 133.346 157.068 133.37L158.418 133.496V134H153.216V133.496L154.206 133.37C154.398 133.346 154.512 133.298 154.548 133.226C154.584 133.142 154.602 132.896 154.602 132.488V126.386C154.602 125.978 154.584 125.738 154.548 125.666C154.512 125.582 154.398 125.528 154.206 125.504L153.216 125.378ZM169.385 131.858C169.169 132.698 168.767 133.298 168.179 133.658C167.591 134.006 166.907 134.18 166.127 134.18C164.687 134.18 163.607 133.766 162.887 132.938C162.167 132.098 161.807 130.988 161.807 129.608V129.248C161.807 127.868 162.143 126.764 162.815 125.936C163.499 125.108 164.483 124.694 165.767 124.694C166.487 124.694 167.123 124.838 167.675 125.126C168.239 125.402 168.677 125.804 168.989 126.332C169.313 126.86 169.475 127.502 169.475 128.258C169.475 128.438 169.463 128.63 169.439 128.834C169.427 129.038 169.397 129.242 169.349 129.446H164.021V129.968C164.021 131.24 164.201 132.158 164.561 132.722C164.921 133.274 165.503 133.55 166.307 133.55C166.823 133.55 167.261 133.4 167.621 133.1C167.981 132.788 168.185 132.266 168.233 131.534L169.385 131.858ZM165.767 125.324C165.179 125.324 164.741 125.594 164.453 126.134C164.165 126.674 164.021 127.568 164.021 128.816H167.279C167.327 128.576 167.357 128.354 167.369 128.15C167.393 127.934 167.405 127.736 167.405 127.556C167.405 126.788 167.255 126.224 166.955 125.864C166.655 125.504 166.259 125.324 165.767 125.324ZM180.741 134.18C179.637 134.18 178.701 133.946 177.933 133.478C177.165 132.998 176.583 132.326 176.187 131.462C175.791 130.598 175.593 129.59 175.593 128.438V127.304C175.593 126.152 175.767 125.15 176.115 124.298C176.475 123.434 177.009 122.768 177.717 122.3C178.425 121.82 179.313 121.58 180.381 121.58C181.293 121.58 182.055 121.76 182.667 122.12C183.279 122.468 183.729 122.936 184.017 123.524C184.317 124.1 184.443 124.73 184.395 125.414L182.289 125.936C182.409 124.736 182.283 123.818 181.911 123.182C181.551 122.534 181.011 122.21 180.291 122.21C179.523 122.21 178.929 122.534 178.509 123.182C178.101 123.83 177.897 124.904 177.897 126.404V129.338C177.897 130.826 178.131 131.9 178.599 132.56C179.067 133.22 179.781 133.55 180.741 133.55C181.137 133.55 181.503 133.478 181.839 133.334C182.187 133.19 182.475 132.944 182.703 132.596C182.943 132.236 183.093 131.732 183.153 131.084L184.449 131.426C184.281 132.098 184.011 132.638 183.639 133.046C183.267 133.454 182.829 133.748 182.325 133.928C181.833 134.096 181.305 134.18 180.741 134.18ZM196.036 133.496V134H191.194V133.496L192.184 133.37C192.376 133.346 192.49 133.298 192.526 133.226C192.562 133.142 192.58 132.896 192.58 132.488V127.952C192.58 127.124 192.454 126.524 192.202 126.152C191.962 125.768 191.602 125.576 191.122 125.576C190.918 125.576 190.678 125.63 190.402 125.738C190.138 125.834 189.868 126.014 189.592 126.278C189.328 126.542 189.094 126.932 188.89 127.448V132.488C188.89 132.896 188.908 133.142 188.944 133.226C188.98 133.298 189.094 133.346 189.286 133.37L190.276 133.496V134H185.434V133.496L186.424 133.37C186.616 133.346 186.73 133.298 186.766 133.226C186.802 133.142 186.82 132.896 186.82 132.488V122.192C186.82 121.784 186.802 121.544 186.766 121.472C186.73 121.388 186.616 121.334 186.424 121.31L185.434 121.184V120.68H188.89V126.278C189.238 125.726 189.67 125.324 190.186 125.072C190.714 124.82 191.242 124.694 191.77 124.694C192.658 124.694 193.36 124.976 193.876 125.54C194.392 126.104 194.65 126.902 194.65 127.934V132.488C194.65 132.896 194.668 133.142 194.704 133.226C194.74 133.298 194.854 133.346 195.046 133.37L196.036 133.496ZM204.769 131.858C204.553 132.698 204.151 133.298 203.563 133.658C202.975 134.006 202.291 134.18 201.511 134.18C200.071 134.18 198.991 133.766 198.271 132.938C197.551 132.098 197.191 130.988 197.191 129.608V129.248C197.191 127.868 197.527 126.764 198.199 125.936C198.883 125.108 199.867 124.694 201.151 124.694C201.871 124.694 202.507 124.838 203.059 125.126C203.623 125.402 204.061 125.804 204.373 126.332C204.697 126.86 204.859 127.502 204.859 128.258C204.859 128.438 204.847 128.63 204.823 128.834C204.811 129.038 204.781 129.242 204.733 129.446H199.405V129.968C199.405 131.24 199.585 132.158 199.945 132.722C200.305 133.274 200.887 133.55 201.691 133.55C202.207 133.55 202.645 133.4 203.005 133.1C203.365 132.788 203.569 132.266 203.617 131.534L204.769 131.858ZM201.151 125.324C200.563 125.324 200.125 125.594 199.837 126.134C199.549 126.674 199.405 127.568 199.405 128.816H202.663C202.711 128.576 202.741 128.354 202.753 128.15C202.777 127.934 202.789 127.736 202.789 127.556C202.789 126.788 202.639 126.224 202.339 125.864C202.039 125.504 201.643 125.324 201.151 125.324ZM216.601 133.496V134H211.759V133.496L212.749 133.37C212.941 133.346 213.055 133.298 213.091 133.226C213.127 133.142 213.145 132.896 213.145 132.488V127.952C213.145 127.124 213.031 126.524 212.803 126.152C212.575 125.768 212.233 125.576 211.777 125.576C211.585 125.576 211.357 125.63 211.093 125.738C210.829 125.834 210.565 126.014 210.301 126.278C210.049 126.542 209.827 126.932 209.635 127.448V132.488C209.635 132.896 209.653 133.142 209.689 133.226C209.725 133.298 209.839 133.346 210.031 133.37L211.021 133.496V134H206.179V133.496L207.169 133.37C207.361 133.346 207.475 133.298 207.511 133.226C207.547 133.142 207.565 132.896 207.565 132.488V126.386C207.565 125.978 207.547 125.738 207.511 125.666C207.475 125.582 207.361 125.528 207.169 125.504L206.179 125.378V124.874H209.527V126.458C209.863 125.846 210.295 125.402 210.823 125.126C211.351 124.838 211.885 124.694 212.425 124.694C213.073 124.694 213.619 124.862 214.063 125.198C214.519 125.522 214.843 125.99 215.035 126.602C215.359 125.93 215.797 125.444 216.349 125.144C216.901 124.844 217.453 124.694 218.005 124.694C218.857 124.694 219.535 124.976 220.039 125.54C220.543 126.104 220.795 126.902 220.795 127.934V132.488C220.795 132.896 220.813 133.142 220.849 133.226C220.885 133.298 220.999 133.346 221.191 133.37L222.181 133.496V134H217.339V133.496L218.329 133.37C218.521 133.346 218.635 133.298 218.671 133.226C218.707 133.142 218.725 132.896 218.725 132.488V127.952C218.725 127.124 218.611 126.524 218.383 126.152C218.155 125.768 217.813 125.576 217.357 125.576C217.165 125.576 216.937 125.63 216.673 125.738C216.409 125.834 216.145 126.02 215.881 126.296C215.617 126.572 215.389 126.974 215.197 127.502C215.209 127.562 215.215 127.634 215.215 127.718C215.215 127.79 215.215 127.862 215.215 127.934V132.488C215.215 132.896 215.233 133.142 215.269 133.226C215.305 133.298 215.419 133.346 215.611 133.37L216.601 133.496ZM225.202 123.326C224.83 123.326 224.53 123.212 224.302 122.984C224.074 122.744 223.96 122.438 223.96 122.066C223.96 121.694 224.074 121.394 224.302 121.166C224.53 120.938 224.83 120.824 225.202 120.824C225.562 120.824 225.862 120.938 226.102 121.166C226.342 121.394 226.462 121.694 226.462 122.066C226.462 122.438 226.342 122.744 226.102 122.984C225.862 123.212 225.562 123.326 225.202 123.326ZM222.79 125.378V124.874H226.246V132.488C226.246 132.896 226.264 133.142 226.3 133.226C226.336 133.298 226.45 133.346 226.642 133.37L227.632 133.496V134H222.79V133.496L223.78 133.37C223.972 133.346 224.086 133.298 224.122 133.226C224.158 133.142 224.176 132.896 224.176 132.488V126.386C224.176 125.978 224.158 125.738 224.122 125.666C224.086 125.582 223.972 125.528 223.78 125.504L222.79 125.378ZM232.791 125.324C232.215 125.324 231.783 125.6 231.495 126.152C231.219 126.692 231.081 127.604 231.081 128.888V129.968C231.081 131.24 231.243 132.158 231.567 132.722C231.891 133.274 232.419 133.55 233.151 133.55C233.691 133.55 234.129 133.4 234.465 133.1C234.813 132.788 235.011 132.266 235.059 131.534L236.211 131.858C235.995 132.698 235.599 133.298 235.023 133.658C234.459 134.006 233.793 134.18 233.025 134.18C231.645 134.18 230.607 133.766 229.911 132.938C229.215 132.098 228.867 130.988 228.867 129.608V129.248C228.867 127.868 229.203 126.764 229.875 125.936C230.547 125.108 231.519 124.694 232.791 124.694C233.631 124.694 234.315 124.862 234.843 125.198C235.383 125.522 235.761 125.954 235.977 126.494C236.205 127.022 236.265 127.592 236.157 128.204L234.177 128.492C234.309 127.484 234.255 126.704 234.015 126.152C233.775 125.6 233.367 125.324 232.791 125.324ZM246.56 133.55C246.368 133.73 246.134 133.88 245.858 134C245.594 134.12 245.27 134.18 244.886 134.18C244.394 134.18 243.98 134.072 243.644 133.856C243.32 133.64 243.104 133.334 242.996 132.938C242.6 133.37 242.162 133.688 241.682 133.892C241.214 134.084 240.734 134.18 240.242 134.18C239.414 134.18 238.796 133.952 238.388 133.496C237.98 133.028 237.776 132.446 237.776 131.75C237.776 131.042 238.034 130.472 238.55 130.04C239.066 129.596 239.978 129.374 241.286 129.374H242.924V127.916C242.924 126.92 242.792 126.242 242.528 125.882C242.276 125.51 241.922 125.324 241.466 125.324C241.166 125.324 240.89 125.402 240.638 125.558C240.386 125.702 240.206 125.978 240.098 126.386C240.002 126.782 240.02 127.358 240.152 128.114L238.172 127.826C238.076 127.274 238.136 126.764 238.352 126.296C238.58 125.816 238.958 125.432 239.486 125.144C240.014 124.844 240.686 124.694 241.502 124.694C242.426 124.694 243.14 124.844 243.644 125.144C244.148 125.444 244.496 125.84 244.688 126.332C244.892 126.824 244.994 127.352 244.994 127.916V132.074C244.994 132.686 245.048 133.07 245.156 133.226C245.264 133.382 245.384 133.46 245.516 133.46C245.732 133.46 245.972 133.334 246.236 133.082L246.56 133.55ZM241.034 133.226C241.346 133.226 241.652 133.148 241.952 132.992C242.264 132.824 242.588 132.518 242.924 132.074V130.004H241.574C240.986 130.004 240.56 130.142 240.296 130.418C240.032 130.694 239.9 131.126 239.9 131.714C239.9 132.194 239.996 132.566 240.188 132.83C240.38 133.094 240.662 133.226 241.034 133.226ZM246.939 121.184V120.68H250.395V132.488C250.395 132.896 250.413 133.142 250.449 133.226C250.485 133.298 250.599 133.346 250.791 133.37L251.781 133.496V134H246.939V133.496L247.929 133.37C248.121 133.346 248.235 133.298 248.271 133.226C248.307 133.142 248.325 132.896 248.325 132.488V122.192C248.325 121.784 248.307 121.544 248.271 121.472C248.235 121.388 248.121 121.334 247.929 121.31L246.939 121.184ZM265.271 130.904H265.775V134H256.865V133.496L257.855 133.37C258.047 133.346 258.161 133.298 258.197 133.226C258.233 133.142 258.251 132.896 258.251 132.488V123.272C258.251 122.864 258.233 122.624 258.197 122.552C258.161 122.468 258.047 122.414 257.855 122.39L256.865 122.264V121.76H265.595V124.856H265.091L264.515 122.858C264.479 122.714 264.437 122.612 264.389 122.552C264.353 122.48 264.275 122.438 264.155 122.426C264.035 122.402 263.831 122.39 263.543 122.39H260.411V127.502H262.463C262.751 127.502 262.955 127.496 263.075 127.484C263.195 127.46 263.273 127.418 263.309 127.358C263.357 127.286 263.399 127.178 263.435 127.034L263.831 125.576H264.335V130.058H263.831L263.435 128.6C263.399 128.456 263.357 128.354 263.309 128.294C263.273 128.222 263.195 128.18 263.075 128.168C262.955 128.144 262.751 128.132 262.463 128.132H260.411V133.37H263.723C264.011 133.37 264.215 133.364 264.335 133.352C264.455 133.328 264.533 133.286 264.569 133.226C264.617 133.154 264.659 133.046 264.695 132.902L265.271 130.904ZM277.953 133.496V134H273.111V133.496L274.101 133.37C274.293 133.346 274.407 133.298 274.443 133.226C274.479 133.142 274.497 132.896 274.497 132.488V127.952C274.497 127.124 274.371 126.524 274.119 126.152C273.879 125.768 273.519 125.576 273.039 125.576C272.835 125.576 272.595 125.63 272.319 125.738C272.055 125.834 271.785 126.014 271.509 126.278C271.245 126.542 271.011 126.932 270.807 127.448V132.488C270.807 132.896 270.825 133.142 270.861 133.226C270.897 133.298 271.011 133.346 271.203 133.37L272.193 133.496V134H267.351V133.496L268.341 133.37C268.533 133.346 268.647 133.298 268.683 133.226C268.719 133.142 268.737 132.896 268.737 132.488V126.386C268.737 125.978 268.719 125.738 268.683 125.666C268.647 125.582 268.533 125.528 268.341 125.504L267.351 125.378V124.874H270.699V126.458C271.047 125.846 271.491 125.402 272.031 125.126C272.583 124.838 273.135 124.694 273.687 124.694C274.575 124.694 275.277 124.976 275.793 125.54C276.309 126.104 276.567 126.902 276.567 127.934V132.488C276.567 132.896 276.585 133.142 276.621 133.226C276.657 133.298 276.771 133.346 276.963 133.37L277.953 133.496ZM286.683 131.858C286.467 132.698 286.065 133.298 285.477 133.658C284.889 134.006 284.205 134.18 283.425 134.18C281.985 134.18 280.905 133.766 280.185 132.938C279.465 132.098 279.105 130.988 279.105 129.608V129.248C279.105 127.868 279.441 126.764 280.113 125.936C280.797 125.108 281.781 124.694 283.065 124.694C283.785 124.694 284.421 124.838 284.973 125.126C285.537 125.402 285.975 125.804 286.287 126.332C286.611 126.86 286.773 127.502 286.773 128.258C286.773 128.438 286.761 128.63 286.737 128.834C286.725 129.038 286.695 129.242 286.647 129.446H281.319V129.968C281.319 131.24 281.499 132.158 281.859 132.722C282.219 133.274 282.801 133.55 283.605 133.55C284.121 133.55 284.559 133.4 284.919 133.1C285.279 132.788 285.483 132.266 285.531 131.534L286.683 131.858ZM283.065 125.324C282.477 125.324 282.039 125.594 281.751 126.134C281.463 126.674 281.319 127.568 281.319 128.816H284.577C284.625 128.576 284.655 128.354 284.667 128.15C284.691 127.934 284.703 127.736 284.703 127.556C284.703 126.788 284.553 126.224 284.253 125.864C283.953 125.504 283.557 125.324 283.065 125.324ZM288.093 125.378V124.874H291.441V126.35C292.173 125.246 293.043 124.694 294.051 124.694C294.423 124.694 294.783 124.814 295.131 125.054C295.479 125.282 295.767 125.714 295.995 126.35L294.393 127.214C294.225 126.722 294.027 126.392 293.799 126.224C293.583 126.044 293.349 125.954 293.097 125.954C292.833 125.954 292.575 126.038 292.323 126.206C292.071 126.374 291.813 126.686 291.549 127.142V132.488C291.549 132.896 291.567 133.142 291.603 133.226C291.639 133.298 291.753 133.346 291.945 133.37L293.295 133.496V134H288.093V133.496L289.083 133.37C289.275 133.346 289.389 133.298 289.425 133.226C289.461 133.142 289.479 132.896 289.479 132.488V126.386C289.479 125.978 289.461 125.738 289.425 125.666C289.389 125.582 289.275 125.528 289.083 125.504L288.093 125.378ZM305.191 134.936C305.191 135.92 304.819 136.676 304.075 137.204C303.343 137.744 302.335 138.014 301.051 138.014C299.635 138.014 298.579 137.78 297.883 137.312C297.187 136.856 296.809 136.286 296.749 135.602L298.675 135.296C298.627 135.932 298.777 136.436 299.125 136.808C299.485 137.192 300.127 137.384 301.051 137.384C301.915 137.384 302.611 137.222 303.139 136.898C303.679 136.574 303.949 136.106 303.949 135.494C303.949 135.062 303.787 134.732 303.463 134.504C303.151 134.288 302.629 134.18 301.897 134.18H299.845C299.209 134.18 298.705 134.09 298.333 133.91C297.973 133.73 297.721 133.508 297.577 133.244C297.433 132.968 297.361 132.686 297.361 132.398C297.361 132.05 297.457 131.708 297.649 131.372C297.841 131.024 298.171 130.682 298.639 130.346C298.123 130.118 297.703 129.782 297.379 129.338C297.055 128.894 296.893 128.342 296.893 127.682C296.893 127.01 297.049 126.458 297.361 126.026C297.673 125.582 298.093 125.252 298.621 125.036C299.149 124.808 299.737 124.694 300.385 124.694H300.691C301.387 124.694 301.987 124.808 302.491 125.036L305.083 123.758L305.299 125.522H303.247C303.535 125.774 303.757 126.08 303.913 126.44C304.081 126.788 304.165 127.202 304.165 127.682C304.165 128.33 304.009 128.876 303.697 129.32C303.385 129.764 302.965 130.1 302.437 130.328C301.921 130.556 301.339 130.67 300.691 130.67H300.385C300.025 130.67 299.671 130.634 299.323 130.562C299.023 130.766 298.813 130.964 298.693 131.156C298.585 131.336 298.531 131.51 298.531 131.678C298.531 131.87 298.615 132.014 298.783 132.11C298.963 132.206 299.251 132.254 299.647 132.254H301.987C303.019 132.254 303.811 132.488 304.363 132.956C304.915 133.412 305.191 134.072 305.191 134.936ZM300.691 130.04C301.075 130.04 301.405 129.872 301.681 129.536C301.957 129.2 302.095 128.582 302.095 127.682C302.095 126.782 301.957 126.164 301.681 125.828C301.405 125.492 301.075 125.324 300.691 125.324H300.385C300.001 125.324 299.665 125.492 299.377 125.828C299.101 126.164 298.963 126.782 298.963 127.682C298.963 128.582 299.101 129.2 299.377 129.536C299.665 129.872 300.001 130.04 300.385 130.04H300.691ZM311.027 134.9C310.751 135.656 310.445 136.262 310.109 136.718C309.785 137.174 309.383 137.504 308.903 137.708C308.423 137.912 307.823 138.014 307.103 138.014V136.034C307.835 136.034 308.423 135.98 308.867 135.872C309.323 135.776 309.671 135.614 309.911 135.386C310.163 135.17 310.349 134.888 310.469 134.54L310.649 134H309.713L307.157 126.386C307.073 126.11 307.001 125.918 306.941 125.81C306.893 125.69 306.833 125.612 306.761 125.576C306.701 125.54 306.605 125.516 306.473 125.504L305.483 125.378V124.874H310.343V125.378L309.353 125.504C309.209 125.516 309.119 125.564 309.083 125.648C309.059 125.72 309.113 125.966 309.245 126.386L311.207 132.326L313.241 126.314C313.373 125.93 313.427 125.708 313.403 125.648C313.391 125.576 313.295 125.528 313.115 125.504L312.125 125.378V124.874H315.563V125.378L314.573 125.504C314.393 125.528 314.273 125.576 314.213 125.648C314.153 125.72 314.057 125.942 313.925 126.314L311.027 134.9ZM316.314 134.18C315.942 134.18 315.636 134.066 315.396 133.838C315.168 133.598 315.054 133.286 315.054 132.902C315.054 132.518 315.168 132.212 315.396 131.984C315.636 131.756 315.942 131.642 316.314 131.642C316.686 131.642 316.992 131.756 317.232 131.984C317.472 132.212 317.592 132.518 317.592 132.902C317.592 133.286 317.472 133.598 317.232 133.838C316.992 134.066 316.686 134.18 316.314 134.18ZM54.612 149.304V150.438C54.612 152.286 54.198 153.708 53.37 154.704C52.554 155.688 51.342 156.18 49.734 156.18C48.126 156.18 46.908 155.688 46.08 154.704C45.264 153.708 44.856 152.286 44.856 150.438V149.304C44.856 147.456 45.264 146.04 46.08 145.056C46.908 144.072 48.126 143.58 49.734 143.58C51.342 143.58 52.554 144.072 53.37 145.056C54.198 146.04 54.612 147.456 54.612 149.304ZM52.308 148.404C52.308 147.348 52.218 146.52 52.038 145.92C51.858 145.308 51.576 144.87 51.192 144.606C50.82 144.342 50.334 144.21 49.734 144.21C49.146 144.21 48.66 144.342 48.276 144.606C47.892 144.87 47.61 145.308 47.43 145.92C47.25 146.52 47.16 147.348 47.16 148.404V151.338C47.16 152.382 47.25 153.21 47.43 153.822C47.61 154.434 47.892 154.878 48.276 155.154C48.66 155.418 49.146 155.55 49.734 155.55C50.334 155.55 50.82 155.418 51.192 155.154C51.576 154.878 51.858 154.434 52.038 153.822C52.218 153.21 52.308 152.382 52.308 151.338V148.404ZM66.8129 155.496V156H61.9709V155.496L62.9609 155.37C63.1529 155.346 63.2669 155.298 63.3029 155.226C63.3389 155.142 63.3569 154.896 63.3569 154.488V149.952C63.3569 149.124 63.2309 148.524 62.9789 148.152C62.7389 147.768 62.3789 147.576 61.8989 147.576C61.6949 147.576 61.4549 147.63 61.1789 147.738C60.9149 147.834 60.6449 148.014 60.3689 148.278C60.1049 148.542 59.8709 148.932 59.6669 149.448V154.488C59.6669 154.896 59.6849 155.142 59.7209 155.226C59.7569 155.298 59.8709 155.346 60.0629 155.37L61.0529 155.496V156H56.2109V155.496L57.2009 155.37C57.3929 155.346 57.5069 155.298 57.5429 155.226C57.5789 155.142 57.5969 154.896 57.5969 154.488V148.386C57.5969 147.978 57.5789 147.738 57.5429 147.666C57.5069 147.582 57.3929 147.528 57.2009 147.504L56.2109 147.378V146.874H59.5589V148.458C59.9069 147.846 60.3509 147.402 60.8909 147.126C61.4429 146.838 61.9949 146.694 62.5469 146.694C63.4349 146.694 64.1369 146.976 64.6529 147.54C65.1689 148.104 65.4269 148.902 65.4269 149.934V154.488C65.4269 154.896 65.4449 155.142 65.4809 155.226C65.5169 155.298 65.6309 155.346 65.8229 155.37L66.8129 155.496ZM71.8897 147.324C71.3137 147.324 70.8817 147.6 70.5937 148.152C70.3177 148.692 70.1797 149.604 70.1797 150.888V151.968C70.1797 153.24 70.3417 154.158 70.6657 154.722C70.9897 155.274 71.5177 155.55 72.2497 155.55C72.7897 155.55 73.2277 155.4 73.5637 155.1C73.9117 154.788 74.1097 154.266 74.1577 153.534L75.3097 153.858C75.0937 154.698 74.6977 155.298 74.1217 155.658C73.5577 156.006 72.8917 156.18 72.1237 156.18C70.7437 156.18 69.7057 155.766 69.0097 154.938C68.3137 154.098 67.9657 152.988 67.9657 151.608V151.248C67.9657 149.868 68.3017 148.764 68.9737 147.936C69.6457 147.108 70.6177 146.694 71.8897 146.694C72.7297 146.694 73.4137 146.862 73.9417 147.198C74.4817 147.522 74.8597 147.954 75.0757 148.494C75.3037 149.022 75.3637 149.592 75.2557 150.204L73.2757 150.492C73.4077 149.484 73.3537 148.704 73.1137 148.152C72.8737 147.6 72.4657 147.324 71.8897 147.324ZM84.5965 153.858C84.3805 154.698 83.9785 155.298 83.3905 155.658C82.8025 156.006 82.1185 156.18 81.3385 156.18C79.8985 156.18 78.8185 155.766 78.0985 154.938C77.3785 154.098 77.0185 152.988 77.0185 151.608V151.248C77.0185 149.868 77.3545 148.764 78.0265 147.936C78.7105 147.108 79.6945 146.694 80.9785 146.694C81.6985 146.694 82.3345 146.838 82.8865 147.126C83.4505 147.402 83.8885 147.804 84.2005 148.332C84.5245 148.86 84.6865 149.502 84.6865 150.258C84.6865 150.438 84.6745 150.63 84.6505 150.834C84.6385 151.038 84.6085 151.242 84.5605 151.446H79.2325V151.968C79.2325 153.24 79.4125 154.158 79.7725 154.722C80.1325 155.274 80.7145 155.55 81.5185 155.55C82.0345 155.55 82.4725 155.4 82.8325 155.1C83.1925 154.788 83.3965 154.266 83.4445 153.534L84.5965 153.858ZM80.9785 147.324C80.3905 147.324 79.9525 147.594 79.6645 148.134C79.3765 148.674 79.2325 149.568 79.2325 150.816H82.4905C82.5385 150.576 82.5685 150.354 82.5805 150.15C82.6045 149.934 82.6165 149.736 82.6165 149.556C82.6165 148.788 82.4665 148.224 82.1665 147.864C81.8665 147.504 81.4705 147.324 80.9785 147.324ZM96.4392 154.128C96.2832 154.86 95.9832 155.388 95.5392 155.712C95.1072 156.024 94.5792 156.18 93.9552 156.18C93.3192 156.18 92.7972 156.042 92.3892 155.766C91.9812 155.478 91.6812 155.1 91.4892 154.632C91.2972 154.164 91.2012 153.666 91.2012 153.138V148.386C91.2012 147.978 91.1832 147.738 91.1472 147.666C91.1112 147.582 90.9972 147.528 90.8052 147.504L89.8152 147.378V146.874H91.2012V144.786L93.2712 144.372V146.874H96.1512V147.504H93.2712V153.498C93.2712 154.266 93.3672 154.8 93.5592 155.1C93.7512 155.388 93.9972 155.532 94.2972 155.532C94.6092 155.532 94.8492 155.412 95.0172 155.172C95.1972 154.932 95.3112 154.494 95.3592 153.858L96.4392 154.128ZM107.609 155.496V156H102.767V155.496L103.757 155.37C103.949 155.346 104.063 155.298 104.099 155.226C104.135 155.142 104.153 154.896 104.153 154.488V149.952C104.153 149.124 104.027 148.524 103.775 148.152C103.535 147.768 103.175 147.576 102.695 147.576C102.491 147.576 102.251 147.63 101.975 147.738C101.711 147.834 101.441 148.014 101.165 148.278C100.901 148.542 100.667 148.932 100.463 149.448V154.488C100.463 154.896 100.481 155.142 100.517 155.226C100.553 155.298 100.667 155.346 100.859 155.37L101.849 155.496V156H97.0068V155.496L97.9968 155.37C98.1888 155.346 98.3028 155.298 98.3388 155.226C98.3748 155.142 98.3928 154.896 98.3928 154.488V144.192C98.3928 143.784 98.3748 143.544 98.3388 143.472C98.3028 143.388 98.1888 143.334 97.9968 143.31L97.0068 143.184V142.68H100.463V148.278C100.811 147.726 101.243 147.324 101.759 147.072C102.287 146.82 102.815 146.694 103.343 146.694C104.231 146.694 104.933 146.976 105.449 147.54C105.965 148.104 106.223 148.902 106.223 149.934V154.488C106.223 154.896 106.241 155.142 106.277 155.226C106.313 155.298 106.427 155.346 106.619 155.37L107.609 155.496ZM116.343 153.858C116.127 154.698 115.725 155.298 115.137 155.658C114.549 156.006 113.865 156.18 113.085 156.18C111.645 156.18 110.565 155.766 109.845 154.938C109.125 154.098 108.765 152.988 108.765 151.608V151.248C108.765 149.868 109.101 148.764 109.773 147.936C110.457 147.108 111.441 146.694 112.725 146.694C113.445 146.694 114.081 146.838 114.633 147.126C115.197 147.402 115.635 147.804 115.947 148.332C116.271 148.86 116.433 149.502 116.433 150.258C116.433 150.438 116.421 150.63 116.397 150.834C116.385 151.038 116.355 151.242 116.307 151.446H110.979V151.968C110.979 153.24 111.159 154.158 111.519 154.722C111.879 155.274 112.461 155.55 113.265 155.55C113.781 155.55 114.219 155.4 114.579 155.1C114.939 154.788 115.143 154.266 115.191 153.534L116.343 153.858ZM112.725 147.324C112.137 147.324 111.699 147.594 111.411 148.134C111.123 148.674 110.979 149.568 110.979 150.816H114.237C114.285 150.576 114.315 150.354 114.327 150.15C114.351 149.934 114.363 149.736 114.363 149.556C114.363 148.788 114.213 148.224 113.913 147.864C113.613 147.504 113.217 147.324 112.725 147.324ZM126.241 147.324C125.665 147.324 125.233 147.6 124.945 148.152C124.669 148.692 124.531 149.604 124.531 150.888V151.968C124.531 153.24 124.693 154.158 125.017 154.722C125.341 155.274 125.869 155.55 126.601 155.55C127.141 155.55 127.579 155.4 127.915 155.1C128.263 154.788 128.461 154.266 128.509 153.534L129.661 153.858C129.445 154.698 129.049 155.298 128.473 155.658C127.909 156.006 127.243 156.18 126.475 156.18C125.095 156.18 124.057 155.766 123.361 154.938C122.665 154.098 122.317 152.988 122.317 151.608V151.248C122.317 149.868 122.653 148.764 123.325 147.936C123.997 147.108 124.969 146.694 126.241 146.694C127.081 146.694 127.765 146.862 128.293 147.198C128.833 147.522 129.211 147.954 129.427 148.494C129.655 149.022 129.715 149.592 129.607 150.204L127.627 150.492C127.759 149.484 127.705 148.704 127.465 148.152C127.225 147.6 126.817 147.324 126.241 147.324ZM133.242 145.326C132.87 145.326 132.57 145.212 132.342 144.984C132.114 144.744 132 144.438 132 144.066C132 143.694 132.114 143.394 132.342 143.166C132.57 142.938 132.87 142.824 133.242 142.824C133.602 142.824 133.902 142.938 134.142 143.166C134.382 143.394 134.502 143.694 134.502 144.066C134.502 144.438 134.382 144.744 134.142 144.984C133.902 145.212 133.602 145.326 133.242 145.326ZM130.83 147.378V146.874H134.286V154.488C134.286 154.896 134.304 155.142 134.34 155.226C134.376 155.298 134.49 155.346 134.682 155.37L135.672 155.496V156H130.83V155.496L131.82 155.37C132.012 155.346 132.126 155.298 132.162 155.226C132.198 155.142 132.216 154.896 132.216 154.488V148.386C132.216 147.978 132.198 147.738 132.162 147.666C132.126 147.582 132.012 147.528 131.82 147.504L130.83 147.378ZM136.367 147.378V146.874H139.715V148.35C140.447 147.246 141.317 146.694 142.325 146.694C142.697 146.694 143.057 146.814 143.405 147.054C143.753 147.282 144.041 147.714 144.269 148.35L142.667 149.214C142.499 148.722 142.301 148.392 142.073 148.224C141.857 148.044 141.623 147.954 141.371 147.954C141.107 147.954 140.849 148.038 140.597 148.206C140.345 148.374 140.087 148.686 139.823 149.142V154.488C139.823 154.896 139.841 155.142 139.877 155.226C139.913 155.298 140.027 155.346 140.219 155.37L141.569 155.496V156H136.367V155.496L137.357 155.37C137.549 155.346 137.663 155.298 137.699 155.226C137.735 155.142 137.753 154.896 137.753 154.488V148.386C137.753 147.978 137.735 147.738 137.699 147.666C137.663 147.582 137.549 147.528 137.357 147.504L136.367 147.378ZM148.882 147.324C148.306 147.324 147.874 147.6 147.586 148.152C147.31 148.692 147.172 149.604 147.172 150.888V151.968C147.172 153.24 147.334 154.158 147.658 154.722C147.982 155.274 148.51 155.55 149.242 155.55C149.782 155.55 150.22 155.4 150.556 155.1C150.904 154.788 151.102 154.266 151.15 153.534L152.302 153.858C152.086 154.698 151.69 155.298 151.114 155.658C150.55 156.006 149.884 156.18 149.116 156.18C147.736 156.18 146.698 155.766 146.002 154.938C145.306 154.098 144.958 152.988 144.958 151.608V151.248C144.958 149.868 145.294 148.764 145.966 147.936C146.638 147.108 147.61 146.694 148.882 146.694C149.722 146.694 150.406 146.862 150.934 147.198C151.474 147.522 151.852 147.954 152.068 148.494C152.296 149.022 152.356 149.592 152.248 150.204L150.268 150.492C150.4 149.484 150.346 148.704 150.106 148.152C149.866 147.6 149.458 147.324 148.882 147.324ZM163.677 155.496V156H160.329V154.416C159.993 155.028 159.561 155.478 159.033 155.766C158.505 156.042 157.971 156.18 157.431 156.18C156.579 156.18 155.901 155.898 155.397 155.334C154.893 154.758 154.641 153.96 154.641 152.94V148.386C154.641 147.978 154.623 147.738 154.587 147.666C154.551 147.582 154.437 147.528 154.245 147.504L153.255 147.378V146.874H156.711V152.922C156.711 153.75 156.825 154.356 157.053 154.74C157.293 155.112 157.635 155.298 158.079 155.298C158.271 155.298 158.493 155.25 158.745 155.154C159.009 155.046 159.273 154.86 159.537 154.596C159.801 154.32 160.029 153.93 160.221 153.426V148.386C160.221 147.978 160.203 147.732 160.167 147.648C160.131 147.564 160.017 147.516 159.825 147.504L158.475 147.378V146.874H162.291V154.488C162.291 154.896 162.309 155.142 162.345 155.226C162.381 155.298 162.495 155.346 162.687 155.37L163.677 155.496ZM166.799 145.326C166.427 145.326 166.127 145.212 165.899 144.984C165.671 144.744 165.557 144.438 165.557 144.066C165.557 143.694 165.671 143.394 165.899 143.166C166.127 142.938 166.427 142.824 166.799 142.824C167.159 142.824 167.459 142.938 167.699 143.166C167.939 143.394 168.059 143.694 168.059 144.066C168.059 144.438 167.939 144.744 167.699 144.984C167.459 145.212 167.159 145.326 166.799 145.326ZM164.387 147.378V146.874H167.843V154.488C167.843 154.896 167.861 155.142 167.897 155.226C167.933 155.298 168.047 155.346 168.239 155.37L169.229 155.496V156H164.387V155.496L165.377 155.37C165.569 155.346 165.683 155.298 165.719 155.226C165.755 155.142 165.773 154.896 165.773 154.488V148.386C165.773 147.978 165.755 147.738 165.719 147.666C165.683 147.582 165.569 147.528 165.377 147.504L164.387 147.378ZM176.332 154.128C176.176 154.86 175.876 155.388 175.432 155.712C175 156.024 174.472 156.18 173.848 156.18C173.212 156.18 172.69 156.042 172.282 155.766C171.874 155.478 171.574 155.1 171.382 154.632C171.19 154.164 171.094 153.666 171.094 153.138V148.386C171.094 147.978 171.076 147.738 171.04 147.666C171.004 147.582 170.89 147.528 170.698 147.504L169.708 147.378V146.874H171.094V144.786L173.164 144.372V146.874H176.044V147.504H173.164V153.498C173.164 154.266 173.26 154.8 173.452 155.1C173.644 155.388 173.89 155.532 174.19 155.532C174.502 155.532 174.742 155.412 174.91 155.172C175.09 154.932 175.204 154.494 175.252 153.858L176.332 154.128ZM183.463 145.326C183.091 145.326 182.791 145.212 182.563 144.984C182.335 144.744 182.221 144.438 182.221 144.066C182.221 143.694 182.335 143.394 182.563 143.166C182.791 142.938 183.091 142.824 183.463 142.824C183.823 142.824 184.123 142.938 184.363 143.166C184.603 143.394 184.723 143.694 184.723 144.066C184.723 144.438 184.603 144.744 184.363 144.984C184.123 145.212 183.823 145.326 183.463 145.326ZM181.051 147.378V146.874H184.507V154.488C184.507 154.896 184.525 155.142 184.561 155.226C184.597 155.298 184.711 155.346 184.903 155.37L185.893 155.496V156H181.051V155.496L182.041 155.37C182.233 155.346 182.347 155.298 182.383 155.226C182.419 155.142 182.437 154.896 182.437 154.488V148.386C182.437 147.978 182.419 147.738 182.383 147.666C182.347 147.582 182.233 147.528 182.041 147.504L181.051 147.378ZM190.692 152.598L189.45 152.31C188.646 152.118 188.046 151.776 187.65 151.284C187.266 150.78 187.074 150.186 187.074 149.502C187.074 148.998 187.182 148.536 187.398 148.116C187.626 147.684 187.98 147.342 188.46 147.09C188.94 146.826 189.564 146.694 190.332 146.694C191.16 146.694 191.832 146.826 192.348 147.09C192.864 147.354 193.23 147.702 193.446 148.134C193.662 148.566 193.728 149.028 193.644 149.52L191.664 149.88C191.832 149.064 191.784 148.434 191.52 147.99C191.268 147.546 190.842 147.324 190.242 147.324C189.822 147.324 189.474 147.45 189.198 147.702C188.922 147.942 188.784 148.29 188.784 148.746C188.784 149.166 188.904 149.538 189.144 149.862C189.384 150.174 189.738 150.384 190.206 150.492L191.448 150.78C192.336 150.984 192.978 151.308 193.374 151.752C193.77 152.184 193.968 152.724 193.968 153.372C193.968 154.176 193.668 154.848 193.068 155.388C192.48 155.916 191.598 156.18 190.422 156.18C190.014 156.18 189.564 156.12 189.072 156C188.592 155.868 188.148 155.634 187.74 155.298C187.344 154.962 187.056 154.482 186.876 153.858L188.046 153.39C188.13 154.182 188.4 154.74 188.856 155.064C189.324 155.388 189.846 155.55 190.422 155.55C190.962 155.55 191.4 155.43 191.736 155.19C192.084 154.938 192.258 154.578 192.258 154.11C192.258 153.786 192.144 153.492 191.916 153.228C191.7 152.952 191.292 152.742 190.692 152.598ZM203.726 147.324C203.15 147.324 202.718 147.6 202.43 148.152C202.154 148.692 202.016 149.604 202.016 150.888V151.968C202.016 153.24 202.178 154.158 202.502 154.722C202.826 155.274 203.354 155.55 204.086 155.55C204.626 155.55 205.064 155.4 205.4 155.1C205.748 154.788 205.946 154.266 205.994 153.534L207.146 153.858C206.93 154.698 206.534 155.298 205.958 155.658C205.394 156.006 204.728 156.18 203.96 156.18C202.58 156.18 201.542 155.766 200.846 154.938C200.15 154.098 199.802 152.988 199.802 151.608V151.248C199.802 149.868 200.138 148.764 200.81 147.936C201.482 147.108 202.454 146.694 203.726 146.694C204.566 146.694 205.25 146.862 205.778 147.198C206.318 147.522 206.696 147.954 206.912 148.494C207.14 149.022 207.2 149.592 207.092 150.204L205.112 150.492C205.244 149.484 205.19 148.704 204.95 148.152C204.71 147.6 204.302 147.324 203.726 147.324ZM208.188 143.184V142.68H211.644V154.488C211.644 154.896 211.662 155.142 211.698 155.226C211.734 155.298 211.848 155.346 212.04 155.37L213.03 155.496V156H208.188V155.496L209.178 155.37C209.37 155.346 209.484 155.298 209.52 155.226C209.556 155.142 209.574 154.896 209.574 154.488V144.192C209.574 143.784 209.556 143.544 209.52 143.472C209.484 143.388 209.37 143.334 209.178 143.31L208.188 143.184ZM222.494 151.248V151.608C222.494 152.988 222.134 154.098 221.414 154.938C220.706 155.766 219.692 156.18 218.372 156.18C217.052 156.18 216.032 155.766 215.312 154.938C214.604 154.098 214.25 152.988 214.25 151.608V151.248C214.25 149.868 214.604 148.764 215.312 147.936C216.032 147.108 217.052 146.694 218.372 146.694C219.692 146.694 220.706 147.108 221.414 147.936C222.134 148.764 222.494 149.868 222.494 151.248ZM220.28 150.888C220.28 149.604 220.118 148.692 219.794 148.152C219.47 147.6 218.996 147.324 218.372 147.324C217.76 147.324 217.286 147.6 216.95 148.152C216.626 148.692 216.464 149.604 216.464 150.888V151.968C216.464 153.24 216.626 154.158 216.95 154.722C217.286 155.274 217.76 155.55 218.372 155.55C218.996 155.55 219.47 155.274 219.794 154.722C220.118 154.158 220.28 153.24 220.28 151.968V150.888ZM227.94 152.598L226.698 152.31C225.894 152.118 225.294 151.776 224.898 151.284C224.514 150.78 224.322 150.186 224.322 149.502C224.322 148.998 224.43 148.536 224.646 148.116C224.874 147.684 225.228 147.342 225.708 147.09C226.188 146.826 226.812 146.694 227.58 146.694C228.408 146.694 229.08 146.826 229.596 147.09C230.112 147.354 230.478 147.702 230.694 148.134C230.91 148.566 230.976 149.028 230.892 149.52L228.912 149.88C229.08 149.064 229.032 148.434 228.768 147.99C228.516 147.546 228.09 147.324 227.49 147.324C227.07 147.324 226.722 147.45 226.446 147.702C226.17 147.942 226.032 148.29 226.032 148.746C226.032 149.166 226.152 149.538 226.392 149.862C226.632 150.174 226.986 150.384 227.454 150.492L228.696 150.78C229.584 150.984 230.226 151.308 230.622 151.752C231.018 152.184 231.216 152.724 231.216 153.372C231.216 154.176 230.916 154.848 230.316 155.388C229.728 155.916 228.846 156.18 227.67 156.18C227.262 156.18 226.812 156.12 226.32 156C225.84 155.868 225.396 155.634 224.988 155.298C224.592 154.962 224.304 154.482 224.124 153.858L225.294 153.39C225.378 154.182 225.648 154.74 226.104 155.064C226.572 155.388 227.094 155.55 227.67 155.55C228.21 155.55 228.648 155.43 228.984 155.19C229.332 154.938 229.506 154.578 229.506 154.11C229.506 153.786 229.392 153.492 229.164 153.228C228.948 152.952 228.54 152.742 227.94 152.598ZM240.602 153.858C240.386 154.698 239.984 155.298 239.396 155.658C238.808 156.006 238.124 156.18 237.344 156.18C235.904 156.18 234.824 155.766 234.104 154.938C233.384 154.098 233.024 152.988 233.024 151.608V151.248C233.024 149.868 233.36 148.764 234.032 147.936C234.716 147.108 235.7 146.694 236.984 146.694C237.704 146.694 238.34 146.838 238.892 147.126C239.456 147.402 239.894 147.804 240.206 148.332C240.53 148.86 240.692 149.502 240.692 150.258C240.692 150.438 240.68 150.63 240.656 150.834C240.644 151.038 240.614 151.242 240.566 151.446H235.238V151.968C235.238 153.24 235.418 154.158 235.778 154.722C236.138 155.274 236.72 155.55 237.524 155.55C238.04 155.55 238.478 155.4 238.838 155.1C239.198 154.788 239.402 154.266 239.45 153.534L240.602 153.858ZM236.984 147.324C236.396 147.324 235.958 147.594 235.67 148.134C235.382 148.674 235.238 149.568 235.238 150.816H238.496C238.544 150.576 238.574 150.354 238.586 150.15C238.61 149.934 238.622 149.736 238.622 149.556C238.622 148.788 238.472 148.224 238.172 147.864C237.872 147.504 237.476 147.324 236.984 147.324ZM251.84 155.496V156H248.492V154.506C248.156 155.058 247.778 155.478 247.358 155.766C246.95 156.042 246.464 156.18 245.9 156.18C244.892 156.18 244.088 155.784 243.488 154.992C242.9 154.188 242.606 153.066 242.606 151.626V151.266C242.606 149.874 242.948 148.764 243.632 147.936C244.328 147.108 245.276 146.694 246.476 146.694C247.196 146.694 247.832 146.874 248.384 147.234V144.192C248.384 143.784 248.366 143.544 248.33 143.472C248.294 143.388 248.18 143.334 247.988 143.31L246.998 143.184V142.68H250.454V154.488C250.454 154.896 250.472 155.142 250.508 155.226C250.544 155.298 250.658 155.346 250.85 155.37L251.84 155.496ZM244.82 152.166C244.82 153.282 244.958 154.098 245.234 154.614C245.51 155.13 245.888 155.388 246.368 155.388C246.668 155.388 246.98 155.268 247.304 155.028C247.64 154.776 248 154.272 248.384 153.516V148.08C247.928 147.624 247.37 147.396 246.71 147.396C246.05 147.396 245.57 147.696 245.27 148.296C244.97 148.884 244.82 149.694 244.82 150.726V152.166ZM255.655 155.208C255.655 155.724 255.469 156.342 255.097 157.062C254.725 157.782 254.203 158.544 253.531 159.348L253.117 158.988C253.609 158.388 253.957 157.86 254.161 157.404C254.365 156.96 254.473 156.552 254.485 156.18H254.431C254.071 156.18 253.777 156.072 253.549 155.856C253.333 155.628 253.225 155.328 253.225 154.956C253.225 154.596 253.333 154.308 253.549 154.092C253.777 153.864 254.071 153.75 254.431 153.75C254.779 153.75 255.067 153.876 255.295 154.128C255.535 154.38 255.655 154.74 255.655 155.208ZM263.566 145.326C263.194 145.326 262.894 145.212 262.666 144.984C262.438 144.744 262.324 144.438 262.324 144.066C262.324 143.694 262.438 143.394 262.666 143.166C262.894 142.938 263.194 142.824 263.566 142.824C263.926 142.824 264.226 142.938 264.466 143.166C264.706 143.394 264.826 143.694 264.826 144.066C264.826 144.438 264.706 144.744 264.466 144.984C264.226 145.212 263.926 145.326 263.566 145.326ZM261.154 147.378V146.874H264.61V154.488C264.61 154.896 264.628 155.142 264.664 155.226C264.7 155.298 264.814 155.346 265.006 155.37L265.996 155.496V156H261.154V155.496L262.144 155.37C262.336 155.346 262.45 155.298 262.486 155.226C262.522 155.142 262.54 154.896 262.54 154.488V148.386C262.54 147.978 262.522 147.738 262.486 147.666C262.45 147.582 262.336 147.528 262.144 147.504L261.154 147.378ZM273.099 154.128C272.943 154.86 272.643 155.388 272.199 155.712C271.767 156.024 271.239 156.18 270.615 156.18C269.979 156.18 269.457 156.042 269.049 155.766C268.641 155.478 268.341 155.1 268.149 154.632C267.957 154.164 267.861 153.666 267.861 153.138V148.386C267.861 147.978 267.843 147.738 267.807 147.666C267.771 147.582 267.657 147.528 267.465 147.504L266.475 147.378V146.874H267.861V144.786L269.931 144.372V146.874H272.811V147.504H269.931V153.498C269.931 154.266 270.027 154.8 270.219 155.1C270.411 155.388 270.657 155.532 270.957 155.532C271.269 155.532 271.509 155.412 271.677 155.172C271.857 154.932 271.971 154.494 272.019 153.858L273.099 154.128ZM288.474 155.496V156H283.632V155.496L284.622 155.37C284.814 155.346 284.928 155.298 284.964 155.226C285 155.142 285.018 154.896 285.018 154.488V145.38C285.018 144.504 284.856 143.91 284.532 143.598C284.208 143.286 283.764 143.13 283.2 143.13C282.828 143.13 282.498 143.208 282.21 143.364C281.922 143.508 281.694 143.778 281.526 144.174C281.358 144.57 281.274 145.146 281.274 145.902V146.874H283.974V147.504H281.274V154.488C281.274 154.896 281.292 155.142 281.328 155.226C281.364 155.298 281.478 155.346 281.67 155.37L282.66 155.496V156H277.818V155.496L278.808 155.37C279 155.346 279.114 155.298 279.15 155.226C279.186 155.142 279.204 154.896 279.204 154.488V148.386C279.204 147.978 279.186 147.738 279.15 147.666C279.114 147.582 279 147.528 278.808 147.504L277.818 147.378V146.874H279.204V146.262C279.204 145.626 279.33 145.02 279.582 144.444C279.846 143.868 280.272 143.4 280.86 143.04C281.448 142.68 282.228 142.5 283.2 142.5C283.704 142.5 284.16 142.566 284.568 142.698C284.976 142.818 285.33 142.992 285.63 143.22C285.99 143.052 286.314 142.872 286.602 142.68H287.088V154.488C287.088 154.896 287.106 155.142 287.142 155.226C287.178 155.298 287.292 155.346 287.484 155.37L288.474 155.496ZM297.94 151.248V151.608C297.94 152.988 297.58 154.098 296.86 154.938C296.152 155.766 295.138 156.18 293.818 156.18C292.498 156.18 291.478 155.766 290.758 154.938C290.05 154.098 289.696 152.988 289.696 151.608V151.248C289.696 149.868 290.05 148.764 290.758 147.936C291.478 147.108 292.498 146.694 293.818 146.694C295.138 146.694 296.152 147.108 296.86 147.936C297.58 148.764 297.94 149.868 297.94 151.248ZM295.726 150.888C295.726 149.604 295.564 148.692 295.24 148.152C294.916 147.6 294.442 147.324 293.818 147.324C293.206 147.324 292.732 147.6 292.396 148.152C292.072 148.692 291.91 149.604 291.91 150.888V151.968C291.91 153.24 292.072 154.158 292.396 154.722C292.732 155.274 293.206 155.55 293.818 155.55C294.442 155.55 294.916 155.274 295.24 154.722C295.564 154.158 295.726 153.24 295.726 151.968V150.888ZM311.28 148.386L309.318 156H307.68L305.52 148.764L303.342 156H301.848L299.904 148.386C299.832 148.11 299.772 147.918 299.724 147.81C299.688 147.69 299.64 147.612 299.58 147.576C299.52 147.54 299.43 147.516 299.31 147.504L298.32 147.378V146.874H303.108V147.378L302.118 147.504C301.926 147.528 301.818 147.582 301.794 147.666C301.77 147.738 301.812 147.978 301.92 148.386L303.324 153.804L305.394 146.874H306.978L309.12 154.11L310.578 148.386C310.686 147.978 310.728 147.738 310.704 147.666C310.68 147.582 310.572 147.528 310.38 147.504L309.39 147.378V146.874H312.864V147.378L311.874 147.504C311.754 147.516 311.664 147.54 311.604 147.576C311.544 147.612 311.49 147.69 311.442 147.81C311.406 147.918 311.352 148.11 311.28 148.386ZM317.202 152.598L315.96 152.31C315.156 152.118 314.556 151.776 314.16 151.284C313.776 150.78 313.584 150.186 313.584 149.502C313.584 148.998 313.692 148.536 313.908 148.116C314.136 147.684 314.49 147.342 314.97 147.09C315.45 146.826 316.074 146.694 316.842 146.694C317.67 146.694 318.342 146.826 318.858 147.09C319.374 147.354 319.74 147.702 319.956 148.134C320.172 148.566 320.238 149.028 320.154 149.52L318.174 149.88C318.342 149.064 318.294 148.434 318.03 147.99C317.778 147.546 317.352 147.324 316.752 147.324C316.332 147.324 315.984 147.45 315.708 147.702C315.432 147.942 315.294 148.29 315.294 148.746C315.294 149.166 315.414 149.538 315.654 149.862C315.894 150.174 316.248 150.384 316.716 150.492L317.958 150.78C318.846 150.984 319.488 151.308 319.884 151.752C320.28 152.184 320.478 152.724 320.478 153.372C320.478 154.176 320.178 154.848 319.578 155.388C318.99 155.916 318.108 156.18 316.932 156.18C316.524 156.18 316.074 156.12 315.582 156C315.102 155.868 314.658 155.634 314.25 155.298C313.854 154.962 313.566 154.482 313.386 153.858L314.556 153.39C314.64 154.182 314.91 154.74 315.366 155.064C315.834 155.388 316.356 155.55 316.932 155.55C317.472 155.55 317.91 155.43 318.246 155.19C318.594 154.938 318.768 154.578 318.768 154.11C318.768 153.786 318.654 153.492 318.426 153.228C318.21 152.952 317.802 152.742 317.202 152.598ZM75.1116 177.55C74.9196 177.73 74.6856 177.88 74.4096 178C74.1456 178.12 73.8216 178.18 73.4376 178.18C72.9456 178.18 72.5316 178.072 72.1956 177.856C71.8716 177.64 71.6556 177.334 71.5476 176.938C71.1516 177.37 70.7136 177.688 70.2336 177.892C69.7656 178.084 69.2856 178.18 68.7936 178.18C67.9656 178.18 67.3476 177.952 66.9396 177.496C66.5316 177.028 66.3276 176.446 66.3276 175.75C66.3276 175.042 66.5856 174.472 67.1016 174.04C67.6176 173.596 68.5296 173.374 69.8376 173.374H71.4756V171.916C71.4756 170.92 71.3436 170.242 71.0796 169.882C70.8276 169.51 70.4736 169.324 70.0176 169.324C69.7176 169.324 69.4416 169.402 69.1896 169.558C68.9376 169.702 68.7576 169.978 68.6496 170.386C68.5536 170.782 68.5716 171.358 68.7036 172.114L66.7236 171.826C66.6276 171.274 66.6876 170.764 66.9036 170.296C67.1316 169.816 67.5096 169.432 68.0376 169.144C68.5656 168.844 69.2376 168.694 70.0536 168.694C70.9776 168.694 71.6916 168.844 72.1956 169.144C72.6996 169.444 73.0476 169.84 73.2396 170.332C73.4436 170.824 73.5456 171.352 73.5456 171.916V176.074C73.5456 176.686 73.5996 177.07 73.7076 177.226C73.8156 177.382 73.9356 177.46 74.0676 177.46C74.2836 177.46 74.5236 177.334 74.7876 177.082L75.1116 177.55ZM69.5856 177.226C69.8976 177.226 70.2036 177.148 70.5036 176.992C70.8156 176.824 71.1396 176.518 71.4756 176.074V174.004H70.1256C69.5376 174.004 69.1116 174.142 68.8476 174.418C68.5836 174.694 68.4516 175.126 68.4516 175.714C68.4516 176.194 68.5476 176.566 68.7396 176.83C68.9316 177.094 69.2136 177.226 69.5856 177.226ZM79.7211 174.598L78.4791 174.31C77.6751 174.118 77.0751 173.776 76.6791 173.284C76.2951 172.78 76.1031 172.186 76.1031 171.502C76.1031 170.998 76.2111 170.536 76.4271 170.116C76.6551 169.684 77.0091 169.342 77.4891 169.09C77.9691 168.826 78.5931 168.694 79.3611 168.694C80.1891 168.694 80.8611 168.826 81.3771 169.09C81.8931 169.354 82.2591 169.702 82.4751 170.134C82.6911 170.566 82.7571 171.028 82.6731 171.52L80.6931 171.88C80.8611 171.064 80.8131 170.434 80.5491 169.99C80.2971 169.546 79.8711 169.324 79.2711 169.324C78.8511 169.324 78.5031 169.45 78.2271 169.702C77.9511 169.942 77.8131 170.29 77.8131 170.746C77.8131 171.166 77.9331 171.538 78.1731 171.862C78.4131 172.174 78.7671 172.384 79.2351 172.492L80.4771 172.78C81.3651 172.984 82.0071 173.308 82.4031 173.752C82.7991 174.184 82.9971 174.724 82.9971 175.372C82.9971 176.176 82.6971 176.848 82.0971 177.388C81.5091 177.916 80.6271 178.18 79.4511 178.18C79.0431 178.18 78.5931 178.12 78.1011 178C77.6211 177.868 77.1771 177.634 76.7691 177.298C76.3731 176.962 76.0851 176.482 75.9051 175.858L77.0751 175.39C77.1591 176.182 77.4291 176.74 77.8851 177.064C78.3531 177.388 78.8751 177.55 79.4511 177.55C79.9911 177.55 80.4291 177.43 80.7651 177.19C81.1131 176.938 81.2871 176.578 81.2871 176.11C81.2871 175.786 81.1731 175.492 80.9451 175.228C80.7291 174.952 80.3211 174.742 79.7211 174.598ZM96.409 175.858C96.193 176.698 95.791 177.298 95.203 177.658C94.615 178.006 93.931 178.18 93.151 178.18C91.711 178.18 90.631 177.766 89.911 176.938C89.191 176.098 88.831 174.988 88.831 173.608V173.248C88.831 171.868 89.167 170.764 89.839 169.936C90.523 169.108 91.507 168.694 92.791 168.694C93.511 168.694 94.147 168.838 94.699 169.126C95.263 169.402 95.701 169.804 96.013 170.332C96.337 170.86 96.499 171.502 96.499 172.258C96.499 172.438 96.487 172.63 96.463 172.834C96.451 173.038 96.421 173.242 96.373 173.446H91.045V173.968C91.045 175.24 91.225 176.158 91.585 176.722C91.945 177.274 92.527 177.55 93.331 177.55C93.847 177.55 94.285 177.4 94.645 177.1C95.005 176.788 95.209 176.266 95.257 175.534L96.409 175.858ZM92.791 169.324C92.203 169.324 91.765 169.594 91.477 170.134C91.189 170.674 91.045 171.568 91.045 172.816H94.303C94.351 172.576 94.381 172.354 94.393 172.15C94.417 171.934 94.429 171.736 94.429 171.556C94.429 170.788 94.279 170.224 93.979 169.864C93.679 169.504 93.283 169.324 92.791 169.324ZM97.6923 165.184V164.68H101.148V176.488C101.148 176.896 101.166 177.142 101.202 177.226C101.238 177.298 101.352 177.346 101.544 177.37L102.534 177.496V178H97.6923V177.496L98.6823 177.37C98.8743 177.346 98.9883 177.298 99.0243 177.226C99.0603 177.142 99.0783 176.896 99.0783 176.488V166.192C99.0783 165.784 99.0603 165.544 99.0243 165.472C98.9883 165.388 98.8743 165.334 98.6823 165.31L97.6923 165.184ZM111.35 175.858C111.134 176.698 110.732 177.298 110.144 177.658C109.556 178.006 108.872 178.18 108.092 178.18C106.652 178.18 105.572 177.766 104.852 176.938C104.132 176.098 103.772 174.988 103.772 173.608V173.248C103.772 171.868 104.108 170.764 104.78 169.936C105.464 169.108 106.448 168.694 107.732 168.694C108.452 168.694 109.088 168.838 109.64 169.126C110.204 169.402 110.642 169.804 110.954 170.332C111.278 170.86 111.44 171.502 111.44 172.258C111.44 172.438 111.428 172.63 111.404 172.834C111.392 173.038 111.362 173.242 111.314 173.446H105.986V173.968C105.986 175.24 106.166 176.158 106.526 176.722C106.886 177.274 107.468 177.55 108.272 177.55C108.788 177.55 109.226 177.4 109.586 177.1C109.946 176.788 110.15 176.266 110.198 175.534L111.35 175.858ZM107.732 169.324C107.144 169.324 106.706 169.594 106.418 170.134C106.13 170.674 105.986 171.568 105.986 172.816H109.244C109.292 172.576 109.322 172.354 109.334 172.15C109.358 171.934 109.37 171.736 109.37 171.556C109.37 170.788 109.22 170.224 108.92 169.864C108.62 169.504 108.224 169.324 107.732 169.324ZM117.224 169.324C116.648 169.324 116.216 169.6 115.928 170.152C115.652 170.692 115.514 171.604 115.514 172.888V173.968C115.514 175.24 115.676 176.158 116 176.722C116.324 177.274 116.852 177.55 117.584 177.55C118.124 177.55 118.562 177.4 118.898 177.1C119.246 176.788 119.444 176.266 119.492 175.534L120.644 175.858C120.428 176.698 120.032 177.298 119.456 177.658C118.892 178.006 118.226 178.18 117.458 178.18C116.078 178.18 115.04 177.766 114.344 176.938C113.648 176.098 113.3 174.988 113.3 173.608V173.248C113.3 171.868 113.636 170.764 114.308 169.936C114.98 169.108 115.952 168.694 117.224 168.694C118.064 168.694 118.748 168.862 119.276 169.198C119.816 169.522 120.194 169.954 120.41 170.494C120.638 171.022 120.698 171.592 120.59 172.204L118.61 172.492C118.742 171.484 118.688 170.704 118.448 170.152C118.208 169.6 117.8 169.324 117.224 169.324ZM128.22 176.128C128.064 176.86 127.764 177.388 127.32 177.712C126.888 178.024 126.36 178.18 125.736 178.18C125.1 178.18 124.578 178.042 124.17 177.766C123.762 177.478 123.462 177.1 123.27 176.632C123.078 176.164 122.982 175.666 122.982 175.138V170.386C122.982 169.978 122.964 169.738 122.928 169.666C122.892 169.582 122.778 169.528 122.586 169.504L121.596 169.378V168.874H122.982V166.786L125.052 166.372V168.874H127.932V169.504H125.052V175.498C125.052 176.266 125.148 176.8 125.34 177.1C125.532 177.388 125.778 177.532 126.078 177.532C126.39 177.532 126.63 177.412 126.798 177.172C126.978 176.932 127.092 176.494 127.14 175.858L128.22 176.128ZM128.914 169.378V168.874H132.262V170.35C132.994 169.246 133.864 168.694 134.872 168.694C135.244 168.694 135.604 168.814 135.952 169.054C136.3 169.282 136.588 169.714 136.816 170.35L135.214 171.214C135.046 170.722 134.848 170.392 134.62 170.224C134.404 170.044 134.17 169.954 133.918 169.954C133.654 169.954 133.396 170.038 133.144 170.206C132.892 170.374 132.634 170.686 132.37 171.142V176.488C132.37 176.896 132.388 177.142 132.424 177.226C132.46 177.298 132.574 177.346 132.766 177.37L134.116 177.496V178H128.914V177.496L129.904 177.37C130.096 177.346 130.21 177.298 130.246 177.226C130.282 177.142 130.3 176.896 130.3 176.488V170.386C130.3 169.978 130.282 169.738 130.246 169.666C130.21 169.582 130.096 169.528 129.904 169.504L128.914 169.378ZM139.64 167.326C139.268 167.326 138.968 167.212 138.74 166.984C138.512 166.744 138.398 166.438 138.398 166.066C138.398 165.694 138.512 165.394 138.74 165.166C138.968 164.938 139.268 164.824 139.64 164.824C140 164.824 140.3 164.938 140.54 165.166C140.78 165.394 140.9 165.694 140.9 166.066C140.9 166.438 140.78 166.744 140.54 166.984C140.3 167.212 140 167.326 139.64 167.326ZM137.228 169.378V168.874H140.684V176.488C140.684 176.896 140.702 177.142 140.738 177.226C140.774 177.298 140.888 177.346 141.08 177.37L142.07 177.496V178H137.228V177.496L138.218 177.37C138.41 177.346 138.524 177.298 138.56 177.226C138.596 177.142 138.614 176.896 138.614 176.488V170.386C138.614 169.978 138.596 169.738 138.56 169.666C138.524 169.582 138.41 169.528 138.218 169.504L137.228 169.378ZM147.23 169.324C146.654 169.324 146.222 169.6 145.934 170.152C145.658 170.692 145.52 171.604 145.52 172.888V173.968C145.52 175.24 145.682 176.158 146.006 176.722C146.33 177.274 146.858 177.55 147.59 177.55C148.13 177.55 148.568 177.4 148.904 177.1C149.252 176.788 149.45 176.266 149.498 175.534L150.65 175.858C150.434 176.698 150.038 177.298 149.462 177.658C148.898 178.006 148.232 178.18 147.464 178.18C146.084 178.18 145.046 177.766 144.35 176.938C143.654 176.098 143.306 174.988 143.306 173.608V173.248C143.306 171.868 143.642 170.764 144.314 169.936C144.986 169.108 145.958 168.694 147.23 168.694C148.07 168.694 148.754 168.862 149.282 169.198C149.822 169.522 150.2 169.954 150.416 170.494C150.644 171.022 150.704 171.592 150.596 172.204L148.616 172.492C148.748 171.484 148.694 170.704 148.454 170.152C148.214 169.6 147.806 169.324 147.23 169.324ZM154.23 167.326C153.858 167.326 153.558 167.212 153.33 166.984C153.102 166.744 152.988 166.438 152.988 166.066C152.988 165.694 153.102 165.394 153.33 165.166C153.558 164.938 153.858 164.824 154.23 164.824C154.59 164.824 154.89 164.938 155.13 165.166C155.37 165.394 155.49 165.694 155.49 166.066C155.49 166.438 155.37 166.744 155.13 166.984C154.89 167.212 154.59 167.326 154.23 167.326ZM151.818 169.378V168.874H155.274V176.488C155.274 176.896 155.292 177.142 155.328 177.226C155.364 177.298 155.478 177.346 155.67 177.37L156.66 177.496V178H151.818V177.496L152.808 177.37C153 177.346 153.114 177.298 153.15 177.226C153.186 177.142 153.204 176.896 153.204 176.488V170.386C153.204 169.978 153.186 169.738 153.15 169.666C153.114 169.582 153 169.528 152.808 169.504L151.818 169.378ZM163.763 176.128C163.607 176.86 163.307 177.388 162.863 177.712C162.431 178.024 161.903 178.18 161.279 178.18C160.643 178.18 160.121 178.042 159.713 177.766C159.305 177.478 159.005 177.1 158.813 176.632C158.621 176.164 158.525 175.666 158.525 175.138V170.386C158.525 169.978 158.507 169.738 158.471 169.666C158.435 169.582 158.321 169.528 158.129 169.504L157.139 169.378V168.874H158.525V166.786L160.595 166.372V168.874H163.475V169.504H160.595V175.498C160.595 176.266 160.691 176.8 160.883 177.1C161.075 177.388 161.321 177.532 161.621 177.532C161.933 177.532 162.173 177.412 162.341 177.172C162.521 176.932 162.635 176.494 162.683 175.858L163.763 176.128ZM169.497 178.9C169.221 179.656 168.915 180.262 168.579 180.718C168.255 181.174 167.853 181.504 167.373 181.708C166.893 181.912 166.293 182.014 165.573 182.014V180.034C166.305 180.034 166.893 179.98 167.337 179.872C167.793 179.776 168.141 179.614 168.381 179.386C168.633 179.17 168.819 178.888 168.939 178.54L169.119 178H168.183L165.627 170.386C165.543 170.11 165.471 169.918 165.411 169.81C165.363 169.69 165.303 169.612 165.231 169.576C165.171 169.54 165.075 169.516 164.943 169.504L163.953 169.378V168.874H168.813V169.378L167.823 169.504C167.679 169.516 167.589 169.564 167.553 169.648C167.529 169.72 167.583 169.966 167.715 170.386L169.677 176.326L171.711 170.314C171.843 169.93 171.897 169.708 171.873 169.648C171.861 169.576 171.765 169.528 171.585 169.504L170.595 169.378V168.874H174.033V169.378L173.043 169.504C172.863 169.528 172.743 169.576 172.683 169.648C172.623 169.72 172.527 169.942 172.395 170.314L169.497 178.9ZM184.787 176.128C184.631 176.86 184.331 177.388 183.887 177.712C183.455 178.024 182.927 178.18 182.303 178.18C181.667 178.18 181.145 178.042 180.737 177.766C180.329 177.478 180.029 177.1 179.837 176.632C179.645 176.164 179.549 175.666 179.549 175.138V170.386C179.549 169.978 179.531 169.738 179.495 169.666C179.459 169.582 179.345 169.528 179.153 169.504L178.163 169.378V168.874H179.549V166.786L181.619 166.372V168.874H184.499V169.504H181.619V175.498C181.619 176.266 181.715 176.8 181.907 177.1C182.099 177.388 182.345 177.532 182.645 177.532C182.957 177.532 183.197 177.412 183.365 177.172C183.545 176.932 183.659 176.494 183.707 175.858L184.787 176.128ZM194.246 173.248V173.608C194.246 174.988 193.886 176.098 193.166 176.938C192.458 177.766 191.444 178.18 190.124 178.18C188.804 178.18 187.784 177.766 187.064 176.938C186.356 176.098 186.002 174.988 186.002 173.608V173.248C186.002 171.868 186.356 170.764 187.064 169.936C187.784 169.108 188.804 168.694 190.124 168.694C191.444 168.694 192.458 169.108 193.166 169.936C193.886 170.764 194.246 171.868 194.246 173.248ZM192.032 172.888C192.032 171.604 191.87 170.692 191.546 170.152C191.222 169.6 190.748 169.324 190.124 169.324C189.512 169.324 189.038 169.6 188.702 170.152C188.378 170.692 188.216 171.604 188.216 172.888V173.968C188.216 175.24 188.378 176.158 188.702 176.722C189.038 177.274 189.512 177.55 190.124 177.55C190.748 177.55 191.222 177.274 191.546 176.722C191.87 176.158 192.032 175.24 192.032 173.968V172.888ZM204.077 169.324C203.501 169.324 203.069 169.6 202.781 170.152C202.505 170.692 202.367 171.604 202.367 172.888V173.968C202.367 175.24 202.529 176.158 202.853 176.722C203.177 177.274 203.705 177.55 204.437 177.55C204.977 177.55 205.415 177.4 205.751 177.1C206.099 176.788 206.297 176.266 206.345 175.534L207.497 175.858C207.281 176.698 206.885 177.298 206.309 177.658C205.745 178.006 205.079 178.18 204.311 178.18C202.931 178.18 201.893 177.766 201.197 176.938C200.501 176.098 200.153 174.988 200.153 173.608V173.248C200.153 171.868 200.489 170.764 201.161 169.936C201.833 169.108 202.805 168.694 204.077 168.694C204.917 168.694 205.601 168.862 206.129 169.198C206.669 169.522 207.047 169.954 207.263 170.494C207.491 171.022 207.551 171.592 207.443 172.204L205.463 172.492C205.595 171.484 205.541 170.704 205.301 170.152C205.061 169.6 204.653 169.324 204.077 169.324ZM208.666 169.378V168.874H212.014V170.35C212.746 169.246 213.616 168.694 214.624 168.694C214.996 168.694 215.356 168.814 215.704 169.054C216.052 169.282 216.34 169.714 216.568 170.35L214.966 171.214C214.798 170.722 214.6 170.392 214.372 170.224C214.156 170.044 213.922 169.954 213.67 169.954C213.406 169.954 213.148 170.038 212.896 170.206C212.644 170.374 212.386 170.686 212.122 171.142V176.488C212.122 176.896 212.14 177.142 212.176 177.226C212.212 177.298 212.326 177.346 212.518 177.37L213.868 177.496V178H208.666V177.496L209.656 177.37C209.848 177.346 209.962 177.298 209.998 177.226C210.034 177.142 210.052 176.896 210.052 176.488V170.386C210.052 169.978 210.034 169.738 209.998 169.666C209.962 169.582 209.848 169.528 209.656 169.504L208.666 169.378ZM224.835 175.858C224.619 176.698 224.217 177.298 223.629 177.658C223.041 178.006 222.357 178.18 221.577 178.18C220.137 178.18 219.057 177.766 218.337 176.938C217.617 176.098 217.257 174.988 217.257 173.608V173.248C217.257 171.868 217.593 170.764 218.265 169.936C218.949 169.108 219.933 168.694 221.217 168.694C221.937 168.694 222.573 168.838 223.125 169.126C223.689 169.402 224.127 169.804 224.439 170.332C224.763 170.86 224.925 171.502 224.925 172.258C224.925 172.438 224.913 172.63 224.889 172.834C224.877 173.038 224.847 173.242 224.799 173.446H219.471V173.968C219.471 175.24 219.651 176.158 220.011 176.722C220.371 177.274 220.953 177.55 221.757 177.55C222.273 177.55 222.711 177.4 223.071 177.1C223.431 176.788 223.635 176.266 223.683 175.534L224.835 175.858ZM221.217 169.324C220.629 169.324 220.191 169.594 219.903 170.134C219.615 170.674 219.471 171.568 219.471 172.816H222.729C222.777 172.576 222.807 172.354 222.819 172.15C222.843 171.934 222.855 171.736 222.855 171.556C222.855 170.788 222.705 170.224 222.405 169.864C222.105 169.504 221.709 169.324 221.217 169.324ZM235.424 177.55C235.232 177.73 234.998 177.88 234.722 178C234.458 178.12 234.134 178.18 233.75 178.18C233.258 178.18 232.844 178.072 232.508 177.856C232.184 177.64 231.968 177.334 231.86 176.938C231.464 177.37 231.026 177.688 230.546 177.892C230.078 178.084 229.598 178.18 229.106 178.18C228.278 178.18 227.66 177.952 227.252 177.496C226.844 177.028 226.64 176.446 226.64 175.75C226.64 175.042 226.898 174.472 227.414 174.04C227.93 173.596 228.842 173.374 230.15 173.374H231.788V171.916C231.788 170.92 231.656 170.242 231.392 169.882C231.14 169.51 230.786 169.324 230.33 169.324C230.03 169.324 229.754 169.402 229.502 169.558C229.25 169.702 229.07 169.978 228.962 170.386C228.866 170.782 228.884 171.358 229.016 172.114L227.036 171.826C226.94 171.274 227 170.764 227.216 170.296C227.444 169.816 227.822 169.432 228.35 169.144C228.878 168.844 229.55 168.694 230.366 168.694C231.29 168.694 232.004 168.844 232.508 169.144C233.012 169.444 233.36 169.84 233.552 170.332C233.756 170.824 233.858 171.352 233.858 171.916V176.074C233.858 176.686 233.912 177.07 234.02 177.226C234.128 177.382 234.248 177.46 234.38 177.46C234.596 177.46 234.836 177.334 235.1 177.082L235.424 177.55ZM229.898 177.226C230.21 177.226 230.516 177.148 230.816 176.992C231.128 176.824 231.452 176.518 231.788 176.074V174.004H230.438C229.85 174.004 229.424 174.142 229.16 174.418C228.896 174.694 228.764 175.126 228.764 175.714C228.764 176.194 228.86 176.566 229.052 176.83C229.244 177.094 229.526 177.226 229.898 177.226ZM242.338 176.128C242.182 176.86 241.882 177.388 241.438 177.712C241.006 178.024 240.478 178.18 239.854 178.18C239.218 178.18 238.696 178.042 238.288 177.766C237.88 177.478 237.58 177.1 237.388 176.632C237.196 176.164 237.1 175.666 237.1 175.138V170.386C237.1 169.978 237.082 169.738 237.046 169.666C237.01 169.582 236.896 169.528 236.704 169.504L235.714 169.378V168.874H237.1V166.786L239.17 166.372V168.874H242.05V169.504H239.17V175.498C239.17 176.266 239.266 176.8 239.458 177.1C239.65 177.388 239.896 177.532 240.196 177.532C240.508 177.532 240.748 177.412 240.916 177.172C241.096 176.932 241.21 176.494 241.258 175.858L242.338 176.128ZM251.149 175.858C250.933 176.698 250.531 177.298 249.943 177.658C249.355 178.006 248.671 178.18 247.891 178.18C246.451 178.18 245.371 177.766 244.651 176.938C243.931 176.098 243.571 174.988 243.571 173.608V173.248C243.571 171.868 243.907 170.764 244.579 169.936C245.263 169.108 246.247 168.694 247.531 168.694C248.251 168.694 248.887 168.838 249.439 169.126C250.003 169.402 250.441 169.804 250.753 170.332C251.077 170.86 251.239 171.502 251.239 172.258C251.239 172.438 251.227 172.63 251.203 172.834C251.191 173.038 251.161 173.242 251.113 173.446H245.785V173.968C245.785 175.24 245.965 176.158 246.325 176.722C246.685 177.274 247.267 177.55 248.071 177.55C248.587 177.55 249.025 177.4 249.385 177.1C249.745 176.788 249.949 176.266 249.997 175.534L251.149 175.858ZM247.531 169.324C246.943 169.324 246.505 169.594 246.217 170.134C245.929 170.674 245.785 171.568 245.785 172.816H249.043C249.091 172.576 249.121 172.354 249.133 172.15C249.157 171.934 249.169 171.736 249.169 171.556C249.169 170.788 249.019 170.224 248.719 169.864C248.419 169.504 248.023 169.324 247.531 169.324ZM256.458 165.184V164.68H259.914V176.488C259.914 176.896 259.932 177.142 259.968 177.226C260.004 177.298 260.118 177.346 260.31 177.37L261.3 177.496V178H256.458V177.496L257.448 177.37C257.64 177.346 257.754 177.298 257.79 177.226C257.826 177.142 257.844 176.896 257.844 176.488V166.192C257.844 165.784 257.826 165.544 257.79 165.472C257.754 165.388 257.64 165.334 257.448 165.31L256.458 165.184ZM264.41 167.326C264.038 167.326 263.738 167.212 263.51 166.984C263.282 166.744 263.168 166.438 263.168 166.066C263.168 165.694 263.282 165.394 263.51 165.166C263.738 164.938 264.038 164.824 264.41 164.824C264.77 164.824 265.07 164.938 265.31 165.166C265.55 165.394 265.67 165.694 265.67 166.066C265.67 166.438 265.55 166.744 265.31 166.984C265.07 167.212 264.77 167.326 264.41 167.326ZM261.998 169.378V168.874H265.454V176.488C265.454 176.896 265.472 177.142 265.508 177.226C265.544 177.298 265.658 177.346 265.85 177.37L266.84 177.496V178H261.998V177.496L262.988 177.37C263.18 177.346 263.294 177.298 263.33 177.226C263.366 177.142 263.384 176.896 263.384 176.488V170.386C263.384 169.978 263.366 169.738 263.33 169.666C263.294 169.582 263.18 169.528 262.988 169.504L261.998 169.378ZM276.319 178.936C276.319 179.92 275.947 180.676 275.203 181.204C274.471 181.744 273.463 182.014 272.179 182.014C270.763 182.014 269.707 181.78 269.011 181.312C268.315 180.856 267.937 180.286 267.877 179.602L269.803 179.296C269.755 179.932 269.905 180.436 270.253 180.808C270.613 181.192 271.255 181.384 272.179 181.384C273.043 181.384 273.739 181.222 274.267 180.898C274.807 180.574 275.077 180.106 275.077 179.494C275.077 179.062 274.915 178.732 274.591 178.504C274.279 178.288 273.757 178.18 273.025 178.18H270.973C270.337 178.18 269.833 178.09 269.461 177.91C269.101 177.73 268.849 177.508 268.705 177.244C268.561 176.968 268.489 176.686 268.489 176.398C268.489 176.05 268.585 175.708 268.777 175.372C268.969 175.024 269.299 174.682 269.767 174.346C269.251 174.118 268.831 173.782 268.507 173.338C268.183 172.894 268.021 172.342 268.021 171.682C268.021 171.01 268.177 170.458 268.489 170.026C268.801 169.582 269.221 169.252 269.749 169.036C270.277 168.808 270.865 168.694 271.513 168.694H271.819C272.515 168.694 273.115 168.808 273.619 169.036L276.211 167.758L276.427 169.522H274.375C274.663 169.774 274.885 170.08 275.041 170.44C275.209 170.788 275.293 171.202 275.293 171.682C275.293 172.33 275.137 172.876 274.825 173.32C274.513 173.764 274.093 174.1 273.565 174.328C273.049 174.556 272.467 174.67 271.819 174.67H271.513C271.153 174.67 270.799 174.634 270.451 174.562C270.151 174.766 269.941 174.964 269.821 175.156C269.713 175.336 269.659 175.51 269.659 175.678C269.659 175.87 269.743 176.014 269.911 176.11C270.091 176.206 270.379 176.254 270.775 176.254H273.115C274.147 176.254 274.939 176.488 275.491 176.956C276.043 177.412 276.319 178.072 276.319 178.936ZM271.819 174.04C272.203 174.04 272.533 173.872 272.809 173.536C273.085 173.2 273.223 172.582 273.223 171.682C273.223 170.782 273.085 170.164 272.809 169.828C272.533 169.492 272.203 169.324 271.819 169.324H271.513C271.129 169.324 270.793 169.492 270.505 169.828C270.229 170.164 270.091 170.782 270.091 171.682C270.091 172.582 270.229 173.2 270.505 173.536C270.793 173.872 271.129 174.04 271.513 174.04H271.819ZM287.591 177.496V178H282.749V177.496L283.739 177.37C283.931 177.346 284.045 177.298 284.081 177.226C284.117 177.142 284.135 176.896 284.135 176.488V171.952C284.135 171.124 284.009 170.524 283.757 170.152C283.517 169.768 283.157 169.576 282.677 169.576C282.473 169.576 282.233 169.63 281.957 169.738C281.693 169.834 281.423 170.014 281.147 170.278C280.883 170.542 280.649 170.932 280.445 171.448V176.488C280.445 176.896 280.463 177.142 280.499 177.226C280.535 177.298 280.649 177.346 280.841 177.37L281.831 177.496V178H276.989V177.496L277.979 177.37C278.171 177.346 278.285 177.298 278.321 177.226C278.357 177.142 278.375 176.896 278.375 176.488V166.192C278.375 165.784 278.357 165.544 278.321 165.472C278.285 165.388 278.171 165.334 277.979 165.31L276.989 165.184V164.68H280.445V170.278C280.793 169.726 281.225 169.324 281.741 169.072C282.269 168.82 282.797 168.694 283.325 168.694C284.213 168.694 284.915 168.976 285.431 169.54C285.947 170.104 286.205 170.902 286.205 171.934V176.488C286.205 176.896 286.223 177.142 286.259 177.226C286.295 177.298 286.409 177.346 286.601 177.37L287.591 177.496ZM294.615 176.128C294.459 176.86 294.159 177.388 293.715 177.712C293.283 178.024 292.755 178.18 292.131 178.18C291.495 178.18 290.973 178.042 290.565 177.766C290.157 177.478 289.857 177.1 289.665 176.632C289.473 176.164 289.377 175.666 289.377 175.138V170.386C289.377 169.978 289.359 169.738 289.323 169.666C289.287 169.582 289.173 169.528 288.981 169.504L287.991 169.378V168.874H289.377V166.786L291.447 166.372V168.874H294.327V169.504H291.447V175.498C291.447 176.266 291.543 176.8 291.735 177.1C291.927 177.388 292.173 177.532 292.473 177.532C292.785 177.532 293.025 177.412 293.193 177.172C293.373 176.932 293.487 176.494 293.535 175.858L294.615 176.128ZM297.181 178.18C296.809 178.18 296.503 178.066 296.263 177.838C296.035 177.598 295.921 177.286 295.921 176.902C295.921 176.518 296.035 176.212 296.263 175.984C296.503 175.756 296.809 175.642 297.181 175.642C297.553 175.642 297.859 175.756 298.099 175.984C298.339 176.212 298.459 176.518 298.459 176.902C298.459 177.286 298.339 177.598 298.099 177.838C297.859 178.066 297.553 178.18 297.181 178.18Z" fill="black"/>
</svg>
