<svg width="354" height="354" viewBox="0 0 354 354" fill="none" xmlns="http://www.w3.org/2000/svg">
<mask id="mask0_264_1548" style="mask-type:luminance" maskUnits="userSpaceOnUse" x="10" y="90" width="330" height="182">
<path d="M10.7969 90.624H339.84V271.511H10.7969V90.624Z" fill="white"/>
</mask>
<g mask="url(#mask0_264_1548)">
<path d="M299.491 91.0259L50.5074 97.7187C28.611 97.7187 10.8594 115.489 10.8594 137.407V184.983C10.8594 206.902 28.611 224.668 50.5074 224.668H75.4312C72.1751 240.513 62.8162 259.309 38.464 271.518C38.464 271.518 89.5764 266.127 117.045 224.668H292.806C314.702 224.668 332.454 206.898 332.454 184.983L339.139 130.714C339.139 108.796 321.387 91.0259 299.491 91.0259Z" fill="black"/>
</g>
<path d="M302.888 84.0454L62.127 90.517C40.9534 90.517 23.7881 107.697 23.7881 128.893V174.894C23.7881 196.09 40.9534 213.27 62.127 213.27H86.2285C83.0831 228.592 74.0303 246.767 50.4856 258.575C50.4856 258.575 99.9055 253.361 126.467 213.27H296.423C317.597 213.27 334.762 196.09 334.762 174.894L341.227 122.421C341.227 101.225 324.061 84.0454 302.888 84.0454Z" fill="white"/>
<mask id="mask1_264_1548" style="mask-type:luminance" maskUnits="userSpaceOnUse" x="21" y="82" width="322" height="180">
<path d="M21.7119 82.4746H342.849V261.488H21.7119V82.4746Z" fill="white"/>
</mask>
<g mask="url(#mask1_264_1548)">
<path d="M42.0892 261.038L49.785 257.178C68.2852 247.9 79.8824 233.662 84.2852 214.838H62.1307C40.1274 214.838 22.2246 196.92 22.2246 174.895V128.893C22.2246 106.875 40.1127 88.9611 62.1086 88.9501L302.866 82.4785H302.888C324.891 82.4785 342.794 100.396 342.794 122.422V122.517L342.779 122.61L336.326 174.994C336.274 196.972 318.394 214.838 296.423 214.838H127.304C121.212 223.846 113.483 231.815 104.316 238.526C96.808 244.024 88.3231 248.693 79.1006 252.41C63.4029 258.73 51.1641 260.076 50.6515 260.131L42.0892 261.035V261.038ZM62.1307 92.0845C41.8532 92.0845 25.3553 108.597 25.3553 128.893V174.898C25.3553 195.194 41.8532 211.707 62.1307 211.707H88.146L87.7626 213.588C85.8967 222.677 82.3714 230.941 77.2864 238.146C72.5664 244.835 66.493 250.614 59.166 255.404C64.0962 254.272 70.7152 252.421 78.0239 249.471C92.0917 243.792 111.687 232.752 125.165 212.411L125.629 211.707H296.423C316.701 211.707 333.199 195.194 333.199 174.898V174.802L333.21 174.707L339.663 122.326C339.611 102.081 323.147 85.624 302.91 85.6129L62.1529 92.0845H62.1307Z" fill="black"/>
</g>
<path d="M120.652 210.895C112.816 224.982 99.3121 235.863 84.352 241.605L84.2598 241.417C91.019 237.165 97.5938 232.773 103.704 227.648C109.825 222.559 115.316 216.873 120.478 210.777L120.652 210.895Z" fill="black"/>
<path d="M243.039 207.116C229.167 208.218 215.25 208.307 201.344 207.927C196.713 207.776 192.078 207.554 187.446 207.116V206.905C201.319 205.703 215.235 205.744 229.141 206.124C233.772 206.293 238.408 206.496 243.039 206.905V207.116Z" fill="black"/>
<path d="M328.424 178.353C328.951 186.13 324.744 194.317 318.242 198.561L318.099 198.41C321.558 193.885 324.478 189.106 326.421 183.759C327.081 182 327.635 180.197 328.217 178.335L328.424 178.353Z" fill="black"/>
<path d="M285 90.6867C290.948 89.9049 296.925 89.5583 302.91 89.3223C311.296 89.2228 319.795 92.8218 325.216 99.238L325.072 99.3892C319.231 94.7909 312.243 91.8372 304.85 91.3763C304.267 91.3246 303.522 91.3246 302.936 91.2951C300.517 91.3357 298.054 91.3505 295.638 91.321C292.098 91.2767 288.555 91.1771 285.004 90.8932L285 90.683V90.6867Z" fill="black"/>
<path d="M60.0545 96.7414C69.6162 95.7089 79.2073 95.4507 88.8133 95.4434C92.014 95.4544 95.2111 95.5134 98.4155 95.7015L98.4192 95.9117C88.8649 96.911 79.259 97.2023 69.6567 97.2023C66.4597 97.1949 63.2515 97.1249 60.0655 96.9515L60.0508 96.7414H60.0545Z" fill="black"/>
<path d="M31.325 184.246C29.8058 180.503 29.4112 176.3 29.4075 172.262C29.3596 169.909 29.3227 167.343 29.319 165.008C29.2969 158.581 29.4075 152.069 29.9422 145.66H30.1524C30.8161 153.688 30.842 161.797 30.7313 169.843C30.7166 171.045 30.665 173.479 30.6244 174.677C30.5101 177.856 30.8272 181.038 31.5241 184.187L31.325 184.246Z" fill="black"/>
<path d="M80.2106 123.496V124H75.2786V123.496L76.2686 123.37C76.4606 123.346 76.5746 123.298 76.6106 123.226C76.6466 123.142 76.6646 122.896 76.6646 122.488V113.236L73.3706 122.56H71.4446L68.1866 113.29V122.488C68.1866 122.896 68.2046 123.142 68.2406 123.226C68.2766 123.298 68.3906 123.346 68.5826 123.37L69.5726 123.496V124H66.0806V123.496L67.0706 123.37C67.2626 123.346 67.3766 123.298 67.4126 123.226C67.4486 123.142 67.4666 122.896 67.4666 122.488V113.272C67.4666 112.864 67.4486 112.624 67.4126 112.552C67.3766 112.468 67.2626 112.414 67.0706 112.39L66.0806 112.264V111.76H69.8786L73.1726 121.12L76.5206 111.76H80.2106V112.264L79.2206 112.39C79.0286 112.414 78.9146 112.468 78.8786 112.552C78.8426 112.624 78.8246 112.864 78.8246 113.272V122.488C78.8246 122.896 78.8426 123.142 78.8786 123.226C78.9146 123.298 79.0286 123.346 79.2206 123.37L80.2106 123.496ZM89.5183 121.858C89.3023 122.698 88.9003 123.298 88.3123 123.658C87.7243 124.006 87.0403 124.18 86.2603 124.18C84.8203 124.18 83.7403 123.766 83.0203 122.938C82.3003 122.098 81.9403 120.988 81.9403 119.608V119.248C81.9403 117.868 82.2763 116.764 82.9483 115.936C83.6323 115.108 84.6163 114.694 85.9003 114.694C86.6203 114.694 87.2563 114.838 87.8083 115.126C88.3723 115.402 88.8103 115.804 89.1223 116.332C89.4463 116.86 89.6083 117.502 89.6083 118.258C89.6083 118.438 89.5963 118.63 89.5723 118.834C89.5603 119.038 89.5303 119.242 89.4823 119.446H84.1543V119.968C84.1543 121.24 84.3343 122.158 84.6943 122.722C85.0543 123.274 85.6363 123.55 86.4403 123.55C86.9563 123.55 87.3943 123.4 87.7543 123.1C88.1143 122.788 88.3183 122.266 88.3663 121.534L89.5183 121.858ZM85.9003 115.324C85.3123 115.324 84.8743 115.594 84.5863 116.134C84.2983 116.674 84.1543 117.568 84.1543 118.816H87.4123C87.4603 118.576 87.4903 118.354 87.5023 118.15C87.5263 117.934 87.5383 117.736 87.5383 117.556C87.5383 116.788 87.3883 116.224 87.0883 115.864C86.7883 115.504 86.3923 115.324 85.9003 115.324ZM97.3357 122.128C97.1797 122.86 96.8797 123.388 96.4357 123.712C96.0037 124.024 95.4757 124.18 94.8517 124.18C94.2157 124.18 93.6937 124.042 93.2857 123.766C92.8777 123.478 92.5777 123.1 92.3857 122.632C92.1937 122.164 92.0977 121.666 92.0977 121.138V116.386C92.0977 115.978 92.0797 115.738 92.0437 115.666C92.0077 115.582 91.8937 115.528 91.7017 115.504L90.7117 115.378V114.874H92.0977V112.786L94.1677 112.372V114.874H97.0477V115.504H94.1677V121.498C94.1677 122.266 94.2637 122.8 94.4557 123.1C94.6477 123.388 94.8937 123.532 95.1937 123.532C95.5057 123.532 95.7457 123.412 95.9137 123.172C96.0937 122.932 96.2077 122.494 96.2557 121.858L97.3357 122.128ZM107.209 123.55C107.017 123.73 106.783 123.88 106.507 124C106.243 124.12 105.919 124.18 105.535 124.18C105.043 124.18 104.629 124.072 104.293 123.856C103.969 123.64 103.753 123.334 103.645 122.938C103.249 123.37 102.811 123.688 102.331 123.892C101.863 124.084 101.383 124.18 100.891 124.18C100.063 124.18 99.4452 123.952 99.0372 123.496C98.6292 123.028 98.4252 122.446 98.4252 121.75C98.4252 121.042 98.6832 120.472 99.1992 120.04C99.7152 119.596 100.627 119.374 101.935 119.374H103.573V117.916C103.573 116.92 103.441 116.242 103.177 115.882C102.925 115.51 102.571 115.324 102.115 115.324C101.815 115.324 101.539 115.402 101.287 115.558C101.035 115.702 100.855 115.978 100.747 116.386C100.651 116.782 100.669 117.358 100.801 118.114L98.8212 117.826C98.7252 117.274 98.7852 116.764 99.0012 116.296C99.2292 115.816 99.6072 115.432 100.135 115.144C100.663 114.844 101.335 114.694 102.151 114.694C103.075 114.694 103.789 114.844 104.293 115.144C104.797 115.444 105.145 115.84 105.337 116.332C105.541 116.824 105.643 117.352 105.643 117.916V122.074C105.643 122.686 105.697 123.07 105.805 123.226C105.913 123.382 106.033 123.46 106.165 123.46C106.381 123.46 106.621 123.334 106.885 123.082L107.209 123.55ZM101.683 123.226C101.995 123.226 102.301 123.148 102.601 122.992C102.913 122.824 103.237 122.518 103.573 122.074V120.004H102.223C101.635 120.004 101.209 120.142 100.945 120.418C100.681 120.694 100.549 121.126 100.549 121.714C100.549 122.194 100.645 122.566 100.837 122.83C101.029 123.094 101.311 123.226 101.683 123.226ZM107.589 111.184V110.68H111.045V122.488C111.045 122.896 111.063 123.142 111.099 123.226C111.135 123.298 111.249 123.346 111.441 123.37L112.431 123.496V124H107.589V123.496L108.579 123.37C108.771 123.346 108.885 123.298 108.921 123.226C108.957 123.142 108.975 122.896 108.975 122.488V112.192C108.975 111.784 108.957 111.544 108.921 111.472C108.885 111.388 108.771 111.334 108.579 111.31L107.589 111.184ZM117.233 120.598L115.991 120.31C115.187 120.118 114.587 119.776 114.191 119.284C113.807 118.78 113.615 118.186 113.615 117.502C113.615 116.998 113.723 116.536 113.939 116.116C114.167 115.684 114.521 115.342 115.001 115.09C115.481 114.826 116.105 114.694 116.873 114.694C117.701 114.694 118.373 114.826 118.889 115.09C119.405 115.354 119.771 115.702 119.987 116.134C120.203 116.566 120.269 117.028 120.185 117.52L118.205 117.88C118.373 117.064 118.325 116.434 118.061 115.99C117.809 115.546 117.383 115.324 116.783 115.324C116.363 115.324 116.015 115.45 115.739 115.702C115.463 115.942 115.325 116.29 115.325 116.746C115.325 117.166 115.445 117.538 115.685 117.862C115.925 118.174 116.279 118.384 116.747 118.492L117.989 118.78C118.877 118.984 119.519 119.308 119.915 119.752C120.311 120.184 120.509 120.724 120.509 121.372C120.509 122.176 120.209 122.848 119.609 123.388C119.021 123.916 118.139 124.18 116.963 124.18C116.555 124.18 116.105 124.12 115.613 124C115.133 123.868 114.689 123.634 114.281 123.298C113.885 122.962 113.597 122.482 113.417 121.858L114.587 121.39C114.671 122.182 114.941 122.74 115.397 123.064C115.865 123.388 116.387 123.55 116.963 123.55C117.503 123.55 117.941 123.43 118.277 123.19C118.625 122.938 118.799 122.578 118.799 122.11C118.799 121.786 118.685 121.492 118.457 121.228C118.241 120.952 117.833 120.742 117.233 120.598ZM134.983 123.55C134.791 123.73 134.557 123.88 134.281 124C134.017 124.12 133.693 124.18 133.309 124.18C132.817 124.18 132.403 124.072 132.067 123.856C131.743 123.64 131.527 123.334 131.419 122.938C131.023 123.37 130.585 123.688 130.105 123.892C129.637 124.084 129.157 124.18 128.665 124.18C127.837 124.18 127.219 123.952 126.811 123.496C126.403 123.028 126.199 122.446 126.199 121.75C126.199 121.042 126.457 120.472 126.973 120.04C127.489 119.596 128.401 119.374 129.709 119.374H131.347V117.916C131.347 116.92 131.215 116.242 130.951 115.882C130.699 115.51 130.345 115.324 129.889 115.324C129.589 115.324 129.313 115.402 129.061 115.558C128.809 115.702 128.629 115.978 128.521 116.386C128.425 116.782 128.443 117.358 128.575 118.114L126.595 117.826C126.499 117.274 126.559 116.764 126.775 116.296C127.003 115.816 127.381 115.432 127.909 115.144C128.437 114.844 129.109 114.694 129.925 114.694C130.849 114.694 131.563 114.844 132.067 115.144C132.571 115.444 132.919 115.84 133.111 116.332C133.315 116.824 133.417 117.352 133.417 117.916V122.074C133.417 122.686 133.471 123.07 133.579 123.226C133.687 123.382 133.807 123.46 133.939 123.46C134.155 123.46 134.395 123.334 134.659 123.082L134.983 123.55ZM129.457 123.226C129.769 123.226 130.075 123.148 130.375 122.992C130.687 122.824 131.011 122.518 131.347 122.074V120.004H129.997C129.409 120.004 128.983 120.142 128.719 120.418C128.455 120.694 128.323 121.126 128.323 121.714C128.323 122.194 128.419 122.566 128.611 122.83C128.803 123.094 129.085 123.226 129.457 123.226ZM135.488 115.378V114.874H138.836V116.35C139.568 115.246 140.438 114.694 141.446 114.694C141.818 114.694 142.178 114.814 142.526 115.054C142.874 115.282 143.162 115.714 143.39 116.35L141.788 117.214C141.62 116.722 141.422 116.392 141.194 116.224C140.978 116.044 140.744 115.954 140.492 115.954C140.228 115.954 139.97 116.038 139.718 116.206C139.466 116.374 139.208 116.686 138.944 117.142V122.488C138.944 122.896 138.962 123.142 138.998 123.226C139.034 123.298 139.148 123.346 139.34 123.37L140.69 123.496V124H135.488V123.496L136.478 123.37C136.67 123.346 136.784 123.298 136.82 123.226C136.856 123.142 136.874 122.896 136.874 122.488V116.386C136.874 115.978 136.856 115.738 136.82 115.666C136.784 115.582 136.67 115.528 136.478 115.504L135.488 115.378ZM151.657 121.858C151.441 122.698 151.039 123.298 150.451 123.658C149.863 124.006 149.179 124.18 148.399 124.18C146.959 124.18 145.879 123.766 145.159 122.938C144.439 122.098 144.079 120.988 144.079 119.608V119.248C144.079 117.868 144.415 116.764 145.087 115.936C145.771 115.108 146.755 114.694 148.039 114.694C148.759 114.694 149.395 114.838 149.947 115.126C150.511 115.402 150.949 115.804 151.261 116.332C151.585 116.86 151.747 117.502 151.747 118.258C151.747 118.438 151.735 118.63 151.711 118.834C151.699 119.038 151.669 119.242 151.621 119.446H146.293V119.968C146.293 121.24 146.473 122.158 146.833 122.722C147.193 123.274 147.775 123.55 148.579 123.55C149.095 123.55 149.533 123.4 149.893 123.1C150.253 122.788 150.457 122.266 150.505 121.534L151.657 121.858ZM148.039 115.324C147.451 115.324 147.013 115.594 146.725 116.134C146.437 116.674 146.293 117.568 146.293 118.816H149.551C149.599 118.576 149.629 118.354 149.641 118.15C149.665 117.934 149.677 117.736 149.677 117.556C149.677 116.788 149.527 116.224 149.227 115.864C148.927 115.504 148.531 115.324 148.039 115.324ZM165.876 124.936C165.876 125.92 165.504 126.676 164.76 127.204C164.028 127.744 163.02 128.014 161.736 128.014C160.32 128.014 159.264 127.78 158.568 127.312C157.872 126.856 157.494 126.286 157.434 125.602L159.36 125.296C159.312 125.932 159.462 126.436 159.81 126.808C160.17 127.192 160.812 127.384 161.736 127.384C162.6 127.384 163.296 127.222 163.824 126.898C164.364 126.574 164.634 126.106 164.634 125.494C164.634 125.062 164.472 124.732 164.148 124.504C163.836 124.288 163.314 124.18 162.582 124.18H160.53C159.894 124.18 159.39 124.09 159.018 123.91C158.658 123.73 158.406 123.508 158.262 123.244C158.118 122.968 158.046 122.686 158.046 122.398C158.046 122.05 158.142 121.708 158.334 121.372C158.526 121.024 158.856 120.682 159.324 120.346C158.808 120.118 158.388 119.782 158.064 119.338C157.74 118.894 157.578 118.342 157.578 117.682C157.578 117.01 157.734 116.458 158.046 116.026C158.358 115.582 158.778 115.252 159.306 115.036C159.834 114.808 160.422 114.694 161.07 114.694H161.376C162.072 114.694 162.672 114.808 163.176 115.036L165.768 113.758L165.984 115.522H163.932C164.22 115.774 164.442 116.08 164.598 116.44C164.766 116.788 164.85 117.202 164.85 117.682C164.85 118.33 164.694 118.876 164.382 119.32C164.07 119.764 163.65 120.1 163.122 120.328C162.606 120.556 162.024 120.67 161.376 120.67H161.07C160.71 120.67 160.356 120.634 160.008 120.562C159.708 120.766 159.498 120.964 159.378 121.156C159.27 121.336 159.216 121.51 159.216 121.678C159.216 121.87 159.3 122.014 159.468 122.11C159.648 122.206 159.936 122.254 160.332 122.254H162.672C163.704 122.254 164.496 122.488 165.048 122.956C165.6 123.412 165.876 124.072 165.876 124.936ZM161.376 120.04C161.76 120.04 162.09 119.872 162.366 119.536C162.642 119.2 162.78 118.582 162.78 117.682C162.78 116.782 162.642 116.164 162.366 115.828C162.09 115.492 161.76 115.324 161.376 115.324H161.07C160.686 115.324 160.35 115.492 160.062 115.828C159.786 116.164 159.648 116.782 159.648 117.682C159.648 118.582 159.786 119.2 160.062 119.536C160.35 119.872 160.686 120.04 161.07 120.04H161.376ZM166.672 115.378V114.874H170.02V116.35C170.752 115.246 171.622 114.694 172.63 114.694C173.002 114.694 173.362 114.814 173.71 115.054C174.058 115.282 174.346 115.714 174.574 116.35L172.972 117.214C172.804 116.722 172.606 116.392 172.378 116.224C172.162 116.044 171.928 115.954 171.676 115.954C171.412 115.954 171.154 116.038 170.902 116.206C170.65 116.374 170.392 116.686 170.128 117.142V122.488C170.128 122.896 170.146 123.142 170.182 123.226C170.218 123.298 170.332 123.346 170.524 123.37L171.874 123.496V124H166.672V123.496L167.662 123.37C167.854 123.346 167.968 123.298 168.004 123.226C168.04 123.142 168.058 122.896 168.058 122.488V116.386C168.058 115.978 168.04 115.738 168.004 115.666C167.968 115.582 167.854 115.528 167.662 115.504L166.672 115.378ZM182.841 121.858C182.625 122.698 182.223 123.298 181.635 123.658C181.047 124.006 180.363 124.18 179.583 124.18C178.143 124.18 177.063 123.766 176.343 122.938C175.623 122.098 175.263 120.988 175.263 119.608V119.248C175.263 117.868 175.599 116.764 176.271 115.936C176.955 115.108 177.939 114.694 179.223 114.694C179.943 114.694 180.579 114.838 181.131 115.126C181.695 115.402 182.133 115.804 182.445 116.332C182.769 116.86 182.931 117.502 182.931 118.258C182.931 118.438 182.919 118.63 182.895 118.834C182.883 119.038 182.853 119.242 182.805 119.446H177.477V119.968C177.477 121.24 177.657 122.158 178.017 122.722C178.377 123.274 178.959 123.55 179.763 123.55C180.279 123.55 180.717 123.4 181.077 123.1C181.437 122.788 181.641 122.266 181.689 121.534L182.841 121.858ZM179.223 115.324C178.635 115.324 178.197 115.594 177.909 116.134C177.621 116.674 177.477 117.568 177.477 118.816H180.735C180.783 118.576 180.813 118.354 180.825 118.15C180.849 117.934 180.861 117.736 180.861 117.556C180.861 116.788 180.711 116.224 180.411 115.864C180.111 115.504 179.715 115.324 179.223 115.324ZM193.43 123.55C193.238 123.73 193.004 123.88 192.728 124C192.464 124.12 192.14 124.18 191.756 124.18C191.264 124.18 190.85 124.072 190.514 123.856C190.19 123.64 189.974 123.334 189.866 122.938C189.47 123.37 189.032 123.688 188.552 123.892C188.084 124.084 187.604 124.18 187.112 124.18C186.284 124.18 185.666 123.952 185.258 123.496C184.85 123.028 184.646 122.446 184.646 121.75C184.646 121.042 184.904 120.472 185.42 120.04C185.936 119.596 186.848 119.374 188.156 119.374H189.794V117.916C189.794 116.92 189.662 116.242 189.398 115.882C189.146 115.51 188.792 115.324 188.336 115.324C188.036 115.324 187.76 115.402 187.508 115.558C187.256 115.702 187.076 115.978 186.968 116.386C186.872 116.782 186.89 117.358 187.022 118.114L185.042 117.826C184.946 117.274 185.006 116.764 185.222 116.296C185.45 115.816 185.828 115.432 186.356 115.144C186.884 114.844 187.556 114.694 188.372 114.694C189.296 114.694 190.01 114.844 190.514 115.144C191.018 115.444 191.366 115.84 191.558 116.332C191.762 116.824 191.864 117.352 191.864 117.916V122.074C191.864 122.686 191.918 123.07 192.026 123.226C192.134 123.382 192.254 123.46 192.386 123.46C192.602 123.46 192.842 123.334 193.106 123.082L193.43 123.55ZM187.904 123.226C188.216 123.226 188.522 123.148 188.822 122.992C189.134 122.824 189.458 122.518 189.794 122.074V120.004H188.444C187.856 120.004 187.43 120.142 187.166 120.418C186.902 120.694 186.77 121.126 186.77 121.714C186.77 122.194 186.866 122.566 187.058 122.83C187.25 123.094 187.532 123.226 187.904 123.226ZM200.343 122.128C200.187 122.86 199.887 123.388 199.443 123.712C199.011 124.024 198.483 124.18 197.859 124.18C197.223 124.18 196.701 124.042 196.293 123.766C195.885 123.478 195.585 123.1 195.393 122.632C195.201 122.164 195.105 121.666 195.105 121.138V116.386C195.105 115.978 195.087 115.738 195.051 115.666C195.015 115.582 194.901 115.528 194.709 115.504L193.719 115.378V114.874H195.105V112.786L197.175 112.372V114.874H200.055V115.504H197.175V121.498C197.175 122.266 197.271 122.8 197.463 123.1C197.655 123.388 197.901 123.532 198.201 123.532C198.513 123.532 198.753 123.412 198.921 123.172C199.101 122.932 199.215 122.494 199.263 121.858L200.343 122.128ZM209.526 115.324C208.95 115.324 208.518 115.6 208.23 116.152C207.954 116.692 207.816 117.604 207.816 118.888V119.968C207.816 121.24 207.978 122.158 208.302 122.722C208.626 123.274 209.154 123.55 209.886 123.55C210.426 123.55 210.864 123.4 211.2 123.1C211.548 122.788 211.746 122.266 211.794 121.534L212.946 121.858C212.73 122.698 212.334 123.298 211.758 123.658C211.194 124.006 210.528 124.18 209.76 124.18C208.38 124.18 207.342 123.766 206.646 122.938C205.95 122.098 205.602 120.988 205.602 119.608V119.248C205.602 117.868 205.938 116.764 206.61 115.936C207.282 115.108 208.254 114.694 209.526 114.694C210.366 114.694 211.05 114.862 211.578 115.198C212.118 115.522 212.496 115.954 212.712 116.494C212.94 117.022 213 117.592 212.892 118.204L210.912 118.492C211.044 117.484 210.99 116.704 210.75 116.152C210.51 115.6 210.102 115.324 209.526 115.324ZM222.881 119.248V119.608C222.881 120.988 222.521 122.098 221.801 122.938C221.093 123.766 220.079 124.18 218.759 124.18C217.439 124.18 216.419 123.766 215.699 122.938C214.991 122.098 214.637 120.988 214.637 119.608V119.248C214.637 117.868 214.991 116.764 215.699 115.936C216.419 115.108 217.439 114.694 218.759 114.694C220.079 114.694 221.093 115.108 221.801 115.936C222.521 116.764 222.881 117.868 222.881 119.248ZM220.667 118.888C220.667 117.604 220.505 116.692 220.181 116.152C219.857 115.6 219.383 115.324 218.759 115.324C218.147 115.324 217.673 115.6 217.337 116.152C217.013 116.692 216.851 117.604 216.851 118.888V119.968C216.851 121.24 217.013 122.158 217.337 122.722C217.673 123.274 218.147 123.55 218.759 123.55C219.383 123.55 219.857 123.274 220.181 122.722C220.505 122.158 220.667 121.24 220.667 119.968V118.888ZM234.825 123.496V124H229.983V123.496L230.973 123.37C231.165 123.346 231.279 123.298 231.315 123.226C231.351 123.142 231.369 122.896 231.369 122.488V117.952C231.369 117.124 231.243 116.524 230.991 116.152C230.751 115.768 230.391 115.576 229.911 115.576C229.707 115.576 229.467 115.63 229.191 115.738C228.927 115.834 228.657 116.014 228.381 116.278C228.117 116.542 227.883 116.932 227.679 117.448V122.488C227.679 122.896 227.697 123.142 227.733 123.226C227.769 123.298 227.883 123.346 228.075 123.37L229.065 123.496V124H224.223V123.496L225.213 123.37C225.405 123.346 225.519 123.298 225.555 123.226C225.591 123.142 225.609 122.896 225.609 122.488V116.386C225.609 115.978 225.591 115.738 225.555 115.666C225.519 115.582 225.405 115.528 225.213 115.504L224.223 115.378V114.874H227.571V116.458C227.919 115.846 228.363 115.402 228.903 115.126C229.455 114.838 230.007 114.694 230.559 114.694C231.447 114.694 232.149 114.976 232.665 115.54C233.181 116.104 233.439 116.902 233.439 117.934V122.488C233.439 122.896 233.457 123.142 233.493 123.226C233.529 123.298 233.643 123.346 233.835 123.37L234.825 123.496ZM245.265 123.496V124H241.917V122.506C241.581 123.058 241.203 123.478 240.783 123.766C240.375 124.042 239.889 124.18 239.325 124.18C238.317 124.18 237.513 123.784 236.913 122.992C236.325 122.188 236.031 121.066 236.031 119.626V119.266C236.031 117.874 236.373 116.764 237.057 115.936C237.753 115.108 238.701 114.694 239.901 114.694C240.621 114.694 241.257 114.874 241.809 115.234V112.192C241.809 111.784 241.791 111.544 241.755 111.472C241.719 111.388 241.605 111.334 241.413 111.31L240.423 111.184V110.68H243.879V122.488C243.879 122.896 243.897 123.142 243.933 123.226C243.969 123.298 244.083 123.346 244.275 123.37L245.265 123.496ZM238.245 120.166C238.245 121.282 238.383 122.098 238.659 122.614C238.935 123.13 239.313 123.388 239.793 123.388C240.093 123.388 240.405 123.268 240.729 123.028C241.065 122.776 241.425 122.272 241.809 121.516V116.08C241.353 115.624 240.795 115.396 240.135 115.396C239.475 115.396 238.995 115.696 238.695 116.296C238.395 116.884 238.245 117.694 238.245 118.726V120.166ZM256.173 123.496V124H252.825V122.416C252.489 123.028 252.057 123.478 251.529 123.766C251.001 124.042 250.467 124.18 249.927 124.18C249.075 124.18 248.397 123.898 247.893 123.334C247.389 122.758 247.137 121.96 247.137 120.94V116.386C247.137 115.978 247.119 115.738 247.083 115.666C247.047 115.582 246.933 115.528 246.741 115.504L245.751 115.378V114.874H249.207V120.922C249.207 121.75 249.321 122.356 249.549 122.74C249.789 123.112 250.131 123.298 250.575 123.298C250.767 123.298 250.989 123.25 251.241 123.154C251.505 123.046 251.769 122.86 252.033 122.596C252.297 122.32 252.525 121.93 252.717 121.426V116.386C252.717 115.978 252.699 115.732 252.663 115.648C252.627 115.564 252.513 115.516 252.321 115.504L250.971 115.378V114.874H254.787V122.488C254.787 122.896 254.805 123.142 254.841 123.226C254.877 123.298 254.991 123.346 255.183 123.37L256.173 123.496ZM261.347 115.324C260.771 115.324 260.339 115.6 260.051 116.152C259.775 116.692 259.637 117.604 259.637 118.888V119.968C259.637 121.24 259.799 122.158 260.123 122.722C260.447 123.274 260.975 123.55 261.707 123.55C262.247 123.55 262.685 123.4 263.021 123.1C263.369 122.788 263.567 122.266 263.615 121.534L264.767 121.858C264.551 122.698 264.155 123.298 263.579 123.658C263.015 124.006 262.349 124.18 261.581 124.18C260.201 124.18 259.163 123.766 258.467 122.938C257.771 122.098 257.423 120.988 257.423 119.608V119.248C257.423 117.868 257.759 116.764 258.431 115.936C259.103 115.108 260.075 114.694 261.347 114.694C262.187 114.694 262.871 114.862 263.399 115.198C263.939 115.522 264.317 115.954 264.533 116.494C264.761 117.022 264.821 117.592 264.713 118.204L262.733 118.492C262.865 117.484 262.811 116.704 262.571 116.152C262.331 115.6 261.923 115.324 261.347 115.324ZM272.343 122.128C272.187 122.86 271.887 123.388 271.443 123.712C271.011 124.024 270.483 124.18 269.859 124.18C269.223 124.18 268.701 124.042 268.293 123.766C267.885 123.478 267.585 123.1 267.393 122.632C267.201 122.164 267.105 121.666 267.105 121.138V116.386C267.105 115.978 267.087 115.738 267.051 115.666C267.015 115.582 266.901 115.528 266.709 115.504L265.719 115.378V114.874H267.105V112.786L269.175 112.372V114.874H272.055V115.504H269.175V121.498C269.175 122.266 269.271 122.8 269.463 123.1C269.655 123.388 269.901 123.532 270.201 123.532C270.513 123.532 270.753 123.412 270.921 123.172C271.101 122.932 271.215 122.494 271.263 121.858L272.343 122.128ZM281.803 119.248V119.608C281.803 120.988 281.443 122.098 280.723 122.938C280.015 123.766 279.001 124.18 277.681 124.18C276.361 124.18 275.341 123.766 274.621 122.938C273.913 122.098 273.559 120.988 273.559 119.608V119.248C273.559 117.868 273.913 116.764 274.621 115.936C275.341 115.108 276.361 114.694 277.681 114.694C279.001 114.694 280.015 115.108 280.723 115.936C281.443 116.764 281.803 117.868 281.803 119.248ZM279.589 118.888C279.589 117.604 279.427 116.692 279.103 116.152C278.779 115.6 278.305 115.324 277.681 115.324C277.069 115.324 276.595 115.6 276.259 116.152C275.935 116.692 275.773 117.604 275.773 118.888V119.968C275.773 121.24 275.935 122.158 276.259 122.722C276.595 123.274 277.069 123.55 277.681 123.55C278.305 123.55 278.779 123.274 279.103 122.722C279.427 122.158 279.589 121.24 279.589 119.968V118.888ZM283.144 115.378V114.874H286.492V116.35C287.224 115.246 288.094 114.694 289.102 114.694C289.474 114.694 289.834 114.814 290.182 115.054C290.53 115.282 290.818 115.714 291.046 116.35L289.444 117.214C289.276 116.722 289.078 116.392 288.85 116.224C288.634 116.044 288.4 115.954 288.148 115.954C287.884 115.954 287.626 116.038 287.374 116.206C287.122 116.374 286.864 116.686 286.6 117.142V122.488C286.6 122.896 286.618 123.142 286.654 123.226C286.69 123.298 286.804 123.346 286.996 123.37L288.346 123.496V124H283.144V123.496L284.134 123.37C284.326 123.346 284.44 123.298 284.476 123.226C284.512 123.142 284.53 122.896 284.53 122.488V116.386C284.53 115.978 284.512 115.738 284.476 115.666C284.44 115.582 284.326 115.528 284.134 115.504L283.144 115.378ZM295.563 120.598L294.321 120.31C293.517 120.118 292.917 119.776 292.521 119.284C292.137 118.78 291.945 118.186 291.945 117.502C291.945 116.998 292.053 116.536 292.269 116.116C292.497 115.684 292.851 115.342 293.331 115.09C293.811 114.826 294.435 114.694 295.203 114.694C296.031 114.694 296.703 114.826 297.219 115.09C297.735 115.354 298.101 115.702 298.317 116.134C298.533 116.566 298.599 117.028 298.515 117.52L296.535 117.88C296.703 117.064 296.655 116.434 296.391 115.99C296.139 115.546 295.713 115.324 295.113 115.324C294.693 115.324 294.345 115.45 294.069 115.702C293.793 115.942 293.655 116.29 293.655 116.746C293.655 117.166 293.775 117.538 294.015 117.862C294.255 118.174 294.609 118.384 295.077 118.492L296.319 118.78C297.207 118.984 297.849 119.308 298.245 119.752C298.641 120.184 298.839 120.724 298.839 121.372C298.839 122.176 298.539 122.848 297.939 123.388C297.351 123.916 296.469 124.18 295.293 124.18C294.885 124.18 294.435 124.12 293.943 124C293.463 123.868 293.019 123.634 292.611 123.298C292.215 122.962 291.927 122.482 291.747 121.858L292.917 121.39C293.001 122.182 293.271 122.74 293.727 123.064C294.195 123.388 294.717 123.55 295.293 123.55C295.833 123.55 296.271 123.43 296.607 123.19C296.955 122.938 297.129 122.578 297.129 122.11C297.129 121.786 297.015 121.492 296.787 121.228C296.571 120.952 296.163 120.742 295.563 120.598ZM38.7055 133.184V132.68H42.1615V138.206C42.4855 137.702 42.8455 137.324 43.2415 137.072C43.6495 136.82 44.1175 136.694 44.6455 136.694C45.6535 136.694 46.4515 137.096 47.0395 137.9C47.6395 138.692 47.9395 139.808 47.9395 141.248V141.608C47.9395 143 47.5975 144.11 46.9135 144.938C46.2295 145.766 45.2815 146.18 44.0695 146.18C43.1455 146.18 42.3895 145.904 41.8015 145.352C41.5855 145.436 41.3755 145.544 41.1715 145.676C40.9795 145.796 40.7815 145.934 40.5775 146.09H40.0915V134.192C40.0915 133.784 40.0735 133.544 40.0375 133.472C40.0015 133.388 39.8875 133.334 39.6955 133.31L38.7055 133.184ZM44.1775 137.486C43.8775 137.486 43.5595 137.612 43.2235 137.864C42.8995 138.104 42.5455 138.602 42.1615 139.358V144.794C42.6175 145.25 43.1755 145.478 43.8355 145.478C44.5075 145.478 44.9875 145.184 45.2755 144.596C45.5755 143.996 45.7255 143.18 45.7255 142.148V140.708C45.7255 139.592 45.5875 138.776 45.3115 138.26C45.0355 137.744 44.6575 137.486 44.1775 137.486ZM57.4822 143.858C57.2662 144.698 56.8642 145.298 56.2762 145.658C55.6882 146.006 55.0042 146.18 54.2242 146.18C52.7842 146.18 51.7042 145.766 50.9842 144.938C50.2642 144.098 49.9042 142.988 49.9042 141.608V141.248C49.9042 139.868 50.2402 138.764 50.9122 137.936C51.5962 137.108 52.5802 136.694 53.8642 136.694C54.5842 136.694 55.2202 136.838 55.7722 137.126C56.3362 137.402 56.7742 137.804 57.0862 138.332C57.4102 138.86 57.5722 139.502 57.5722 140.258C57.5722 140.438 57.5602 140.63 57.5362 140.834C57.5242 141.038 57.4942 141.242 57.4462 141.446H52.1182V141.968C52.1182 143.24 52.2982 144.158 52.6582 144.722C53.0182 145.274 53.6002 145.55 54.4042 145.55C54.9202 145.55 55.3582 145.4 55.7182 145.1C56.0782 144.788 56.2822 144.266 56.3302 143.534L57.4822 143.858ZM53.8642 137.324C53.2762 137.324 52.8382 137.594 52.5502 138.134C52.2622 138.674 52.1182 139.568 52.1182 140.816H55.3762C55.4242 140.576 55.4542 140.354 55.4662 140.15C55.4902 139.934 55.5022 139.736 55.5022 139.556C55.5022 138.788 55.3522 138.224 55.0522 137.864C54.7522 137.504 54.3562 137.324 53.8642 137.324ZM63.3555 137.324C62.7795 137.324 62.3475 137.6 62.0595 138.152C61.7835 138.692 61.6455 139.604 61.6455 140.888V141.968C61.6455 143.24 61.8075 144.158 62.1315 144.722C62.4555 145.274 62.9835 145.55 63.7155 145.55C64.2555 145.55 64.6935 145.4 65.0295 145.1C65.3775 144.788 65.5755 144.266 65.6235 143.534L66.7755 143.858C66.5595 144.698 66.1635 145.298 65.5875 145.658C65.0235 146.006 64.3575 146.18 63.5895 146.18C62.2095 146.18 61.1715 145.766 60.4755 144.938C59.7795 144.098 59.4315 142.988 59.4315 141.608V141.248C59.4315 139.868 59.7675 138.764 60.4395 137.936C61.1115 137.108 62.0835 136.694 63.3555 136.694C64.1955 136.694 64.8795 136.862 65.4075 137.198C65.9475 137.522 66.3255 137.954 66.5415 138.494C66.7695 139.022 66.8295 139.592 66.7215 140.204L64.7415 140.492C64.8735 139.484 64.8195 138.704 64.5795 138.152C64.3395 137.6 63.9315 137.324 63.3555 137.324ZM77.1243 145.55C76.9323 145.73 76.6983 145.88 76.4223 146C76.1583 146.12 75.8343 146.18 75.4503 146.18C74.9583 146.18 74.5443 146.072 74.2083 145.856C73.8843 145.64 73.6683 145.334 73.5603 144.938C73.1643 145.37 72.7263 145.688 72.2463 145.892C71.7783 146.084 71.2983 146.18 70.8063 146.18C69.9783 146.18 69.3603 145.952 68.9523 145.496C68.5443 145.028 68.3403 144.446 68.3403 143.75C68.3403 143.042 68.5983 142.472 69.1143 142.04C69.6303 141.596 70.5423 141.374 71.8503 141.374H73.4883V139.916C73.4883 138.92 73.3563 138.242 73.0923 137.882C72.8403 137.51 72.4863 137.324 72.0303 137.324C71.7303 137.324 71.4543 137.402 71.2023 137.558C70.9503 137.702 70.7703 137.978 70.6623 138.386C70.5663 138.782 70.5843 139.358 70.7163 140.114L68.7363 139.826C68.6403 139.274 68.7003 138.764 68.9163 138.296C69.1443 137.816 69.5223 137.432 70.0503 137.144C70.5783 136.844 71.2503 136.694 72.0663 136.694C72.9903 136.694 73.7043 136.844 74.2083 137.144C74.7123 137.444 75.0603 137.84 75.2523 138.332C75.4563 138.824 75.5583 139.352 75.5583 139.916V144.074C75.5583 144.686 75.6123 145.07 75.7203 145.226C75.8283 145.382 75.9483 145.46 76.0803 145.46C76.2963 145.46 76.5363 145.334 76.8003 145.082L77.1243 145.55ZM71.5983 145.226C71.9103 145.226 72.2163 145.148 72.5163 144.992C72.8283 144.824 73.1523 144.518 73.4883 144.074V142.004H72.1383C71.5503 142.004 71.1243 142.142 70.8603 142.418C70.5963 142.694 70.4643 143.126 70.4643 143.714C70.4643 144.194 70.5603 144.566 70.7523 144.83C70.9443 145.094 71.2263 145.226 71.5983 145.226ZM87.8358 145.496V146H84.4878V144.416C84.1518 145.028 83.7198 145.478 83.1918 145.766C82.6638 146.042 82.1298 146.18 81.5898 146.18C80.7378 146.18 80.0598 145.898 79.5558 145.334C79.0518 144.758 78.7998 143.96 78.7998 142.94V138.386C78.7998 137.978 78.7818 137.738 78.7458 137.666C78.7098 137.582 78.5958 137.528 78.4038 137.504L77.4138 137.378V136.874H80.8698V142.922C80.8698 143.75 80.9838 144.356 81.2118 144.74C81.4518 145.112 81.7938 145.298 82.2378 145.298C82.4298 145.298 82.6518 145.25 82.9038 145.154C83.1678 145.046 83.4318 144.86 83.6958 144.596C83.9598 144.32 84.1878 143.93 84.3798 143.426V138.386C84.3798 137.978 84.3618 137.732 84.3258 137.648C84.2898 137.564 84.1758 137.516 83.9838 137.504L82.6338 137.378V136.874H86.4498V144.488C86.4498 144.896 86.4678 145.142 86.5038 145.226C86.5398 145.298 86.6538 145.346 86.8458 145.37L87.8358 145.496ZM92.6498 142.598L91.4078 142.31C90.6038 142.118 90.0038 141.776 89.6078 141.284C89.2238 140.78 89.0318 140.186 89.0318 139.502C89.0318 138.998 89.1398 138.536 89.3558 138.116C89.5838 137.684 89.9378 137.342 90.4178 137.09C90.8978 136.826 91.5218 136.694 92.2898 136.694C93.1178 136.694 93.7898 136.826 94.3058 137.09C94.8218 137.354 95.1878 137.702 95.4038 138.134C95.6198 138.566 95.6858 139.028 95.6018 139.52L93.6218 139.88C93.7898 139.064 93.7418 138.434 93.4778 137.99C93.2258 137.546 92.7998 137.324 92.1998 137.324C91.7798 137.324 91.4318 137.45 91.1558 137.702C90.8798 137.942 90.7418 138.29 90.7418 138.746C90.7418 139.166 90.8618 139.538 91.1018 139.862C91.3418 140.174 91.6958 140.384 92.1638 140.492L93.4058 140.78C94.2938 140.984 94.9358 141.308 95.3318 141.752C95.7278 142.184 95.9258 142.724 95.9258 143.372C95.9258 144.176 95.6258 144.848 95.0258 145.388C94.4378 145.916 93.5558 146.18 92.3798 146.18C91.9718 146.18 91.5218 146.12 91.0298 146C90.5498 145.868 90.1058 145.634 89.6978 145.298C89.3018 144.962 89.0138 144.482 88.8338 143.858L90.0038 143.39C90.0878 144.182 90.3578 144.74 90.8138 145.064C91.2818 145.388 91.8038 145.55 92.3798 145.55C92.9198 145.55 93.3578 145.43 93.6938 145.19C94.0418 144.938 94.2158 144.578 94.2158 144.11C94.2158 143.786 94.1018 143.492 93.8738 143.228C93.6578 142.952 93.2498 142.742 92.6498 142.598ZM105.312 143.858C105.096 144.698 104.694 145.298 104.106 145.658C103.518 146.006 102.834 146.18 102.054 146.18C100.614 146.18 99.5343 145.766 98.8143 144.938C98.0943 144.098 97.7343 142.988 97.7343 141.608V141.248C97.7343 139.868 98.0703 138.764 98.7423 137.936C99.4263 137.108 100.41 136.694 101.694 136.694C102.414 136.694 103.05 136.838 103.602 137.126C104.166 137.402 104.604 137.804 104.916 138.332C105.24 138.86 105.402 139.502 105.402 140.258C105.402 140.438 105.39 140.63 105.366 140.834C105.354 141.038 105.324 141.242 105.276 141.446H99.9483V141.968C99.9483 143.24 100.128 144.158 100.488 144.722C100.848 145.274 101.43 145.55 102.234 145.55C102.75 145.55 103.188 145.4 103.548 145.1C103.908 144.788 104.112 144.266 104.16 143.534L105.312 143.858ZM101.694 137.324C101.106 137.324 100.668 137.594 100.38 138.134C100.092 138.674 99.9483 139.568 99.9483 140.816H103.206C103.254 140.576 103.284 140.354 103.296 140.15C103.32 139.934 103.332 139.736 103.332 139.556C103.332 138.788 103.182 138.224 102.882 137.864C102.582 137.504 102.186 137.324 101.694 137.324ZM117.155 144.128C116.999 144.86 116.699 145.388 116.255 145.712C115.823 146.024 115.295 146.18 114.671 146.18C114.035 146.18 113.513 146.042 113.105 145.766C112.697 145.478 112.397 145.1 112.205 144.632C112.013 144.164 111.917 143.666 111.917 143.138V138.386C111.917 137.978 111.899 137.738 111.863 137.666C111.827 137.582 111.713 137.528 111.521 137.504L110.531 137.378V136.874H111.917V134.786L113.987 134.372V136.874H116.867V137.504H113.987V143.498C113.987 144.266 114.083 144.8 114.275 145.1C114.467 145.388 114.713 145.532 115.013 145.532C115.325 145.532 115.565 145.412 115.733 145.172C115.913 144.932 116.027 144.494 116.075 143.858L117.155 144.128ZM128.325 145.496V146H123.483V145.496L124.473 145.37C124.665 145.346 124.779 145.298 124.815 145.226C124.851 145.142 124.869 144.896 124.869 144.488V139.952C124.869 139.124 124.743 138.524 124.491 138.152C124.251 137.768 123.891 137.576 123.411 137.576C123.207 137.576 122.967 137.63 122.691 137.738C122.427 137.834 122.157 138.014 121.881 138.278C121.617 138.542 121.383 138.932 121.179 139.448V144.488C121.179 144.896 121.197 145.142 121.233 145.226C121.269 145.298 121.383 145.346 121.575 145.37L122.565 145.496V146H117.723V145.496L118.713 145.37C118.905 145.346 119.019 145.298 119.055 145.226C119.091 145.142 119.109 144.896 119.109 144.488V134.192C119.109 133.784 119.091 133.544 119.055 133.472C119.019 133.388 118.905 133.334 118.713 133.31L117.723 133.184V132.68H121.179V138.278C121.527 137.726 121.959 137.324 122.475 137.072C123.003 136.82 123.531 136.694 124.059 136.694C124.947 136.694 125.649 136.976 126.165 137.54C126.681 138.104 126.939 138.902 126.939 139.934V144.488C126.939 144.896 126.957 145.142 126.993 145.226C127.029 145.298 127.143 145.346 127.335 145.37L128.325 145.496ZM137.058 143.858C136.842 144.698 136.44 145.298 135.852 145.658C135.264 146.006 134.58 146.18 133.8 146.18C132.36 146.18 131.28 145.766 130.56 144.938C129.84 144.098 129.48 142.988 129.48 141.608V141.248C129.48 139.868 129.816 138.764 130.488 137.936C131.172 137.108 132.156 136.694 133.44 136.694C134.16 136.694 134.796 136.838 135.348 137.126C135.912 137.402 136.35 137.804 136.662 138.332C136.986 138.86 137.148 139.502 137.148 140.258C137.148 140.438 137.136 140.63 137.112 140.834C137.1 141.038 137.07 141.242 137.022 141.446H131.694V141.968C131.694 143.24 131.874 144.158 132.234 144.722C132.594 145.274 133.176 145.55 133.98 145.55C134.496 145.55 134.934 145.4 135.294 145.1C135.654 144.788 135.858 144.266 135.906 143.534L137.058 143.858ZM133.44 137.324C132.852 137.324 132.414 137.594 132.126 138.134C131.838 138.674 131.694 139.568 131.694 140.816H134.952C135 140.576 135.03 140.354 135.042 140.15C135.066 139.934 135.078 139.736 135.078 139.556C135.078 138.788 134.928 138.224 134.628 137.864C134.328 137.504 133.932 137.324 133.44 137.324ZM143.156 146.9C142.88 147.656 142.574 148.262 142.238 148.718C141.914 149.174 141.512 149.504 141.032 149.708C140.552 149.912 139.952 150.014 139.232 150.014V148.034C139.964 148.034 140.552 147.98 140.996 147.872C141.452 147.776 141.8 147.614 142.04 147.386C142.292 147.17 142.478 146.888 142.598 146.54L142.778 146H141.842L139.286 138.386C139.202 138.11 139.13 137.918 139.07 137.81C139.022 137.69 138.962 137.612 138.89 137.576C138.83 137.54 138.734 137.516 138.602 137.504L137.612 137.378V136.874H142.472V137.378L141.482 137.504C141.338 137.516 141.248 137.564 141.212 137.648C141.188 137.72 141.242 137.966 141.374 138.386L143.336 144.326L145.37 138.314C145.502 137.93 145.556 137.708 145.532 137.648C145.52 137.576 145.424 137.528 145.244 137.504L144.254 137.378V136.874H147.692V137.378L146.702 137.504C146.522 137.528 146.402 137.576 146.342 137.648C146.282 137.72 146.186 137.942 146.054 138.314L143.156 146.9ZM162.514 145.496V146H157.672V145.496L158.662 145.37C158.854 145.346 158.968 145.298 159.004 145.226C159.04 145.142 159.058 144.896 159.058 144.488V139.952C159.058 139.124 158.932 138.524 158.68 138.152C158.44 137.768 158.08 137.576 157.6 137.576C157.396 137.576 157.156 137.63 156.88 137.738C156.616 137.834 156.346 138.014 156.07 138.278C155.806 138.542 155.572 138.932 155.368 139.448V144.488C155.368 144.896 155.386 145.142 155.422 145.226C155.458 145.298 155.572 145.346 155.764 145.37L156.754 145.496V146H151.912V145.496L152.902 145.37C153.094 145.346 153.208 145.298 153.244 145.226C153.28 145.142 153.298 144.896 153.298 144.488V134.192C153.298 133.784 153.28 133.544 153.244 133.472C153.208 133.388 153.094 133.334 152.902 133.31L151.912 133.184V132.68H155.368V138.278C155.716 137.726 156.148 137.324 156.664 137.072C157.192 136.82 157.72 136.694 158.248 136.694C159.136 136.694 159.838 136.976 160.354 137.54C160.87 138.104 161.128 138.902 161.128 139.934V144.488C161.128 144.896 161.146 145.142 161.182 145.226C161.218 145.298 161.332 145.346 161.524 145.37L162.514 145.496ZM172.31 145.55C172.118 145.73 171.884 145.88 171.608 146C171.344 146.12 171.02 146.18 170.636 146.18C170.144 146.18 169.73 146.072 169.394 145.856C169.07 145.64 168.854 145.334 168.746 144.938C168.35 145.37 167.912 145.688 167.432 145.892C166.964 146.084 166.484 146.18 165.992 146.18C165.164 146.18 164.546 145.952 164.138 145.496C163.73 145.028 163.526 144.446 163.526 143.75C163.526 143.042 163.784 142.472 164.3 142.04C164.816 141.596 165.728 141.374 167.036 141.374H168.674V139.916C168.674 138.92 168.542 138.242 168.278 137.882C168.026 137.51 167.672 137.324 167.216 137.324C166.916 137.324 166.64 137.402 166.388 137.558C166.136 137.702 165.956 137.978 165.848 138.386C165.752 138.782 165.77 139.358 165.902 140.114L163.922 139.826C163.826 139.274 163.886 138.764 164.102 138.296C164.33 137.816 164.708 137.432 165.236 137.144C165.764 136.844 166.436 136.694 167.252 136.694C168.176 136.694 168.89 136.844 169.394 137.144C169.898 137.444 170.246 137.84 170.438 138.332C170.642 138.824 170.744 139.352 170.744 139.916V144.074C170.744 144.686 170.798 145.07 170.906 145.226C171.014 145.382 171.134 145.46 171.266 145.46C171.482 145.46 171.722 145.334 171.986 145.082L172.31 145.55ZM166.784 145.226C167.096 145.226 167.402 145.148 167.702 144.992C168.014 144.824 168.338 144.518 168.674 144.074V142.004H167.324C166.736 142.004 166.31 142.142 166.046 142.418C165.782 142.694 165.65 143.126 165.65 143.714C165.65 144.194 165.746 144.566 165.938 144.83C166.13 145.094 166.412 145.226 166.784 145.226ZM180.103 138.386L177.547 146H175.909L173.353 138.386C173.269 138.11 173.197 137.918 173.137 137.81C173.089 137.69 173.029 137.612 172.957 137.576C172.897 137.54 172.801 137.516 172.669 137.504L171.679 137.378V136.874H176.539V137.378L175.549 137.504C175.369 137.528 175.273 137.576 175.261 137.648C175.249 137.72 175.309 137.966 175.441 138.386L177.421 144.362L179.419 138.386C179.551 137.966 179.611 137.72 179.599 137.648C179.599 137.576 179.503 137.528 179.311 137.504L178.321 137.378V136.874H181.759V137.378L180.769 137.504C180.649 137.516 180.553 137.54 180.481 137.576C180.421 137.612 180.367 137.69 180.319 137.81C180.271 137.918 180.199 138.11 180.103 138.386ZM189.564 143.858C189.348 144.698 188.946 145.298 188.358 145.658C187.77 146.006 187.086 146.18 186.306 146.18C184.866 146.18 183.786 145.766 183.066 144.938C182.346 144.098 181.986 142.988 181.986 141.608V141.248C181.986 139.868 182.322 138.764 182.994 137.936C183.678 137.108 184.662 136.694 185.946 136.694C186.666 136.694 187.302 136.838 187.854 137.126C188.418 137.402 188.856 137.804 189.168 138.332C189.492 138.86 189.654 139.502 189.654 140.258C189.654 140.438 189.642 140.63 189.618 140.834C189.606 141.038 189.576 141.242 189.528 141.446H184.2V141.968C184.2 143.24 184.38 144.158 184.74 144.722C185.1 145.274 185.682 145.55 186.486 145.55C187.002 145.55 187.44 145.4 187.8 145.1C188.16 144.788 188.364 144.266 188.412 143.534L189.564 143.858ZM185.946 137.324C185.358 137.324 184.92 137.594 184.632 138.134C184.344 138.674 184.2 139.568 184.2 140.816H187.458C187.506 140.576 187.536 140.354 187.548 140.15C187.572 139.934 187.584 139.736 187.584 139.556C187.584 138.788 187.434 138.224 187.134 137.864C186.834 137.504 186.438 137.324 185.946 137.324ZM197.123 138.674H196.673C196.673 138.11 196.625 137.642 196.529 137.27C196.445 136.898 196.343 136.58 196.223 136.316C196.115 136.04 196.013 135.788 195.917 135.56C195.833 135.332 195.791 135.086 195.791 134.822C195.791 134.438 195.893 134.138 196.097 133.922C196.313 133.694 196.577 133.58 196.889 133.58C197.201 133.58 197.459 133.694 197.663 133.922C197.879 134.138 197.987 134.438 197.987 134.822C197.987 135.086 197.945 135.332 197.861 135.56C197.777 135.788 197.675 136.04 197.555 136.316C197.447 136.58 197.345 136.898 197.249 137.27C197.165 137.642 197.123 138.11 197.123 138.674ZM200.597 138.674H200.147C200.147 138.11 200.099 137.642 200.003 137.27C199.919 136.898 199.817 136.58 199.697 136.316C199.589 136.04 199.487 135.788 199.391 135.56C199.307 135.332 199.265 135.086 199.265 134.822C199.265 134.438 199.367 134.138 199.571 133.922C199.787 133.694 200.051 133.58 200.363 133.58C200.675 133.58 200.933 133.694 201.137 133.922C201.353 134.138 201.461 134.438 201.461 134.822C201.461 135.086 201.419 135.332 201.335 135.56C201.251 135.788 201.149 136.04 201.029 136.316C200.921 136.58 200.819 136.898 200.723 137.27C200.639 137.642 200.597 138.11 200.597 138.674ZM208.287 145.496V146H203.085V145.496L204.075 145.37C204.267 145.346 204.381 145.298 204.417 145.226C204.453 145.142 204.471 144.896 204.471 144.488V138.386C204.471 137.978 204.453 137.738 204.417 137.666C204.381 137.582 204.267 137.528 204.075 137.504L203.085 137.378V136.874H204.471V135.902C204.471 135.326 204.567 134.78 204.759 134.264C204.963 133.736 205.299 133.31 205.767 132.986C206.247 132.662 206.889 132.5 207.693 132.5C208.425 132.5 209.025 132.626 209.493 132.878C209.973 133.13 210.315 133.466 210.519 133.886C210.735 134.306 210.801 134.762 210.717 135.254L208.737 135.542C208.857 134.642 208.821 134.018 208.629 133.67C208.449 133.31 208.137 133.13 207.693 133.13C207.453 133.13 207.243 133.196 207.063 133.328C206.895 133.46 206.763 133.7 206.667 134.048C206.583 134.384 206.541 134.882 206.541 135.542V136.874H209.241V137.504H206.541V144.488C206.541 144.896 206.559 145.142 206.595 145.226C206.631 145.298 206.745 145.346 206.937 145.37L208.287 145.496ZM209.624 137.378V136.874H212.972V138.35C213.704 137.246 214.574 136.694 215.582 136.694C215.954 136.694 216.314 136.814 216.662 137.054C217.01 137.282 217.298 137.714 217.526 138.35L215.924 139.214C215.756 138.722 215.558 138.392 215.33 138.224C215.114 138.044 214.88 137.954 214.628 137.954C214.364 137.954 214.106 138.038 213.854 138.206C213.602 138.374 213.344 138.686 213.08 139.142V144.488C213.08 144.896 213.098 145.142 213.134 145.226C213.17 145.298 213.284 145.346 213.476 145.37L214.826 145.496V146H209.624V145.496L210.614 145.37C210.806 145.346 210.92 145.298 210.956 145.226C210.992 145.142 211.01 144.896 211.01 144.488V138.386C211.01 137.978 210.992 137.738 210.956 137.666C210.92 137.582 210.806 137.528 210.614 137.504L209.624 137.378ZM225.793 143.858C225.577 144.698 225.175 145.298 224.587 145.658C223.999 146.006 223.315 146.18 222.535 146.18C221.095 146.18 220.015 145.766 219.295 144.938C218.575 144.098 218.215 142.988 218.215 141.608V141.248C218.215 139.868 218.551 138.764 219.223 137.936C219.907 137.108 220.891 136.694 222.175 136.694C222.895 136.694 223.531 136.838 224.083 137.126C224.647 137.402 225.085 137.804 225.397 138.332C225.721 138.86 225.883 139.502 225.883 140.258C225.883 140.438 225.871 140.63 225.847 140.834C225.835 141.038 225.805 141.242 225.757 141.446H220.429V141.968C220.429 143.24 220.609 144.158 220.969 144.722C221.329 145.274 221.911 145.55 222.715 145.55C223.231 145.55 223.669 145.4 224.029 145.1C224.389 144.788 224.593 144.266 224.641 143.534L225.793 143.858ZM222.175 137.324C221.587 137.324 221.149 137.594 220.861 138.134C220.573 138.674 220.429 139.568 220.429 140.816H223.687C223.735 140.576 223.765 140.354 223.777 140.15C223.801 139.934 223.813 139.736 223.813 139.556C223.813 138.788 223.663 138.224 223.363 137.864C223.063 137.504 222.667 137.324 222.175 137.324ZM235.32 143.858C235.104 144.698 234.702 145.298 234.114 145.658C233.526 146.006 232.842 146.18 232.062 146.18C230.622 146.18 229.542 145.766 228.822 144.938C228.102 144.098 227.742 142.988 227.742 141.608V141.248C227.742 139.868 228.078 138.764 228.75 137.936C229.434 137.108 230.418 136.694 231.702 136.694C232.422 136.694 233.058 136.838 233.61 137.126C234.174 137.402 234.612 137.804 234.924 138.332C235.248 138.86 235.41 139.502 235.41 140.258C235.41 140.438 235.398 140.63 235.374 140.834C235.362 141.038 235.332 141.242 235.284 141.446H229.956V141.968C229.956 143.24 230.136 144.158 230.496 144.722C230.856 145.274 231.438 145.55 232.242 145.55C232.758 145.55 233.196 145.4 233.556 145.1C233.916 144.788 234.12 144.266 234.168 143.534L235.32 143.858ZM231.702 137.324C231.114 137.324 230.676 137.594 230.388 138.134C230.1 138.674 229.956 139.568 229.956 140.816H233.214C233.262 140.576 233.292 140.354 233.304 140.15C233.328 139.934 233.34 139.736 233.34 139.556C233.34 138.788 233.19 138.224 232.89 137.864C232.59 137.504 232.194 137.324 231.702 137.324ZM248.873 143.858C248.657 144.698 248.255 145.298 247.667 145.658C247.079 146.006 246.395 146.18 245.615 146.18C244.175 146.18 243.095 145.766 242.375 144.938C241.655 144.098 241.295 142.988 241.295 141.608V141.248C241.295 139.868 241.631 138.764 242.303 137.936C242.987 137.108 243.971 136.694 245.255 136.694C245.975 136.694 246.611 136.838 247.163 137.126C247.727 137.402 248.165 137.804 248.477 138.332C248.801 138.86 248.963 139.502 248.963 140.258C248.963 140.438 248.951 140.63 248.927 140.834C248.915 141.038 248.885 141.242 248.837 141.446H243.509V141.968C243.509 143.24 243.689 144.158 244.049 144.722C244.409 145.274 244.991 145.55 245.795 145.55C246.311 145.55 246.749 145.4 247.109 145.1C247.469 144.788 247.673 144.266 247.721 143.534L248.873 143.858ZM245.255 137.324C244.667 137.324 244.229 137.594 243.941 138.134C243.653 138.674 243.509 139.568 243.509 140.816H246.767C246.815 140.576 246.845 140.354 246.857 140.15C246.881 139.934 246.893 139.736 246.893 139.556C246.893 138.788 246.743 138.224 246.443 137.864C246.143 137.504 245.747 137.324 245.255 137.324ZM250.156 133.184V132.68H253.612V144.488C253.612 144.896 253.63 145.142 253.666 145.226C253.702 145.298 253.816 145.346 254.008 145.37L254.998 145.496V146H250.156V145.496L251.146 145.37C251.338 145.346 251.452 145.298 251.488 145.226C251.524 145.142 251.542 144.896 251.542 144.488V134.192C251.542 133.784 251.524 133.544 251.488 133.472C251.452 133.388 251.338 133.334 251.146 133.31L250.156 133.184ZM263.814 143.858C263.598 144.698 263.196 145.298 262.608 145.658C262.02 146.006 261.336 146.18 260.556 146.18C259.116 146.18 258.036 145.766 257.316 144.938C256.596 144.098 256.236 142.988 256.236 141.608V141.248C256.236 139.868 256.572 138.764 257.244 137.936C257.928 137.108 258.912 136.694 260.196 136.694C260.916 136.694 261.552 136.838 262.104 137.126C262.668 137.402 263.106 137.804 263.418 138.332C263.742 138.86 263.904 139.502 263.904 140.258C263.904 140.438 263.892 140.63 263.868 140.834C263.856 141.038 263.826 141.242 263.778 141.446H258.45V141.968C258.45 143.24 258.63 144.158 258.99 144.722C259.35 145.274 259.932 145.55 260.736 145.55C261.252 145.55 261.69 145.4 262.05 145.1C262.41 144.788 262.614 144.266 262.662 143.534L263.814 143.858ZM260.196 137.324C259.608 137.324 259.17 137.594 258.882 138.134C258.594 138.674 258.45 139.568 258.45 140.816H261.708C261.756 140.576 261.786 140.354 261.798 140.15C261.822 139.934 261.834 139.736 261.834 139.556C261.834 138.788 261.684 138.224 261.384 137.864C261.084 137.504 260.688 137.324 260.196 137.324ZM269.688 137.324C269.112 137.324 268.68 137.6 268.392 138.152C268.116 138.692 267.978 139.604 267.978 140.888V141.968C267.978 143.24 268.14 144.158 268.464 144.722C268.788 145.274 269.316 145.55 270.048 145.55C270.588 145.55 271.026 145.4 271.362 145.1C271.71 144.788 271.908 144.266 271.956 143.534L273.108 143.858C272.892 144.698 272.496 145.298 271.92 145.658C271.356 146.006 270.69 146.18 269.922 146.18C268.542 146.18 267.504 145.766 266.808 144.938C266.112 144.098 265.764 142.988 265.764 141.608V141.248C265.764 139.868 266.1 138.764 266.772 137.936C267.444 137.108 268.416 136.694 269.688 136.694C270.528 136.694 271.212 136.862 271.74 137.198C272.28 137.522 272.658 137.954 272.874 138.494C273.102 139.022 273.162 139.592 273.054 140.204L271.074 140.492C271.206 139.484 271.152 138.704 270.912 138.152C270.672 137.6 270.264 137.324 269.688 137.324ZM280.684 144.128C280.528 144.86 280.228 145.388 279.784 145.712C279.352 146.024 278.824 146.18 278.2 146.18C277.564 146.18 277.042 146.042 276.634 145.766C276.226 145.478 275.926 145.1 275.734 144.632C275.542 144.164 275.446 143.666 275.446 143.138V138.386C275.446 137.978 275.428 137.738 275.392 137.666C275.356 137.582 275.242 137.528 275.05 137.504L274.06 137.378V136.874H275.446V134.786L277.516 134.372V136.874H280.396V137.504H277.516V143.498C277.516 144.266 277.612 144.8 277.804 145.1C277.996 145.388 278.242 145.532 278.542 145.532C278.854 145.532 279.094 145.412 279.262 145.172C279.442 144.932 279.556 144.494 279.604 143.858L280.684 144.128ZM281.378 137.378V136.874H284.726V138.35C285.458 137.246 286.328 136.694 287.336 136.694C287.708 136.694 288.068 136.814 288.416 137.054C288.764 137.282 289.052 137.714 289.28 138.35L287.678 139.214C287.51 138.722 287.312 138.392 287.084 138.224C286.868 138.044 286.634 137.954 286.382 137.954C286.118 137.954 285.86 138.038 285.608 138.206C285.356 138.374 285.098 138.686 284.834 139.142V144.488C284.834 144.896 284.852 145.142 284.888 145.226C284.924 145.298 285.038 145.346 285.23 145.37L286.58 145.496V146H281.378V145.496L282.368 145.37C282.56 145.346 282.674 145.298 282.71 145.226C282.746 145.142 282.764 144.896 282.764 144.488V138.386C282.764 137.978 282.746 137.738 282.71 137.666C282.674 137.582 282.56 137.528 282.368 137.504L281.378 137.378ZM298.195 141.248V141.608C298.195 142.988 297.835 144.098 297.115 144.938C296.407 145.766 295.393 146.18 294.073 146.18C292.753 146.18 291.733 145.766 291.013 144.938C290.305 144.098 289.951 142.988 289.951 141.608V141.248C289.951 139.868 290.305 138.764 291.013 137.936C291.733 137.108 292.753 136.694 294.073 136.694C295.393 136.694 296.407 137.108 297.115 137.936C297.835 138.764 298.195 139.868 298.195 141.248ZM295.981 140.888C295.981 139.604 295.819 138.692 295.495 138.152C295.171 137.6 294.697 137.324 294.073 137.324C293.461 137.324 292.987 137.6 292.651 138.152C292.327 138.692 292.165 139.604 292.165 140.888V141.968C292.165 143.24 292.327 144.158 292.651 144.722C292.987 145.274 293.461 145.55 294.073 145.55C294.697 145.55 295.171 145.274 295.495 144.722C295.819 144.158 295.981 143.24 295.981 141.968V140.888ZM310.138 145.496V146H305.296V145.496L306.286 145.37C306.478 145.346 306.592 145.298 306.628 145.226C306.664 145.142 306.682 144.896 306.682 144.488V139.952C306.682 139.124 306.556 138.524 306.304 138.152C306.064 137.768 305.704 137.576 305.224 137.576C305.02 137.576 304.78 137.63 304.504 137.738C304.24 137.834 303.97 138.014 303.694 138.278C303.43 138.542 303.196 138.932 302.992 139.448V144.488C302.992 144.896 303.01 145.142 303.046 145.226C303.082 145.298 303.196 145.346 303.388 145.37L304.378 145.496V146H299.536V145.496L300.526 145.37C300.718 145.346 300.832 145.298 300.868 145.226C300.904 145.142 300.922 144.896 300.922 144.488V138.386C300.922 137.978 300.904 137.738 300.868 137.666C300.832 137.582 300.718 137.528 300.526 137.504L299.536 137.378V136.874H302.884V138.458C303.232 137.846 303.676 137.402 304.216 137.126C304.768 136.838 305.32 136.694 305.872 136.694C306.76 136.694 307.462 136.976 307.978 137.54C308.494 138.104 308.752 138.902 308.752 139.934V144.488C308.752 144.896 308.77 145.142 308.806 145.226C308.842 145.298 308.956 145.346 309.148 145.37L310.138 145.496ZM314.855 142.598L313.613 142.31C312.809 142.118 312.209 141.776 311.813 141.284C311.429 140.78 311.237 140.186 311.237 139.502C311.237 138.998 311.345 138.536 311.561 138.116C311.789 137.684 312.143 137.342 312.623 137.09C313.103 136.826 313.727 136.694 314.495 136.694C315.323 136.694 315.995 136.826 316.511 137.09C317.027 137.354 317.393 137.702 317.609 138.134C317.825 138.566 317.891 139.028 317.807 139.52L315.827 139.88C315.995 139.064 315.947 138.434 315.683 137.99C315.431 137.546 315.005 137.324 314.405 137.324C313.985 137.324 313.637 137.45 313.361 137.702C313.085 137.942 312.947 138.29 312.947 138.746C312.947 139.166 313.067 139.538 313.307 139.862C313.547 140.174 313.901 140.384 314.369 140.492L315.611 140.78C316.499 140.984 317.141 141.308 317.537 141.752C317.933 142.184 318.131 142.724 318.131 143.372C318.131 144.176 317.831 144.848 317.231 145.388C316.643 145.916 315.761 146.18 314.585 146.18C314.177 146.18 313.727 146.12 313.235 146C312.755 145.868 312.311 145.634 311.903 145.298C311.507 144.962 311.219 144.482 311.039 143.858L312.209 143.39C312.293 144.182 312.563 144.74 313.019 145.064C313.487 145.388 314.009 145.55 314.585 145.55C315.125 145.55 315.563 145.43 315.899 145.19C316.247 144.938 316.421 144.578 316.421 144.11C316.421 143.786 316.307 143.492 316.079 143.228C315.863 142.952 315.455 142.742 314.855 142.598ZM320.891 138.674H320.441C320.441 138.11 320.393 137.642 320.297 137.27C320.213 136.898 320.111 136.58 319.991 136.316C319.883 136.04 319.781 135.788 319.685 135.56C319.601 135.332 319.559 135.086 319.559 134.822C319.559 134.438 319.661 134.138 319.865 133.922C320.081 133.694 320.345 133.58 320.657 133.58C320.969 133.58 321.227 133.694 321.431 133.922C321.647 134.138 321.755 134.438 321.755 134.822C321.755 135.086 321.713 135.332 321.629 135.56C321.545 135.788 321.443 136.04 321.323 136.316C321.215 136.58 321.113 136.898 321.017 137.27C320.933 137.642 320.891 138.11 320.891 138.674ZM324.365 138.674H323.915C323.915 138.11 323.867 137.642 323.771 137.27C323.687 136.898 323.585 136.58 323.465 136.316C323.357 136.04 323.255 135.788 323.159 135.56C323.075 135.332 323.033 135.086 323.033 134.822C323.033 134.438 323.135 134.138 323.339 133.922C323.555 133.694 323.819 133.58 324.131 133.58C324.443 133.58 324.701 133.694 324.905 133.922C325.121 134.138 325.229 134.438 325.229 134.822C325.229 135.086 325.187 135.332 325.103 135.56C325.019 135.788 324.917 136.04 324.797 136.316C324.689 136.58 324.587 136.898 324.491 137.27C324.407 137.642 324.365 138.11 324.365 138.674ZM77.6658 166.128C77.5098 166.86 77.2098 167.388 76.7658 167.712C76.3338 168.024 75.8058 168.18 75.1818 168.18C74.5458 168.18 74.0238 168.042 73.6158 167.766C73.2078 167.478 72.9078 167.1 72.7158 166.632C72.5238 166.164 72.4278 165.666 72.4278 165.138V160.386C72.4278 159.978 72.4098 159.738 72.3738 159.666C72.3378 159.582 72.2238 159.528 72.0317 159.504L71.0418 159.378V158.874H72.4278V156.786L74.4978 156.372V158.874H77.3778V159.504H74.4978V165.498C74.4978 166.266 74.5938 166.8 74.7858 167.1C74.9778 167.388 75.2238 167.532 75.5238 167.532C75.8358 167.532 76.0758 167.412 76.2438 167.172C76.4238 166.932 76.5378 166.494 76.5858 165.858L77.6658 166.128ZM88.8353 167.496V168H83.9933V167.496L84.9833 167.37C85.1753 167.346 85.2893 167.298 85.3253 167.226C85.3613 167.142 85.3793 166.896 85.3793 166.488V161.952C85.3793 161.124 85.2533 160.524 85.0013 160.152C84.7613 159.768 84.4013 159.576 83.9213 159.576C83.7173 159.576 83.4773 159.63 83.2013 159.738C82.9373 159.834 82.6673 160.014 82.3913 160.278C82.1273 160.542 81.8933 160.932 81.6893 161.448V166.488C81.6893 166.896 81.7073 167.142 81.7433 167.226C81.7793 167.298 81.8933 167.346 82.0853 167.37L83.0753 167.496V168H78.2333V167.496L79.2233 167.37C79.4153 167.346 79.5293 167.298 79.5653 167.226C79.6013 167.142 79.6193 166.896 79.6193 166.488V156.192C79.6193 155.784 79.6013 155.544 79.5653 155.472C79.5293 155.388 79.4153 155.334 79.2233 155.31L78.2333 155.184V154.68H81.6893V160.278C82.0373 159.726 82.4693 159.324 82.9853 159.072C83.5133 158.82 84.0413 158.694 84.5693 158.694C85.4573 158.694 86.1593 158.976 86.6753 159.54C87.1913 160.104 87.4493 160.902 87.4493 161.934V166.488C87.4493 166.896 87.4673 167.142 87.5033 167.226C87.5393 167.298 87.6533 167.346 87.8453 167.37L88.8353 167.496ZM98.6311 167.55C98.4391 167.73 98.2051 167.88 97.9291 168C97.6651 168.12 97.3411 168.18 96.9571 168.18C96.4651 168.18 96.0511 168.072 95.7151 167.856C95.3911 167.64 95.1751 167.334 95.0671 166.938C94.6711 167.37 94.2331 167.688 93.7531 167.892C93.2851 168.084 92.8051 168.18 92.3131 168.18C91.4851 168.18 90.8671 167.952 90.4591 167.496C90.0511 167.028 89.8471 166.446 89.8471 165.75C89.8471 165.042 90.1051 164.472 90.6211 164.04C91.1371 163.596 92.0491 163.374 93.3571 163.374H94.9951V161.916C94.9951 160.92 94.8631 160.242 94.5991 159.882C94.3471 159.51 93.9931 159.324 93.5371 159.324C93.2371 159.324 92.9611 159.402 92.7091 159.558C92.4571 159.702 92.2771 159.978 92.1691 160.386C92.0731 160.782 92.0911 161.358 92.2231 162.114L90.2431 161.826C90.1471 161.274 90.2071 160.764 90.4231 160.296C90.6511 159.816 91.0291 159.432 91.5571 159.144C92.0851 158.844 92.7571 158.694 93.5731 158.694C94.4971 158.694 95.2111 158.844 95.7151 159.144C96.2191 159.444 96.5671 159.84 96.7591 160.332C96.9631 160.824 97.0651 161.352 97.0651 161.916V166.074C97.0651 166.686 97.1191 167.07 97.2271 167.226C97.3351 167.382 97.4551 167.46 97.5871 167.46C97.8031 167.46 98.0431 167.334 98.3071 167.082L98.6311 167.55ZM93.1051 167.226C93.4171 167.226 93.7231 167.148 94.0231 166.992C94.3351 166.824 94.6591 166.518 94.9951 166.074V164.004H93.6451C93.0571 164.004 92.6311 164.142 92.3671 164.418C92.1031 164.694 91.9711 165.126 91.9711 165.714C91.9711 166.194 92.0671 166.566 92.2591 166.83C92.4511 167.094 92.7331 167.226 93.1051 167.226ZM105.545 166.128C105.389 166.86 105.089 167.388 104.645 167.712C104.213 168.024 103.685 168.18 103.061 168.18C102.425 168.18 101.903 168.042 101.495 167.766C101.087 167.478 100.787 167.1 100.595 166.632C100.403 166.164 100.307 165.666 100.307 165.138V160.386C100.307 159.978 100.289 159.738 100.253 159.666C100.217 159.582 100.103 159.528 99.9107 159.504L98.9207 159.378V158.874H100.307V156.786L102.377 156.372V158.874H105.257V159.504H102.377V165.498C102.377 166.266 102.473 166.8 102.665 167.1C102.857 167.388 103.103 167.532 103.403 167.532C103.715 167.532 103.955 167.412 104.123 167.172C104.303 166.932 104.417 166.494 104.465 165.858L105.545 166.128ZM119.444 167.55C119.252 167.73 119.018 167.88 118.742 168C118.478 168.12 118.154 168.18 117.77 168.18C117.278 168.18 116.864 168.072 116.528 167.856C116.204 167.64 115.988 167.334 115.88 166.938C115.484 167.37 115.046 167.688 114.566 167.892C114.098 168.084 113.618 168.18 113.126 168.18C112.298 168.18 111.68 167.952 111.272 167.496C110.864 167.028 110.66 166.446 110.66 165.75C110.66 165.042 110.918 164.472 111.434 164.04C111.95 163.596 112.862 163.374 114.17 163.374H115.808V161.916C115.808 160.92 115.676 160.242 115.412 159.882C115.16 159.51 114.806 159.324 114.35 159.324C114.05 159.324 113.774 159.402 113.522 159.558C113.27 159.702 113.09 159.978 112.982 160.386C112.886 160.782 112.904 161.358 113.036 162.114L111.056 161.826C110.96 161.274 111.02 160.764 111.236 160.296C111.464 159.816 111.842 159.432 112.37 159.144C112.898 158.844 113.57 158.694 114.386 158.694C115.31 158.694 116.024 158.844 116.528 159.144C117.032 159.444 117.38 159.84 117.572 160.332C117.776 160.824 117.878 161.352 117.878 161.916V166.074C117.878 166.686 117.932 167.07 118.04 167.226C118.148 167.382 118.268 167.46 118.4 167.46C118.616 167.46 118.856 167.334 119.12 167.082L119.444 167.55ZM113.918 167.226C114.23 167.226 114.536 167.148 114.836 166.992C115.148 166.824 115.472 166.518 115.808 166.074V164.004H114.458C113.87 164.004 113.444 164.142 113.18 164.418C112.916 164.694 112.784 165.126 112.784 165.714C112.784 166.194 112.88 166.566 113.072 166.83C113.264 167.094 113.546 167.226 113.918 167.226ZM119.823 155.184V154.68H123.279V166.488C123.279 166.896 123.297 167.142 123.333 167.226C123.369 167.298 123.483 167.346 123.675 167.37L124.665 167.496V168H119.823V167.496L120.813 167.37C121.005 167.346 121.119 167.298 121.155 167.226C121.191 167.142 121.209 166.896 121.209 166.488V156.192C121.209 155.784 121.191 155.544 121.155 155.472C121.119 155.388 121.005 155.334 120.813 155.31L119.823 155.184ZM125.237 155.184V154.68H128.693V166.488C128.693 166.896 128.711 167.142 128.747 167.226C128.783 167.298 128.897 167.346 129.089 167.37L130.079 167.496V168H125.237V167.496L126.227 167.37C126.419 167.346 126.533 167.298 126.569 167.226C126.605 167.142 126.623 166.896 126.623 166.488V156.192C126.623 155.784 126.605 155.544 126.569 155.472C126.533 155.388 126.419 155.334 126.227 155.31L125.237 155.184ZM139.543 163.248V163.608C139.543 164.988 139.183 166.098 138.463 166.938C137.755 167.766 136.741 168.18 135.421 168.18C134.101 168.18 133.081 167.766 132.361 166.938C131.653 166.098 131.299 164.988 131.299 163.608V163.248C131.299 161.868 131.653 160.764 132.361 159.936C133.081 159.108 134.101 158.694 135.421 158.694C136.741 158.694 137.755 159.108 138.463 159.936C139.183 160.764 139.543 161.868 139.543 163.248ZM137.329 162.888C137.329 161.604 137.167 160.692 136.843 160.152C136.519 159.6 136.045 159.324 135.421 159.324C134.809 159.324 134.335 159.6 133.999 160.152C133.675 160.692 133.513 161.604 133.513 162.888V163.968C133.513 165.24 133.675 166.158 133.999 166.722C134.335 167.274 134.809 167.55 135.421 167.55C136.045 167.55 136.519 167.274 136.843 166.722C137.167 166.158 137.329 165.24 137.329 163.968V162.888ZM152.884 160.386L150.922 168H149.284L147.124 160.764L144.946 168H143.452L141.508 160.386C141.436 160.11 141.376 159.918 141.328 159.81C141.292 159.69 141.244 159.612 141.184 159.576C141.124 159.54 141.034 159.516 140.914 159.504L139.924 159.378V158.874H144.712V159.378L143.722 159.504C143.53 159.528 143.422 159.582 143.398 159.666C143.374 159.738 143.416 159.978 143.524 160.386L144.928 165.804L146.998 158.874H148.582L150.724 166.11L152.182 160.386C152.29 159.978 152.332 159.738 152.308 159.666C152.284 159.582 152.176 159.528 151.984 159.504L150.994 159.378V158.874H154.468V159.378L153.478 159.504C153.358 159.516 153.268 159.54 153.208 159.576C153.148 159.612 153.094 159.69 153.046 159.81C153.01 159.918 152.956 160.11 152.884 160.386ZM166.932 165.858C166.716 166.698 166.314 167.298 165.726 167.658C165.138 168.006 164.454 168.18 163.674 168.18C162.234 168.18 161.154 167.766 160.434 166.938C159.714 166.098 159.354 164.988 159.354 163.608V163.248C159.354 161.868 159.69 160.764 160.362 159.936C161.046 159.108 162.03 158.694 163.314 158.694C164.034 158.694 164.67 158.838 165.222 159.126C165.786 159.402 166.224 159.804 166.536 160.332C166.86 160.86 167.022 161.502 167.022 162.258C167.022 162.438 167.01 162.63 166.986 162.834C166.974 163.038 166.944 163.242 166.896 163.446H161.568V163.968C161.568 165.24 161.748 166.158 162.108 166.722C162.468 167.274 163.05 167.55 163.854 167.55C164.37 167.55 164.808 167.4 165.168 167.1C165.528 166.788 165.732 166.266 165.78 165.534L166.932 165.858ZM163.314 159.324C162.726 159.324 162.288 159.594 162 160.134C161.712 160.674 161.568 161.568 161.568 162.816H164.826C164.874 162.576 164.904 162.354 164.916 162.15C164.94 161.934 164.952 161.736 164.952 161.556C164.952 160.788 164.802 160.224 164.502 159.864C164.202 159.504 163.806 159.324 163.314 159.324ZM168.216 155.184V154.68H171.672V166.488C171.672 166.896 171.69 167.142 171.726 167.226C171.762 167.298 171.876 167.346 172.068 167.37L173.058 167.496V168H168.216V167.496L169.206 167.37C169.398 167.346 169.512 167.298 169.548 167.226C169.584 167.142 169.602 166.896 169.602 166.488V156.192C169.602 155.784 169.584 155.544 169.548 155.472C169.512 155.388 169.398 155.334 169.206 155.31L168.216 155.184ZM181.874 165.858C181.658 166.698 181.256 167.298 180.668 167.658C180.08 168.006 179.396 168.18 178.616 168.18C177.176 168.18 176.096 167.766 175.376 166.938C174.656 166.098 174.296 164.988 174.296 163.608V163.248C174.296 161.868 174.632 160.764 175.304 159.936C175.988 159.108 176.972 158.694 178.256 158.694C178.976 158.694 179.612 158.838 180.164 159.126C180.728 159.402 181.166 159.804 181.478 160.332C181.802 160.86 181.964 161.502 181.964 162.258C181.964 162.438 181.952 162.63 181.928 162.834C181.916 163.038 181.886 163.242 181.838 163.446H176.51V163.968C176.51 165.24 176.69 166.158 177.05 166.722C177.41 167.274 177.992 167.55 178.796 167.55C179.312 167.55 179.75 167.4 180.11 167.1C180.47 166.788 180.674 166.266 180.722 165.534L181.874 165.858ZM178.256 159.324C177.668 159.324 177.23 159.594 176.942 160.134C176.654 160.674 176.51 161.568 176.51 162.816H179.768C179.816 162.576 179.846 162.354 179.858 162.15C179.882 161.934 179.894 161.736 179.894 161.556C179.894 160.788 179.744 160.224 179.444 159.864C179.144 159.504 178.748 159.324 178.256 159.324ZM187.747 159.324C187.171 159.324 186.739 159.6 186.451 160.152C186.175 160.692 186.037 161.604 186.037 162.888V163.968C186.037 165.24 186.199 166.158 186.523 166.722C186.847 167.274 187.375 167.55 188.107 167.55C188.647 167.55 189.085 167.4 189.421 167.1C189.769 166.788 189.967 166.266 190.015 165.534L191.167 165.858C190.951 166.698 190.555 167.298 189.979 167.658C189.415 168.006 188.749 168.18 187.981 168.18C186.601 168.18 185.563 167.766 184.867 166.938C184.171 166.098 183.823 164.988 183.823 163.608V163.248C183.823 161.868 184.159 160.764 184.831 159.936C185.503 159.108 186.475 158.694 187.747 158.694C188.587 158.694 189.271 158.862 189.799 159.198C190.339 159.522 190.717 159.954 190.933 160.494C191.161 161.022 191.221 161.592 191.113 162.204L189.133 162.492C189.265 161.484 189.211 160.704 188.971 160.152C188.731 159.6 188.323 159.324 187.747 159.324ZM198.744 166.128C198.588 166.86 198.288 167.388 197.844 167.712C197.412 168.024 196.884 168.18 196.26 168.18C195.624 168.18 195.102 168.042 194.694 167.766C194.286 167.478 193.986 167.1 193.794 166.632C193.602 166.164 193.506 165.666 193.506 165.138V160.386C193.506 159.978 193.488 159.738 193.452 159.666C193.416 159.582 193.302 159.528 193.11 159.504L192.12 159.378V158.874H193.506V156.786L195.576 156.372V158.874H198.456V159.504H195.576V165.498C195.576 166.266 195.672 166.8 195.864 167.1C196.056 167.388 196.302 167.532 196.602 167.532C196.914 167.532 197.154 167.412 197.322 167.172C197.502 166.932 197.616 166.494 197.664 165.858L198.744 166.128ZM199.437 159.378V158.874H202.785V160.35C203.517 159.246 204.387 158.694 205.395 158.694C205.767 158.694 206.127 158.814 206.475 159.054C206.823 159.282 207.111 159.714 207.339 160.35L205.737 161.214C205.569 160.722 205.371 160.392 205.143 160.224C204.927 160.044 204.693 159.954 204.441 159.954C204.177 159.954 203.919 160.038 203.667 160.206C203.415 160.374 203.157 160.686 202.893 161.142V166.488C202.893 166.896 202.911 167.142 202.947 167.226C202.983 167.298 203.097 167.346 203.289 167.37L204.639 167.496V168H199.437V167.496L200.427 167.37C200.619 167.346 200.733 167.298 200.769 167.226C200.805 167.142 200.823 166.896 200.823 166.488V160.386C200.823 159.978 200.805 159.738 200.769 159.666C200.733 159.582 200.619 159.528 200.427 159.504L199.437 159.378ZM210.164 157.326C209.792 157.326 209.492 157.212 209.264 156.984C209.036 156.744 208.922 156.438 208.922 156.066C208.922 155.694 209.036 155.394 209.264 155.166C209.492 154.938 209.792 154.824 210.164 154.824C210.524 154.824 210.824 154.938 211.064 155.166C211.304 155.394 211.424 155.694 211.424 156.066C211.424 156.438 211.304 156.744 211.064 156.984C210.824 157.212 210.524 157.326 210.164 157.326ZM207.752 159.378V158.874H211.208V166.488C211.208 166.896 211.226 167.142 211.262 167.226C211.298 167.298 211.412 167.346 211.604 167.37L212.594 167.496V168H207.752V167.496L208.742 167.37C208.934 167.346 209.048 167.298 209.084 167.226C209.12 167.142 209.138 166.896 209.138 166.488V160.386C209.138 159.978 209.12 159.738 209.084 159.666C209.048 159.582 208.934 159.528 208.742 159.504L207.752 159.378ZM217.753 159.324C217.177 159.324 216.745 159.6 216.457 160.152C216.181 160.692 216.043 161.604 216.043 162.888V163.968C216.043 165.24 216.205 166.158 216.529 166.722C216.853 167.274 217.381 167.55 218.113 167.55C218.653 167.55 219.091 167.4 219.427 167.1C219.775 166.788 219.973 166.266 220.021 165.534L221.173 165.858C220.957 166.698 220.561 167.298 219.985 167.658C219.421 168.006 218.755 168.18 217.987 168.18C216.607 168.18 215.569 167.766 214.873 166.938C214.177 166.098 213.829 164.988 213.829 163.608V163.248C213.829 161.868 214.165 160.764 214.837 159.936C215.509 159.108 216.481 158.694 217.753 158.694C218.593 158.694 219.277 158.862 219.805 159.198C220.345 159.522 220.723 159.954 220.939 160.494C221.167 161.022 221.227 161.592 221.119 162.204L219.139 162.492C219.271 161.484 219.217 160.704 218.977 160.152C218.737 159.6 218.329 159.324 217.753 159.324ZM224.754 157.326C224.382 157.326 224.082 157.212 223.854 156.984C223.626 156.744 223.512 156.438 223.512 156.066C223.512 155.694 223.626 155.394 223.854 155.166C224.082 154.938 224.382 154.824 224.754 154.824C225.114 154.824 225.414 154.938 225.654 155.166C225.894 155.394 226.014 155.694 226.014 156.066C226.014 156.438 225.894 156.744 225.654 156.984C225.414 157.212 225.114 157.326 224.754 157.326ZM222.342 159.378V158.874H225.798V166.488C225.798 166.896 225.816 167.142 225.852 167.226C225.888 167.298 226.002 167.346 226.194 167.37L227.184 167.496V168H222.342V167.496L223.332 167.37C223.524 167.346 223.638 167.298 223.674 167.226C223.71 167.142 223.728 166.896 223.728 166.488V160.386C223.728 159.978 223.71 159.738 223.674 159.666C223.638 159.582 223.524 159.528 223.332 159.504L222.342 159.378ZM234.287 166.128C234.131 166.86 233.831 167.388 233.387 167.712C232.955 168.024 232.427 168.18 231.803 168.18C231.167 168.18 230.645 168.042 230.237 167.766C229.829 167.478 229.529 167.1 229.337 166.632C229.145 166.164 229.049 165.666 229.049 165.138V160.386C229.049 159.978 229.031 159.738 228.995 159.666C228.959 159.582 228.845 159.528 228.653 159.504L227.663 159.378V158.874H229.049V156.786L231.119 156.372V158.874H233.999V159.504H231.119V165.498C231.119 166.266 231.215 166.8 231.407 167.1C231.599 167.388 231.845 167.532 232.145 167.532C232.457 167.532 232.697 167.412 232.865 167.172C233.045 166.932 233.159 166.494 233.207 165.858L234.287 166.128ZM240.02 168.9C239.744 169.656 239.438 170.262 239.102 170.718C238.778 171.174 238.376 171.504 237.896 171.708C237.416 171.912 236.816 172.014 236.096 172.014V170.034C236.828 170.034 237.416 169.98 237.86 169.872C238.316 169.776 238.664 169.614 238.904 169.386C239.156 169.17 239.342 168.888 239.462 168.54L239.642 168H238.706L236.15 160.386C236.066 160.11 235.994 159.918 235.934 159.81C235.886 159.69 235.826 159.612 235.754 159.576C235.694 159.54 235.598 159.516 235.466 159.504L234.476 159.378V158.874H239.336V159.378L238.346 159.504C238.202 159.516 238.112 159.564 238.076 159.648C238.052 159.72 238.106 159.966 238.238 160.386L240.2 166.326L242.234 160.314C242.366 159.93 242.42 159.708 242.396 159.648C242.384 159.576 242.288 159.528 242.108 159.504L241.118 159.378V158.874H244.556V159.378L243.566 159.504C243.386 159.528 243.266 159.576 243.206 159.648C243.146 159.72 243.05 159.942 242.918 160.314L240.02 168.9ZM255.31 166.128C255.154 166.86 254.854 167.388 254.41 167.712C253.978 168.024 253.45 168.18 252.826 168.18C252.19 168.18 251.668 168.042 251.26 167.766C250.852 167.478 250.552 167.1 250.36 166.632C250.168 166.164 250.072 165.666 250.072 165.138V160.386C250.072 159.978 250.054 159.738 250.018 159.666C249.982 159.582 249.868 159.528 249.676 159.504L248.686 159.378V158.874H250.072V156.786L252.142 156.372V158.874H255.022V159.504H252.142V165.498C252.142 166.266 252.238 166.8 252.43 167.1C252.622 167.388 252.868 167.532 253.168 167.532C253.48 167.532 253.72 167.412 253.888 167.172C254.068 166.932 254.182 166.494 254.23 165.858L255.31 166.128ZM264.77 163.248V163.608C264.77 164.988 264.41 166.098 263.69 166.938C262.982 167.766 261.968 168.18 260.648 168.18C259.328 168.18 258.308 167.766 257.588 166.938C256.88 166.098 256.526 164.988 256.526 163.608V163.248C256.526 161.868 256.88 160.764 257.588 159.936C258.308 159.108 259.328 158.694 260.648 158.694C261.968 158.694 262.982 159.108 263.69 159.936C264.41 160.764 264.77 161.868 264.77 163.248ZM262.556 162.888C262.556 161.604 262.394 160.692 262.07 160.152C261.746 159.6 261.272 159.324 260.648 159.324C260.036 159.324 259.562 159.6 259.226 160.152C258.902 160.692 258.74 161.604 258.74 162.888V163.968C258.74 165.24 258.902 166.158 259.226 166.722C259.562 167.274 260.036 167.55 260.648 167.55C261.272 167.55 261.746 167.274 262.07 166.722C262.394 166.158 262.556 165.24 262.556 163.968V162.888ZM276.869 165.264H277.373V168H270.407V167.55L274.925 159.504H272.585C272.309 159.504 272.105 159.516 271.973 159.54C271.853 159.552 271.775 159.594 271.739 159.666C271.703 159.726 271.661 159.828 271.613 159.972L271.127 161.61H270.623V158.874H277.193V159.324L272.675 167.37H275.411C275.699 167.37 275.903 167.364 276.023 167.352C276.143 167.328 276.221 167.286 276.257 167.226C276.305 167.154 276.347 167.046 276.383 166.902L276.869 165.264ZM280.916 157.326C280.544 157.326 280.244 157.212 280.016 156.984C279.788 156.744 279.674 156.438 279.674 156.066C279.674 155.694 279.788 155.394 280.016 155.166C280.244 154.938 280.544 154.824 280.916 154.824C281.276 154.824 281.576 154.938 281.816 155.166C282.056 155.394 282.176 155.694 282.176 156.066C282.176 156.438 282.056 156.744 281.816 156.984C281.576 157.212 281.276 157.326 280.916 157.326ZM278.504 159.378V158.874H281.96V166.488C281.96 166.896 281.978 167.142 282.014 167.226C282.05 167.298 282.164 167.346 282.356 167.37L283.346 167.496V168H278.504V167.496L279.494 167.37C279.686 167.346 279.8 167.298 279.836 167.226C279.872 167.142 279.89 166.896 279.89 166.488V160.386C279.89 159.978 279.872 159.738 279.836 159.666C279.8 159.582 279.686 159.528 279.494 159.504L278.504 159.378ZM283.915 159.378V158.874H287.263V160.368C287.611 159.804 287.989 159.384 288.397 159.108C288.805 158.832 289.291 158.694 289.855 158.694C290.863 158.694 291.661 159.096 292.249 159.9C292.849 160.692 293.149 161.808 293.149 163.248V163.608C293.149 165 292.807 166.11 292.123 166.938C291.439 167.766 290.491 168.18 289.279 168.18C288.559 168.18 287.923 168 287.371 167.64V170.322C287.371 170.73 287.389 170.97 287.425 171.042C287.461 171.126 287.575 171.18 287.767 171.204L289.117 171.33V171.834H283.915V171.33L284.905 171.204C285.097 171.18 285.211 171.126 285.247 171.042C285.283 170.97 285.301 170.73 285.301 170.322V160.386C285.301 159.978 285.283 159.738 285.247 159.666C285.211 159.582 285.097 159.528 284.905 159.504L283.915 159.378ZM289.387 159.486C289.087 159.486 288.769 159.612 288.433 159.864C288.109 160.104 287.755 160.602 287.371 161.358V166.794C287.827 167.25 288.385 167.478 289.045 167.478C289.717 167.478 290.197 167.184 290.485 166.596C290.785 165.996 290.935 165.18 290.935 164.148V162.708C290.935 161.592 290.797 160.776 290.521 160.26C290.245 159.744 289.867 159.486 289.387 159.486ZM128.88 188.128C128.724 188.86 128.424 189.388 127.98 189.712C127.548 190.024 127.02 190.18 126.396 190.18C125.76 190.18 125.238 190.042 124.83 189.766C124.422 189.478 124.122 189.1 123.93 188.632C123.738 188.164 123.642 187.666 123.642 187.138V182.386C123.642 181.978 123.624 181.738 123.588 181.666C123.552 181.582 123.438 181.528 123.246 181.504L122.256 181.378V180.874H123.642V178.786L125.712 178.372V180.874H128.592V181.504H125.712V187.498C125.712 188.266 125.808 188.8 126 189.1C126.192 189.388 126.438 189.532 126.738 189.532C127.05 189.532 127.29 189.412 127.458 189.172C127.638 188.932 127.752 188.494 127.8 187.858L128.88 188.128ZM140.049 189.496V190H135.207V189.496L136.197 189.37C136.389 189.346 136.503 189.298 136.539 189.226C136.575 189.142 136.593 188.896 136.593 188.488V183.952C136.593 183.124 136.467 182.524 136.215 182.152C135.975 181.768 135.615 181.576 135.135 181.576C134.931 181.576 134.691 181.63 134.415 181.738C134.151 181.834 133.881 182.014 133.605 182.278C133.341 182.542 133.107 182.932 132.903 183.448V188.488C132.903 188.896 132.921 189.142 132.957 189.226C132.993 189.298 133.107 189.346 133.299 189.37L134.289 189.496V190H129.447V189.496L130.437 189.37C130.629 189.346 130.743 189.298 130.779 189.226C130.815 189.142 130.833 188.896 130.833 188.488V178.192C130.833 177.784 130.815 177.544 130.779 177.472C130.743 177.388 130.629 177.334 130.437 177.31L129.447 177.184V176.68H132.903V182.278C133.251 181.726 133.683 181.324 134.199 181.072C134.727 180.82 135.255 180.694 135.783 180.694C136.671 180.694 137.373 180.976 137.889 181.54C138.405 182.104 138.663 182.902 138.663 183.934V188.488C138.663 188.896 138.681 189.142 138.717 189.226C138.753 189.298 138.867 189.346 139.059 189.37L140.049 189.496ZM140.665 181.378V180.874H144.013V182.35C144.745 181.246 145.615 180.694 146.623 180.694C146.995 180.694 147.355 180.814 147.703 181.054C148.051 181.282 148.339 181.714 148.567 182.35L146.965 183.214C146.797 182.722 146.599 182.392 146.371 182.224C146.155 182.044 145.921 181.954 145.669 181.954C145.405 181.954 145.147 182.038 144.895 182.206C144.643 182.374 144.385 182.686 144.121 183.142V188.488C144.121 188.896 144.139 189.142 144.175 189.226C144.211 189.298 144.325 189.346 144.517 189.37L145.867 189.496V190H140.665V189.496L141.655 189.37C141.847 189.346 141.961 189.298 141.997 189.226C142.033 189.142 142.051 188.896 142.051 188.488V182.386C142.051 181.978 142.033 181.738 141.997 181.666C141.961 181.582 141.847 181.528 141.655 181.504L140.665 181.378ZM157.482 185.248V185.608C157.482 186.988 157.122 188.098 156.402 188.938C155.694 189.766 154.68 190.18 153.36 190.18C152.04 190.18 151.02 189.766 150.3 188.938C149.592 188.098 149.238 186.988 149.238 185.608V185.248C149.238 183.868 149.592 182.764 150.3 181.936C151.02 181.108 152.04 180.694 153.36 180.694C154.68 180.694 155.694 181.108 156.402 181.936C157.122 182.764 157.482 183.868 157.482 185.248ZM155.268 184.888C155.268 183.604 155.106 182.692 154.782 182.152C154.458 181.6 153.984 181.324 153.36 181.324C152.748 181.324 152.274 181.6 151.938 182.152C151.614 182.692 151.452 183.604 151.452 184.888V185.968C151.452 187.24 151.614 188.158 151.938 188.722C152.274 189.274 152.748 189.55 153.36 189.55C153.984 189.55 154.458 189.274 154.782 188.722C155.106 188.158 155.268 187.24 155.268 185.968V184.888ZM169.029 189.496V190H165.681V188.416C165.345 189.028 164.913 189.478 164.385 189.766C163.857 190.042 163.323 190.18 162.783 190.18C161.931 190.18 161.253 189.898 160.749 189.334C160.245 188.758 159.993 187.96 159.993 186.94V182.386C159.993 181.978 159.975 181.738 159.939 181.666C159.903 181.582 159.789 181.528 159.597 181.504L158.607 181.378V180.874H162.063V186.922C162.063 187.75 162.177 188.356 162.405 188.74C162.645 189.112 162.987 189.298 163.431 189.298C163.623 189.298 163.845 189.25 164.097 189.154C164.361 189.046 164.625 188.86 164.889 188.596C165.153 188.32 165.381 187.93 165.573 187.426V182.386C165.573 181.978 165.555 181.732 165.519 181.648C165.483 181.564 165.369 181.516 165.177 181.504L163.827 181.378V180.874H167.643V188.488C167.643 188.896 167.661 189.142 167.697 189.226C167.733 189.298 167.847 189.346 168.039 189.37L169.029 189.496ZM178.523 190.936C178.523 191.92 178.151 192.676 177.407 193.204C176.675 193.744 175.667 194.014 174.383 194.014C172.967 194.014 171.911 193.78 171.215 193.312C170.519 192.856 170.141 192.286 170.081 191.602L172.007 191.296C171.959 191.932 172.109 192.436 172.457 192.808C172.817 193.192 173.459 193.384 174.383 193.384C175.247 193.384 175.943 193.222 176.471 192.898C177.011 192.574 177.281 192.106 177.281 191.494C177.281 191.062 177.119 190.732 176.795 190.504C176.483 190.288 175.961 190.18 175.229 190.18H173.177C172.541 190.18 172.037 190.09 171.665 189.91C171.305 189.73 171.053 189.508 170.909 189.244C170.765 188.968 170.693 188.686 170.693 188.398C170.693 188.05 170.789 187.708 170.981 187.372C171.173 187.024 171.503 186.682 171.971 186.346C171.455 186.118 171.035 185.782 170.711 185.338C170.387 184.894 170.225 184.342 170.225 183.682C170.225 183.01 170.381 182.458 170.693 182.026C171.005 181.582 171.425 181.252 171.953 181.036C172.481 180.808 173.069 180.694 173.717 180.694H174.023C174.719 180.694 175.319 180.808 175.823 181.036L178.415 179.758L178.631 181.522H176.579C176.867 181.774 177.089 182.08 177.245 182.44C177.413 182.788 177.497 183.202 177.497 183.682C177.497 184.33 177.341 184.876 177.029 185.32C176.717 185.764 176.297 186.1 175.769 186.328C175.253 186.556 174.671 186.67 174.023 186.67H173.717C173.357 186.67 173.003 186.634 172.655 186.562C172.355 186.766 172.145 186.964 172.025 187.156C171.917 187.336 171.863 187.51 171.863 187.678C171.863 187.87 171.947 188.014 172.115 188.11C172.295 188.206 172.583 188.254 172.979 188.254H175.319C176.351 188.254 177.143 188.488 177.695 188.956C178.247 189.412 178.523 190.072 178.523 190.936ZM174.023 186.04C174.407 186.04 174.737 185.872 175.013 185.536C175.289 185.2 175.427 184.582 175.427 183.682C175.427 182.782 175.289 182.164 175.013 181.828C174.737 181.492 174.407 181.324 174.023 181.324H173.717C173.333 181.324 172.997 181.492 172.709 181.828C172.433 182.164 172.295 182.782 172.295 183.682C172.295 184.582 172.433 185.2 172.709 185.536C172.997 185.872 173.333 186.04 173.717 186.04H174.023ZM189.795 189.496V190H184.953V189.496L185.943 189.37C186.135 189.346 186.249 189.298 186.285 189.226C186.321 189.142 186.339 188.896 186.339 188.488V183.952C186.339 183.124 186.213 182.524 185.961 182.152C185.721 181.768 185.361 181.576 184.881 181.576C184.677 181.576 184.437 181.63 184.161 181.738C183.897 181.834 183.627 182.014 183.351 182.278C183.087 182.542 182.853 182.932 182.649 183.448V188.488C182.649 188.896 182.667 189.142 182.703 189.226C182.739 189.298 182.853 189.346 183.045 189.37L184.035 189.496V190H179.193V189.496L180.183 189.37C180.375 189.346 180.489 189.298 180.525 189.226C180.561 189.142 180.579 188.896 180.579 188.488V178.192C180.579 177.784 180.561 177.544 180.525 177.472C180.489 177.388 180.375 177.334 180.183 177.31L179.193 177.184V176.68H182.649V182.278C182.997 181.726 183.429 181.324 183.945 181.072C184.473 180.82 185.001 180.694 185.529 180.694C186.417 180.694 187.119 180.976 187.635 181.54C188.151 182.104 188.409 182.902 188.409 183.934V188.488C188.409 188.896 188.427 189.142 188.463 189.226C188.499 189.298 188.613 189.346 188.805 189.37L189.795 189.496ZM200.844 188.128C200.688 188.86 200.388 189.388 199.944 189.712C199.512 190.024 198.984 190.18 198.36 190.18C197.724 190.18 197.202 190.042 196.794 189.766C196.386 189.478 196.086 189.1 195.894 188.632C195.702 188.164 195.606 187.666 195.606 187.138V182.386C195.606 181.978 195.588 181.738 195.552 181.666C195.516 181.582 195.402 181.528 195.21 181.504L194.22 181.378V180.874H195.606V178.786L197.676 178.372V180.874H200.556V181.504H197.676V187.498C197.676 188.266 197.772 188.8 197.964 189.1C198.156 189.388 198.402 189.532 198.702 189.532C199.014 189.532 199.254 189.412 199.422 189.172C199.602 188.932 199.716 188.494 199.764 187.858L200.844 188.128ZM212.014 189.496V190H207.172V189.496L208.162 189.37C208.354 189.346 208.468 189.298 208.504 189.226C208.54 189.142 208.558 188.896 208.558 188.488V183.952C208.558 183.124 208.432 182.524 208.18 182.152C207.94 181.768 207.58 181.576 207.1 181.576C206.896 181.576 206.656 181.63 206.38 181.738C206.116 181.834 205.846 182.014 205.57 182.278C205.306 182.542 205.072 182.932 204.868 183.448V188.488C204.868 188.896 204.886 189.142 204.922 189.226C204.958 189.298 205.072 189.346 205.264 189.37L206.254 189.496V190H201.412V189.496L202.402 189.37C202.594 189.346 202.708 189.298 202.744 189.226C202.78 189.142 202.798 188.896 202.798 188.488V178.192C202.798 177.784 202.78 177.544 202.744 177.472C202.708 177.388 202.594 177.334 202.402 177.31L201.412 177.184V176.68H204.868V182.278C205.216 181.726 205.648 181.324 206.164 181.072C206.692 180.82 207.22 180.694 207.748 180.694C208.636 180.694 209.338 180.976 209.854 181.54C210.37 182.104 210.628 182.902 210.628 183.934V188.488C210.628 188.896 210.646 189.142 210.682 189.226C210.718 189.298 210.832 189.346 211.024 189.37L212.014 189.496ZM220.748 187.858C220.532 188.698 220.13 189.298 219.542 189.658C218.954 190.006 218.27 190.18 217.49 190.18C216.05 190.18 214.97 189.766 214.25 188.938C213.53 188.098 213.17 186.988 213.17 185.608V185.248C213.17 183.868 213.506 182.764 214.178 181.936C214.862 181.108 215.846 180.694 217.13 180.694C217.85 180.694 218.486 180.838 219.038 181.126C219.602 181.402 220.04 181.804 220.352 182.332C220.676 182.86 220.838 183.502 220.838 184.258C220.838 184.438 220.826 184.63 220.802 184.834C220.79 185.038 220.76 185.242 220.712 185.446H215.384V185.968C215.384 187.24 215.564 188.158 215.924 188.722C216.284 189.274 216.866 189.55 217.67 189.55C218.186 189.55 218.624 189.4 218.984 189.1C219.344 188.788 219.548 188.266 219.596 187.534L220.748 187.858ZM217.13 181.324C216.542 181.324 216.104 181.594 215.816 182.134C215.528 182.674 215.384 183.568 215.384 184.816H218.642C218.69 184.576 218.72 184.354 218.732 184.15C218.756 183.934 218.768 183.736 218.768 183.556C218.768 182.788 218.618 182.224 218.318 181.864C218.018 181.504 217.622 181.324 217.13 181.324ZM232.579 189.496V190H227.737V189.496L228.727 189.37C228.919 189.346 229.033 189.298 229.069 189.226C229.105 189.142 229.123 188.896 229.123 188.488V183.952C229.123 183.124 229.009 182.524 228.781 182.152C228.553 181.768 228.211 181.576 227.755 181.576C227.563 181.576 227.335 181.63 227.071 181.738C226.807 181.834 226.543 182.014 226.279 182.278C226.027 182.542 225.805 182.932 225.613 183.448V188.488C225.613 188.896 225.631 189.142 225.667 189.226C225.703 189.298 225.817 189.346 226.009 189.37L226.999 189.496V190H222.157V189.496L223.147 189.37C223.339 189.346 223.453 189.298 223.489 189.226C223.525 189.142 223.543 188.896 223.543 188.488V182.386C223.543 181.978 223.525 181.738 223.489 181.666C223.453 181.582 223.339 181.528 223.147 181.504L222.157 181.378V180.874H225.505V182.458C225.841 181.846 226.273 181.402 226.801 181.126C227.329 180.838 227.863 180.694 228.403 180.694C229.051 180.694 229.597 180.862 230.041 181.198C230.497 181.522 230.821 181.99 231.013 182.602C231.337 181.93 231.775 181.444 232.327 181.144C232.879 180.844 233.431 180.694 233.983 180.694C234.835 180.694 235.513 180.976 236.017 181.54C236.521 182.104 236.773 182.902 236.773 183.934V188.488C236.773 188.896 236.791 189.142 236.827 189.226C236.863 189.298 236.977 189.346 237.169 189.37L238.159 189.496V190H233.317V189.496L234.307 189.37C234.499 189.346 234.613 189.298 234.649 189.226C234.685 189.142 234.703 188.896 234.703 188.488V183.952C234.703 183.124 234.589 182.524 234.361 182.152C234.133 181.768 233.791 181.576 233.335 181.576C233.143 181.576 232.915 181.63 232.651 181.738C232.387 181.834 232.123 182.02 231.859 182.296C231.595 182.572 231.367 182.974 231.175 183.502C231.187 183.562 231.193 183.634 231.193 183.718C231.193 183.79 231.193 183.862 231.193 183.934V188.488C231.193 188.896 231.211 189.142 231.247 189.226C231.283 189.298 231.397 189.346 231.589 189.37L232.579 189.496ZM240.64 190.18C240.268 190.18 239.962 190.066 239.722 189.838C239.494 189.598 239.38 189.286 239.38 188.902C239.38 188.518 239.494 188.212 239.722 187.984C239.962 187.756 240.268 187.642 240.64 187.642C241.012 187.642 241.318 187.756 241.558 187.984C241.798 188.212 241.918 188.518 241.918 188.902C241.918 189.286 241.798 189.598 241.558 189.838C241.318 190.066 241.012 190.18 240.64 190.18Z" fill="black"/>
</svg>
