<svg width="67" height="67" viewBox="0 0 67 67" fill="none" xmlns="http://www.w3.org/2000/svg">
<path d="M59.806 36.4852C59.8203 36.5207 59.8348 36.5559 59.8477 36.5925C59.7773 36.9366 59.7043 37.281 59.6393 37.6238C59.6022 37.796 59.5647 37.9683 59.5265 38.1398C59.5265 38.1408 59.5269 38.1418 59.5269 38.1424C59.5068 38.2322 59.4865 38.3217 59.4664 38.4109C58.9278 39.0038 58.3924 39.5993 57.8503 40.1864C57.8383 40.199 57.826 40.2113 57.8141 40.2239C57.7249 40.3192 57.6344 40.4132 57.5427 40.5063C57.5068 40.5428 57.4712 40.579 57.4351 40.6148C57.3446 40.7053 57.2531 40.7955 57.1611 40.8846C56.9058 41.1325 56.6473 41.3771 56.3943 41.6268C56.2635 41.7557 56.1339 41.8856 56.0072 42.0188C55.7833 42.2533 55.5633 42.4928 55.3384 42.7267C54.7326 43.233 54.1342 43.7474 53.5325 44.2582C48.2471 49.0396 43.0127 53.8862 37.4792 58.3846C36.5037 59.1468 35.5676 59.9523 34.6607 60.7911C34.0429 61.995 32.8312 63.0173 31.5524 63.3517C30.1695 63.7537 28.6599 63.6396 27.2376 63.5895C23.0064 63.5727 18.7915 60.8289 17.4364 56.758C16.8354 54.7499 17.1892 52.6041 17.425 50.5666C17.4535 50.4215 17.4887 50.2732 17.5294 50.123C17.142 50.124 16.7556 50.1059 16.3714 50.0687C16.0143 50.0729 15.6563 50.0532 15.3009 50.008C14.151 49.9185 13.0602 49.6138 12.055 49.0444C11.6924 48.8234 11.3415 48.5372 11.0204 48.2053C9.3305 47.4997 8.93146 45.3087 9.00933 43.561C8.92952 41.8556 8.85779 40.1521 8.7893 38.4455C8.61675 33.6909 8.09493 28.9603 7.59088 24.2322C7.26002 20.3895 6.55241 16.5729 6.47745 12.7127C6.46452 10.7789 6.44029 8.39726 7.79412 7.30774C9.33115 4.73643 12.9774 3.37549 15.9507 3.51314C19.2193 3.2637 22.6921 4.07794 24.9693 6.57299C25.0317 6.64698 25.0915 6.72033 25.1493 6.79367C25.412 6.93099 25.6576 7.11613 25.875 7.35265C27.4424 8.85123 26.7067 14.0152 27.0178 16.317C27.6088 23.5792 27.866 30.8605 28.087 38.1421C28.0873 38.7473 28.1432 39.4581 28.1859 40.1993C31.8138 37.0228 35.4949 33.9074 39.3429 31.0004C41.8108 29.1257 44.3469 27.3396 46.9747 25.6969C47.4768 25.4219 47.9673 25.2907 48.43 25.273C49.3754 24.9692 50.422 24.8862 51.3415 24.9544C54.0857 25.0326 56.8609 26.3111 58.365 28.6711C59.7094 30.9539 60.2642 33.8396 59.806 36.4852Z" fill="#4E9279"/>
<path d="M32.4566 52.1621C34.5022 54.4649 35.4861 58.086 34.0679 60.9275C34.7061 58.394 33.9885 55.6511 32.2724 53.6956C29.9386 51.3237 26.7208 50.187 23.6729 49.1239C22.0512 48.6632 19.9765 48.2034 18.6411 49.5298C18.6669 49.4558 18.696 49.3847 18.727 49.3152C18.5367 49.4202 18.3451 49.5233 18.1503 49.6225C20.6072 44.833 25.0202 41.4805 29.7454 39.1651C27.1095 42.0466 24.5672 45.1316 21.4715 47.5074C22.12 47.4021 22.7905 47.4031 23.3895 47.4754C26.798 47.9378 30.0743 49.6955 32.4566 52.1621ZM27.9189 57.5222C27.8281 57.2301 27.705 56.9526 27.5557 56.6899C27.5269 57.3035 27.3411 57.9358 27.0872 58.478C26.9234 58.7571 26.6888 59.2786 26.386 59.6143C26.1207 60.1378 25.5511 60.4867 24.786 60.3901C23.6267 60.2079 22.7947 59.2321 22.1061 58.3574C21.2777 57.6495 20.9129 56.2805 21.5455 55.5558C21.5723 55.5144 21.5995 55.4756 21.6237 55.4414C22.067 54.8698 22.5833 54.3851 23.1552 53.9686C22.8825 53.9396 22.6105 53.9296 22.343 53.9415C24.6968 51.8035 28.3321 54.7441 27.9189 57.5222ZM23.5294 56.8337C23.2351 56.5458 22.4783 55.7212 22.4367 56.5929C22.4444 57.5061 22.9788 58.2612 23.7191 58.7429C24.1016 59.0121 24.4971 59.3704 24.9866 59.3862C26.0516 59.2315 23.7953 57.2114 23.5294 56.8337ZM27.3709 56.3933C26.5275 55.1461 25.0632 54.2953 23.5659 54.0275C23.342 54.421 23.069 54.7913 22.7569 55.1241C24.0583 55.3877 25.524 56.8424 26.2206 57.8831C26.2946 57.9923 26.3553 58.1041 26.4041 58.2172C26.7088 57.6007 27.1072 57.0269 27.3709 56.3933ZM25.555 7.7698C23.0005 10.0086 20.7497 10.4607 17.423 10.671C14.6733 10.8219 11.3789 11.1938 8.90967 9.5511C8.75878 9.44738 8.59108 9.33106 8.42888 9.20569C8.53196 9.49779 8.71387 9.82057 8.89804 10.0888C10.1524 11.9092 12.4309 12.6407 14.5596 12.6649C16.5086 12.7341 18.4395 12.3156 20.267 11.6629C22.4115 10.9741 24.238 9.59019 25.555 7.7698ZM13.1327 7.8929C13.2099 7.93684 13.2885 8.04638 13.3563 8.10163C13.4768 8.21698 13.609 8.31068 13.7489 8.3879C13.5159 7.59241 13.3634 6.74425 13.5078 5.94455C13.4145 5.56199 13.5456 5.17167 14.0558 4.88087C14.9735 4.52158 16.0614 4.54322 17.0055 4.8001C17.6734 4.64856 18.6201 4.49314 19.0421 5.18557C19.1261 5.37943 19.1325 5.56522 19.0799 5.74067C19.4246 6.4095 19.5148 7.19014 19.3894 7.9223C19.6812 7.79597 19.9623 7.64314 20.2282 7.45541C20.2492 7.41567 20.2078 7.34006 20.2237 7.33101C20.3119 7.39563 20.3232 7.51422 20.2418 7.5937C18.8217 9.17726 16.3309 10.3056 14.2452 9.48357C13.6099 9.20763 13.1931 8.57628 13.1327 7.8929ZM15.4255 5.76781C15.557 5.79107 15.6901 5.80497 15.7247 5.80238C16.4788 5.82532 17.2301 5.71611 17.9474 5.48218C17.1315 5.17426 16.1803 5.50577 15.4255 5.76781ZM13.9596 8.48936C14.4252 8.68032 14.9563 8.70843 15.4552 8.66836C16.7347 8.51618 18.0954 8.4522 19.2854 7.96625C19.043 7.39467 18.8482 6.78463 18.8194 6.17137C18.0498 7.00855 15.9819 7.49677 15.2362 7.3113C14.8177 7.27996 14.3554 7.04765 14.01 6.72712C14.1143 7.30484 14.081 7.90486 13.9596 8.48936ZM11.8829 45.8544C10.9 43.7587 10.996 41.3948 10.8545 39.1001C10.4574 32.6111 11.0861 26.029 9.86478 19.6114C9.45282 17.6301 8.92163 15.6634 8.27121 13.7486C8.18267 14.6262 8.05795 15.5619 8.03081 16.4656C7.97071 19.4479 8.20529 22.4351 8.61079 25.388C9.00337 28.737 9.24797 32.1006 9.50904 35.4616C9.7769 38.5638 9.91648 41.6969 10.5591 44.7503C10.8567 46.9171 12.4674 47.8347 14.4187 48.3465C13.5182 47.6195 12.4671 46.9113 11.8829 45.8544ZM57.707 30.6382C57.6805 31.6802 57.7054 32.7859 57.6007 33.8486C57.4892 35.3727 56.9661 36.8791 56.0106 38.0885C53.3233 42.2592 49.2405 45.1284 45.4595 48.2238C43.7331 49.6215 42.0206 51.028 40.4629 52.6174C38.8445 54.2339 37.4612 56.0611 35.9985 57.8146C39.2316 56.318 41.946 53.8249 44.5348 51.3977C46.8741 49.0839 49.3236 46.8887 51.7976 44.7209C53.4452 43.2682 55.0704 41.7884 56.7296 40.348C59.7442 37.9961 58.8408 33.7543 57.707 30.6382Z" fill="#302F2F"/>
<path d="M34.8434 39.8042C34.8469 39.8013 34.8501 39.7984 34.8537 39.7954C32.6711 41.674 30.3521 43.5484 27.732 44.7368C29.7854 42.2382 31.7677 39.6562 34.2004 37.5046C38.5846 33.5995 43.5324 30.4169 48.4556 27.2459C48.4608 27.2433 48.4647 27.2485 48.4608 27.2523C44.0077 31.5639 39.4218 35.7498 34.7842 39.8543C34.8039 39.8375 34.8236 39.821 34.8434 39.8042ZM19.6611 51.1796C16.7476 52.8552 18.0662 56.8585 19.854 58.9258C19.683 57.5196 19.4895 56.0702 19.3848 54.6401C19.212 53.4724 19.1703 52.2865 19.6611 51.1796ZM23.5717 6.76622H23.5655C23.6137 6.76363 23.6851 6.79271 23.7177 6.77397C22.7978 5.93195 21.5442 5.76329 20.349 5.66797C21.1215 6.61662 22.4347 6.66832 23.5717 6.76622ZM24.762 10.5056C24.7397 10.4174 24.7442 10.3065 24.711 10.2254C24.5743 10.6901 24.4605 11.1712 24.4105 11.6536C24.0053 15.8582 24.7627 20.0399 25.2354 24.2031C25.7016 28.6424 25.9869 33.0951 25.9401 37.5592C26.9879 31.8004 27.1081 25.81 26.6793 19.9607C26.4241 16.7648 25.5197 13.6375 24.762 10.5056ZM45.1273 35.5491C44.9664 35.6244 44.8058 35.7007 44.6452 35.7763C44.3806 35.871 44.116 35.964 43.8513 36.0555C43.7502 36.0926 43.6481 36.1298 43.5457 36.1669C43.4038 36.2461 43.2604 36.3256 43.1172 36.4051C42.6439 36.6684 42.1744 36.9356 41.7056 37.2051C41.701 37.2073 41.6968 37.2096 41.6923 37.2115C41.5721 37.2807 41.4506 37.3498 41.3304 37.4203C40.9711 37.6303 40.6105 37.84 40.2499 38.05C40.2742 38.0358 40.2984 38.0219 40.3226 38.0077L40.3223 38.008C40.2978 38.0222 40.2732 38.0364 40.249 38.0507C40.2709 38.0377 40.2932 38.0251 40.3155 38.0122C40.2538 38.0503 40.1924 38.0885 40.1307 38.1253C40.1281 38.1276 40.1252 38.1298 40.1223 38.1321C39.7982 38.3324 39.4751 38.5334 39.1517 38.734C38.5517 39.1059 37.9481 39.4788 37.3888 39.9118C37.3433 39.9483 37.2983 39.9848 37.2525 40.0216C37.3843 40.4413 37.7462 40.7292 38.1207 40.9483C39.5171 41.8646 40.9585 42.7118 42.4138 43.5309C41.2105 44.1639 40.0616 44.8825 38.9501 45.6576C38.8402 45.7035 38.731 45.7504 38.6218 45.7979C37.9006 46.0935 37.2253 46.5772 36.4912 46.7921C36.6421 46.7959 36.793 46.7972 36.9439 46.7972C37.0954 46.7972 37.247 46.7946 37.3982 46.7908C37.3643 46.8166 37.33 46.8425 37.2961 46.8686C37.3927 46.8509 37.489 46.8321 37.5853 46.8127C37.7688 46.7523 37.9513 46.69 38.1349 46.6305C38.869 46.3911 39.5902 46.1248 40.3152 45.8612C41.5634 45.4056 42.8038 44.9297 44.0494 44.4663C44.3987 44.3371 44.7489 44.2065 45.0995 44.0773C45.1082 44.0741 45.1169 44.0708 45.1257 44.0676C45.126 44.0673 45.1263 44.067 45.1266 44.0666C45.3518 43.9833 45.5825 43.9064 45.8039 43.814C46.3364 43.5904 46.8692 43.3687 47.402 43.1454C46.9816 42.6782 46.3906 42.368 45.8805 42.0045C44.589 41.17 43.2448 40.4148 41.9569 39.5728C43.8623 38.4171 45.6171 37.0468 47.3655 35.6671C47.8062 35.364 48.2453 35.0583 48.6828 34.7514C48.9742 34.4851 49.2673 34.2189 49.56 33.953C49.5652 33.9481 49.5707 33.9433 49.5762 33.9384C49.5813 33.9346 49.5865 33.9304 49.5917 33.9265C49.8385 33.7026 50.0996 33.4925 50.3526 33.2764C50.4689 33.1765 50.5843 33.078 50.7006 32.9795C48.8372 33.7704 46.9739 34.6916 45.1273 35.5491ZM37.3856 39.914C37.3865 39.9134 37.3875 39.9124 37.3888 39.9118C37.4095 39.895 37.4298 39.8782 37.4508 39.8617C37.4289 39.8795 37.4072 39.8963 37.3856 39.914ZM19.6727 25.3557C18.3247 25.6933 16.9757 26.2158 15.5905 26.3131C15.3886 24.3524 15.712 22.4325 15.7825 20.417C15.8119 20.0379 15.8413 19.6593 15.872 19.2806C15.8888 19.0628 16.009 18.7852 15.8452 18.602C15.8426 18.5982 15.8374 18.602 15.8387 18.6059C15.8503 18.6292 15.8629 18.6521 15.8746 18.6764C15.5256 19.868 15.111 21.0528 14.7492 22.2522C14.734 22.3288 14.7172 22.4057 14.702 22.4826C14.6871 22.5524 14.6732 22.6228 14.659 22.6929C14.6584 22.6949 14.6574 22.6965 14.6568 22.6984C14.6474 22.7453 14.6387 22.7921 14.629 22.8387C14.5799 23.0823 14.5314 23.3262 14.4842 23.5705C14.4193 23.9062 14.355 24.2422 14.29 24.578C14.2836 24.6106 14.2768 24.6429 14.2706 24.6755C14.2215 24.9256 14.1708 25.1754 14.1194 25.4248C14.1091 25.4743 14.0991 25.5237 14.0887 25.5735C14.0558 25.7327 14.0225 25.892 13.9892 26.0513C13.9479 26.2488 13.9065 26.4462 13.8655 26.6436C13.6865 27.505 13.4435 28.3496 13.3117 29.2201C13.2997 29.3147 13.2916 29.4104 13.2852 29.506C13.6086 29.6369 13.9811 29.5897 14.3272 29.5387C16.1237 29.3991 17.9205 29.2275 19.6995 28.9422C19.3813 31.129 19.2679 33.353 19.3987 35.5614C19.3745 35.6483 19.3496 35.7353 19.3225 35.8218C19.3519 35.7905 19.3806 35.7585 19.4094 35.7265C19.4397 36.195 19.4805 36.6626 19.5331 37.1291C19.9225 36.1611 20.2123 35.1604 20.4569 34.1456C20.5813 33.901 20.6983 33.6512 20.8107 33.3992C20.8259 33.3219 20.8414 33.2447 20.8569 33.1675C20.9222 32.8412 21.0078 32.5174 21.0834 32.1936C21.182 31.7701 21.2753 31.3452 21.3878 30.9254C21.5322 30.3891 21.6753 29.8527 21.8201 29.3154C21.8188 29.3206 21.8175 29.3254 21.8162 29.3306C21.9083 28.9955 22.0182 28.664 22.1206 28.3312C22.2101 28.0317 22.3009 27.7334 22.3904 27.4352C22.593 26.7606 22.8004 26.0878 23.0208 25.419C22.3403 24.5896 20.6659 25.0571 19.6727 25.3557Z" fill="#E8A532"/>
</svg>
