<svg xmlns="http://www.w3.org/2000/svg" xmlns:xlink="http://www.w3.org/1999/xlink" width="1080" zoomAndPan="magnify" viewBox="0 0 810 809.999993" height="1080" preserveAspectRatio="xMidYMid meet" version="1.0"><defs><clipPath id="e43b3857ea"><path d="M 115.246094 0 L 680.746094 0 L 680.746094 810 L 115.246094 810 Z M 115.246094 0 " clip-rule="nonzero"/></clipPath></defs><path fill="#dc4e4f" d="M 655.875 61.574219 L 655.875 24.878906 C 655.875 19.800781 653.820312 15.238281 650.476562 11.960938 C 647.199219 8.621094 642.574219 6.5625 637.496094 6.5625 C 627.277344 6.5625 619.054688 14.789062 619.054688 24.878906 L 619.054688 61.507812 L 582.230469 15.753906 L 213.757812 15.753906 L 176.933594 61.507812 L 176.933594 24.878906 C 176.933594 19.800781 174.878906 15.238281 171.539062 11.960938 C 168.195312 8.621094 163.570312 6.5625 158.492188 6.5625 C 148.339844 6.5625 140.113281 14.789062 140.113281 24.878906 L 140.113281 61.574219 C 129.894531 61.765625 121.671875 70.183594 121.671875 80.402344 L 121.671875 116.453125 C 122.121094 121.917969 123.726562 132.714844 130.859375 143.960938 C 137.15625 153.726562 144.804688 159.445312 149.304688 162.273438 L 176.933594 702.671875 L 204.566406 739.300781 L 204.566406 803.4375 L 591.421875 803.4375 L 591.421875 739.300781 L 619.054688 702.671875 L 646.6875 162.273438 C 651.183594 159.445312 658.832031 153.726562 665.128906 143.960938 C 672.261719 132.714844 673.867188 121.917969 674.316406 116.453125 L 674.316406 80.402344 C 674.316406 70.183594 666.09375 61.765625 655.875 61.574219 Z M 655.875 61.574219 " fill-opacity="1" fill-rule="nonzero"/><path fill="#ffc05a" d="M 442.078125 325.957031 L 413.929688 372.933594 C 412.324219 371.582031 406.21875 366.699219 397.03125 366.699219 C 394.972656 366.699219 387.132812 366.890625 380.128906 372.933594 L 351.917969 325.957031 C 358.667969 321.90625 374.796875 313.421875 397.03125 313.421875 C 419.199219 313.421875 435.328125 321.90625 442.078125 325.957031 Z M 442.078125 325.957031 " fill-opacity="1" fill-rule="nonzero"/><path fill="#ffc05a" d="M 397.996094 392.148438 C 410.140625 392.148438 419.972656 402.171875 419.972656 414.445312 C 419.972656 426.785156 410.140625 436.8125 397.996094 436.8125 C 385.847656 436.8125 376.015625 426.785156 376.015625 414.445312 C 376.015625 402.171875 385.847656 392.148438 397.996094 392.148438 Z M 397.996094 392.148438 " fill-opacity="1" fill-rule="nonzero"/><path fill="#ffc05a" d="M 444.90625 418.753906 L 499.335938 421.066406 C 498.949219 428.96875 497.019531 447.222656 484.746094 465.859375 C 472.472656 484.496094 456.535156 493.363281 449.46875 496.769531 L 426.203125 447.15625 C 435.074219 444.585938 439.636719 438.097656 440.726562 436.425781 C 445.804688 428.648438 445.160156 420.808594 444.90625 418.753906 Z M 444.90625 418.753906 " fill-opacity="1" fill-rule="nonzero"/><path fill="#ffc05a" d="M 370.363281 447.15625 L 347.097656 496.769531 C 340.03125 493.363281 324.09375 484.496094 311.820312 465.859375 C 299.546875 447.222656 297.617188 428.96875 297.296875 421.066406 L 351.660156 418.753906 C 351.40625 420.808594 350.761719 428.648438 355.839844 436.425781 C 356.996094 438.097656 361.492188 444.585938 370.363281 447.15625 Z M 370.363281 447.15625 " fill-opacity="1" fill-rule="nonzero"/><path fill="#e7f2f1" d="M 588.914062 507.824219 C 596.753906 521.574219 585.316406 537.832031 567.773438 537.832031 L 228.214844 537.832031 C 210.671875 537.832031 199.234375 521.574219 207.074219 507.824219 L 383.664062 197.554688 C 389.574219 187.144531 406.414062 187.144531 412.324219 197.554688 Z M 499.335938 421.066406 L 444.90625 418.753906 C 445.160156 420.808594 445.804688 428.648438 440.726562 436.425781 C 439.636719 438.097656 435.074219 444.585938 426.203125 447.15625 L 449.46875 496.769531 C 456.535156 493.363281 472.472656 484.496094 484.746094 465.859375 C 497.019531 447.222656 498.949219 428.96875 499.335938 421.066406 Z M 413.929688 372.933594 L 442.078125 325.957031 C 435.328125 321.90625 419.199219 313.421875 397.03125 313.421875 C 374.796875 313.421875 358.667969 321.90625 351.917969 325.957031 L 380.128906 372.933594 C 387.132812 366.890625 394.972656 366.699219 397.03125 366.699219 C 406.21875 366.699219 412.324219 371.582031 413.929688 372.933594 Z M 419.972656 414.445312 C 419.972656 402.171875 410.140625 392.148438 397.996094 392.148438 C 385.847656 392.148438 376.015625 402.171875 376.015625 414.445312 C 376.015625 426.785156 385.847656 436.8125 397.996094 436.8125 C 410.140625 436.8125 419.972656 426.785156 419.972656 414.445312 Z M 347.097656 496.769531 L 370.363281 447.15625 C 361.492188 444.585938 356.996094 438.097656 355.839844 436.425781 C 350.761719 428.648438 351.40625 420.808594 351.660156 418.753906 L 297.296875 421.066406 C 297.617188 428.96875 299.546875 447.222656 311.820312 465.859375 C 324.09375 484.496094 340.03125 493.363281 347.097656 496.769531 Z M 347.097656 496.769531 " fill-opacity="1" fill-rule="nonzero"/><path fill="#e15c63" d="M 140.113281 61.507812 L 140.113281 24.878906 C 140.113281 14.789062 148.339844 6.5625 158.492188 6.5625 C 163.570312 6.5625 168.195312 8.621094 171.539062 11.960938 C 174.878906 15.238281 176.933594 19.800781 176.933594 24.878906 L 176.933594 61.507812 L 140.628906 61.507812 C 140.433594 61.507812 140.304688 61.507812 140.113281 61.574219 Z M 140.113281 61.507812 " fill-opacity="1" fill-rule="nonzero"/><path fill="#e15c63" d="M 655.875 61.507812 L 655.875 61.574219 C 655.683594 61.507812 655.554688 61.507812 655.359375 61.507812 L 619.054688 61.507812 L 619.054688 24.878906 C 619.054688 14.789062 627.277344 6.5625 637.496094 6.5625 C 642.574219 6.5625 647.199219 8.621094 650.476562 11.960938 C 653.820312 15.238281 655.875 19.800781 655.875 24.878906 Z M 655.875 61.507812 " fill-opacity="1" fill-rule="nonzero"/><path fill="#e15c63" d="M 204.566406 739.300781 L 591.421875 739.300781 L 591.421875 803.4375 L 204.566406 803.4375 Z M 204.566406 739.300781 " fill-opacity="1" fill-rule="nonzero"/><path fill="#c84242" d="M 674.316406 116.453125 C 673.867188 121.917969 672.261719 132.714844 665.128906 143.960938 C 658.832031 153.726562 651.183594 159.445312 646.6875 162.273438 L 149.304688 162.273438 C 144.804688 159.445312 137.15625 153.726562 130.859375 143.960938 C 123.726562 132.714844 122.121094 121.917969 121.671875 116.453125 Z M 674.316406 116.453125 " fill-opacity="1" fill-rule="nonzero"/><path fill="#655f68" d="M 674.316406 80.402344 L 674.316406 116.453125 L 121.671875 116.453125 L 121.671875 80.402344 C 121.671875 70.183594 129.894531 61.765625 140.113281 61.574219 C 140.304688 61.507812 140.433594 61.507812 140.628906 61.507812 L 655.359375 61.507812 C 655.554688 61.507812 655.683594 61.507812 655.875 61.574219 C 666.09375 61.765625 674.316406 70.183594 674.316406 80.402344 Z M 674.316406 80.402344 " fill-opacity="1" fill-rule="nonzero"/><path fill="#ae2c36" d="M 619.054688 61.507812 L 176.933594 61.507812 L 213.757812 15.753906 L 582.230469 15.753906 Z M 619.054688 61.507812 " fill-opacity="1" fill-rule="nonzero"/><g clip-path="url(#e43b3857ea)"><path fill="#3a322b" d="M 680.746094 80.375 C 680.746094 68.855469 672.921875 59.222656 662.320312 56.179688 L 662.320312 24.882812 C 662.320312 11.242188 651.175781 0.136719 637.476562 0.136719 C 623.777344 0.136719 612.628906 11.242188 612.628906 24.882812 L 612.628906 43.285156 L 587.21875 11.699219 C 585.996094 10.179688 584.152344 9.300781 582.210938 9.300781 L 213.777344 9.300781 C 211.828125 9.300781 209.992188 10.179688 208.769531 11.699219 L 183.359375 43.277344 L 183.359375 24.882812 C 183.359375 11.242188 172.21875 0.136719 158.511719 0.136719 C 144.804688 0.136719 133.667969 11.242188 133.667969 24.882812 L 133.667969 56.1875 C 123.066406 59.222656 115.246094 68.855469 115.246094 80.375 L 115.246094 116.480469 C 115.246094 116.570312 115.289062 116.640625 115.296875 116.730469 C 115.300781 116.820312 115.257812 116.898438 115.261719 116.988281 C 115.859375 124.527344 118.117188 135.925781 125.46875 147.421875 C 130.03125 154.550781 136.097656 160.757812 143.042969 165.695312 L 170.523438 703.019531 C 170.585938 704.296875 171.035156 705.53125 171.808594 706.558594 L 198.140625 741.480469 L 198.140625 803.4375 C 198.140625 806.984375 201.019531 809.863281 204.566406 809.863281 L 591.421875 809.863281 C 594.96875 809.863281 597.847656 806.984375 597.847656 803.4375 L 597.847656 741.472656 L 624.179688 706.550781 C 624.957031 705.523438 625.402344 704.289062 625.464844 703.011719 L 652.945312 165.6875 C 659.890625 160.75 665.957031 154.542969 670.519531 147.417969 C 677.871094 135.921875 680.128906 124.519531 680.726562 116.980469 C 680.730469 116.890625 680.691406 116.8125 680.691406 116.722656 C 680.699219 116.632812 680.746094 116.5625 680.746094 116.480469 Z M 637.476562 12.988281 C 644.089844 12.988281 649.472656 18.324219 649.472656 24.882812 L 649.472656 55.09375 L 625.480469 55.09375 L 625.480469 24.882812 C 625.480469 18.324219 630.859375 12.988281 637.476562 12.988281 Z M 216.859375 22.148438 L 579.132812 22.148438 L 605.636719 55.089844 L 190.351562 55.089844 Z M 158.511719 12.988281 C 165.128906 12.988281 170.507812 18.324219 170.507812 24.882812 L 170.507812 55.09375 L 146.519531 55.09375 L 146.519531 24.882812 C 146.519531 18.324219 151.898438 12.988281 158.511719 12.988281 Z M 128.097656 80.375 C 128.097656 73.527344 133.71875 67.949219 140.632812 67.949219 L 655.359375 67.949219 C 662.277344 67.949219 667.898438 73.527344 667.898438 80.375 L 667.898438 110.054688 L 128.097656 110.054688 Z M 210.992188 797.011719 L 210.992188 745.746094 L 584.996094 745.746094 L 584.996094 797.011719 Z M 612.738281 700.382812 L 588.21875 732.894531 L 207.769531 732.894531 L 183.253906 700.382812 L 156.0625 168.703125 L 639.925781 168.703125 Z M 659.699219 140.488281 C 655.847656 146.503906 650.714844 151.78125 644.765625 155.847656 L 151.222656 155.847656 C 145.28125 151.785156 140.140625 146.503906 136.289062 140.496094 C 132.320312 134.289062 130.21875 128.132812 129.105469 122.90625 L 666.875 122.90625 C 665.765625 128.132812 663.664062 134.28125 659.699219 140.488281 Z M 659.699219 140.488281 " fill-opacity="1" fill-rule="nonzero"/></g><path fill="#3a322b" d="M 417.914062 194.363281 C 414.039062 187.554688 406.40625 183.328125 397.996094 183.328125 C 389.582031 183.328125 381.941406 187.554688 378.074219 194.363281 L 201.503906 504.628906 C 196.953125 512.628906 196.992188 521.769531 201.613281 529.710938 C 206.816406 538.667969 217.007812 544.234375 228.195312 544.234375 L 567.796875 544.234375 C 578.984375 544.234375 589.179688 538.667969 594.382812 529.710938 C 599.003906 521.769531 599.042969 512.621094 594.492188 504.628906 Z M 583.273438 523.253906 C 580.355469 528.265625 574.429688 531.382812 567.796875 531.382812 L 228.195312 531.382812 C 221.566406 531.382812 215.640625 528.265625 212.722656 523.253906 C 211.398438 520.972656 209.632812 516.34375 212.675781 510.984375 L 389.25 200.710938 C 391.152344 197.363281 395.011719 196.175781 398 196.175781 C 400.988281 196.175781 404.84375 197.371094 406.753906 200.710938 L 583.324219 510.984375 C 586.363281 516.351562 584.597656 520.972656 583.273438 523.253906 Z M 583.273438 523.253906 " fill-opacity="1" fill-rule="nonzero"/><path fill="#3a322b" d="M 374.589844 376.25 C 375.5625 377.867188 377.207031 378.984375 379.074219 379.289062 C 379.417969 379.339844 379.761719 379.371094 380.105469 379.371094 C 381.625 379.371094 383.117188 378.832031 384.289062 377.824219 C 389.25 373.5625 394.832031 373.105469 397.003906 373.105469 C 403.519531 373.105469 408.0625 376.410156 409.714844 377.824219 C 411.148438 379.054688 413.0625 379.582031 414.933594 379.292969 C 416.804688 378.992188 418.441406 377.875 419.417969 376.253906 L 447.585938 329.253906 C 449.402344 326.210938 448.421875 322.273438 445.386719 320.441406 C 435.195312 314.296875 418.527344 306.984375 397.011719 306.984375 C 375.484375 306.984375 358.820312 314.304688 348.636719 320.441406 C 345.601562 322.273438 344.617188 326.207031 346.4375 329.253906 Z M 397.003906 319.832031 C 412.035156 319.832031 424.320312 323.96875 433.125 328.359375 L 411.835938 363.898438 C 408.101562 361.96875 403.070312 360.253906 397.003906 360.253906 C 394.304688 360.253906 388.414062 360.683594 382.160156 363.878906 L 360.875 328.359375 C 369.679688 323.96875 381.96875 319.832031 397.003906 319.832031 Z M 397.003906 319.832031 " fill-opacity="1" fill-rule="nonzero"/><path fill="#3a322b" d="M 372.15625 440.96875 C 365.890625 439.148438 362.414062 434.703125 361.210938 432.871094 C 357.585938 427.363281 357.796875 421.683594 358.0625 419.496094 C 358.289062 417.621094 357.675781 415.75 356.390625 414.371094 C 355.113281 412.988281 353.28125 412.28125 351.40625 412.320312 L 296.996094 414.640625 C 295.285156 414.710938 293.679688 415.460938 292.527344 416.722656 C 291.371094 417.980469 290.773438 419.652344 290.851562 421.363281 C 291.410156 433.300781 294.570312 451.328125 306.453125 469.386719 C 318.335938 487.445312 333.589844 497.398438 344.296875 502.570312 C 345.179688 502.996094 346.136719 503.214844 347.09375 503.214844 C 347.820312 503.214844 348.546875 503.09375 349.238281 502.84375 C 350.859375 502.269531 352.183594 501.066406 352.910156 499.511719 L 376.191406 449.863281 C 376.988281 448.160156 377 446.199219 376.230469 444.492188 C 375.445312 442.773438 373.960938 441.488281 372.15625 440.96875 Z M 344.136719 487.933594 C 335.652344 482.953125 325.46875 474.917969 317.1875 462.324219 C 308.863281 449.667969 305.484375 437.035156 304.242188 427.195312 L 345.300781 425.449219 C 345.761719 429.644531 347.117188 434.835938 350.472656 439.941406 C 351.96875 442.214844 355.59375 446.9375 361.726562 450.421875 Z M 344.136719 487.933594 " fill-opacity="1" fill-rule="nonzero"/><path fill="#3a322b" d="M 499.585938 414.640625 L 445.175781 412.320312 C 443.292969 412.28125 441.472656 412.988281 440.195312 414.371094 C 438.914062 415.75 438.304688 417.621094 438.523438 419.492188 C 438.78125 421.683594 438.992188 427.371094 435.375 432.871094 C 434.171875 434.703125 430.695312 439.148438 424.429688 440.96875 C 422.625 441.496094 421.140625 442.78125 420.371094 444.488281 C 419.59375 446.199219 419.613281 448.167969 420.410156 449.863281 L 443.691406 499.511719 C 444.417969 501.066406 445.742188 502.269531 447.359375 502.84375 C 448.054688 503.09375 448.785156 503.214844 449.507812 503.214844 C 450.464844 503.214844 451.421875 503.003906 452.300781 502.570312 C 463.007812 497.398438 478.261719 487.445312 490.144531 469.386719 C 502.027344 451.320312 505.183594 433.300781 505.746094 421.363281 C 505.824219 419.652344 505.222656 417.988281 504.070312 416.722656 C 502.902344 415.460938 501.292969 414.710938 499.585938 414.640625 Z M 479.394531 462.316406 C 471.105469 474.914062 460.917969 482.945312 452.441406 487.925781 L 434.855469 450.414062 C 440.984375 446.933594 444.617188 442.203125 446.105469 439.933594 C 449.460938 434.832031 450.84375 429.710938 451.304688 425.441406 L 492.335938 427.191406 C 491.097656 437.027344 487.714844 449.667969 479.394531 462.316406 Z M 479.394531 462.316406 " fill-opacity="1" fill-rule="nonzero"/><path fill="#3a322b" d="M 397.996094 385.722656 C 382.332031 385.722656 369.605469 398.617188 369.605469 414.464844 C 369.605469 430.3125 382.339844 443.210938 397.996094 443.210938 C 413.648438 443.210938 426.386719 430.3125 426.386719 414.464844 C 426.386719 398.617188 413.65625 385.722656 397.996094 385.722656 Z M 397.996094 430.359375 C 389.429688 430.359375 382.457031 423.230469 382.457031 414.464844 C 382.457031 405.699219 389.429688 398.574219 397.996094 398.574219 C 406.558594 398.574219 413.53125 405.699219 413.53125 414.464844 C 413.53125 423.230469 406.558594 430.359375 397.996094 430.359375 Z M 397.996094 430.359375 " fill-opacity="1" fill-rule="nonzero"/></svg>