<svg width="100" height="100" viewBox="0 0 100 100" fill="none" xmlns="http://www.w3.org/2000/svg">
<path fill-rule="evenodd" clip-rule="evenodd" d="M66.9426 64.1084C66.9426 64.1084 80.4187 61.8146 87.6301 64.0313C94.8437 66.248 80.1176 69.3261 84.4541 70.0032C92.0916 71.1969 99.0624 74.0928 90.5749 76.2084C81.8208 78.3896 75.9426 77.7136 79.4947 80.2417C82.377 82.2928 73.651 83.2969 64.0864 83.1605C61.8624 83.1282 59.5916 83.0355 57.4124 82.8792C45.5989 82.0323 45.502 79.4844 48.8114 78.225C55.5333 75.6678 53.5676 74.1126 48.9666 74.1146C40.2145 74.1178 37.1926 71.0188 46.5645 68.6844C55.5854 66.4376 60.3041 66.5001 64.052 66.2334C65.4666 66.1334 64.6833 64.323 66.9426 64.1084ZM85.751 60.5803C86.1614 61.6834 84.5937 62.2938 84.1197 61.2157C83.902 60.7219 84.1604 59.7428 85.1697 60.0407C85.4426 60.1209 85.6541 60.3198 85.751 60.5803ZM79.4124 61.8053C78.5583 63.0334 76.7864 61.8355 77.5676 60.5594C77.926 59.9751 79.1354 59.5365 79.5541 60.8073C79.6687 61.1501 79.6145 61.5157 79.4124 61.8053Z" fill="#82AB23"/>
<path fill-rule="evenodd" clip-rule="evenodd" d="M70.9323 25.5667C71.6083 25.3344 72.3052 25.2708 73.0208 25.3948C78.1188 26.275 79.3667 36.7594 77.3083 49.1094C75.25 61.4594 70.9375 71.0448 65.5615 70.1469C64.7125 70.0042 63.9729 69.624 63.3375 69.0344L54.3417 67.2615C52.9125 68.3792 51.8427 68.0667 51.0344 66.7094L26.124 62.2521C24.4365 63.5646 23.0771 63.2 21.9688 61.5583L10.7146 59.6656C9.975 59.95 9.19792 60.0927 8.41875 59.9062C3.35208 58.6979 0.86146 48.6052 2.85833 36.6229C4.85625 24.6396 8.96667 16.7187 14.3396 17.6458C15.0833 17.7739 15.7469 18.101 16.3302 18.6021L27.5646 19.9104C28.7719 19.1969 29.8521 19.2458 30.7417 20.4406L57.124 23.8219C58.1979 23.2417 59.0354 23.3406 59.5969 24.2354L70.9323 25.5667Z" fill="#FBC136"/>
<path fill-rule="evenodd" clip-rule="evenodd" d="M32.2063 38.2063C31.7052 38.2302 31.65 36.9781 31.65 36.9781C31.65 36.9781 31.1104 33.3417 31.0677 32.5584C31.024 31.775 29.9573 30.9906 33.6052 30.7094C36.5209 30.4844 39.3073 31.6563 40.5188 32.5646C41.1615 33.0459 40.0125 34.1313 40.0125 34.1313C40.0125 34.1313 37.8407 36.4479 37.0823 37.2781C36.3532 38.0761 35.625 39.2927 35.1625 38.7729C34.7 38.2521 32.2063 38.2063 32.2063 38.2063ZM24.174 41.3375C24.174 41.3375 24.2209 40.3198 24.9198 40.449C25.8313 40.6177 27.9417 41.0865 27.9417 41.0865C27.9417 41.0865 28.9844 41.2209 28.9396 41.874C28.8948 42.5281 29.1146 44.1417 29.4823 44.5636C29.85 44.9854 29.8323 45.3406 29.3302 46.0167C28.8282 46.6927 27.1407 49.0823 27.1407 49.0823C27.1407 49.0823 26.2396 50.1438 25.5615 48.7261C23.9407 45.3354 24.0688 43.3188 24.174 41.3375ZM36.3573 43.4261C36.5094 42.7511 37.6271 43.1 37.6271 43.1C37.6271 43.1 41.0094 43.6365 41.75 43.9323C42.4896 44.2281 43.2802 43.6979 42.7563 45.7844C41.9729 48.9084 39.3386 51.675 37.9209 52.6198C36.5021 53.5646 36.2802 52.1281 36.2802 52.1281C36.2802 52.1281 34.6177 48.2927 34.3927 47.4344C34.1667 46.5771 33.7854 46.2906 34.775 45.5959C35.7636 44.9 36.3573 43.4261 36.3573 43.4261ZM33.9927 39.8469C34.3604 40.0448 34.7157 40.3854 34.9761 41.0156C35.0646 41.2292 35.8886 43.2698 34.2479 44.3229C32.0813 45.7136 30.4365 44.0396 30.2375 43.1573C29.6854 40.7115 31.1271 39.7281 32.4959 39.5677C33.0125 39.5052 33.5365 39.6031 33.9927 39.8469Z" fill="#2A1C08"/>
<path fill-rule="evenodd" clip-rule="evenodd" d="M21.6814 60.8854C21.6928 60.8969 21.722 60.9281 21.7355 60.9458C21.748 60.9635 21.7636 60.9865 21.773 61.0115C21.7876 61.0458 21.7938 61.0844 21.7938 61.1219C21.7938 61.2437 21.7209 61.3167 21.7084 61.3292C21.6949 61.3427 21.622 61.4146 21.5001 61.4146C21.4626 61.4146 21.4241 61.4073 21.3897 61.3927C21.3209 61.3646 21.323 61.3594 21.2709 61.3062C21.2616 61.2969 21.0751 61.1062 20.9459 60.9646C20.0647 60.0062 19.2855 58.7802 18.6366 57.3167C18.1001 56.1073 17.7574 54.9062 17.7293 54.8094C17.4407 53.8271 17.2845 53.0646 17.2241 52.7646C17.0209 51.7646 16.9043 50.9062 16.8376 50.3562C16.8314 50.3094 16.7543 49.625 16.7084 48.9312C16.6564 48.1437 16.6261 47.3135 16.6324 46.2958C16.6449 44.2594 16.8063 42.5135 16.9813 41.0604C17.1168 39.9323 17.2532 39.125 17.3116 38.7573C17.3647 38.4271 17.5616 37.1792 17.9157 35.5635C18.4689 33.0448 19.0866 31.1812 19.5397 29.9615C19.7595 29.3687 19.9949 28.8104 20.0366 28.7115C20.0699 28.6333 20.3543 27.9573 20.6366 27.3812C21.3157 25.9979 21.8876 25.1198 22.1501 24.726C23.8855 22.1281 25.6459 20.8406 26.9793 20.6927C27.0418 20.6854 27.0428 20.6844 27.1032 20.7021C27.1397 20.7125 27.1741 20.7312 27.2043 20.7542C27.2334 20.7771 27.2595 20.8062 27.2772 20.8385L27.3136 20.9489C27.3105 20.9864 27.3147 21.026 27.3043 21.0635C27.2938 21.0989 27.2761 21.1333 27.2532 21.1635C27.2303 21.1927 27.2001 21.2187 27.1678 21.2375C27.098 21.2771 27.0949 21.2687 27.0147 21.2812C25.7084 21.4885 23.9418 23.0552 22.3178 25.8604C22.1168 26.2083 21.7439 26.8594 21.2834 27.8458C21.173 28.0823 20.7741 28.9052 20.2866 30.1875C19.9334 31.1198 19.1772 33.1687 18.5011 36.2885C18.3491 36.9906 18.2157 37.7271 18.1928 37.8531C18.0543 38.6156 17.9907 39.0437 17.9751 39.1479C17.7251 40.8344 17.6324 42.0125 17.5991 42.449C17.3959 45.0969 17.4751 47.0427 17.5241 47.9792C17.5293 48.0927 17.5584 48.6573 17.6241 49.4021C17.6428 49.625 17.6574 49.7844 17.7241 50.399C17.8636 51.6875 18.0543 52.7271 18.2532 53.6219C18.4532 54.5208 18.8282 55.9917 19.5178 57.5354C20.2428 59.1594 21.0126 60.1583 21.547 60.7458C21.5803 60.7823 21.6407 60.8448 21.6814 60.8854ZM56.5074 62.0104C56.5407 61.9885 56.5709 61.9635 56.6053 61.9448C56.6366 61.9281 56.8136 61.8323 57.0438 61.8979C57.1563 61.9302 57.2313 61.9896 57.2449 62.001L57.3293 62.0833C57.3511 62.1156 57.3772 62.1469 57.3949 62.1812C57.4126 62.2115 57.5084 62.3885 57.4418 62.6198C57.4095 62.7323 57.3501 62.8073 57.3386 62.8208C57.2907 62.8812 57.2886 62.8792 57.2293 62.9281C57.0855 63.0469 56.9636 63.1198 54.5678 65.1896C54.447 65.2937 54.447 65.2937 54.4459 65.2948C54.4136 65.3177 54.3834 65.3437 54.3491 65.3625C54.3189 65.3802 54.1428 65.4792 53.9116 65.4156C53.7991 65.3854 53.723 65.3271 53.7095 65.3156L53.623 65.2344C53.6011 65.2031 53.5751 65.1729 53.5564 65.1385C53.5386 65.1073 53.4397 64.9323 53.5022 64.7C53.5334 64.5875 53.5918 64.5115 53.6032 64.4969C53.6272 64.4667 53.6553 64.4385 53.6834 64.4115C53.7011 64.3958 54.4001 63.7937 54.4626 63.7396C56.3209 62.1396 56.3678 62.1281 56.5074 62.0104ZM41.6251 61.8333C41.6001 61.8031 41.572 61.775 41.5511 61.7417C41.5314 61.7125 41.422 61.5437 41.4689 61.3083C41.4918 61.1937 41.5459 61.1146 41.5553 61.099C41.5772 61.0667 41.6043 61.0375 41.6303 61.0083C41.648 60.9885 41.8418 60.8052 42.3168 60.3229C42.3543 60.2854 42.7813 59.851 42.7876 59.8458C42.8188 59.8208 42.8459 59.7927 42.8793 59.7708C42.9084 59.7521 43.0761 59.6396 43.3116 59.6844C43.347 59.6917 43.5511 59.7302 43.6876 59.9344C43.7063 59.9635 43.8188 60.1312 43.7741 60.3667C43.7522 60.4812 43.6991 60.5615 43.6897 60.5771C43.6678 60.6094 43.6418 60.6385 43.6157 60.6687C43.6157 60.6687 43.4522 60.8323 43.2699 61.0177C42.9803 61.3115 42.8991 61.3958 42.4491 61.8396C42.2782 62.0083 42.072 62.0073 42.0355 62.0073C41.8595 62.0052 41.7376 61.924 41.7157 61.9083L41.6251 61.8333ZM31.8157 61.6844C31.7886 61.6552 31.7595 61.6281 31.7355 61.5969C31.7147 61.5687 31.5928 61.4083 31.6241 61.1698C31.6397 61.0542 31.6876 60.9708 31.697 60.9552C31.7157 60.9219 31.7407 60.8906 31.7657 60.8604C31.7782 60.8448 32.0814 60.5031 32.1095 60.4719C32.7439 59.7583 32.8803 59.6385 33.7657 58.8354C33.9439 58.674 34.1501 58.6833 34.1855 58.6854C34.3616 58.6937 34.4803 58.7812 34.5011 58.7969L34.5897 58.876C34.6126 58.9073 34.6386 58.9365 34.6584 58.9708C34.6772 59.001 34.7793 59.174 34.723 59.4073C34.6949 59.5208 34.6376 59.5979 34.6272 59.6125C34.5709 59.6885 34.5636 59.6823 34.0647 60.1396C33.5043 60.6542 33.3824 60.7927 32.6386 61.6344C32.4793 61.8146 32.273 61.8271 32.2376 61.8292C32.0605 61.8396 31.9345 61.7656 31.9105 61.7531L31.8157 61.6844ZM28.3803 61.1865C28.3532 61.1573 28.323 61.1312 28.3001 61.1C28.2782 61.0719 28.1574 60.9115 28.1876 60.6729C28.2022 60.5573 28.2501 60.474 28.2595 60.4583C28.3001 60.3875 28.3032 60.3896 28.3574 60.3281C29.6345 58.876 29.5751 58.8156 31.0616 57.474C31.0761 57.4615 31.1491 57.3948 31.2605 57.3562C31.4845 57.2792 31.6678 57.3646 31.7001 57.3792C31.7345 57.3958 31.7678 57.4146 31.798 57.4375L31.8855 57.5167C31.9084 57.549 31.9355 57.5781 31.9553 57.6115C31.973 57.6427 32.0751 57.8156 32.0178 58.049C31.9897 58.1625 31.9324 58.2396 31.922 58.2542C31.873 58.3198 31.8699 58.3167 31.8084 58.3719C30.4199 59.626 30.4772 59.6844 29.2334 61.1L29.2022 61.1344C29.1741 61.1615 29.148 61.1906 29.1168 61.2146C29.0886 61.2354 28.9282 61.3573 28.6897 61.3271C28.5741 61.3115 28.4918 61.2635 28.4751 61.2552L28.3803 61.1865ZM11.4428 56.2167C11.4157 56.1875 11.3866 56.1615 11.3636 56.1302C11.3522 56.1156 11.2949 56.0385 11.2668 55.925C11.2084 55.6927 11.3105 55.5187 11.3282 55.4875C11.348 55.4542 11.373 55.4229 11.397 55.3927C11.4241 55.3604 11.4532 55.3302 11.4813 55.299L13.2428 53.3427C13.4032 53.1635 13.6095 53.1521 13.6449 53.151C13.822 53.1417 13.948 53.2156 13.9709 53.2292C14.1824 53.3531 14.2324 53.5562 14.2407 53.5906C14.2991 53.824 14.197 53.9979 14.1793 54.0281C14.1595 54.0615 14.1345 54.0927 14.1095 54.1229C14.0939 54.1427 13.1772 55.1583 13.0959 55.2479L12.2657 56.1719C12.1053 56.351 11.8991 56.3625 11.8636 56.3646C11.6866 56.374 11.5605 56.3 11.5376 56.2865L11.4428 56.2167ZM8.66156 56.6521C8.63343 56.624 8.60322 56.599 8.57927 56.5677C8.55739 56.5406 8.43239 56.3823 8.45739 56.1437C8.46885 56.0281 8.51468 55.9437 8.52302 55.9281C8.54177 55.8927 8.56572 55.8615 8.58968 55.8302C8.58968 55.8302 8.72406 55.6698 8.84072 55.5323C9.22406 55.0812 9.28031 55.0302 9.85427 54.3729C10.0126 54.1917 10.2188 54.1781 10.2543 54.176C10.4313 54.1646 10.5584 54.2365 10.5813 54.25L10.6772 54.3187C10.7043 54.3469 10.7334 54.3729 10.7574 54.4042C10.7793 54.4323 10.9011 54.5927 10.8709 54.8312C10.8574 54.9469 10.8095 55.0302 10.8001 55.0458C10.7813 55.0802 10.7563 55.1104 10.7324 55.1417C10.7209 55.1573 10.4553 55.4583 10.4303 55.4854C10.0418 55.926 9.9876 55.9792 9.48239 56.5812C9.32822 56.7656 9.12197 56.7833 9.08656 56.7865C8.91052 56.801 8.78239 56.7312 8.75843 56.7187L8.66156 56.6521ZM72.8241 26.5865C72.9866 26.6156 73.4261 26.6989 73.9261 26.9865C76.1584 28.274 77.1626 32.1729 77.3605 36.7802C77.4855 39.6969 77.2751 42.45 77.1366 43.9479C77.0616 44.7687 76.9584 45.6177 76.9407 45.7625C76.8314 46.676 76.6084 48.3917 76.1959 50.6521C76.1938 50.6604 76.0782 51.2885 75.9126 52.0948C75.7574 52.851 75.4428 54.3396 74.9418 56.199C74.6251 57.3708 74.3084 58.3604 74.2491 58.5469C72.2605 64.7729 69.6199 68.8937 66.5553 69.0698C66.0782 69.0979 65.3032 69.0417 64.4991 68.5646C63.998 68.2667 63.2886 67.6885 62.6418 66.4969C62.1939 65.6708 61.4168 63.9125 61.0761 60.4323C60.5011 54.576 61.5689 48.0437 61.8511 46.3625C62.247 44.0062 62.6303 42.3792 62.6814 42.1604C63.3678 39.2021 64.0386 37.2052 64.4032 36.1792C66.5116 30.2344 69.3084 26.3719 72.3907 26.5364C72.6199 26.5479 72.8074 26.5844 72.8241 26.5865ZM72.7241 27.1656C72.723 27.1687 72.4199 27.101 72.0032 27.1344C69.1584 27.3615 66.4449 31.7594 64.4991 38.2781C64.2876 38.9865 63.8168 40.5885 63.3168 42.901C63.2095 43.401 62.6355 45.9562 62.1834 49.4115C61.4782 54.8052 61.4709 59.6052 62.1939 63.0094C62.9116 66.3896 64.1272 67.4531 64.7032 67.8396C65.7439 68.5385 66.747 68.3208 66.9595 68.2729C69.6772 67.6625 72.2001 63.0875 74.0324 56.2677C74.1626 55.7833 74.5449 54.3615 74.9876 52.2385C75.0209 52.0823 75.1563 51.4437 75.3949 50.1615C75.8657 47.6365 76.1782 45.3677 76.3845 43.176C77.023 36.3906 76.2907 32.8562 76.0199 31.7187C75.4168 29.1906 74.4116 27.7219 73.1428 27.274C73.0532 27.2417 72.9636 27.2187 72.948 27.2146C72.8324 27.1844 72.7439 27.1698 72.7241 27.1656ZM65.7751 64.0823C65.7491 64.0927 65.7251 64.1062 65.698 64.1146C65.6741 64.1219 65.5366 64.1635 65.3855 64.0844C65.3116 64.0458 65.2678 63.9937 65.2595 63.9833C65.2532 63.9771 65.2303 63.949 65.197 63.8875C64.4897 62.5479 64.7209 60.1344 65.2574 58.9375C65.3543 58.7198 65.4386 58.5937 65.4741 58.5427C65.4876 58.5208 65.5699 58.4 65.7407 58.3677C65.8636 58.3448 65.9605 58.3854 65.9782 58.3927C66.0011 58.4021 66.1386 58.4604 66.2032 58.6219C66.2657 58.7812 66.2105 58.9135 66.2001 58.9365C66.1741 58.999 66.1688 58.9958 66.1334 59.0521C65.6959 59.7552 65.3991 61.6344 65.722 62.926C65.8178 63.3094 65.9355 63.5 65.9428 63.5177C65.9532 63.5437 65.9668 63.5687 65.9751 63.5948C65.9824 63.6198 66.0241 63.7562 65.9449 63.9083C65.9074 63.9823 65.8543 64.026 65.8449 64.0344L65.7751 64.0823ZM69.9303 38.7219C69.9105 38.7292 69.8011 38.7698 69.6741 38.7125C69.6355 38.6948 69.5991 38.6687 69.5699 38.6375C69.5084 38.5719 69.5168 38.5656 69.4834 38.4823C69.2157 37.8104 69.1418 37.2021 69.1209 37.0344C69.0657 36.5844 69.072 36.2687 69.073 36.2406C69.0741 35.9302 69.098 35.6469 69.1189 35.499C69.1939 34.9719 69.3095 34.6396 69.3209 34.6062C69.4751 34.1333 69.6459 33.8531 69.7282 33.7229C70.0001 33.2937 70.2834 33.0656 70.4564 32.9469C70.5116 32.9083 70.5116 32.9073 70.5772 32.8917C70.6189 32.8812 70.6636 32.8802 70.7053 32.8875C70.748 32.8937 70.7897 32.9083 70.8261 32.9302L70.9241 33.0198C70.9418 33.0604 70.9688 33.0979 70.9793 33.1406C70.9886 33.1823 70.9897 33.2271 70.9834 33.2687C70.9761 33.3115 70.9616 33.3531 70.9397 33.3896C70.8949 33.4625 70.8866 33.4562 70.822 33.5104C70.4959 33.7833 70.3116 34.1635 70.2011 34.4406C70.1501 34.5708 70.0824 34.7573 70.0074 35.0885C69.9428 35.374 69.9209 35.5917 69.9084 35.6896C69.8741 35.9573 69.8595 36.2125 69.8595 36.5417C69.8595 36.5667 69.8522 37.175 70.0001 37.8365C70.0428 38.0292 70.0866 38.1729 70.1126 38.2531C70.1397 38.3365 70.1501 38.3354 70.147 38.4219C70.1449 38.4646 70.1345 38.5083 70.1168 38.5469C70.0595 38.6729 69.9491 38.7146 69.9303 38.7219ZM51.3043 66.6135C51.2928 66.6271 51.2251 66.7052 51.1032 66.7146C51.0657 66.7167 51.0272 66.7125 50.9918 66.701C50.9199 66.6771 50.922 66.6708 50.8647 66.6208C50.8449 66.6031 50.6584 66.4396 50.5116 66.299C49.272 65.1156 48.4949 63.6469 48.0272 62.576C47.7053 61.8406 47.4647 61.099 47.422 60.9687C46.9584 59.5406 46.7324 58.2937 46.6657 57.9302C46.4709 56.8531 46.3678 55.9302 46.3147 55.3979C46.3105 55.3573 46.2449 54.6521 46.2116 53.9594C46.1709 53.101 46.1553 52.2625 46.172 51.2771C46.2084 49.1583 46.3803 47.3427 46.5532 45.8687C46.6907 44.7 46.823 43.8635 46.8772 43.5C46.9355 43.1104 47.1199 41.8812 47.523 40.1937C47.9803 38.275 48.5907 36.3583 49.3345 34.5135C49.6345 33.7677 49.9511 33.0771 50.0084 32.9531C50.2918 32.3365 50.4741 31.9781 50.5168 31.8937C51.2418 30.4698 51.8334 29.5469 52.0657 29.1896C53.6324 26.7729 55.247 25.1458 56.6407 24.5677C56.6574 24.5615 56.7532 24.5219 56.8657 24.5667C56.9011 24.5812 56.9334 24.6021 56.9605 24.6281L57.0261 24.7229C57.0345 24.7604 57.0491 24.7969 57.0501 24.8354C57.0501 24.8729 57.0418 24.9114 57.0282 24.9458C57.0147 24.9812 56.9939 25.0135 56.9678 25.0406C56.9126 25.0979 56.9074 25.0917 56.8355 25.125C55.4011 25.7812 53.7366 27.7385 52.2636 30.2865C52.0126 30.7198 51.6345 31.3854 51.1563 32.3677C51.0543 32.5771 50.5251 33.6198 49.872 35.2583C48.8834 37.7437 48.3501 39.8271 48.0855 40.974C47.9251 41.6667 47.8001 42.3406 47.7782 42.4594C47.6116 43.3625 47.5282 44.001 47.5011 44.1969C47.2813 45.8292 47.1949 46.9604 47.1699 47.276C46.9532 50.0615 47.0095 52.0615 47.0397 52.9302C47.0438 53.05 47.0636 53.6375 47.1168 54.4198C47.1376 54.7292 47.1511 54.9031 47.2011 55.4656C47.3126 56.7437 47.4782 57.8198 47.6793 58.8156C47.8751 59.7875 48.2376 61.301 48.9199 62.824C49.6824 64.526 50.5251 65.4969 51.1095 66.0521C51.1595 66.099 51.2616 66.1875 51.2751 66.199C51.2886 66.2115 51.3668 66.2792 51.3751 66.4C51.3834 66.5219 51.3157 66.6 51.3043 66.6135Z" fill="#F2922C"/>
<path fill-rule="evenodd" clip-rule="evenodd" d="M72.4 33.2687C72.6406 33.3375 73.0708 33.5385 73.2771 34.3458C73.4885 35.1781 73.3687 36.3052 73.3 36.7052C73.1625 37.5052 72.8833 37.9354 72.7593 38.1072C72.3291 38.7093 71.7448 38.9197 71.2104 38.7614C71.0364 38.7093 70.5052 38.527 70.3208 37.2864C70.2156 36.575 70.2656 35.7062 70.4437 34.9895C70.6489 34.1666 71.0687 33.3875 71.7791 33.2364C72.0625 33.176 72.2948 33.2395 72.4 33.2687ZM72.2125 33.9104C72.2083 33.9093 72.2031 33.9083 72.1989 33.9072C71.9843 33.85 71.8385 33.9343 71.825 33.9406C71.2427 34.2437 70.9396 35.7177 71.0687 36.9187C71.0729 36.9593 71.1281 37.5739 71.3333 37.8885C71.3541 37.9187 71.3937 37.9708 71.4218 37.9822C71.4989 38.0052 71.6812 38.0541 71.9198 37.852C72.3375 37.501 72.5 36.7562 72.5073 36.7229C72.526 36.6468 72.5875 36.3989 72.6354 35.8364C72.725 34.7739 72.5718 34.0677 72.2489 33.925C72.2343 33.9177 72.2156 33.9114 72.2125 33.9104ZM63.1166 68.7687C63.0968 68.7843 63.0791 68.8031 63.0573 68.8177C62.9625 68.8812 62.8635 68.8812 62.8458 68.8812C62.8281 68.8812 62.7302 68.8822 62.6343 68.8197C62.5896 68.7895 62.5906 68.7875 62.5531 68.7489C62.4812 68.677 62.3364 68.526 62.2552 68.4364C61.6843 67.8062 60.825 66.6229 60.1375 64.401C59.8864 63.5916 59.7125 62.7614 59.6823 62.6177C59.4833 61.6708 59.3708 60.8479 59.3146 60.4125C59.2791 60.1302 59.2406 59.7416 59.2343 59.6833C59.1437 58.7739 59.0948 57.9239 59.0666 57.2041C59.0666 57.1885 59.0437 56.4354 59.0531 55.6593C59.0635 54.6854 59.0968 54.0208 59.1187 53.6073C59.2521 51.0833 59.5177 49.0552 59.6781 47.8604C59.8635 46.4802 60.0104 45.6541 60.0448 45.4447C60.1896 44.5562 60.3646 43.6031 60.6302 42.3791C61.2062 39.7239 61.8531 37.6833 62.2864 36.4281C62.4385 35.9885 62.625 35.4927 62.6552 35.4114C62.9291 34.6854 63.1521 34.152 63.25 33.9197C63.3031 33.7937 63.4354 33.5 63.4521 33.4635C64.0073 32.2281 64.4343 31.4541 64.5489 31.2447C66.4843 27.7187 67.9333 26.8489 68.3823 26.6125C68.7854 26.3989 69.0823 26.3489 69.2416 26.3312C69.2802 26.327 69.2802 26.326 69.3198 26.3291C69.4333 26.3385 69.5114 26.4 69.525 26.4104C69.5385 26.4208 69.6166 26.4822 69.6521 26.5906C69.6771 26.6656 69.6718 26.7312 69.6708 26.7437C69.6625 26.8572 69.601 26.9354 69.5906 26.9489C69.5791 26.9625 69.5187 27.0406 69.4104 27.077C69.3531 27.0958 69.3521 27.0895 69.2927 27.101C68.4833 27.252 67.3437 28.3291 66.0823 30.4625C65.825 30.8968 65.4531 31.5583 64.9573 32.6C64.5437 33.4666 64.2698 34.1427 64.1573 34.4104C63.8 35.2572 63.4843 36.0854 63.1396 37.0729C62.2656 39.5666 61.7448 41.7354 61.476 42.9458C61.375 43.4041 61.2666 43.9531 61.25 44.0406C61.0958 44.8229 60.9771 45.526 60.9375 45.7864C60.9062 45.9864 60.7593 46.95 60.6073 48.2947C60.5614 48.6947 60.5104 49.2333 60.5021 49.3156C60.2354 52.1145 60.2114 54.0895 60.2021 54.6677C60.2 54.7833 60.1916 55.2239 60.1968 56.1562C60.2 56.6739 60.2073 56.8656 60.2156 57.2687C60.2437 58.801 60.3427 59.8593 60.4083 60.5104C60.5687 62.0833 60.8239 63.3895 61.1552 64.5145C61.7135 66.4135 62.4239 67.4645 62.9646 68.0697C63.0104 68.1208 63.1031 68.2125 63.1146 68.225C63.2271 68.3364 63.2281 68.4729 63.2281 68.4958C63.2281 68.5135 63.2281 68.6125 63.1656 68.7083L63.1166 68.7687ZM54.2552 32.4291C54.2281 32.4135 54.2 32.401 54.176 32.3833C54.1531 32.3677 54.026 32.276 53.9948 32.0916C53.9791 32.002 53.9958 31.9302 53.9989 31.9156C54.0125 31.852 54.0177 31.8541 54.0427 31.7927C54.2604 31.2593 54.3885 30.9781 54.5333 30.6885C54.5802 30.5937 54.6718 30.4093 54.8396 30.1354C54.9437 29.9635 55 29.8833 55.0156 29.8625C55.1562 29.6614 55.276 29.5135 55.3343 29.4427C55.3979 29.3645 55.5073 29.2437 55.5229 29.227C55.6218 29.1177 55.8031 28.9197 56.1656 28.5927C56.3166 28.4562 56.4489 28.3437 56.4489 28.3437C56.4739 28.325 56.4968 28.3041 56.5229 28.2885C56.5458 28.275 56.6802 28.1937 56.8614 28.2364C56.95 28.2572 57.0104 28.301 57.0218 28.3093C57.0437 28.325 57.176 28.4208 57.2041 28.6093C57.2323 28.7937 57.1406 28.9208 57.125 28.9427C57.1187 28.951 57.1052 28.9697 57.0375 29.0375C56.8521 29.2229 56.6416 29.4406 56.375 29.7541C56.3333 29.8031 56.2489 29.901 56.0698 30.1364C55.9416 30.3031 55.8854 30.3927 55.7916 30.5281C55.7343 30.6125 55.6489 30.7364 55.4625 31.0541C55.4312 31.1052 55.3114 31.3083 55.1 31.7135C55.0041 31.8979 54.875 32.1562 54.8541 32.201C54.7781 32.3718 54.6271 32.4291 54.6021 32.4385C54.4729 32.4875 54.3625 32.4625 54.3416 32.4583L54.2552 32.4291ZM24.5208 27.126C24.4948 27.1114 24.4666 27.0979 24.4416 27.0802C24.4198 27.0645 24.2927 26.9729 24.2604 26.7895C24.2448 26.7 24.2614 26.627 24.2646 26.6135C24.2791 26.5489 24.2843 26.551 24.3093 26.4895C24.526 25.9562 24.6541 25.676 24.7989 25.3864C24.8468 25.2916 24.9385 25.1062 25.1052 24.8322C25.2104 24.6604 25.2666 24.5802 25.2812 24.5593C25.4229 24.3583 25.5427 24.2104 25.601 24.1395C25.6646 24.0614 25.7739 23.9406 25.7896 23.9239C25.8885 23.8145 26.0687 23.6177 26.4323 23.2895C26.5833 23.1531 26.7156 23.0406 26.7156 23.0406C26.7396 23.0229 26.7625 23.002 26.7885 22.9864C26.8125 22.9718 26.9458 22.8906 27.1271 22.9333C27.2156 22.9541 27.276 22.9979 27.2875 23.0062C27.3104 23.0229 27.4416 23.1177 27.4708 23.3062C27.4989 23.4906 27.4073 23.6177 27.3906 23.6395C27.3843 23.6479 27.3708 23.6677 27.3041 23.7343C27.1187 23.9208 26.9083 24.1375 26.6406 24.452C26.5989 24.501 26.5146 24.5979 26.3354 24.8343C26.2083 25.001 26.151 25.0895 26.0583 25.226C26 25.3093 25.9156 25.4333 25.7281 25.751C25.6979 25.8031 25.5781 26.0062 25.3666 26.4114C25.2708 26.5947 25.1406 26.8531 25.1208 26.8989C25.0437 27.0697 24.8937 27.126 24.8677 27.1364C24.7396 27.1854 24.6281 27.1604 24.6073 27.1552L24.5208 27.126ZM7.84997 28.9541C7.8208 28.9427 7.7906 28.9333 7.76247 28.9187C7.73747 28.9052 7.59476 28.8302 7.53643 28.6468C7.5083 28.5583 7.51455 28.4812 7.5156 28.4677C7.5208 28.401 7.52497 28.401 7.54372 28.3375C8.47393 25.1583 9.51664 23.0989 11.601 21.4229C11.65 21.3843 11.6489 21.3812 11.7041 21.3531C11.7302 21.3395 11.8729 21.2666 12.0562 21.3239C12.1458 21.351 12.2041 21.401 12.2156 21.4104C12.2885 21.4718 12.326 21.5437 12.3323 21.5562C12.3448 21.5822 12.4187 21.725 12.3614 21.9083C12.3333 21.9979 12.2843 22.0572 12.275 22.0677C12.2354 22.1156 12.2333 22.1135 12.1854 22.152C10.2771 23.6854 9.32497 25.5708 8.42914 28.6364C8.37497 28.8218 8.22914 28.901 8.20414 28.9145C8.08018 28.9833 7.96351 28.9729 7.94268 28.9718L7.84997 28.9541ZM6.75518 33.1468C6.72497 33.1406 6.69372 33.1364 6.66351 33.127C6.63643 33.1177 6.4833 33.0666 6.3958 32.8958C6.3531 32.8125 6.34685 32.7364 6.3458 32.7218C6.34268 32.6906 6.3458 32.6593 6.34789 32.6281C6.34789 32.6281 6.36039 32.5145 6.37393 32.4125C6.48226 31.5677 6.58643 31.2364 6.9656 30.2416C7.03435 30.0614 7.18539 29.9937 7.21143 29.9822C7.3406 29.9239 7.45622 29.9437 7.47705 29.9468C7.6708 29.9791 7.76664 30.1156 7.7833 30.1395C7.89372 30.2968 7.86768 30.4552 7.86247 30.4833C7.85726 30.5145 7.84789 30.5447 7.83851 30.575C7.82705 30.6093 7.60101 31.175 7.48226 31.5833C7.37914 31.9375 7.33435 32.2395 7.27393 32.7385C7.25101 32.9302 7.12185 33.0322 7.09893 33.05C6.98747 33.1375 6.8708 33.1468 6.84997 33.1489L6.75518 33.1468Z" fill="#FEE9BC"/>
<path fill-rule="evenodd" clip-rule="evenodd" d="M69.2729 69.5438C69.2541 69.5188 69.2333 69.4938 69.2187 69.4667C69.2041 69.4417 69.126 69.3001 69.1771 69.1146C69.2146 68.9761 69.3062 68.8969 69.3229 68.8823C69.326 68.8792 69.3302 68.8782 69.4458 68.7688C69.6604 68.5636 69.9291 68.2938 70.3104 67.8584C70.4052 67.7501 70.6354 67.4865 70.9885 67.0167C71.0104 66.9876 71.0948 66.8751 71.2614 66.6428C71.376 66.4803 71.3875 66.4605 71.4781 66.3303C71.7083 66.0032 71.8427 65.7813 71.9552 65.6032C72.1187 65.3438 72.2385 65.1355 72.4146 64.8136C72.7698 64.1678 72.9604 63.6803 72.9781 63.6417C72.9916 63.6126 73.0031 63.5834 73.0198 63.5563C73.0343 63.5323 73.1187 63.3938 73.3062 63.3469C73.3968 63.3251 73.4729 63.3365 73.4875 63.3386C73.5833 63.3532 73.6521 63.3948 73.6646 63.4032C73.6885 63.4178 73.826 63.5032 73.8729 63.6896C73.8958 63.7813 73.8843 63.8573 73.8823 63.8719C73.8802 63.8855 73.876 63.9136 73.8364 64.0323C73.6291 64.6646 73.4114 65.1542 73.301 65.3969C73.25 65.5084 73.1552 65.6969 73.1416 65.7219C72.9604 66.0803 72.8427 66.2792 72.8146 66.3271C72.6083 66.6771 72.4135 66.9698 72.3489 67.0605C72.1437 67.3501 72.0073 67.523 71.8604 67.7021C71.8593 67.7032 71.6625 67.9501 71.3354 68.3011C71.0333 68.6251 70.8073 68.8396 70.5896 69.0355C70.2468 69.3459 69.9812 69.5542 69.9593 69.5719C69.951 69.5792 69.9427 69.5876 69.9333 69.5948C69.7875 69.7209 69.6208 69.7084 69.5927 69.7063C69.451 69.6948 69.3583 69.623 69.3406 69.6094L69.2729 69.5438ZM64.2948 70.2646C64.2781 70.2876 64.2646 70.3126 64.2458 70.3344C64.2281 70.3542 64.1323 70.4657 63.9573 70.4803C63.8718 70.4876 63.8052 70.4667 63.7916 70.4626C63.7343 70.4438 63.7354 70.4396 63.6823 70.4115C63.6823 70.4115 63.5885 70.3719 63.4218 70.3303C63.4031 70.3251 63.2073 70.2761 62.9593 70.2334C62.5396 70.1615 62.0656 70.1188 61.8771 70.0969C61.3625 70.0376 60.8614 69.9865 60.2541 69.9063C60.1729 69.8959 59.5677 69.798 59.4093 69.7636C59.1927 69.7188 59.0218 69.6803 58.7646 69.6136C58.6927 69.5948 58.2448 69.4532 58.0968 69.399C57.8833 69.3209 57.6458 69.2292 57.5864 69.2073C57.4823 69.1678 57.3323 69.1042 56.9739 68.9594C56.9093 68.9344 56.7052 68.8459 56.4062 68.7271C56.3104 68.6886 55.8927 68.5073 55.3979 68.3448C55.2583 68.299 55.0427 68.2198 54.6468 68.1271C54.5646 68.1073 54.5604 68.1178 54.4854 68.0771C54.3333 67.9928 54.2906 67.8511 54.2833 67.8261C54.276 67.8001 54.2312 67.6521 54.3187 67.4948C54.4031 67.3438 54.5448 67.3001 54.5698 67.2928C54.5958 67.2844 54.6239 67.2792 54.6521 67.2761C54.6677 67.274 54.8041 67.2761 54.8177 67.2761C55.1125 67.2803 55.3833 67.3021 55.5979 67.3251C55.6385 67.3292 55.8437 67.3542 56.0979 67.3959C56.151 67.4042 56.4531 67.4542 56.7593 67.5188C56.7937 67.5261 57.2323 67.6251 57.4354 67.6782C57.9396 67.8094 57.9927 67.824 58.0406 67.8386C58.5239 67.9761 58.5343 67.9751 58.6218 68.0011C58.9781 68.1073 59.1271 68.1428 59.1739 68.1573C59.5271 68.2657 59.7062 68.3053 59.7885 68.3282C60.2093 68.4459 60.4323 68.498 60.5729 68.5355C61.2291 68.7136 61.9552 68.8865 62.2041 68.9542C62.7104 69.0917 63.1531 69.2219 63.526 69.3719C63.5312 69.374 63.6646 69.4282 63.8114 69.5021C63.976 69.5855 64.0729 69.649 64.0802 69.6532C64.0843 69.6563 64.0906 69.6584 64.1312 69.6813C64.1541 69.6938 64.2854 69.7667 64.3333 69.9386C64.3687 70.0636 64.3354 70.1657 64.3291 70.1844L64.2948 70.2646Z" fill="#5E8513"/>
<path fill-rule="evenodd" clip-rule="evenodd" d="M67.8155 58.4948C68.7009 58.5771 69.0968 59.873 68.9614 61.4188C68.8259 62.9646 68.2572 64.1792 67.3249 64.098C66.3916 64.0157 66.0436 62.7198 66.1791 61.174C66.3145 59.6282 66.8832 58.4094 67.8155 58.4948Z" fill="#2A1C08"/>
<path fill-rule="evenodd" clip-rule="evenodd" d="M66.4802 63.1688C66.4291 63.1917 66.4354 63.2584 66.4437 63.2813C66.7656 64.249 66.0156 75.2105 65.9031 75.4969C65.8021 75.7521 67.6739 74.499 68.4969 74.4813C70.4 74.4428 70.376 73.6209 69.9052 71.3626C69.0198 67.1167 68.7281 63.4896 68.301 63.1657C68.1521 63.0521 67.8739 63.1678 67.525 63.0969C67.126 63.0146 66.651 63.0959 66.4802 63.1688Z" fill="#82AB23"/>
<path fill-rule="evenodd" clip-rule="evenodd" d="M57.2864 70.9521C58.7249 71.2542 58.3239 73.3208 56.8697 73.1031C56.203 73.0031 55.3416 72.076 56.3301 71.2083C56.5958 70.9729 56.9478 70.8812 57.2864 70.9521ZM77.703 73.724C78.9697 73.9906 78.6166 75.8094 77.3353 75.6177C76.7489 75.5302 75.9905 74.7135 76.8603 73.949C77.0947 73.7417 77.4041 73.6615 77.703 73.724ZM79.2687 65.6312C79.6374 66.6229 78.228 67.1719 77.802 66.2031C77.6062 65.7594 77.8395 64.8792 78.7468 65.1469C78.9916 65.2187 79.1822 65.3979 79.2687 65.6312Z" fill="#BCE149"/>
<path fill-rule="evenodd" clip-rule="evenodd" d="M80.3428 76.7511C79.7668 76.799 79.1064 76.3646 80.1272 76.2011C81.2053 76.0282 82.3678 75.8386 83.4116 75.7011C83.4116 75.7011 88.8314 74.9917 90.8668 73.6344C91.2064 73.4073 90.923 72.9271 90.5168 72.4896C90.423 72.3875 90.3949 72.2323 90.6657 72.3438C91.5116 72.6927 93.1157 73.5948 91.4157 74.5782C90.1793 75.2938 88.0803 75.699 86.2761 76.1073C85.8626 76.2 85.6907 76.2417 84.7199 76.4073C84.6782 76.4146 83.8011 76.55 83.1491 76.625C81.9761 76.7615 81.0418 76.6927 80.3428 76.7511ZM50.1053 72.3021C50.1761 72.3073 51.1116 72.5459 51.0897 72.7167C51.0699 72.874 50.0959 72.9646 50.0564 72.9761C50.0511 72.9771 50.0511 72.9719 49.9897 72.9761C49.2314 73.0219 48.7251 73.0521 47.8501 73.0886C47.2991 73.1115 46.9845 73.0959 46.698 73.0782C46.6334 73.074 46.3428 73.0427 46.1355 73.0032C45.8241 72.9438 44.5751 72.7198 43.8397 71.8459C43.8334 71.8375 43.7626 71.7542 43.7595 71.7459C43.748 71.7115 43.3251 71.2344 43.3959 71.1261C43.497 70.9709 44.1199 71.1875 44.2491 71.2761C44.7553 71.6229 45.4418 71.7021 46.1668 71.7615C46.3459 71.7771 46.3459 71.775 46.5251 71.7907C46.7168 71.8073 46.7168 71.8042 46.9074 71.8261C47.1366 71.8521 47.1366 71.849 47.3657 71.8782C47.6366 71.9136 47.6366 71.9104 47.9064 71.949C48.6074 72.05 48.7397 72.0563 49.7157 72.2271C49.7345 72.2313 49.9074 72.2657 50.0397 72.2927C50.072 72.3 50.072 72.3 50.1053 72.3021ZM86.7564 64.824C86.7074 64.7521 86.4022 64.5021 86.4574 64.4354C86.5116 64.3688 86.9136 64.5011 86.9939 64.5344C87.2074 64.6115 87.4261 64.7136 87.5928 64.849C88.0636 65.2313 88.1126 65.8896 87.4136 66.4323C86.6043 67.0604 85.4043 67.6209 84.3709 68.0021C83.6022 68.2865 83.1595 68.7042 82.8074 68.7448C82.297 68.8042 84.4324 67.1427 85.3095 66.7073C86.0418 66.3438 87.3105 65.6198 86.7564 64.824ZM64.8189 80.7563C64.8897 80.7605 66.9522 81.0292 66.9501 81.3052C66.947 81.599 65.7439 81.9011 64.798 81.9011C64.0032 81.9021 62.5543 81.9584 60.1386 81.9375C58.5959 81.924 57.698 81.8521 57.4866 81.8355C57.0605 81.8011 55.2439 81.6584 53.8574 81.2042C52.8272 80.8667 52.2032 80.4417 51.723 79.9157C51.6855 79.874 50.9157 78.8657 51.1272 78.6771C51.3418 78.4855 52.248 78.8959 52.597 79.1646C53.0845 79.5386 53.7689 79.9209 55.4751 80.1313C56.1949 80.2209 57.0886 80.2782 58.3043 80.3615C58.647 80.3855 59.2584 80.425 59.3407 80.4313C60.8303 80.5282 61.1397 80.5427 62.9741 80.6521C63.8407 80.7032 64.8105 80.7563 64.8189 80.7563ZM78.7376 60.3177C79.2751 60.2719 79.5491 61.3344 79.022 61.424C78.8709 61.449 78.8772 61.2282 78.7564 60.9969C78.6845 60.8584 78.3803 60.7073 78.4397 60.499C78.4824 60.3479 78.6105 60.3282 78.7376 60.3177ZM85.0397 60.2198C85.5782 60.174 85.8522 61.2365 85.3251 61.3261C85.1741 61.3521 85.1803 61.1302 85.0595 60.899C84.9876 60.7604 84.6834 60.6104 84.7428 60.4011C84.7855 60.2511 84.9136 60.2313 85.0397 60.2198Z" fill="#BCE149"/>
<path fill-rule="evenodd" clip-rule="evenodd" d="M66.346 70.3542C66.3376 70.3542 66.2928 70.3552 66.2543 70.3177C66.2428 70.3063 66.2335 70.2927 66.2262 70.2771C66.2126 70.2459 66.2157 70.2448 66.2157 70.2115C66.2105 69.6302 66.2543 68.9709 66.3449 67.6073C66.3585 67.4042 66.4064 66.6615 66.4282 66.2313C66.4845 65.1292 66.497 64.2438 66.4043 63.5969C66.396 63.5438 66.423 63.5084 66.4272 63.5021C66.4366 63.4886 66.4491 63.4771 66.4637 63.4677C66.5095 63.4396 66.5543 63.4511 66.5616 63.4532C66.6126 63.4657 66.6355 63.5032 66.6397 63.5105C66.6585 63.5407 66.6553 63.5427 66.6605 63.5782C66.8137 64.5386 66.7355 66.1407 66.6585 67.2709C66.5741 68.4886 66.4668 69.6521 66.472 70.225C66.472 70.2323 66.473 70.2771 66.4355 70.3157C66.398 70.3542 66.3532 70.3542 66.346 70.3542Z" fill="#5E8513"/>
<path fill-rule="evenodd" clip-rule="evenodd" d="M57.3385 71.2031C57.876 71.1573 58.15 72.2208 57.6229 72.3104C57.4718 72.3354 57.4781 72.1146 57.3573 71.8833C57.2854 71.7448 56.9812 71.5938 57.0406 71.3844C57.0833 71.2344 57.2114 71.2146 57.3385 71.2031ZM59.4552 66.1552C59.7979 67.0781 58.4864 67.5896 58.0896 66.6875C57.9073 66.274 58.1239 65.4542 58.9687 65.7042C59.1968 65.7708 59.3739 65.9375 59.4552 66.1552ZM66.3458 63.1875C66.4354 63.1396 66.4802 63.1 66.6291 63.0688C67.1343 62.9636 67.9677 62.9615 68.3041 63.0979C68.4625 63.1615 68.5396 63.3406 68.4781 63.4677C68.4229 63.5833 68.2437 63.4479 68.0479 63.5292C67.9406 63.574 67.8635 63.8604 67.7135 63.875C67.5958 63.8854 67.4646 63.6521 67.3208 63.6865C67.2437 63.7052 67.2458 63.8958 67.1583 63.9198C66.7177 64.0396 66.3093 63.4104 66.3458 63.1875ZM66.5052 70.076C66.5125 70.0344 66.6062 69.4667 66.9698 69.8333C67.0854 69.95 67.575 70.9667 67.7885 70.4083C67.9573 69.9656 68.0593 69.9479 68.4937 70.1448C69.1177 70.426 69.3927 68.7063 69.4354 68.8885C69.6489 69.8042 69.9312 70.4146 69.9979 70.5615C70.3052 71.2448 69.8979 71.1542 69.6885 71.1458C69.4177 71.1354 69.6916 71.8604 69.3458 71.7479C68.0958 71.3427 68.8541 72.35 68.5864 73.1188C68.426 73.5802 66.3896 72.8292 66.5052 70.076ZM67.5916 75.5094V75.5115C67.5604 75.5083 67.5604 75.5083 67.5291 75.5094C67.026 75.5208 66.925 75.5177 66.7625 75.5156C66.1104 75.5083 65.6052 75.4833 65.4427 75.4719C64.5593 75.4094 64.0052 75.3208 63.6958 75.2646C63.6927 75.2635 63.4312 75.2135 63.1458 75.1344C62.8906 75.0646 62.7583 75.0125 62.726 75C62.2843 74.8271 62.0604 74.6573 61.9343 74.5479C61.8896 74.5094 61.8375 74.4521 61.8291 74.4438C61.7552 74.3625 61.5604 74.1417 61.4854 73.7667C61.4218 73.449 61.4843 73.2042 61.5104 73.1083C61.6 72.7885 61.7802 72.5385 61.925 72.3708C62.0343 72.2427 62.1812 72.1156 62.2052 72.0948C62.4531 71.8792 62.6791 71.7406 62.7156 71.7177C62.9062 71.5979 63.0771 71.5073 63.1593 71.4635C63.1625 71.4615 63.3187 71.3802 63.5458 71.2792C63.8614 71.1375 64.1396 71.0344 64.2958 70.9781C64.4718 70.9146 65.8302 70.6479 65.8989 70.8021C66.1073 71.2677 65.4781 71.5115 65.4146 71.5417C65.4156 71.5458 65.4156 71.5479 65.4156 71.5479C65.4146 71.549 65.4125 71.551 65.4104 71.551H65.4114C65.3729 71.5708 65.1396 71.6802 64.7489 71.9156C64.6802 71.9573 64.2646 72.1948 63.8385 72.5208C63.7791 72.5667 63.5927 72.701 63.3875 72.8927C63.3375 72.9406 62.7656 73.2219 62.8885 73.5146C62.9583 73.6833 63.2291 73.9313 63.4073 73.9906C63.7698 74.1104 64.0093 74.124 64.1146 74.1573C64.8156 74.3792 66.975 74.5448 67.1312 74.5719C67.3343 74.6083 67.5125 74.6375 67.6208 74.6542C67.6218 74.6552 69.0343 74.9146 69.0364 75.1208C69.0396 75.3375 67.6312 75.5031 67.5916 75.5094ZM65.4031 71.5469L65.401 71.549L65.4041 71.5479L65.4031 71.5469ZM67.5885 75.5094L67.5854 75.5104H67.5885V75.5094ZM73.5218 72.7458C74.7333 72.1302 73.9271 71.326 73.55 71.175C73.2458 71.0531 71.9937 70.5521 70.3635 70.4708C70.3635 70.4698 70.35 70.3469 70.35 70.3458C70.3625 70.3063 70.3677 70.2646 70.3864 70.2281C70.426 70.1552 70.4552 70.1396 70.4635 70.1344C70.5666 70.0792 70.5854 70.1177 70.6823 70.0698V70.0615C70.6896 70.0594 70.6896 70.0583 70.7864 70.0406C71.1052 69.9844 71.3646 69.9531 71.4427 69.9448C71.4437 69.9448 71.8073 69.9063 72.2479 69.9011C72.4864 69.899 72.5875 69.9052 72.6177 69.9073C72.6646 69.9094 72.9364 69.9271 73.2041 69.9688C73.2646 69.9781 73.3771 70.0021 73.3916 70.0052C73.4354 70.0146 73.7177 70.075 73.9281 70.1552C74.2291 70.2688 74.4333 70.3885 74.5583 70.4688C74.5593 70.4698 74.6729 70.5458 74.8021 70.6594C74.9958 70.8292 75.1125 70.9854 75.1729 71.0729C75.1739 71.074 75.2406 71.174 75.3062 71.3135C75.325 71.3531 75.4729 71.6521 75.5 72.0552C75.5146 72.2771 75.4583 72.4792 75.4489 72.5146C75.3448 72.8896 75.1114 73.1542 74.9458 73.3115C74.9114 73.3427 74.7864 73.5188 74.5385 73.6156C72.6135 74.3656 71.0364 74.275 71.0375 74.2375C71.0427 74.1156 71.1198 74.0333 71.1323 74.0198C71.1885 73.9594 71.1916 73.9625 71.2656 73.926C71.5 73.8094 71.501 73.8104 71.7343 73.6917C71.85 73.6344 72.3354 73.3979 72.8239 73.0885C72.875 73.0563 73.226 72.8958 73.5218 72.7458ZM70.6916 70.0646L70.6937 70.0635H70.6916V70.0646ZM77.7093 73.949C78.2468 73.9031 78.5208 74.9667 77.9937 75.0563C77.8427 75.0813 77.8489 74.8604 77.7281 74.6292C77.6562 74.4906 77.3531 74.3396 77.4114 74.1302C77.4541 73.9802 77.5823 73.9604 77.7093 73.949ZM78.6687 65.3677C79.0843 65.3323 79.2948 66.1511 78.8885 66.2198C78.7729 66.2396 78.7771 66.0688 78.6843 65.8906C78.6291 65.7844 78.3948 65.6677 78.4396 65.5073C78.4729 65.3906 78.5718 65.3761 78.6687 65.3677Z" fill="#EAFEAA"/>
</svg>
