<svg xmlns="http://www.w3.org/2000/svg" xmlns:xlink="http://www.w3.org/1999/xlink" width="1080" zoomAndPan="magnify" viewBox="0 0 810 809.999993" height="1080" preserveAspectRatio="xMidYMid meet" version="1.0"><defs><clipPath id="b54ee86e8c"><path d="M 184 718 L 214 718 L 214 807.304688 L 184 807.304688 Z M 184 718 " clip-rule="nonzero"/></clipPath><clipPath id="0f69937222"><path d="M 596 718 L 625 718 L 625 807.304688 L 596 807.304688 Z M 596 718 " clip-rule="nonzero"/></clipPath><clipPath id="ca3d779a16"><path d="M 189 2.558594 L 621 2.558594 L 621 178 L 189 178 Z M 189 2.558594 " clip-rule="nonzero"/></clipPath><clipPath id="2b151067ec"><path d="M 147 177 L 662.933594 177 L 662.933594 240 L 147 240 Z M 147 177 " clip-rule="nonzero"/></clipPath></defs><path fill="#282828" d="M 189.1875 754.828125 L 610.945312 754.828125 L 610.945312 771.28125 L 189.1875 771.28125 Z M 189.1875 754.828125 " fill-opacity="1" fill-rule="nonzero"/><g clip-path="url(#b54ee86e8c)"><path fill="#000000" d="M 207.585938 718.785156 L 190.742188 718.785156 C 187.523438 718.785156 184.914062 725.382812 184.914062 733.492188 L 184.914062 792.585938 C 184.914062 800.695312 187.53125 807.289062 190.742188 807.289062 L 207.585938 807.289062 C 210.804688 807.289062 213.414062 800.695312 213.414062 792.585938 L 213.414062 733.507812 C 213.398438 725.398438 210.804688 718.785156 207.585938 718.785156 Z M 207.585938 718.785156 " fill-opacity="1" fill-rule="nonzero"/></g><g clip-path="url(#0f69937222)"><path fill="#000000" d="M 619.136719 718.785156 L 602.3125 718.785156 C 599.09375 718.785156 596.484375 725.382812 596.484375 733.492188 L 596.484375 792.585938 C 596.484375 800.695312 599.097656 807.289062 602.3125 807.289062 L 619.136719 807.289062 C 622.355469 807.289062 624.96875 800.695312 624.96875 792.585938 L 624.96875 733.507812 C 624.96875 725.398438 622.351562 718.785156 619.136719 718.785156 Z M 619.136719 718.785156 " fill-opacity="1" fill-rule="nonzero"/></g><path fill="#73b04d" d="M 620.695312 239.699219 L 612.003906 365.644531 L 583.773438 775.117188 C 583.71875 775.917969 583.625 776.714844 583.496094 777.507812 C 583.363281 778.300781 583.199219 779.085938 582.992188 779.863281 C 582.789062 780.640625 582.550781 781.40625 582.273438 782.160156 C 581.996094 782.914062 581.6875 783.65625 581.34375 784.382812 C 580.996094 785.105469 580.617188 785.8125 580.207031 786.503906 C 579.792969 787.195312 579.351562 787.863281 578.875 788.511719 C 578.402344 789.160156 577.898438 789.785156 577.363281 790.386719 C 576.832031 790.984375 576.269531 791.558594 575.683594 792.109375 C 575.097656 792.65625 574.484375 793.175781 573.847656 793.667969 C 573.210938 794.15625 572.554688 794.617188 571.875 795.046875 C 571.195312 795.476562 570.496094 795.871094 569.78125 796.234375 C 569.066406 796.597656 568.332031 796.925781 567.585938 797.222656 C 566.835938 797.515625 566.078125 797.777344 565.304688 798 C 564.535156 798.222656 563.753906 798.410156 562.964844 798.558594 C 562.175781 798.707031 561.378906 798.820312 560.582031 798.898438 C 559.78125 798.972656 558.980469 799.007812 558.175781 799.007812 L 251.742188 799.007812 C 250.9375 799.011719 250.136719 798.972656 249.335938 798.898438 C 248.539062 798.820312 247.742188 798.710938 246.953125 798.558594 C 246.164062 798.410156 245.382812 798.222656 244.613281 798 C 243.839844 797.777344 243.082031 797.519531 242.332031 797.222656 C 241.585938 796.929688 240.855469 796.597656 240.136719 796.234375 C 239.421875 795.871094 238.722656 795.476562 238.042969 795.046875 C 237.363281 794.617188 236.707031 794.160156 236.070312 793.667969 C 235.433594 793.175781 234.820312 792.65625 234.234375 792.109375 C 233.648438 791.5625 233.085938 790.988281 232.554688 790.386719 C 232.019531 789.785156 231.515625 789.160156 231.042969 788.511719 C 230.566406 787.863281 230.125 787.195312 229.710938 786.503906 C 229.300781 785.816406 228.921875 785.105469 228.574219 784.382812 C 228.230469 783.65625 227.921875 782.917969 227.644531 782.160156 C 227.367188 781.40625 227.128906 780.640625 226.925781 779.863281 C 226.722656 779.085938 226.554688 778.300781 226.421875 777.507812 C 226.292969 776.714844 226.199219 775.917969 226.144531 775.117188 L 191.816406 277.894531 L 189.1875 239.699219 Z M 620.695312 239.699219 " fill-opacity="1" fill-rule="nonzero"/><g clip-path="url(#ca3d779a16)"><path fill="#73b04d" d="M 603.605469 112.03125 L 580.585938 23.363281 C 580.203125 21.882812 579.699219 20.445312 579.078125 19.050781 C 578.457031 17.652344 577.726562 16.320312 576.882812 15.042969 C 576.042969 13.765625 575.101562 12.570312 574.0625 11.449219 C 573.023438 10.328125 571.898438 9.300781 570.691406 8.367188 C 569.484375 7.429688 568.207031 6.601562 566.859375 5.875 C 565.515625 5.152344 564.121094 4.542969 562.671875 4.050781 C 561.226562 3.554688 559.75 3.183594 558.242188 2.933594 C 556.734375 2.683594 555.21875 2.558594 553.691406 2.558594 L 256.199219 2.558594 C 254.671875 2.554688 253.15625 2.679688 251.648438 2.929688 C 250.140625 3.179688 248.664062 3.550781 247.21875 4.046875 C 245.769531 4.539062 244.375 5.148438 243.03125 5.875 C 241.683594 6.597656 240.40625 7.425781 239.199219 8.363281 C 237.992188 9.296875 236.867188 10.324219 235.828125 11.445312 C 234.789062 12.566406 233.851562 13.765625 233.007812 15.039062 C 232.167969 16.316406 231.4375 17.652344 230.816406 19.050781 C 230.195312 20.445312 229.695312 21.882812 229.3125 23.363281 L 189.1875 177.90625 L 620.695312 177.90625 Z M 603.605469 112.03125 " fill-opacity="1" fill-rule="nonzero"/></g><g clip-path="url(#2b151067ec)"><path fill="#73b04d" d="M 647.875 177.90625 L 162.019531 177.90625 C 161.042969 177.90625 160.070312 178 159.109375 178.191406 C 158.148438 178.382812 157.214844 178.664062 156.308594 179.039062 C 155.402344 179.414062 154.542969 179.871094 153.726562 180.414062 C 152.910156 180.960938 152.15625 181.578125 151.464844 182.269531 C 150.769531 182.964844 150.152344 183.71875 149.605469 184.53125 C 149.0625 185.347656 148.601562 186.207031 148.226562 187.113281 C 147.851562 188.015625 147.570312 188.949219 147.378906 189.910156 C 147.1875 190.871094 147.089844 191.84375 147.089844 192.824219 L 147.089844 224.78125 C 147.089844 225.761719 147.1875 226.730469 147.378906 227.691406 C 147.570312 228.652344 147.851562 229.585938 148.226562 230.492188 C 148.601562 231.398438 149.0625 232.257812 149.605469 233.074219 C 150.152344 233.886719 150.769531 234.640625 151.464844 235.332031 C 152.15625 236.027344 152.910156 236.644531 153.726562 237.1875 C 154.542969 237.730469 155.402344 238.191406 156.308594 238.566406 C 157.214844 238.941406 158.148438 239.222656 159.109375 239.414062 C 160.070312 239.601562 161.042969 239.699219 162.019531 239.695312 L 647.875 239.695312 C 648.851562 239.695312 649.824219 239.601562 650.785156 239.410156 C 651.746094 239.21875 652.679688 238.9375 653.582031 238.5625 C 654.488281 238.1875 655.347656 237.730469 656.164062 237.183594 C 656.976562 236.640625 657.730469 236.023438 658.421875 235.332031 C 659.117188 234.636719 659.734375 233.882812 660.277344 233.070312 C 660.824219 232.253906 661.28125 231.394531 661.65625 230.488281 C 662.03125 229.585938 662.316406 228.652344 662.507812 227.691406 C 662.695312 226.730469 662.792969 225.761719 662.792969 224.78125 L 662.792969 192.824219 C 662.792969 191.84375 662.695312 190.875 662.507812 189.914062 C 662.316406 188.953125 662.03125 188.019531 661.65625 187.113281 C 661.28125 186.207031 660.824219 185.347656 660.277344 184.535156 C 659.734375 183.71875 659.117188 182.964844 658.421875 182.273438 C 657.730469 181.582031 656.976562 180.964844 656.164062 180.417969 C 655.347656 179.875 654.488281 179.414062 653.582031 179.039062 C 652.679688 178.667969 651.746094 178.382812 650.785156 178.191406 C 649.824219 178.003906 648.851562 177.90625 647.875 177.90625 Z M 647.875 177.90625 " fill-opacity="1" fill-rule="nonzero"/></g><path fill="#ffffff" d="M 406.417969 393.605469 L 423.011719 422.101562 L 394.269531 437.066406 L 460.65625 432.914062 L 487.53125 382.902344 L 467.546875 394.269531 L 454.734375 374.035156 C 453.925781 372.746094 452.96875 371.582031 451.863281 370.539062 C 450.757812 369.496094 449.539062 368.609375 448.207031 367.878906 C 446.875 367.144531 445.472656 366.589844 444 366.214844 C 442.53125 365.835938 441.035156 365.652344 439.515625 365.65625 L 372.164062 365.65625 C 370.601562 365.660156 369.070312 365.863281 367.5625 366.261719 C 366.054688 366.664062 364.625 367.25 363.269531 368.019531 C 361.914062 368.789062 360.675781 369.71875 359.5625 370.808594 C 358.445312 371.898438 357.488281 373.113281 356.683594 374.453125 L 331.054688 417.507812 L 378.007812 443.660156 Z M 406.417969 393.605469 " fill-opacity="1" fill-rule="nonzero"/><path fill="#ffffff" d="M 511.871094 469.359375 L 486.40625 426.222656 L 440.941406 454.855469 L 471.214844 503.804688 L 438.253906 504.683594 L 438.921875 472.285156 L 410.695312 532.484375 L 441.675781 580.066406 L 441.300781 557.078125 L 465.195312 555.546875 C 466.710938 555.457031 468.195312 555.175781 469.640625 554.707031 C 471.085938 554.238281 472.449219 553.59375 473.730469 552.777344 C 475.011719 551.960938 476.171875 551 477.207031 549.886719 C 478.246094 548.777344 479.125 547.554688 479.851562 546.21875 L 512.15625 487.160156 C 512.902344 485.789062 513.460938 484.347656 513.832031 482.832031 C 514.203125 481.320312 514.378906 479.78125 514.351562 478.222656 C 514.328125 476.664062 514.105469 475.132812 513.683594 473.632812 C 513.261719 472.128906 512.660156 470.707031 511.871094 469.359375 Z M 511.871094 469.359375 " fill-opacity="1" fill-rule="nonzero"/><path fill="#ffffff" d="M 341.566406 502.097656 L 358.351562 473.714844 L 385.429688 491.519531 L 349.453125 435.589844 L 292.691406 436.507812 L 312.355469 448.417969 L 300.929688 469.464844 C 300.199219 470.796875 299.652344 472.203125 299.277344 473.675781 C 298.90625 475.148438 298.726562 476.644531 298.734375 478.164062 C 298.746094 479.683594 298.945312 481.179688 299.332031 482.648438 C 299.722656 484.117188 300.289062 485.515625 301.035156 486.839844 L 333.855469 545.628906 C 334.621094 546.992188 335.542969 548.230469 336.628906 549.351562 C 337.714844 550.472656 338.921875 551.4375 340.257812 552.246094 C 341.589844 553.054688 343.007812 553.679688 344.503906 554.125 C 345.996094 554.566406 347.523438 554.8125 349.085938 554.859375 L 399.148438 556.257812 L 399.101562 502.5 Z M 341.566406 502.097656 " fill-opacity="1" fill-rule="nonzero"/><path fill="#547f39" d="M 563.484375 117.957031 L 547.042969 54.621094 C 546.828125 53.785156 546.542969 52.976562 546.191406 52.1875 C 545.839844 51.398438 545.429688 50.644531 544.953125 49.925781 C 544.480469 49.207031 543.949219 48.53125 543.363281 47.898438 C 542.777344 47.269531 542.140625 46.6875 541.460938 46.160156 C 540.777344 45.632812 540.058594 45.164062 539.300781 44.753906 C 538.539062 44.347656 537.753906 44.003906 536.9375 43.722656 C 536.121094 43.445312 535.289062 43.234375 534.4375 43.09375 C 533.589844 42.949219 532.734375 42.878906 531.871094 42.878906 L 278.019531 42.878906 C 277.15625 42.878906 276.300781 42.949219 275.449219 43.09375 C 274.601562 43.234375 273.765625 43.445312 272.953125 43.722656 C 272.136719 44 271.347656 44.347656 270.589844 44.753906 C 269.832031 45.164062 269.109375 45.632812 268.429688 46.160156 C 267.746094 46.6875 267.113281 47.265625 266.527344 47.898438 C 265.9375 48.53125 265.410156 49.207031 264.933594 49.925781 C 264.457031 50.644531 264.046875 51.398438 263.695312 52.1875 C 263.34375 52.972656 263.058594 53.785156 262.84375 54.621094 L 246.402344 117.957031 C 246.253906 118.535156 246.136719 119.121094 246.054688 119.710938 C 245.972656 120.300781 245.925781 120.894531 245.910156 121.492188 C 245.894531 122.089844 245.914062 122.683594 245.964844 123.277344 C 246.019531 123.871094 246.105469 124.460938 246.226562 125.046875 C 246.347656 125.628906 246.5 126.207031 246.683594 126.773438 C 246.871094 127.339844 247.089844 127.894531 247.335938 128.4375 C 247.585938 128.980469 247.867188 129.503906 248.175781 130.015625 C 248.484375 130.527344 248.820312 131.015625 249.1875 131.488281 C 249.550781 131.960938 249.941406 132.410156 250.359375 132.835938 C 250.773438 133.265625 251.214844 133.667969 251.675781 134.042969 C 252.136719 134.421875 252.621094 134.769531 253.121094 135.09375 C 253.625 135.414062 254.144531 135.707031 254.679688 135.972656 C 255.214844 136.234375 255.761719 136.464844 256.324219 136.664062 C 256.886719 136.867188 257.457031 137.035156 258.039062 137.167969 C 258.621094 137.304688 259.207031 137.40625 259.800781 137.472656 C 260.394531 137.542969 260.988281 137.578125 261.582031 137.578125 L 548.300781 137.578125 C 548.898438 137.578125 549.492188 137.542969 550.085938 137.472656 C 550.679688 137.40625 551.265625 137.304688 551.847656 137.167969 C 552.429688 137.035156 553 136.867188 553.5625 136.664062 C 554.125 136.464844 554.671875 136.234375 555.207031 135.972656 C 555.742188 135.707031 556.261719 135.414062 556.765625 135.09375 C 557.265625 134.769531 557.75 134.421875 558.210938 134.042969 C 558.671875 133.667969 559.113281 133.265625 559.527344 132.835938 C 559.945312 132.410156 560.335938 131.960938 560.699219 131.488281 C 561.066406 131.015625 561.402344 130.527344 561.710938 130.015625 C 562.019531 129.503906 562.300781 128.980469 562.550781 128.4375 C 562.796875 127.894531 563.015625 127.339844 563.203125 126.773438 C 563.386719 126.207031 563.539062 125.628906 563.660156 125.046875 C 563.78125 124.460938 563.867188 123.871094 563.921875 123.277344 C 563.972656 122.683594 563.992188 122.089844 563.976562 121.492188 C 563.960938 120.894531 563.914062 120.300781 563.832031 119.710938 C 563.75 119.121094 563.632812 118.535156 563.484375 117.957031 Z M 563.484375 117.957031 " fill-opacity="1" fill-rule="nonzero"/><path fill="#000000" d="M 620.695312 239.699219 L 618.457031 272.132812 L 191.425781 272.132812 L 189.1875 239.699219 Z M 620.695312 239.699219 " fill-opacity="0.05" fill-rule="nonzero"/><path fill="#5a8f3f" d="M 523.324219 239.699219 L 529.824219 272.132812 L 531.03125 278.222656 L 531.074219 278.4375 L 537.847656 312.238281 C 538.867188 317.335938 546.160156 317.335938 547.179688 312.238281 L 552.242188 287.035156 L 552.46875 285.945312 L 555.230469 272.140625 L 561.71875 239.707031 Z M 523.324219 239.699219 " fill-opacity="1" fill-rule="nonzero"/><path fill="#5a8f3f" d="M 288.859375 239.699219 L 282.375 272.148438 L 274.253906 312.695312 C 274.183594 313.09375 274.074219 313.484375 273.933594 313.863281 C 273.792969 314.242188 273.621094 314.609375 273.414062 314.957031 C 273.210938 315.308594 272.976562 315.636719 272.710938 315.945312 C 272.449219 316.253906 272.160156 316.535156 271.847656 316.792969 C 271.535156 317.050781 271.199219 317.277344 270.847656 317.476562 C 270.492188 317.671875 270.125 317.839844 269.742188 317.972656 C 269.359375 318.105469 268.964844 318.203125 268.566406 318.265625 C 268.164062 318.328125 267.761719 318.355469 267.359375 318.347656 C 266.953125 318.355469 266.550781 318.328125 266.148438 318.261719 C 265.75 318.199219 265.359375 318.101562 264.976562 317.96875 C 264.59375 317.835938 264.226562 317.667969 263.871094 317.472656 C 263.519531 317.273438 263.183594 317.046875 262.871094 316.789062 C 262.558594 316.53125 262.269531 316.25 262.007812 315.941406 C 261.742188 315.632812 261.507812 315.304688 261.304688 314.957031 C 261.097656 314.605469 260.925781 314.242188 260.785156 313.863281 C 260.644531 313.484375 260.539062 313.09375 260.464844 312.695312 L 252.34375 272.148438 L 245.847656 239.714844 Z M 288.859375 239.699219 " fill-opacity="1" fill-rule="nonzero"/><path fill="#5a8f3f" d="M 191.425781 272.132812 L 153.992188 238.945312 L 650.210938 238.945312 L 618.457031 272.132812 " fill-opacity="1" fill-rule="nonzero"/><path fill="#5a8f3f" d="M 189.1875 177.90625 L 191.683594 168.273438 L 618.445312 169.242188 L 620.695312 177.90625 Z M 189.1875 177.90625 " fill-opacity="1" fill-rule="nonzero"/></svg>