<svg xmlns="http://www.w3.org/2000/svg" xmlns:xlink="http://www.w3.org/1999/xlink" width="1080" zoomAndPan="magnify" viewBox="0 0 810 809.999993" height="1080" preserveAspectRatio="xMidYMid meet" version="1.0"><defs><clipPath id="f05a93e9e9"><path d="M 158 218 L 655 218 L 655 802.34375 L 158 802.34375 Z M 158 218 " clip-rule="nonzero"/></clipPath><clipPath id="53cb541558"><path d="M 144.535156 187 L 665.785156 187 L 665.785156 223 L 144.535156 223 Z M 144.535156 187 " clip-rule="nonzero"/></clipPath><clipPath id="8c328c8eec"><path d="M 302 7.34375 L 529 7.34375 L 529 166 L 302 166 Z M 302 7.34375 " clip-rule="nonzero"/></clipPath></defs><g clip-path="url(#f05a93e9e9)"><path fill="#ff000a" d="M 158.015625 218 L 211.203125 782.832031 C 213.257812 792.582031 230.386719 802.648438 242.195312 802.433594 C 353.148438 802.28125 457.5625 801.980469 567.160156 801.742188 C 574.390625 801.472656 592.167969 793.101562 595.640625 781.828125 L 654.507812 218 Z M 158.015625 218 " fill-opacity="1" fill-rule="evenodd"/></g><path fill="#ff000a" d="M 628.410156 210.773438 L 182.304688 210.773438 C 176.523438 210.773438 171.132812 207.890625 167.929688 203.082031 C 164.726562 198.28125 164.144531 192.191406 166.375 186.867188 L 236.082031 20.425781 C 238.765625 14.011719 245.042969 9.835938 252.007812 9.835938 L 565.675781 9.835938 C 572.867188 9.835938 579.300781 14.285156 581.835938 21.007812 L 644.570312 187.445312 C 646.566406 192.746094 645.832031 198.683594 642.605469 203.34375 C 639.382812 208 634.078125 210.773438 628.410156 210.773438 Z M 628.410156 210.773438 " fill-opacity="1" fill-rule="evenodd"/><path fill="#ffffff" d="M 384.367188 460.941406 L 328.265625 433.492188 C 329.328125 432.894531 337.128906 420.382812 346.179688 408.265625 C 352.71875 399.511719 364.015625 395.367188 375.257812 394.738281 C 387.46875 394.058594 400.464844 398.308594 412.832031 417.945312 Z M 384.367188 460.941406 " fill-opacity="1" fill-rule="evenodd"/><path fill="#ffffff" d="M 459.628906 490.09375 L 517.128906 464.476562 C 517.300781 465.492188 527.714844 476.785156 537.085938 488.75 C 543.859375 497.394531 543.183594 507.136719 538.570312 515.167969 C 533.554688 523.894531 522.609375 530.828125 494.621094 530.042969 Z M 459.628906 490.09375 " fill-opacity="1" fill-rule="evenodd"/><path fill="#ffffff" d="M 390.203125 528.09375 L 386.378906 579.726562 C 385.199219 579.285156 367.40625 579.957031 349.460938 579.585938 C 336.492188 579.3125 326.40625 573.566406 320.296875 566.167969 C 313.660156 558.128906 312.183594 547.179688 328.269531 529.265625 Z M 390.203125 528.09375 " fill-opacity="1" fill-rule="evenodd"/><path fill="#ffffff" d="M 437.394531 450.886719 L 417.230469 459.707031 L 484.0625 460.050781 C 494.164062 446.152344 504.351562 431.78125 513.863281 416.726562 L 497.03125 424.660156 C 496.039062 423.566406 493.496094 417.527344 485.59375 408.523438 C 480.585938 402.824219 475.265625 395.136719 459.414062 394.8125 C 443.089844 394.476562 419.617188 392.992188 390.203125 394.644531 C 396.25 397.582031 402.484375 400.863281 406.871094 405.203125 C 413.171875 411.433594 416.933594 419.269531 421.625 426.546875 C 426.964844 434.828125 433.515625 442.496094 437.394531 450.886719 Z M 437.394531 450.886719 " fill-opacity="1" fill-rule="evenodd"/><path fill="#ffffff" d="M 445.859375 531.351562 L 445.457031 513.296875 L 413.429688 559.132812 C 424.316406 572.664062 435.695312 586.480469 448.164062 600.15625 L 447.1875 584.816406 C 448.890625 584.648438 456.90625 585.757812 470.792969 584.582031 C 479.589844 583.835938 490.773438 583.8125 498.644531 573.054688 C 506.75 561.976562 519.535156 546.527344 531.597656 525.5 C 525.425781 528.269531 518.773438 531.007812 511.804688 531.972656 C 501.800781 533.359375 491.183594 532.238281 480.761719 532.019531 C 468.894531 531.777344 457.152344 532.65625 445.859375 531.351562 Z M 445.859375 531.351562 " fill-opacity="1" fill-rule="evenodd"/><path fill="#ffffff" d="M 353.417969 496.597656 L 373.015625 506.167969 L 341.261719 460.21875 C 320.8125 459.980469 299.785156 459.914062 278.316406 460.636719 L 295.3125 468.351562 C 294.5625 469.558594 289.007812 474.207031 282.707031 483.945312 C 278.71875 490.117188 272.652344 497.460938 279.910156 508.476562 C 287.382812 519.824219 297.003906 536.617188 313.003906 555.972656 C 313.394531 550.417969 314.078125 544.570312 316.835938 539.476562 C 320.796875 532.167969 327.78125 525.816406 333.695312 519.105469 C 340.417969 511.464844 345.871094 503.289062 353.417969 496.597656 Z M 353.417969 496.597656 " fill-opacity="1" fill-rule="evenodd"/><path fill="#ffffff" d="M 384.367188 460.941406 L 328.265625 433.492188 C 329.328125 432.894531 337.128906 420.382812 346.179688 408.265625 C 352.71875 399.511719 364.015625 395.367188 375.257812 394.738281 C 387.46875 394.058594 400.464844 398.308594 412.832031 417.945312 Z M 384.367188 460.941406 " fill-opacity="1" fill-rule="evenodd"/><path fill="#ffffff" d="M 459.628906 490.09375 L 517.128906 464.476562 C 517.300781 465.492188 527.714844 476.785156 537.085938 488.75 C 543.859375 497.394531 543.183594 507.136719 538.570312 515.167969 C 533.554688 523.894531 522.609375 530.828125 494.621094 530.042969 Z M 459.628906 490.09375 " fill-opacity="1" fill-rule="evenodd"/><path fill="#ffffff" d="M 390.203125 528.09375 L 386.378906 579.726562 C 385.199219 579.285156 367.40625 579.957031 349.460938 579.585938 C 336.492188 579.3125 326.40625 573.566406 320.296875 566.167969 C 313.660156 558.128906 312.183594 547.179688 328.269531 529.265625 Z M 390.203125 528.09375 " fill-opacity="1" fill-rule="evenodd"/><path fill="#ffffff" d="M 437.394531 450.886719 L 417.230469 459.707031 L 484.0625 460.050781 C 494.164062 446.152344 504.351562 431.78125 513.863281 416.726562 L 497.03125 424.660156 C 496.039062 423.566406 493.496094 417.527344 485.59375 408.523438 C 480.585938 402.824219 475.265625 395.136719 459.414062 394.8125 C 443.089844 394.476562 419.617188 392.992188 390.203125 394.644531 C 396.25 397.582031 402.484375 400.863281 406.871094 405.203125 C 413.171875 411.433594 416.933594 419.269531 421.625 426.546875 C 426.964844 434.828125 433.515625 442.496094 437.394531 450.886719 Z M 437.394531 450.886719 " fill-opacity="1" fill-rule="evenodd"/><path fill="#ffffff" d="M 445.859375 531.351562 L 445.457031 513.296875 L 413.429688 559.132812 C 424.316406 572.664062 435.695312 586.480469 448.164062 600.15625 L 447.1875 584.816406 C 448.890625 584.648438 456.90625 585.757812 470.792969 584.582031 C 479.589844 583.835938 490.773438 583.8125 498.644531 573.054688 C 506.75 561.976562 519.535156 546.527344 531.597656 525.5 C 525.425781 528.269531 518.773438 531.007812 511.804688 531.972656 C 501.800781 533.359375 491.183594 532.238281 480.761719 532.019531 C 468.894531 531.777344 457.152344 532.65625 445.859375 531.351562 Z M 445.859375 531.351562 " fill-opacity="1" fill-rule="evenodd"/><path fill="#ffffff" d="M 353.417969 496.597656 L 373.015625 506.167969 L 341.261719 460.21875 C 320.8125 459.980469 299.785156 459.914062 278.316406 460.636719 L 295.3125 468.351562 C 294.5625 469.558594 289.007812 474.207031 282.707031 483.945312 C 278.71875 490.117188 272.652344 497.460938 279.910156 508.476562 C 287.382812 519.824219 297.003906 536.617188 313.003906 555.972656 C 313.394531 550.417969 314.078125 544.570312 316.835938 539.476562 C 320.796875 532.167969 327.78125 525.816406 333.695312 519.105469 C 340.417969 511.464844 345.871094 503.289062 353.417969 496.597656 Z M 353.417969 496.597656 " fill-opacity="1" fill-rule="evenodd"/><g clip-path="url(#53cb541558)"><path fill="#ae1116" d="M 144.554688 187.886719 L 665.464844 187.886719 L 654.070312 222.726562 L 157.578125 222.726562 Z M 144.554688 187.886719 " fill-opacity="1" fill-rule="evenodd"/></g><g clip-path="url(#8c328c8eec)"><path fill="#ae1116" d="M 302.957031 7.398438 L 528.609375 7.398438 L 528.609375 165.640625 L 302.957031 165.640625 Z M 302.957031 7.398438 " fill-opacity="1" fill-rule="evenodd"/></g><path fill="#ffffff" d="M 414.140625 97.003906 L 431.40625 78.75 L 396.878906 78.75 Z M 414.140625 97.003906 " fill-opacity="1" fill-rule="evenodd"/></svg>