<svg width="232" height="38" viewBox="0 0 232 38" fill="none" xmlns="http://www.w3.org/2000/svg">
<rect x="16.1635" y="1" width="200.431" height="35.9085" rx="17.9542" fill="#14BDDC" stroke="#27B4CE" stroke-width="2"/>
<path d="M85.6484 23L82.3604 13.1357H84.6777L86.8584 20.7031H86.9814L89.1553 13.1357H91.4795L88.1914 23H85.6484ZM92.9834 23V15.4736H94.9795V23H92.9834ZM93.9883 14.3184C93.6829 14.3184 93.4186 14.2113 93.1953 13.9971C92.972 13.7783 92.8604 13.5163 92.8604 13.2109C92.8604 12.901 92.972 12.639 93.1953 12.4248C93.4186 12.2061 93.6829 12.0967 93.9883 12.0967C94.2982 12.0967 94.5625 12.2061 94.7812 12.4248C95 12.639 95.1094 12.901 95.1094 13.2109C95.1094 13.5163 95 13.7783 94.7812 13.9971C94.5625 14.2113 94.2982 14.3184 93.9883 14.3184ZM100.298 23.1572C99.5368 23.1572 98.8805 23 98.3291 22.6855C97.7822 22.3665 97.3607 21.9154 97.0645 21.332C96.7682 20.7487 96.6201 20.0537 96.6201 19.2471V19.2402C96.6201 18.4427 96.766 17.75 97.0576 17.1621C97.3538 16.5742 97.7708 16.1185 98.3086 15.7949C98.8509 15.4714 99.4867 15.3096 100.216 15.3096C100.95 15.3096 101.583 15.4668 102.116 15.7812C102.649 16.0957 103.06 16.5355 103.347 17.1006C103.634 17.6657 103.777 18.3288 103.777 19.0898V19.7119H97.6182V18.4609H102.82L101.884 19.6436V18.8438C101.884 18.3926 101.813 18.0166 101.672 17.7158C101.535 17.415 101.344 17.1895 101.098 17.0391C100.856 16.8841 100.574 16.8066 100.25 16.8066C99.931 16.8066 99.6462 16.8864 99.3955 17.0459C99.1494 17.2008 98.9535 17.431 98.8076 17.7363C98.6663 18.0371 98.5957 18.4062 98.5957 18.8438V19.6504C98.5957 20.0742 98.6663 20.4365 98.8076 20.7373C98.9489 21.0381 99.1494 21.2682 99.4092 21.4277C99.6689 21.5872 99.9788 21.667 100.339 21.667C100.631 21.667 100.879 21.6237 101.084 21.5371C101.289 21.4505 101.453 21.3503 101.576 21.2363C101.704 21.1178 101.79 21.0107 101.836 20.915L101.856 20.874H103.716L103.702 20.9424C103.643 21.1794 103.536 21.4277 103.381 21.6875C103.226 21.9427 103.012 22.182 102.738 22.4053C102.469 22.6286 102.132 22.8109 101.727 22.9521C101.326 23.0889 100.849 23.1572 100.298 23.1572ZM106.703 23L104.693 15.4736H106.71L107.831 20.9219H107.954L109.273 15.4736H111.174L112.5 20.9219H112.623L113.744 15.4736H115.72L113.717 23H111.598L110.251 17.75H110.128L108.795 23H106.703ZM120.751 23V15.4736H122.747V16.6494H122.87C123.03 16.2256 123.294 15.8975 123.663 15.665C124.032 15.4281 124.463 15.3096 124.955 15.3096C125.297 15.3096 125.607 15.3665 125.885 15.4805C126.163 15.5898 126.4 15.7471 126.596 15.9521C126.792 16.1572 126.942 16.4056 127.047 16.6973H127.17C127.284 16.4193 127.452 16.1777 127.676 15.9727C127.899 15.763 128.161 15.6012 128.462 15.4873C128.763 15.3688 129.089 15.3096 129.439 15.3096C129.941 15.3096 130.371 15.4121 130.731 15.6172C131.096 15.8223 131.376 16.1139 131.572 16.4922C131.773 16.8659 131.873 17.3125 131.873 17.832V23H129.877V18.3311C129.877 18.0257 129.831 17.7728 129.74 17.5723C129.649 17.3717 129.51 17.2214 129.323 17.1211C129.141 17.0163 128.911 16.9639 128.633 16.9639C128.364 16.9639 128.129 17.0254 127.929 17.1484C127.733 17.2715 127.58 17.4378 127.471 17.6475C127.361 17.8571 127.307 18.0986 127.307 18.3721V23H125.311V18.2422C125.311 17.9733 125.26 17.7432 125.16 17.5518C125.064 17.3604 124.923 17.2145 124.736 17.1143C124.554 17.014 124.333 16.9639 124.073 16.9639C123.813 16.9639 123.583 17.0299 123.383 17.1621C123.187 17.2897 123.032 17.4674 122.918 17.6953C122.804 17.9186 122.747 18.1738 122.747 18.4609V23H120.751ZM135.858 23.1162C135.384 23.1162 134.961 23.0251 134.587 22.8428C134.218 22.6559 133.928 22.3939 133.719 22.0566C133.509 21.7148 133.404 21.3161 133.404 20.8604V20.8467C133.404 20.3955 133.516 20.0081 133.739 19.6846C133.967 19.361 134.298 19.1081 134.73 18.9258C135.168 18.7389 135.699 18.6273 136.323 18.5908L139.126 18.4199V19.6367L136.624 19.8008C136.196 19.8236 135.877 19.9147 135.667 20.0742C135.457 20.2337 135.353 20.4502 135.353 20.7236V20.7373C135.353 21.0244 135.462 21.25 135.681 21.4141C135.899 21.5781 136.182 21.6602 136.528 21.6602C136.838 21.6602 137.114 21.5986 137.355 21.4756C137.597 21.3525 137.788 21.1862 137.93 20.9766C138.071 20.7624 138.142 20.5231 138.142 20.2588V17.8594C138.142 17.5312 138.032 17.2806 137.813 17.1074C137.599 16.9297 137.287 16.8408 136.877 16.8408C136.517 16.8408 136.223 16.9023 135.995 17.0254C135.772 17.1439 135.621 17.3148 135.544 17.5381L135.53 17.5654H133.685L133.691 17.5039C133.746 17.0618 133.912 16.6768 134.19 16.3486C134.473 16.0205 134.851 15.7653 135.325 15.583C135.804 15.4007 136.357 15.3096 136.986 15.3096C137.652 15.3096 138.217 15.4121 138.682 15.6172C139.146 15.8177 139.5 16.1094 139.741 16.4922C139.987 16.8704 140.11 17.3262 140.11 17.8594V23H138.142V22.002H138.019C137.891 22.2344 137.72 22.4349 137.506 22.6035C137.296 22.7676 137.05 22.8952 136.768 22.9863C136.49 23.0729 136.187 23.1162 135.858 23.1162ZM142.065 25.4951V15.4736H144.062V16.6357H144.185C144.317 16.3669 144.49 16.1367 144.704 15.9453C144.923 15.7539 145.178 15.6081 145.47 15.5078C145.761 15.403 146.085 15.3506 146.44 15.3506C147.069 15.3506 147.612 15.5078 148.067 15.8223C148.523 16.1367 148.874 16.5833 149.12 17.1621C149.371 17.7363 149.496 18.4245 149.496 19.2266V19.2402C149.496 20.0469 149.373 20.7396 149.127 21.3184C148.881 21.8971 148.53 22.3415 148.074 22.6514C147.618 22.9613 147.074 23.1162 146.44 23.1162C146.094 23.1162 145.773 23.0638 145.477 22.959C145.185 22.8496 144.927 22.6969 144.704 22.501C144.485 22.305 144.312 22.0703 144.185 21.7969H144.062V25.4951H142.065ZM145.757 21.4619C146.112 21.4619 146.415 21.373 146.666 21.1953C146.921 21.0176 147.117 20.7624 147.254 20.4297C147.395 20.097 147.466 19.7005 147.466 19.2402V19.2266C147.466 18.7663 147.395 18.3698 147.254 18.0371C147.117 17.7044 146.921 17.4492 146.666 17.2715C146.415 17.0938 146.112 17.0049 145.757 17.0049C145.406 17.0049 145.101 17.0938 144.841 17.2715C144.586 17.4492 144.387 17.7044 144.246 18.0371C144.109 18.3652 144.041 18.7617 144.041 19.2266V19.2402C144.041 19.696 144.112 20.0924 144.253 20.4297C144.394 20.7624 144.592 21.0176 144.848 21.1953C145.107 21.373 145.41 21.4619 145.757 21.4619Z" fill="white"/>
</svg>
